/* XPM */
static char *result[] = {
/* columns rows colors chars-per-pixel */
"50 50 113 2 ",
"   c #635F65",
".  c #645F65",
"X  c #645F66",
"o  c #636065",
"O  c #636066",
"+  c #646065",
"@  c #646066",
"#  c #656167",
"$  c #666268",
"%  c #676268",
"&  c #676369",
"*  c #67636A",
"=  c #68646A",
"-  c #69656B",
";  c #69656C",
":  c #6B676D",
">  c #6B676E",
",  c #6C686E",
"<  c #6E6A70",
"1  c #6E6A71",
"2  c #6F6B71",
"3  c #706C72",
"4  c #706C73",
"5  c #716D74",
"6  c #726E74",
"7  c #726E75",
"8  c #736E75",
"9  c #736F75",
"0  c #736F76",
"q  c #747076",
"w  c #757177",
"e  c #757278",
"r  c #767279",
"t  c #777379",
"y  c #78737A",
"u  c #78747A",
"i  c #78747B",
"p  c #79747B",
"a  c #79757B",
"s  c #79757C",
"d  c #7A777D",
"f  c #7B777D",
"g  c #7D777F",
"h  c #7C787E",
"j  c #F67521",
"k  c #F77521",
"l  c #F77621",
"z  c #F77522",
"x  c #F77622",
"c  c #F87521",
"v  c #F87621",
"b  c #F77923",
"n  c #F78429",
"m  c #F8842A",
"M  c #F99131",
"N  c #F89230",
"B  c #F9A039",
"V  c #FAA83D",
"C  c #FAA83E",
"Z  c #FBC84F",
"A  c #FCCA51",
"S  c #FDDF5D",
"D  c #FEDF5C",
"F  c #FDE25E",
"G  c #FDE660",
"H  c #FDE661",
"J  c #FEE660",
"K  c #FEE760",
"L  c #7D7980",
"P  c #7F7980",
"I  c #7F7A80",
"U  c #7F7B81",
"Y  c #7F7B82",
"T  c #807C82",
"R  c #807C83",
"E  c #817D84",
"W  c #827E85",
"Q  c #837E86",
"!  c #837F86",
"~  c #847D86",
"^  c #847D87",
"/  c #847F86",
"(  c #847E87",
")  c #848087",
"_  c #858188",
"`  c #868189",
"'  c #868289",
"]  c #868389",
"[  c #878389",
"{  c #87828A",
"}  c #88828A",
"|  c #89838B",
" . c #89858C",
".. c #8A868D",
"X. c #8B878E",
"o. c #8C878F",
"O. c #8C888F",
"+. c #8D8890",
"@. c #8D8990",
"#. c #8E8A91",
"$. c #8F8A91",
"%. c #8F8B92",
"&. c #8F8B93",
"*. c #908C93",
"=. c #908C94",
"-. c #918D94",
";. c #918D95",
":. c #928D95",
">. c #918E94",
",. c #918E95",
"<. c #928E94",
"1. c #928E95",
"2. c None",
/* pixels */
"2.2.2.2.2.2.2.2.2.2.2.2.2.2.2.2.2.2.2.2.2.2.2.2.2.2.2.2.2.2.2.2.2.2.2.2.2.2.2.2.2.2.2.2.2.2.2.2.2.2.",
"2.2.2.2.2.2.2.2.2.2.2.2.2.2.2.2.2.2.2.2.2.2.2.2.2.2.2.2.2.2.2.2.2.2.2.2.2.2.2.2.2.2.2.2.2.2.2.2.2.2.",
"2.2.2.2.2.2.2.2.2.2.2.2.2.2.2.2.2.2.2.2.2.2.2.2.2.2.2.2.2.2.2.2.2.2.2.2.2.2.2.2.2.2.2.2.2.2.2.2.2.2.",
"2.2.2.2.2.2.2.2.2.2.2.2.2.2.2.2.2.2.2.2.2.2.2.2.2.2.2.2.2.2.2.2.2.2.2.2.2.2.2.2.2.2.2.2.2.2.2.2.2.2.",
"2.2.2.2.2.2.2.2.2.2.2.2.2.2.2.2.2.2.2.2.2.2.2.2.2.2.2.2.2.2.2.2.2.2.2.2.2.2.2.2.2.2.2.2.2.2.2.2.2.2.",
"2.2.2.2.2.2.z k 2.2.2.2.2.2.2.2.2.2.2.2.2.2.2.2.2.2.2.2.2.2.2.2.2.2.2.2.2.2.2.2.2.2.2.2.j 2.2.2.2.2.",
"2.2.2.2.2.2.2.2.k 2.2.2.2.2.2.2.2.2.2.2.2.2.2.2.2.z 2.2.2.2.2.2.2.2.2.2.2.2.2.2.2.2.2.c 2.2.2.2.2.2.",
"2.2.2.2.2.2.2.2.j 2.2.2.2.2.2.2.2.2.2.2.2.2.2.2.2.M N 2.2.2.2.2.2.2.2.2.2.2.2.2.2.2.m k 2.2.2.2.2.2.",
"2.2.2.2.2.2.2.2.2.F J 2.2.2.2.2.2.2.2.2.2.2.2.2.2.D S 2.2.2.2.2.2.2.2.2.2.2.2.2.2.J 2.2.2.2.2.2.2.2.",
"2.2.2.2.2.2.2.2.2.2.2.2.2.2.2.2.2.2.2.2.2.2.2.2.2.2.2.2.2.2.2.2.2.2.2.2.2.2.2.2.2.2.2.2.2.2.2.2.2.2.",
"2.2.2.2.2.2.2.2.2.2.2.2.2.2.2.2.2.2.2.2.2.2.2.2.2.2.2.2.2.2.2.2.2.2.2.2.2.2.2.2.2.2.2.2.2.2.2.2.2.2.",
"2.2.2.2.2.2.2.2.2.2.2.2.2.2.2.2.2.2.2.2.2.2.2.2.2.2.2.2.2.2.+ + + + + @ 2.2.2.2.2.2.2.2.2.2.2.2.2.2.",
"2.2.2.2.2.2.2.2.2.2.2.2.2.2.2.2.2.2.2.2.2.2.2.2.2.2.2.2.2.O @ @ @ @ @ O + 2.2.2.2.2.2.2.2.2.2.2.2.2.",
"2.2.2.2.2.2.2.2.2.2.2.2.2.2.2.2.2.2.2.2.o @ @ @ @ @ $ - - - - - - - - - - & O 2.2.2.2.2.2.2.2.2.2.2.",
"2.2.2.2.2.2.2.2.2.2.2.2.2.+ + + + + + + . @ @ @ @ @ 9 ' ' ' ' ' ' ' ' ' ' t O 2.2.2.2.2.2.2.2.2.2.2.",
"2.2.2.2.2.2.2.2.2.2.2.2.I w w w w w w w : @ @ @ @ @ u 1.1.1.1.1.1.1.1.1.1._ e g 2.2.2.2.2.2.2.2.2.2.",
"2.2.2.2.2.2.2.2.2.2.2.,.1.1.1.1.1.1.1.1.u @ @ @ @ @ u 1.1.1.1.1.1.1.1.1.1.1.*.{ ^ 2.2.2.2.2.2.2.2.2.",
"2.2.2.2.2.2.2.2.2.2.} &.1.1.1.1.1.1.1.1.u @ @ @ * L  .1.1.1.1.1.1.1.1.1.1.1.*.{ ^ 2.2.2.2.2.2.2.2.2.",
"2.2.2.2.2.2.2.2.2.~ ` %.1.1.1.1.1.1.1.1.u @ @ @ -  .1.1.1.1.1.1.1.1.1.1.1.1.*.{ ^ 2.2.2.2.2.2.2.2.2.",
"2.2.2.2.2.2.2.2.2.~ ` %.1.1.1.1.1.1.1.1.u @ @ @ -  .1.1.1.1.1.1.1.1.1.1.1.1.*.{ ^ 2.2.2.2.2.2.2.2.2.",
"2.2.2.2.2.2.2.2.2.2.| =.1.1.1.1.1.1.1.1.u @ @ @ $ q ! 1.1.1.1.1.1.1.! u u u p P 2.2.2.2.2.2.2.2.2.2.",
"2.2.2.2.2.2.2.2.2.2.2.] X.1.1.1.1.1.#.[ 9 @ @ @ @ @ 9 ' ' ' ' ' ' ' 9 @ @ @ O 2.2.2.2.2.2.2.2.2.2.2.",
"2.2.2.k B K 2.2.2.2.2.- f 1.1.1.1.1._ , $ @ @ @ @ @ $ - - - - - - - $ @ @ @ O 2.2.2.2.2.2.2.2.2.2.2.",
"2.2.2.2.2.2.2.2.2.2.2.+ < f f f f f 0 # @ @ @ @ @ @ @ @ @ @ @ @ @ @ 4 f f f d 2.2.2.2.2.2.2.2.2.2.2.",
"2.2.2.2.2.2.2.2.2.2.2.+ @ @ @ $ - - - - - = @ @ @ @ @ @ * - - $ @ @ L 1.1.1.,.2.2.2.2.2.2.2.2.2.2.2.",
"2.2.2.2.2.2.2.2.2.2.2.+ @ @ @ 6  . . . . .T = @ @ @ @ $ L  . .6 @ @ L 1.1.1.,.2.2.2.2.2.J C k 2.2.2.",
"2.2.2.2.2.2.2.2.2.2.2.+ @ $ 9 E 1.1.1.1.1.X.f < @ @ , s  .1.1.w @ @ 6 E #.1.,.2.2.2.2.2.H V 2.2.2.2.",
"2.2.2.2.2.2.2.2.2.2.2.+ # , [ 1.1.1.1.1.1.1.1.h $ @ u 1.1.1.1.w @ @ @ , [ %.$.2.2.2.2.2.2.2.2.2.2.2.",
"2.2.2.2.2.2.2.2.2.2.2.+ 5 _ #.1.1.1.1.1.1.1.1...Y ; u 1.1.1.1.w @ @ @ $ 2 6 7 2.2.2.2.2.2.2.2.2.2.2.",
"2.2.2.2.2.2.2.2.2.2.2.+ u 1.1.1.1.1.1.1.1.1.1.1.O., 3 R R R R 1 @ @ @ @ @ @ O 2.2.2.2.2.2.2.2.2.2.2.",
"2.2.2.2.2.2.2.2.2.2.2.+ u 1.1.1.1.1.1.1.1.1.1.1.O., @ @ @ @ @ @ @ @ @ @ @ @ O 2.2.2.2.2.2.2.2.2.2.2.",
"2.2.2.2.2.2.2.2.2.2.2.+ : i ..1.1.1.1.1.1.1.1.! 9 & @ @ @ 1 R R R R R R R q X O 2.2.2.2.2.2.2.2.2.2.",
"2.2.2.2.2.2.2.2.2.2.2.  - 0  .1.1.1.#.[ ' ' ' w @ @ @ @ > h 1.1.1.1.1.1.1.W 2 2 6 2.2.2.2.2.2.2.2.2.",
"2.2.2.2.2.2.2.2.2.  o   r %.-.1.1.1.) - $ $ $ # @ @ @ $ E *.1.1.1.1.1.1.1.*.%.%...Q 2.2.2.2.2.2.2.2.",
"2.2.2.2.2.2.2.2.2.@ = a ' 1.1.1.1.1.X.U 2 @ @ @ @ @ 2 U X.1.1.1.1.1.1.1.1.1.1.1.O.( 2.2.2.2.2.2.2.2.",
"2.2.2.2.2.2.2.2.2.@ ,  .1.1.1.1.1.1.1.1.u @ @ @ @ @ u 1.1.1.1.1.1.1.1.1.1.1.1.1.O.( 2.2.2.2.2.2.2.2.",
"2.2.2.2.2.2.2.2.2.@ ,  .1.1.1.1.1.1.1.1.u @ @ @ @ @ u 1.1.1.1.1.1.1.1.1.1.1.1.1.O.( 2.2.2.2.2.2.2.2.",
"2.2.2.2.2.2.2.2.2.2.8 @.1.1.1.1.1.1.1.1.u @ @ @ @ @ < h ..1.1.1.1.1.1.1.1.1.1.1.$.2.2.2.2.2.2.2.2.2.",
"2.2.2.2.2.2.2.2.2.2.2.,.1.1.1.1.1.1.1.>.y O O O O O O % / ;.1.1.1.1.1.1.1.-.*.-.;.2.2.2.2.2.2.2.2.2.",
"2.2.2.2.2.2.2.G 2.2.2.,.1.1.1.1.1.1.;.2.2.2.2.2.2.2.2.2.2.,.1.1.1.1.1.1.1.+.} 2.2.2.2.2.2.2.2.2.2.2.",
"2.2.2.2.2.2.Z 2.2.2.2.<.:.:.:.:.:.:.2.2.2.2.2.2.2.2.2.2.2.2.:.:.:.:.:.:.:.o.~ 2.2.2.2.2.2.2.2.2.2.2.",
"2.2.2.2.2.x 2.2.2.2.2.2.2.2.2.2.2.2.2.2.2.2.2.2.2.2.2.2.2.2.2.2.2.2.2.2.2.2.2.2.2.2.J J 2.2.2.2.2.2.",
"2.2.2.2.c 2.2.2.2.2.2.2.2.2.2.2.2.2.2.2.2.2.2.2.2.2.2.2.2.2.2.2.2.2.2.2.2.2.2.2.2.2.2.2.b 2.2.2.2.2.",
"2.2.2.2.2.2.2.2.2.2.2.2.2.2.2.2.2.2.2.2.2.2.2.2.2.2.2.2.2.2.2.2.2.2.2.2.2.2.2.2.2.2.2.2.l 2.2.2.2.2.",
"2.2.2.2.2.2.2.2.2.2.2.2.2.2.2.2.2.2.2.2.2.2.2.2.2.2.2.2.2.2.2.2.2.2.2.2.2.2.2.2.2.2.2.2.2.v j 2.2.2.",
"2.2.2.2.2.2.2.2.2.2.2.2.2.2.2.2.2.2.2.2.2.2.2.2.2.2.2.2.2.2.2.2.2.2.2.2.2.2.2.2.2.2.2.2.2.2.2.2.2.2.",
"2.2.2.2.2.2.2.2.2.2.2.2.2.2.2.2.2.2.2.2.2.2.A 2.2.2.2.2.2.2.2.2.2.2.2.2.2.2.2.2.2.2.2.2.2.2.2.2.2.2.",
"2.2.2.2.2.2.2.2.2.2.2.2.2.2.2.2.2.2.2.2.2.2.n 2.2.2.2.2.2.2.2.2.2.2.2.2.2.2.2.2.2.2.2.2.2.2.2.2.2.2.",
"2.2.2.2.2.2.2.2.2.2.2.2.2.2.2.2.2.2.2.2.2.2.2.2.2.2.2.2.2.2.2.2.2.2.2.2.2.2.2.2.2.2.2.2.2.2.2.2.2.2.",
"2.2.2.2.2.2.2.2.2.2.2.2.2.2.2.2.2.2.2.2.2.2.2.2.2.2.2.2.2.2.2.2.2.2.2.2.2.2.2.2.2.2.2.2.2.2.2.2.2.2."
};
