/* XPM */
static char *result[] = {
/* columns rows colors chars-per-pixel */
"50 50 89 1 ",
"  c #635F65",
". c #635F66",
"X c #645F65",
"o c #645F66",
"O c #636065",
"+ c #636066",
"@ c #646065",
"# c #646066",
"$ c #656167",
"% c #656168",
"& c #666268",
"* c #676268",
"= c #676369",
"- c #67636A",
"; c #68646A",
": c #68646B",
"> c #69656B",
", c #6A666C",
"< c #6B676D",
"1 c #6C676F",
"2 c #6B686E",
"3 c #6B686F",
"4 c #6C686E",
"5 c #6D696F",
"6 c #6D6870",
"7 c #6E6A70",
"8 c #6E6A71",
"9 c #6F6B71",
"0 c #716D74",
"q c #726E74",
"w c #726F74",
"e c #736F76",
"r c #747076",
"t c #747077",
"y c #757077",
"u c #757177",
"i c #757178",
"p c #767278",
"a c #777379",
"s c #77737A",
"d c #787479",
"f c #78747A",
"g c #79757B",
"h c #79757C",
"j c #7A767D",
"k c #7B777E",
"l c #7C787E",
"z c #F67521",
"x c #F77521",
"c c #F77621",
"v c #F77522",
"b c #F67622",
"n c #F77622",
"m c #7D7980",
"M c #7E7A81",
"N c #807C82",
"B c #817D84",
"V c #827E84",
"C c #837F86",
"Z c #847F86",
"A c #838086",
"S c #848086",
"D c #848087",
"F c #868288",
"G c #868289",
"H c #878389",
"J c #87838A",
"K c #88848A",
"L c #89858B",
"P c #88858C",
"I c #89858C",
"U c #8A868C",
"Y c #8A868D",
"T c #8A878D",
"R c #8B878E",
"E c #8C888E",
"W c #8C888F",
"Q c #8D8990",
"! c #8F8B92",
"~ c #908C93",
"^ c #918D94",
"/ c #918D95",
"( c #928D94",
") c #928D95",
"_ c #918E94",
"` c #918E95",
"' c #928E94",
"] c #928E95",
"[ c None",
/* pixels */
"[[[[[[[[[[[[[[[[[[[[[[[[[[[[[[[[[[[[[[[[[[[[[[[[[[",
"[[[[[[[[[[[[[[[[[[[[[[[[[[[[[[[[[[[[[[[[[[[[[[[[[[",
"[[[[[[[[[[[[[[[[[[[[[[[[[[[[[[[[[[[[[[[[[[[[[[[[[[",
"[[[[[b[[[[[[[[[[[[[[[[[[[[[[[[[[[[[[[[[[[[[[[[x[[[",
"[[[[[v[[[[[[[[[[[[[[[[[[[[[[[[[[[[[[[[[[[[[[[[[[[[",
"[[[[[[[[[[[[[[[[[[[[[[[[[zb[[[[[[[[[[[[[[[[[[[[[[[",
"[[[[[[[[[[[[[[[[[[[[[[[[[[[[[[[[[[[[[[[[[[[[[[[[[[",
"[[[[[[[[[[[[[[[[[[[[[[[[[[[[[[[[[[[[[[[[[[[[[[[[[[",
"[[[[[[[[[[[[[[[[[[[[[[[[[[[[[[[[[[[[[[[[[[[[[[[[[[",
"[[[[[[[[[[[[[[[[[[[[[[[[[[[[[[[[[[[[[[[[[[[[[[[[[[",
"[[[[[[[[[[[[[[[[[[[[[[[[[[[[[[[[[[[[[[[[[[[[[[[[[[",
"[[[[[[[[[[[[[[[[[[[[[[[[[[[[[[[[[[[[[[[[[[[[[[[[[[",
"[[[[[[[[[[[[[[[[[[[[[[[[[[[[[[[[[[[[[[[[[[[[[[[[[[",
"[[[[[[[[[[[[[[[[[[[[[[[[[[[[]]]]]]]]]([[[[[[[[[[[[",
"[[[[[[[[[['''''''[[[[[[[[[[//]]]]]]]]'_[[[[[[[[[[[",
"[[[[[[[[[(]]]]]]]([[[[[[[[[]]]]]]]]]]]`[[[[[[[[[[[",
"[[[[[[[[[(]]]]]]]])[[[[[[[[]]]]]]]]]]]`[[[[[[[[[[[",
"[[[[[[[[[(]]]]]]]])[[[[[[[[]]]]]]]]]]]`[[[[[[[[[[[",
"[[[[[[[[[(]]]]]]]KN[[[[[[[[DQ]]]]]]!GCZ[[[[[[[[[[[",
"[[[[[[[[[(]]]]]]]r&#[[[[[[[>D]]]]]]I8&*[[[[[[[[[[[",
"[[[[[[[[[['`]]]]]q##[[[[[[[$0ffffffr=@[[[[[[[[[[[[",
"[[[[[[[[[[[^EGGGG8##[[[[[[[.o##### @@[[[[[[[[[[[[[",
"[[z[[[[[[[[[9>>>>$##[[[[[[[[.##### [[[[[[[[[[[[[[[",
"[[[[[[[[[[[[[[[[[[[[[[[[[[[[[[[[[[[[[[[[[[[[[[[[[[",
"[[[[[[[[[[[[[[[[[[[[[[[[[[[[[[[[[[[[~]`[[[[[[[[[[[",
"[[[[[[[[[[[[[[[[[ @@@.[[[[[[[[[[[[[7T]`[[[[[[[[v[[",
"[[[[[[[[[[[[[[[[[lff4  [[[[[[[[[[[#;gA[[[[[[[[[[[[",
"[[[[[[[[[[[[[[/]]]]]h&#[[[[#%a]]'[ OO [[[[[[[[[[[[",
"[[[[[[[[[[[[[]/]]]]]Ik-[[[[%hL]]'[[[[[[[[[[[[[[[[[",
"[[[[[[[[[[[[[]]]]]]]]U2[[[[:J]]Hm[[[[[[[[[[[[[[[[[",
"[[[[[[[[[[[[[]]]]]]]]'[[[[[[)]]u###@[[[[[[[[[[[[[[",
"[[[[[[[[[[[[[]]]]]]]Bt[[[[[[yuu,###O [[[[[[[[[[[[[",
"[[[[[[[[[[[[['''''''d#[[[[[[+##<999996[[[[[[[[[[[[",
"[[[[[[[[[[[[[[[[[[[[[[[[[[[[+##M!!!!!lX[[[[[[[[[[[",
"[[[[[[[[[[[[(((((w#####[[[[[+5mY]]]]]Il6[[[[[[[[[[",
"[[[[[[[[[[[`]]]]]q#####[[[[[1j]]]]]]]]Qi3[[[[[[[[[",
"[[[[[[[[[[`_]]]]]q#####[[[[[IW]]]]]]]]~RP[[[[[[[[[",
"[[[[[[[[[(]]]]]]]Ve$#+#[[[[[jC]]]]]]]]]])[[[[[[[[[",
"[[[[[[[[[(]]]]]]]]C&#@[[[[[[op]]]]]]]]]])[[[[[[[[[",
"[[[[[[[[[(]]]]]]]]C&#@[[[[[[[S]]]]]]]]]])[[[[[[[[[",
"[[[[[[[[[[(_]]]]]Fs$ [[[[[[[[[)]]]]]]]]`[[[[[[[[[[",
"[[[[[[[[[[[`]]]]]q##[[[[[[[[[[[)]]]]]]`[[[[[[[[[[[",
"[[[[[[[[[[[[[[[[[[[[[[[[[[[[[[[[[[[[[[[[[[[[[[[[[[",
"[[[[[[[[[[[[[[[[[[[[[[[[[[[[[[[[[[[[[[[[[[[[[[[[[[",
"[[x[[[[[[[[[[[[[[[[[[[[[[[[[[[[[[[[[[[[[[[[[[[[[[[",
"[[[[[[[[[[[[[[[[[[[[[[[[[[[[[[[[[[[[[[[[[[[[[[[[[[",
"[[[[[[[[[[[[[[[[[[[[[[[[[[[[[[[[[[[[[[[[[[[[[[[n[[",
"[[[[[[[[[[[[[[[[[[[[[[[[[[[[[[[[[[[[[[[[[[[[[[[[[[",
"[[[[[[[[[[[[[[[[[[[[[[[[[[[[[[[[[[[[[[[[[[[[[[[[[[",
"[[[[[[[[[[[[[[[[[[[[[[c[[[[[[[[[[[[[[[[[[[[[[[[[[["
};
