/* XPM */
static char *result[] = {
/* columns rows colors chars-per-pixel */
"50 50 38 1 ",
"  c #645F66",
". c #636065",
"X c #646066",
"o c #69656C",
"O c #6C676D",
"+ c #6E6A6F",
"@ c #6F6B71",
"# c #6F6B72",
"$ c #716D74",
"% c #726E74",
"& c #747077",
"* c #78747A",
"= c #7A767D",
"- c #7B777D",
"; c #7C787E",
": c #7D7980",
"> c #7F7B82",
", c #807C83",
"< c #817D83",
"1 c #807B84",
"2 c #848086",
"3 c #858187",
"4 c #8A868D",
"5 c #8A878E",
"6 c #8B878E",
"7 c #8C888F",
"8 c #8D8990",
"9 c #8E8A91",
"0 c #8F8B92",
"q c #918D94",
"w c #918D95",
"e c #928D94",
"r c #928D95",
"t c #918E94",
"y c #918E95",
"u c #928E94",
"i c #928E95",
"p c None",
/* pixels */
"pppppppppppppppppppppppppppppppppppppppppppppppppp",
"pppppppppppppppppppppppppppppppppppppppppppppppppp",
"pppppppppppppppppppppppppppppppppppppppppppppppppp",
"pppppppppppppppppppppppppppppppppppppppppppppppppp",
"pppppppppppppppppppppppppppppppppppppppppppppppppp",
"pppppppppppppppppppppppppppppppppppppppppppppppppp",
"pppppppppppppppppppppppppppppppppppppppppppppppppp",
"pppppppppppppppppppppppppppppppppppppppppppppppppp",
"pppppppppppppppppppppppppppppppppppppppppppppppppp",
"pppppppppppppppppppppppppppppppppppppppppppppppppp",
"pppppppppppppppppppppppppppppppppppppppppppppppppp",
"pppppppppppppppppppppppppppppppppiyyyyyyuppppppppp",
"pppppppppppppppppppppppppppppppprriiiiiiyppppppppp",
"pppppppppeiiiuppppppppppppppppp78qiiiiiiiipppppppp",
"ppppppppquiiirypppppppppppppppp#*0iiiiiiiipppppppp",
"pppppppptiiii031pppppppppppppppp+>4iiiiiirpppppppp",
"pppppppptiiii7@.ppppppppppppppppp.:iiiiirppppppppp",
"pppppppppiii2$pppppppppppppppppppppppppppppppppppp",
"pppppppppprr: pppppppppppppppppppppppppppppppppppp",
"pppppppppppppppppppppppppppppppppppppppppppppppppp",
"pppppppppppppppppppppppppppppppppppppppppppppppppp",
"pppppppppppppppppppppppppppppppppppppppppppppppppp",
"pppppppppppppppppppppppppppppppppppppppppppppppppp",
"pppppppppppppppppppppppppppppppppppppppppppppppppp",
"pppppppppppppppppppppppppppppppppppppppppppppppppp",
"pppppppppppppppppppppppppppppppppppppppppppppppppp",
"pppppppppppppppppppppppppppppppppppppppppppppppppp",
"pppppppppppppppppppppppppppppppppppppppppppppppppp",
"pppppppppppppppppppppppppppppppppppppppppppppppppp",
"pppppppppppppppppppppppppppppppppppppppppppppppppp",
"pppppppppppppppppppppppppppppppppppppppppppppppppp",
"pppppppppppppppppppppppppppppppppppppppppppppppppp",
"pppppppppppppppppppppppppppppppppppppppppppppppppp",
"pppppppppppppppppppppppppppppppppppppppppppppppppp",
"pppppppppppppppppppppppppppppppppppppppppppppppppp",
"pppppppppppppppppppppppppppppppppppppppppppppppppp",
"pppppppppppppppppppppppppppppppppppppppppppppppppp",
"pppppppppppppppppppppppppppppppppppppppppppppppppp",
"ppppppppppppppppppppppppppppppppppppo-iiiipppppppp",
"pppppppppppqu7@ppppppppppppppppppppO<6iiiiwupppppp",
"pppppppppppti9;%pppppppppppppppppp&=7iiiiiirpppppp",
"pppppppppeiiiii,Xpppppppppppppppppeiiiiiiiirpppppp",
"pppppppppeiiiii5ppppppppppppppppppppeiiiuppppppppp",
"pppppppppprrrrrpppppppppppppppppppppyrrrpppppppppp",
"pppppppppppppppppppppppppppppppppppppppppppppppppp",
"pppppppppppppppppppppppppppppppppppppppppppppppppp",
"pppppppppppppppppppppppppppppppppppppppppppppppppp",
"pppppppppppppppppppppppppppppppppppppppppppppppppp",
"pppppppppppppppppppppppppppppppppppppppppppppppppp",
"pppppppppppppppppppppppppppppppppppppppppppppppppp"
};
