/* XPM */
static char *result[] = {
/* columns rows colors chars-per-pixel */
"50 50 90 1 ",
"  c #1B1B1B",
". c #251E17",
"X c #1F2020",
"o c #222222",
"O c #2B2927",
"+ c #2B2C2B",
"@ c #2C302D",
"# c #333333",
"$ c #353A36",
"% c #3A3B3A",
"& c #46290D",
"* c #5B350D",
"= c #432D16",
"- c #492F11",
"; c #603B0D",
": c #653F10",
"> c #493E33",
", c #3D423F",
"< c #724616",
"1 c #724B12",
"2 c #7D4D19",
"3 c #7F5019",
"4 c #6A4924",
"5 c #644B2A",
"6 c #3F4741",
"7 c #434443",
"8 c #444D46",
"9 c #4B4D41",
"0 c #464C48",
"q c #4D4E4D",
"w c #4C544E",
"e c #59534D",
"r c #4E5650",
"t c #545454",
"y c #525B54",
"u c #565E58",
"i c #595E5A",
"p c #655341",
"a c #5A625C",
"s c #6C645A",
"d c #5F6560",
"f c #646664",
"g c #636A65",
"h c #676F69",
"j c #6B6C6C",
"k c #6C716D",
"l c #777061",
"z c #737473",
"x c #737A75",
"c c #777C79",
"v c #7A7C7A",
"b c #815516",
"n c #855917",
"m c #835419",
"M c #80581E",
"N c #986B1A",
"B c #7D827E",
"V c #A38F7C",
"C c #7F8380",
"Z c #828583",
"A c #858986",
"S c #878C88",
"D c #8A8C8A",
"F c #958E86",
"G c #8D928E",
"H c #8F9490",
"J c #929593",
"K c #969B97",
"L c #999A99",
"P c #AF9E8E",
"I c #9CA09D",
"U c #A2A4A2",
"Y c #A4A9A5",
"T c #AAABAB",
"R c #B2B3B2",
"E c #B6B8B7",
"W c #BBBBBB",
"Q c #BFC2BF",
"! c #C2C3C2",
"~ c #CCCCCC",
"^ c #D4D5D4",
"/ c #D7D9D8",
"( c #DCDCDC",
") c #DFE0DF",
"_ c #E2E3E2",
"` c #E7E8E8",
"' c #ECEDEC",
"] c #F3F3F3",
"[ c #FEFEFE",
"{ c None",
/* pixels */
"{{{{{{{{{{{{{{{{{{{{{{{{{{{{{{{{{{{{{{{{{{{{{{{{{{",
"{{{{{{{{{{{{{{{{{{{{{{{{{{{{{{{{{{{{{{{{{{{{{{{{{{",
"{{{{{{{{{{{{{{{{{{{{{{{{{{{{{{{{{{{{{{{{{{{{{{{{{{",
"{{{{{{{{{{{{{{{{{{{{{{{{{{{{{{{{{{{{{{{{{{{{{{{{{{",
"{{{{{{{{{{{{{{{{{{{{{{{{{{{{{{{{{{{{{{{{{{{{{{{{{{",
"{{{{{{{{{{{{{{{{{{{{{{{{{{{{{{{{{{{{{{{{{{{{{{{{{{",
"{{{{{{{{{{{{{{{{{{{{{{{{{{{{{{{{{{{{{{{{{{{{{{{{{{",
"{{{{{{{{{{{{{{{{{{{{{{{{{{{{{{{{{{{{{{{{{{{{{{{{{{",
"{{{{{{{{{{{{{{{{{{{{{{{{{{{{{{{{{{{{{{{{{{{{{{{{{{",
"{{{{{{{{{{{{{{{{{{{{{{{{{{{{{{8888888888{{{{{{{{{{",
"{{{{{{{{{{{{{{{{{{{{{{{{{{{{{{hhhhhhhhgw8{{{{{{{{{",
"{{{{{{{{{{{{{{{{{{{{{{{{{{{{8A((((((((~k8{{{{{{{{{",
"{{{{{{{{{{{{{{{{{{{{{{{{{{{rJ![[[[[[[[`x8{{{{{{{{{",
"{{{{{{{{{{{{{{{{{{{{{{{{{{{r![[[[[[[']`x0{{{{{{{{{",
"{{{{{{{{{{{{{{{{{{{{{{{{{{{y![[[[[[_GR`x8{{{{{{{{{",
"{{{{{{{{{{{{{{{{{{{{{{{{{{gB!][[[[/YaK`x8{{{{{{{{{",
"{{{{{{{{{{{{{{{{{{{{{{{{{8vQQ^[[[[K88L`x8{{{{{{{{{",
"{{{{{{{{{{{{{{{{{{{{{{{{yGTQ(][[)SawgK!h8{{{{{{{{{",
"{{{{{{{{{{{{{{{{{{{{{{{{aE^^][[(Yw8wkLRf8{{{{{{{{{",
"{{{{{{{{{{{{{{{{{{{{{{{{a/[[[[[Jy88rkLRf8{{{{{{{{{",
"{{{{{{{{{{{{{8888{{{{{{zJ~((]/Kg88kGLHva{{{{{{{{{{",
"{{{{{{{{{{{{{whkg{{{{{gL^~~!~L88wgSUUZ8{{{{{{{{{{{",
"{{{{{{{{{{{{{aQ^Rq {{7U^]](EBa88aTBuuy{{{{{{{{{{{{",
"{{{{{{{{{{{{{aEWZi7o 7T~_[~Bu88kZZk{{{{{{{{{{{{{{{",
"{{{{{{{{{{{{{uYJ0ftoOtT!~_I888,AKq{{{{{{{{{{{{{{{{",
"{{{{{{{{{{{{{{EJ0q7 fTW/)Za88,o@%{{{{{{{{{{{{{{{{{",
"{{{{{{{{{{{{{{DAvq%7DWQEUa88,@  {{{{{{{{{{{{{{{{{{",
"{{{{{{{{{{{{{{8x!q#zU!WC886,O {{{{{{{{{{{{{{{{{{{{",
"{{{{{{{{{{{{{{8x!q$zUTzi6@O+o{{{{{{{{{{{{{{{{{{{{{",
"{{{{{{{{{{{{{{{kJvjtCJf0$X  {{{{{{{{{{{{{{{{{{{{{{",
"{{{{{{{{{{{{{{{{q!EOtcv0   {{{{{{{{{{{{{{{{{{{{{{{",
"{{{{{{{{{{{{{{{{5sZUk%,$$$@ {{{{{{{{{{{{{{{{{{{{{{",
"{{{{{{{{{{{{{{{22=eWAq7088,#{{{{{{{{{{{{{{{{{{{{{{",
"{{{{{{{{{{{8894mN:=OL_WB08ij$ {{{{{{{{{{{{{{{{{{{{",
"{{{{{{{{{{aAl5Mb1;{{vHBkffjz$ {{{{{{{{{{{{{{{{{{{{",
"{{{{{{{{{8aRV<n1&{{{{88fzjff# {{{{{{{{{{{{{{{{{{{{",
"{{{{{{{{{0h^P**-.{{{{{{{{@++o {{{{{{{{{{{{{{{{{{{{",
"{{{{{{{{{0aYFpp> {{{{{{{{{{{{{{{{{{{{{{{{{{{{{{{{{",
"{{{{{{{{{8wfjjkt {{{{{{{{{{{{{{{{{{{{{{{{{{{{{{{{{",
"{{{{{{{{{87$###+{{{{{{{{{{{{{{{{{{{{{{{{{{{{{{{{{{",
"{{{{{{{{{{,o   {{{{{{{{{{{{{{{{{{{{{{{{{{{{{{{{{{{",
"{{{{{{{{{{{{{{{{{{{{{{{{{{{{{{{{{{{{{{{{{{{{{{{{{{",
"{{{{{{{{{{{{{{{{{{{{{{{{{{{{{{{{{{{{{{{{{{{{{{{{{{",
"{{{{{{{{{{{{{{{{{{{{{{{{{{{{{{{{{{{{{{{{{{{{{{{{{{",
"{{{{{{{{{{{{{{{{{{{{{{{{{{{{{{{{{{{{{{{{{{{{{{{{{{",
"{{{{{{{{{{{{{{{{{{{{{{{{{{{{{{{{{{{{{{{{{{{{{{{{{{",
"{{{{{{{{{{{{{{{{{{{{{{{{{{{{{{{{{{{{{{{{{{{{{{{{{{",
"{{{{{{{{{{{{{{{{{{{{{{{{{{{{{{{{{{{{{{{{{{{{{{{{{{",
"{{{{{{{{{{{{{{{{{{{{{{{{{{{{{{{{{{{{{{{{{{{{{{{{{{",
"{{{{{{{{{{{{{{{{{{{{{{{{{{{{{{{{{{{{{{{{{{{{{{{{{{"
};
