/* XPM */
static const char *cGxheWVyX2lkbGVfMQ__[] = {
/* columns rows colors chars-per-pixel */
"50 50 166 2 ",
"   c #141412",
".  c #1B1711",
"X  c #1E1913",
"o  c #161718",
"O  c #171819",
"+  c #191B1D",
"@  c #2D1E0F",
"#  c #311E0F",
"$  c #241C13",
"%  c #281B10",
"&  c #36210E",
"*  c #3B230E",
"=  c #2B2015",
"-  c #3B2612",
";  c #372616",
":  c #1B1D21",
">  c #1D2225",
",  c #1F232A",
"<  c #21252E",
"1  c #212A2D",
"2  c #29292E",
"3  c #332720",
"4  c #352921",
"5  c #392F2A",
"6  c #352F2D",
"7  c #222731",
"8  c #242A35",
"9  c #262D3A",
"0  c #263135",
"q  c #27313A",
"w  c #29343C",
"e  c #2B393E",
"r  c #2C3233",
"t  c #363333",
"y  c #383731",
"u  c #33383D",
"i  c #47280D",
"p  c #43260D",
"a  c #432E1A",
"s  c #45301C",
"d  c #4D331C",
"f  c #533012",
"g  c #56381E",
"h  c #5C3A1D",
"j  c #643B17",
"k  c #4A3524",
"l  c #4D392B",
"z  c #513A2A",
"x  c #413B31",
"c  c #513E34",
"v  c #6F421D",
"b  c #77451D",
"n  c #7D4A1E",
"m  c #5A4233",
"M  c #534236",
"N  c #654122",
"B  c #6C4321",
"V  c #724A2B",
"C  c #634633",
"Z  c #6C4B33",
"A  c #74563C",
"S  c #2A3642",
"D  c #2D3B45",
"F  c #2F3D49",
"G  c #303F4B",
"H  c #353C40",
"J  c #31434C",
"K  c #3D4A4E",
"L  c #354654",
"P  c #354954",
"I  c #384B53",
"U  c #374C5B",
"Y  c #394E5C",
"T  c #3B535E",
"R  c #3C5463",
"E  c #3E5A66",
"W  c #574F45",
"Q  c #42555C",
"!  c #4A5658",
"~  c #495455",
"^  c #575A56",
"/  c #615040",
"(  c #615A4F",
")  c #685C4C",
"_  c #705D49",
"`  c #415A65",
"'  c #425D6C",
"]  c #405666",
"[  c #415F70",
"{  c #46616D",
"}  c #446374",
"|  c #4A6675",
" . c #456877",
".. c #4A6877",
"X. c #476978",
"o. c #4C6D7C",
"O. c #466779",
"+. c #51707E",
"@. c #6B6D68",
"#. c #627579",
"$. c #845127",
"%. c #965A29",
"&. c #8E633E",
"*. c #96653B",
"=. c #9E6738",
"-. c #9E683A",
";. c #AB662E",
":. c #A7632B",
">. c #AB6730",
",. c #AD6A32",
"<. c #B56C30",
"1. c #805F40",
"2. c #997654",
"3. c #A16E40",
"4. c #A47245",
"5. c #4F6F81",
"6. c #4D7384",
"7. c #4F778A",
"8. c #4F788A",
"9. c #517483",
"0. c #55798C",
"q. c #587E8D",
"w. c #567789",
"e. c #537E92",
"r. c #677E84",
"t. c #558297",
"y. c #5B8294",
"u. c #56839A",
"i. c #5B859A",
"p. c #5C889C",
"a. c #6D878E",
"s. c #628B9D",
"d. c #5C8EA5",
"f. c #5E91A8",
"g. c #638CA0",
"h. c #6793A7",
"j. c #6495AB",
"k. c #6997AC",
"l. c #699DB3",
"z. c #6498B0",
"x. c #709EB4",
"c. c #6DA3BB",
"v. c #71A2B7",
"b. c #72A5BC",
"n. c #75A8BE",
"m. c #73AAC2",
"M. c #72A9C1",
"N. c #76A8C0",
"B. c #74ACC5",
"V. c #78AAC2",
"C. c #78B1C9",
"Z. c #7DB3CA",
"A. c #7EB4CC",
"S. c #7FB6CF",
"D. c #7AB3CC",
"F. c #7EB8D1",
"G. c #7EB8D1",
"H. c #7EB7D1",
"J. c #80B7CF",
"K. c #83BCD5",
"L. c #86C1DB",
"P. c #89C4DE",
"I. c #8AC6E0",
"U. c #8AC6E0",
"Y. c None",
"T. c black",
/* pixels */
"Y.Y.Y.Y.Y.Y.Y.Y.Y.Y.Y.Y.Y.Y.Y.Y.Y.Y.Y.Y.Y.Y.Y.Y.Y.Y.Y.Y.Y.Y.Y.Y.Y.Y.Y.Y.Y.Y.Y.Y.Y.Y.Y.Y.Y.Y.Y.Y.Y.Y.",
"Y.Y.Y.Y.Y.Y.Y.Y.Y.Y.Y.Y.Y.Y.Y.Y.Y.Y.Y.Y.Y.Y.Y.Y.Y.Y.Y.Y.Y.Y.Y.Y.Y.Y.Y.Y.Y.Y.Y.Y.Y.Y.Y.Y.Y.Y.Y.Y.Y.Y.",
"Y.Y.Y.Y.Y.Y.Y.Y.Y.Y.Y.Y.Y.Y.Y.Y.Y.Y.Y.Y.Y.Y.Y.Y.Y.Y.Y.Y.Y.Y.Y.Y.Y.Y.Y.Y.Y.Y.Y.Y.Y.Y.Y.Y.Y.Y.Y.Y.Y.Y.",
"Y.Y.Y.Y.Y.Y.Y.Y.Y.Y.Y.Y.Y.Y.Y.Y.Y.Y.Y.Y.Y.Y.Y.Y.Y.Y.Y.Y.Y.Y.Y.Y.Y.Y.Y.Y.Y.Y.Y.Y.Y.Y.Y.Y.Y.Y.Y.Y.Y.Y.",
"Y.Y.Y.Y.Y.Y.Y.Y.Y.Y.Y.Y.Y.Y.Y.Y.Y.Y.Y.Y.Y.Y.Y.Y.Y.Y.Y.Y.Y.Y.Y.Y.Y.Y.Y.Y.Y.Y.Y.Y.Y.Y.Y.Y.Y.Y.Y.Y.Y.Y.",
"Y.Y.Y.Y.Y.Y.Y.Y.Y.Y.Y.Y.Y.Y.Y.Y.8 8 8 8 8 8 8 8 8 8 >         Y.Y.Y.Y.Y.Y.Y.Y.Y.Y.Y.Y.Y.Y.Y.Y.Y.Y.Y.",
"Y.Y.Y.Y.Y.Y.Y.Y.Y.Y.Y.Y.Y.Y.Y.8 8 R 6.s.g.g.g...P } R e 7 :     Y.Y.Y.Y.Y.Y.Y.Y.Y.Y.Y.Y.Y.Y.Y.Y.Y.Y.",
"Y.Y.Y.Y.Y.Y.Y.Y.Y.Y.Y.Y.Y.Y.8 D R i.M.P.I.I.I.s.E t.6.T S , +     Y.Y.Y.Y.Y.Y.Y.Y.Y.Y.Y.Y.Y.Y.Y.Y.Y.",
"Y.Y.Y.Y.Y.Y.Y.Y.Y.Y.Y.Y.Y.8 8 } K.L.P.P.I.I.I.s.E t.6.T S 8 7 +     Y.Y.Y.Y.Y.Y.Y.Y.Y.Y.Y.Y.Y.Y.Y.Y.",
"Y.Y.Y.Y.Y.Y.Y.Y.Y.Y.Y.Y.8 q R p.I.I.I.I.I.I.I.s.E t.6.T S 8 8 , :     Y.Y.Y.Y.Y.Y.Y.Y.Y.Y.Y.Y.Y.Y.Y.",
"Y.Y.Y.Y.Y.Y.Y.Y.Y.Y.Y.8 w L 0.l.K.P.K.V.N.N.N.0.T 6. .P q < < < >       Y.Y.Y.Y.Y.Y.Y.Y.Y.Y.Y.Y.Y.Y.",
"Y.Y.Y.Y.Y.Y.Y.Y.Y.Y.Y.8 U e.p.f.z.H.x.Y L L L F w D S q > O O O         Y.Y.Y.Y.Y.Y.Y.Y.Y.Y.Y.Y.Y.Y.",
"Y.Y.Y.Y.Y.Y.Y.Y.Y.Y.Y.8 R d.d.e.' 5...J ' 0.0.0.0.0.0.w.+.{ T { | T 8   Y.Y.Y.Y.Y.Y.Y.Y.Y.Y.Y.Y.Y.Y.",
"Y.Y.Y.Y.Y.Y.Y.Y.Y.Y.Y.8 R u.t.} 8 9 F R k.I.I.I.I.I.I.I.I.C.d.C.G.f.P   Y.Y.Y.Y.Y.Y.Y.Y.Y.Y.Y.Y.Y.Y.",
"Y.Y.Y.Y.Y.Y.Y.Y.Y.Y.Y.8 J ' U D 8 F E 0.b.I.I.I.I.I.I.I.I.C.d.C.G.f.P   Y.Y.Y.Y.Y.Y.Y.Y.Y.Y.Y.Y.Y.Y.",
"Y.Y.Y.Y.Y.Y.Y.Y.Y.Y.Y.8 D U S D Y } 6.d.B.I.I.I.I.I.I.I.I.C.d.C.G.f.P   Y.Y.Y.Y.Y.Y.Y.Y.Y.Y.Y.Y.Y.Y.",
"Y.Y.Y.Y.Y.Y.Y.Y.Y.Y.Y.8 D U S Y d.d.d.d.B.I.I.I.I.I.I.I.I.C.d.C.G.f.P   Y.Y.Y.Y.Y.Y.Y.Y.Y.Y.Y.Y.Y.Y.",
"Y.Y.Y.Y.Y.Y.Y.Y.Y.Y.Y.8 D Q A &.2.a.t. .R I I I I I I I I J e J J S >   Y.Y.Y.Y.Y.Y.Y.Y.Y.Y.Y.Y.Y.Y.",
"Y.Y.Y.Y.Y.Y.Y.Y.Y.Y.Y.8 D ! *.<.<.@.' J 1 O     +     +     +           Y.Y.Y.Y.Y.Y.Y.Y.Y.Y.Y.Y.Y.Y.",
"Y.Y.Y.Y.Y.Y.Y.Y.Y.Y.Y.8 D ! *.<.<.M 7 O > ,   : < o : 7 + + 7 +         Y.Y.Y.Y.Y.Y.Y.Y.Y.Y.Y.Y.Y.Y.",
"Y.Y.Y.Y.Y.Y.Y.Y.Y.Y.Y.8 9 r M C C t ,   8 S , q F < 9 F 7 9 J >       Y.Y.Y.Y.Y.Y.Y.Y.Y.Y.Y.Y.Y.Y.Y.",
"Y.Y.Y.Y.Y.Y.Y.Y.Y.Y.Y.8 :   > 7 8 q 9 > Y ..R { o.] ' o.' ' o.T q   Y.Y.Y.Y.Y.Y.Y.Y.Y.Y.Y.Y.Y.Y.Y.Y.",
"Y.Y.Y.Y.Y.Y.Y.Y.Y.Y.Y.Y.      : 8 J U P p.S.Z.S.S.Z.S.S.S.S.J.Z.s.+ Y.Y.Y.Y.Y.Y.Y.Y.Y.Y.Y.Y.Y.Y.Y.Y.",
"Y.Y.Y.Y.Y.Y.Y.Y.Y.Y.Y.Y.Y.    O : w L T 9.h.b.M.M.M.M.M.M.M.M.k.o.+ Y.Y.Y.Y.Y.Y.Y.Y.Y.Y.Y.Y.Y.Y.Y.Y.",
"Y.Y.Y.Y.Y.Y.Y.Y.Y.Y.Y.Y.Y.Y.1 1 1 q F U U E 8.e.e.e.e.e.e.e.e.' D     Y.Y.Y.Y.Y.Y.Y.Y.Y.Y.Y.Y.Y.Y.Y.",
"Y.Y.Y.Y.Y.Y.Y.Y.Y.Y.Y.Y.Y.' h.b.b.p. .S < > 1 1 1 1 1 1 1 1 1 > +       Y.Y.Y.Y.Y.Y.Y.Y.Y.Y.Y.Y.Y.Y.",
"Y.Y.Y.Y.Y.Y.Y.Y.Y.Y.Y.Y.` g.S.I.I.C.i.J w 8 8 < : : O   + : : 1 1 : : +   Y.Y.Y.Y.Y.Y.Y.Y.Y.Y.Y.Y.Y.",
"Y.Y.Y.Y.Y.Y.Y.Y.Y.Y.Y.  { I.I.I.I.I.v.E T T T G 9 9 < + 7 9 9 J P 9 8 < O   Y.Y.Y.Y.Y.Y.Y.Y.Y.Y.Y.Y.",
"Y.Y.Y.Y.Y.Y.Y.Y.Y.Y.Y.  { I.I.I.I.I.v.E T T T U P O.o. .o.[ L U P 9 8 < O   Y.Y.Y.Y.Y.Y.Y.Y.Y.Y.Y.Y.",
"Y.Y.Y.Y.Y.Y.Y.Y.Y.Y.Y.  ` D.L.I.I.n.q.J R X.X.9.y.l.c.c.c.j.q.6.E 9 8 < O   Y.Y.Y.Y.Y.Y.Y.Y.Y.Y.Y.Y.",
"Y.Y.Y.Y.Y.Y.Y.Y.Y.Y.Y.  P j.G.I.I.9.F   E d.d.M.I.I.I.I.I.I.I.c.7.q 8 < O   Y.Y.Y.Y.Y.Y.Y.Y.Y.Y.Y.Y.",
"Y.Y.Y.Y.Y.Y.Y.Y.Y.Y.Y.Y.0 J T Q Q e >   J X.X.9.y.l.c.c.c.j.q.6.R > + + Y.Y.Y.Y.Y.Y.Y.Y.Y.Y.Y.Y.Y.Y.",
"Y.Y.Y.Y.Y.Y.Y.Y.Y.Y.Y.Y.Y.        o + + S T T T E t.d.d.d.7.T T J       Y.Y.Y.Y.Y.Y.Y.Y.Y.Y.Y.Y.Y.Y.",
"Y.Y.Y.Y.Y.Y.Y.Y.Y.Y.Y.Y.Y.Y.      , 7 7 J T T T E t.d.d.d.7.T T J   Y.Y.Y.Y.Y.Y.Y.Y.Y.Y.Y.Y.Y.Y.Y.Y.",
"Y.Y.Y.Y.Y.Y.Y.Y.Y.Y.Y.Y.Y.Y.Y.    , 8 8 J T T T E t.d.d.d.7.T J q   Y.Y.Y.Y.Y.Y.Y.Y.Y.Y.Y.Y.Y.Y.Y.Y.",
"Y.Y.Y.Y.Y.Y.Y.Y.Y.Y.Y.Y.Y.Y.Y.Y.  > < 2 H K K ~ ^ r.a.a.a.#.^ u ,   Y.Y.Y.Y.Y.Y.Y.Y.Y.Y.Y.Y.Y.Y.Y.Y.",
"Y.Y.Y.Y.Y.Y.Y.Y.Y.Y.Y.Y.Y.Y.Y.Y.    $ - a s s V -.4.4.4.4.3.=.k O Y.Y.Y.Y.Y.Y.Y.Y.Y.Y.Y.Y.Y.Y.Y.Y.Y.",
"Y.Y.Y.Y.Y.Y.Y.Y.Y.Y.Y.Y.Y.Y.Y.Y.    X 3 4 4 4 z Z Z V n V V n -   Y.Y.Y.Y.Y.Y.Y.Y.Y.Y.Y.Y.Y.Y.Y.Y.Y.",
"Y.Y.Y.Y.Y.Y.Y.Y.Y.Y.Y.Y.Y.Y.Y.Y.  O > 9 9 9 8 9 9 9 5 f 6 5 f =   Y.Y.Y.Y.Y.Y.Y.Y.Y.Y.Y.Y.Y.Y.Y.Y.Y.",
"Y.Y.Y.Y.Y.Y.Y.Y.Y.Y.Y.Y.Y.Y.Y.Y.  q J L P J 9 D P P / %.W W %.l >   Y.Y.Y.Y.Y.Y.Y.Y.Y.Y.Y.Y.Y.Y.Y.Y.",
"Y.Y.Y.Y.Y.Y.Y.Y.Y.Y.Y.Y.Y.Y.Y.> 1 J T T P F 9 F T T _ ,.( ) <.m <   Y.Y.Y.Y.Y.Y.Y.Y.Y.Y.Y.Y.Y.Y.Y.Y.",
"Y.Y.Y.Y.Y.Y.Y.Y.Y.Y.Y.Y.Y.Y.  1 T T T T D 8 8 F T T _ ,.( ) <.m <   Y.Y.Y.Y.Y.Y.Y.Y.Y.Y.Y.Y.Y.Y.Y.Y.",
"Y.Y.Y.Y.Y.Y.Y.Y.Y.Y.Y.Y.Y.Y.  > S S q 1 > + + w T T ! ^ ! ! ( t O       Y.Y.Y.Y.Y.Y.Y.Y.Y.Y.Y.Y.Y.Y.",
"Y.Y.Y.Y.Y.Y.Y.Y.Y.Y.Y.Y.Y.Y.a k c c l s =     q T T T T T T T x a a =   Y.Y.Y.Y.Y.Y.Y.Y.Y.Y.Y.Y.Y.Y.",
"Y.Y.Y.Y.Y.Y.Y.Y.Y.Y.Y.Y.Y.$ $.;.>.>.;.;.g     q T T T T T T T 1.;.;.g   Y.Y.Y.Y.Y.Y.Y.Y.Y.Y.Y.Y.Y.Y.",
"Y.Y.Y.Y.Y.Y.Y.Y.Y.Y.Y.Y.$ - j b b b v h ;     > 8 8 8 0 y x x N v h a Y.Y.Y.Y.Y.Y.Y.Y.Y.Y.Y.Y.Y.Y.Y.",
"Y.Y.Y.Y.Y.Y.Y.Y.Y.Y.Y.X # i i i i * #                   & i i i &   Y.Y.Y.Y.Y.Y.Y.Y.Y.Y.Y.Y.Y.Y.Y.Y.",
"Y.Y.Y.Y.Y.Y.Y.Y.Y.Y.. & p i i i i % . Y.Y.Y.Y.Y.Y.Y.    & i i i &   Y.Y.Y.Y.Y.Y.Y.Y.Y.Y.Y.Y.Y.Y.Y.Y.",
"Y.Y.Y.Y.Y.Y.Y.Y.Y.d B b n b f * @ $ Y.Y.Y.Y.Y.Y.Y.Y.Y.. h n n n b N a Y.Y.Y.Y.Y.Y.Y.Y.Y.Y.Y.Y.Y.Y.Y.",
"Y.Y.Y.Y.Y.Y.Y.Y.  B <.<.<.:.j &   Y.Y.Y.Y.Y.Y.Y.Y.Y.Y.X $.<.<.<.<.<.h   Y.Y.Y.Y.Y.Y.Y.Y.Y.Y.Y.Y.Y.Y."
};
