/* XPM */
static char *result[] = {
/* columns rows colors chars-per-pixel */
"50 50 164 2 ",
"   c #141412",
".  c #1A1611",
"X  c #1D1810",
"o  c #161718",
"O  c #171919",
"+  c #1A1D1D",
"@  c #2B1D0F",
"#  c #301F0F",
"$  c #231B14",
"%  c #291F15",
"&  c #37210E",
"*  c #3B230E",
"=  c #2E2216",
"-  c #342416",
";  c #3E2B1A",
":  c #3D2611",
">  c #1B1E23",
",  c #1D2225",
"<  c #1F232A",
"1  c #20252C",
"2  c #21292D",
"3  c #2D2C2D",
"4  c #352921",
"5  c #3A2F28",
"6  c #3D2F26",
"7  c #212731",
"8  c #242B35",
"9  c #262E3A",
"0  c #282C35",
"q  c #312F30",
"w  c #263236",
"e  c #283032",
"r  c #27313A",
"t  c #28343C",
"y  c #2A383E",
"u  c #353235",
"i  c #3A3831",
"p  c #383638",
"a  c #45260D",
"s  c #47280D",
"d  c #402814",
"f  c #452E1A",
"g  c #512E11",
"h  c #4F3016",
"j  c #44301C",
"k  c #4C321C",
"l  c #51351E",
"z  c #5A3A1F",
"x  c #5B3413",
"c  c #663D1A",
"v  c #413022",
"b  c #49382B",
"n  c #543C2B",
"m  c #423A30",
"M  c #513E34",
"N  c #6D421D",
"B  c #76451D",
"V  c #7D4A1E",
"C  c #4D423B",
"Z  c #654122",
"A  c #6A4220",
"S  c #7A4B23",
"D  c #744B2B",
"F  c #6C4B33",
"G  c #67513D",
"H  c #7E5636",
"J  c #2A3541",
"K  c #2D3A45",
"L  c #2F3E4A",
"P  c #303D4B",
"I  c #363E42",
"U  c #2F4149",
"Y  c #31424D",
"T  c #3D4A4E",
"R  c #334552",
"E  c #354955",
"W  c #3C4F57",
"Q  c #374D5A",
"!  c #394D5A",
"~  c #3B535E",
"^  c #3D5562",
"/  c #3D5965",
"(  c #3D5869",
")  c #494A47",
"_  c #5C564C",
"`  c #4C5554",
"'  c #43545B",
"]  c #515755",
"[  c #5A5952",
"{  c #5A5B58",
"}  c #615040",
"|  c #785F47",
" . c #705D49",
".. c #625C55",
"X. c #405766",
"o. c #405863",
"O. c #425E6B",
"+. c #415F70",
"@. c #46616C",
"#. c #566060",
"$. c #446474",
"%. c #476978",
"&. c #4A6C7C",
"*. c #50707D",
"=. c #607275",
"-. c #8C572A",
";. c #915727",
":. c #905728",
">. c #895831",
",. c #905B31",
"<. c #A05F29",
"1. c #87603D",
"2. c #966338",
"3. c #9E6738",
"4. c #9A6639",
"5. c #AA662E",
"6. c #AB6730",
"7. c #A56835",
"8. c #AD6A33",
"9. c #B56C30",
"0. c #AA703E",
"q. c #A16D40",
"w. c #A47245",
"e. c #4A6E81",
"r. c #4C7283",
"t. c #4F778A",
"y. c #4F788B",
"u. c #567885",
"i. c #517788",
"p. c #55798C",
"a. c #577889",
"s. c #537F93",
"d. c #597E90",
"f. c #558196",
"g. c #5C8394",
"h. c #57859B",
"j. c #5C8699",
"k. c #5C8A9F",
"l. c #698187",
"z. c #6C878F",
"x. c #708689",
"c. c #768482",
"v. c #638C9E",
"b. c #5C8EA4",
"n. c #5E91A8",
"m. c #6591A4",
"M. c #6495AC",
"N. c #6C99AE",
"B. c #6894A6",
"V. c #6498B0",
"C. c #6A9DB4",
"Z. c #709FB5",
"A. c #6FA2BA",
"S. c #73A6BC",
"D. c #75A8BE",
"F. c #75ACC4",
"G. c #7AB3CB",
"H. c #7EB8D1",
"J. c #82BBD4",
"K. c #84BFD8",
"L. c #87C2DB",
"P. c #89C4DE",
"I. c #8AC6E0",
"U. c None",
/* pixels */
"U.U.U.U.U.U.U.U.U.U.U.U.U.U.U.U.U.U.U.U.U.U.U.U.U.U.U.U.U.U.U.U.U.U.U.U.U.U.U.U.U.U.U.U.U.U.U.U.U.U.",
"U.U.U.U.U.U.U.U.U.U.U.U.U.U.U.U.U.U.U.U.U.U.U.U.U.U.U.U.U.U.U.U.U.U.U.U.U.U.U.U.U.U.U.U.U.U.U.U.U.U.",
"U.U.U.U.U.U.U.U.U.U.U.U.U.U.U.U.U.U.U.U.U.U.U.U.U.U.U.U.U.U.U.U.U.U.U.U.U.U.U.U.U.U.U.U.U.U.U.U.U.U.",
"U.U.U.U.U.U.U.U.U.U.U.U.U.U.U.U.U.U.U.U.U.U.U.U.U.U.U.U.U.U.U.U.U.U.U.U.U.U.U.U.U.U.U.U.U.U.U.U.U.U.",
"U.U.U.U.U.U.U.U.U.U.U.U.U.U.U.U.U.U.U.U.U.U.U.U.U.U.U.U.U.U.U.U.U.U.U.U.U.U.U.U.U.U.U.U.U.U.U.U.U.U.",
"U.U.U.U.U.U.U.U.U.U.U.U.U.U.U.U.U.U.U.U.U.U.U.U.U.U.U.U.U.U.U.U.U.U.U.U.U.U.U.U.U.U.U.U.U.U.U.U.U.U.",
"U.U.U.U.U.U.U.U.U.U.U.U.U.U.U.U.U.U.U.        > 9 8 8 8 8 8 8 8 8 8 U.U.U.U.U.U.U.U.U.U.U.U.U.U.U.U.",
"U.U.U.U.U.U.U.U.U.U.U.U.U.U.U.U.U.U.U.  o + , r R J P ~ ~ ~ ^ E L 8 9 U.U.U.U.U.U.U.U.U.U.U.U.U.U.U.",
"U.U.U.U.U.U.U.U.U.U.U.U.U.U.U.U.U.      > t E &.s.X.d.J.J.J.J.C.r.J 8 8 U.U.U.U.U.U.U.U.U.U.U.U.U.U.",
"U.U.U.U.U.U.U.U.U.U.U.U.U.U.U.U.    o > 7 y ! &.h.O.g.I.I.I.I.H.S.d.! 8 9 U.U.U.U.U.U.U.U.U.U.U.U.U.",
"U.U.U.U.U.U.U.U.U.U.U.U.U.U.U.U.    > 7 8 J ! r.h.O.g.I.I.I.I.I.I.I.p.J J 8 U.U.U.U.U.U.U.U.U.U.U.U.",
"U.U.U.U.U.U.U.U.U.U.U.U.U.U.      > 7 8 8 t ! e.b.( j.I.I.I.I.I.I.I.C.e.J 8 8 U.U.U.U.U.U.U.U.U.U.U.",
"U.U.U.U.U.U.U.U.U.U.U.U.U.U.      + > > > 1 K ! X.R X.p.p.a.p.F.K.F.V.s.$.R 8 U.U.U.U.U.U.U.U.U.U.U.",
"U.U.U.U.U.U.U.U.U.U.U.U.U.U.  O , 1 2 , 1 8 K P P P P P P K 9 d.A.b.b.b.n.$.8 U.U.U.U.U.U.U.U.U.U.U.",
"U.U.U.U.U.U.U.U.U.U.U.U.U.U.  t r.v.v.r.v.N.Z.Z.Z.Z.Z.Z.Z.d.E ! Q P e.b.b.+.8 U.U.U.U.U.U.U.U.U.U.U.",
"U.U.U.U.U.U.U.U.U.U.U.U.U.U.  U b.G.G.n.F.I.I.I.I.I.I.I.I.Z.%.! J 8 Q e.t.( 8 U.U.U.U.U.U.U.U.U.U.U.",
"U.U.U.U.U.U.U.U.U.U.U.U.U.U.  U b.G.G.n.F.I.I.I.I.I.P.P.I.G.n.%.E 0 8 9 E P 8 U.U.U.U.U.U.U.U.U.U.U.",
"U.U.U.U.U.U.U.U.U.U.U.U.U.U.  U b.G.G.n.F.P.I.I.I.I.P.P.I.G.b.g.a.=.E J Q P 8 U.U.U.U.U.U.U.U.U.U.U.",
"U.U.U.U.U.U.U.U.U.U.U.U.U.U.  e $.g.g.&.g.v.v.v.m.m.v.m.m.j.f.h.v.d...) ' Y 8 U.U.U.U.U.U.U.U.U.U.U.",
"U.U.U.U.U.U.U.U.U.U.U.U.U.U.  o + + + + + + + > + + + + + w ~ i.x.0.6.2.` P 8 U.U.U.U.U.U.U.U.U.U.U.",
"U.U.U.U.U.U.U.U.U.U.U.U.U.U.        O , O O > + o > +   + < w E { 8.9.3.] Y 8 U.U.U.U.U.U.U.U.U.U.U.",
"U.U.U.U.U.U.U.U.U.U.U.U.U.U.        + t < , r < + 9 2 + e <   < m >.,.H ) J 8 U.U.U.U.U.U.U.U.U.U.U.",
"U.U.U.U.U.U.U.U.U.U.U.U.U.U.U.U.    , E y r E K 8 R L 2 Y y   , 0 q u 3 > , 8 U.U.U.U.U.U.U.U.U.U.U.",
"U.U.U.U.U.U.U.U.U.U.U.U.U.U.U.U.  W u.k.g.p.v.g.a.v.j.a.j.%.w K K 8 1 >   + U.U.U.U.U.U.U.U.U.U.U.U.",
"U.U.U.U.U.U.U.U.U.U.U.U.U.U.U.U.  g.H.K.J.L.L.H.K.K.J.L.H.m.~ ! Y 8 +     U.U.U.U.U.U.U.U.U.U.U.U.U.",
"U.U.U.U.U.U.U.U.U.U.U.U.U.U.U.U.  W y.n.V.V.V.V.V.M.V.M.i.@.~ U 7 +     U.U.U.U.U.U.U.U.U.U.U.U.U.U.",
"U.U.U.U.U.U.U.U.U.U.U.U.U.U.U.    2 U ^ / / / / / / ^ ^ L K U Q / @.@.@.^ U.U.U.U.U.U.U.U.U.U.U.U.U.",
"U.U.U.U.U.U.U.U.U.U.U.U.U.U.o     O o o         o   o o o > 9 e.A.L.P.G.&.o.U.U.U.U.U.U.U.U.U.U.U.U.",
"U.U.U.U.U.U.U.U.U.U.U.U.U.  > < < y y < < ,   + < < w U K Y R v.J.P.P.L.D.&.  U.U.U.U.U.U.U.U.U.U.U.",
"U.U.U.U.U.U.U.U.U.U.U.U.U.o 7 8 8 R E K R Q U E Q U Y ~ ~ ~ ~ N.I.I.I.I.P.u.  U.U.U.U.U.U.U.U.U.U.U.",
"U.U.U.U.U.U.U.U.U.U.U.U.U.o 7 8 8 R ~ ~ t.b.b.n.h.O.~ ~ ~ ~ ~ N.P.P.P.P.I.u.  U.U.U.U.U.U.U.U.U.U.U.",
"U.U.U.U.U.U.U.U.U.U.U.U.U.o < 8 8 @.f.N.D.F.G.F.F.A.k.y.y.O.< @.m.L.P.L.F.$.  U.U.U.U.U.U.U.U.U.U.U.",
"U.U.U.U.U.U.U.U.U.U.U.U.U.o , 1 < $.b.S.G.H.H.H.G.F.B.f.s.^   e / B.N.m.r.!   U.U.U.U.U.U.U.U.U.U.U.",
"U.U.U.U.U.U.U.U.U.U.U.U.U.U.o     U / / i.n.n.n.b.$./ ^ ^ K     O + + + + + U.U.U.U.U.U.U.U.U.U.U.U.",
"U.U.U.U.U.U.U.U.U.U.U.U.U.U.U.    0 Y ~ r.n.b.b.h.O.~ ~ ^ L < > >     U.U.U.U.U.U.U.U.U.U.U.U.U.U.U.",
"U.U.U.U.U.U.U.U.U.U.U.U.U.U.U.U.  , u ` =.z.z.z.l.#.` T T I 3 7 , O U.U.U.U.U.U.U.U.U.U.U.U.U.U.U.U.",
"U.U.U.U.U.U.U.U.U.U.U.U.U.U.U.U.U.o v 2.q.w.w.w.w.3.D j j f : % O   U.U.U.U.U.U.U.U.U.U.U.U.U.U.U.U.",
"U.U.U.U.U.U.U.U.U.U.U.U.U.U.U.U.U.  - B D D S D F F n 4 4 4 ; +     U.U.U.U.U.U.U.U.U.U.U.U.U.U.U.U.",
"U.U.U.U.U.U.U.U.U.U.U.U.U.U.U.U.U.o = g 5 q h 6 r 9 8 8 9 9 r < O   U.U.U.U.U.U.U.U.U.U.U.U.U.U.U.U.",
"U.U.U.U.U.U.U.U.U.U.U.U.U.U.U.U.  > b ;.} ) -.G E E K 9 L E E Y t   U.U.U.U.U.U.U.U.U.U.U.U.U.U.U.U.",
"U.U.U.U.U.U.U.U.U.U.U.U.U.U.U.U.  < n 5. .[ 7.| ~ ~ P 8 K E ~ ~ E 8 , U.U.U.U.U.U.U.U.U.U.U.U.U.U.U.",
"U.U.U.U.U.U.U.U.U.U.U.U.U.U.U.U.  1 C 5. .[ 7.| ~ ~ Y 8 8 K ~ ~ ~ ~ e   U.U.U.U.U.U.U.U.U.U.U.U.U.U.",
"U.U.U.U.U.U.U.U.U.U.U.U.U.U.      O 3 _ ` ' [ ] ~ ~ K + + > 2 e y K ,   U.U.U.U.U.U.U.U.U.U.U.U.U.U.",
"U.U.U.U.U.U.U.U.U.U.U.U.U.U.  $ j f m ~ ~ ~ ~ ~ ~ ~ y     $ f b M M b f U.U.U.U.U.U.U.U.U.U.U.U.U.U.",
"U.U.U.U.U.U.U.U.U.U.U.U.U.U.  k 5.5.1.' ~ ~ ~ ~ ~ ~ y     k 5.5.5.5.5.;.=   U.U.U.U.U.U.U.U.U.U.U.U.",
"U.U.U.U.U.U.U.U.U.U.U.U.U.U.U.; z N N m i i e 0 e 0 ,     = z N B B B c * @ U.U.U.U.U.U.U.U.U.U.U.U.",
"U.U.U.U.U.U.U.U.U.U.U.U.U.U.U.U.  & s s s * .                 @ * s s s s & $ U.U.U.U.U.U.U.U.U.U.U.",
"U.U.U.U.U.U.U.U.U.U.U.U.U.U.U.U.  & s s s * .   U.U.U.U.U.U.U.. @ s s s s a * X   U.U.U.U.U.U.U.U.U.",
"U.U.U.U.U.U.U.U.U.U.U.U.U.U.U.; Z B V V V c $ U.U.U.U.U.U.U.U.U.. @ * g B V V N k U.U.U.U.U.U.U.U.U.",
"U.U.U.U.U.U.U.U.U.U.U.U.U.U.  l 9.9.9.9.9.-.% U.U.U.U.U.U.U.U.U.U.  @ x <.9.9.9.S   U.U.U.U.U.U.U.U."
};
