/* XPM */
static char *caae4ca0eae8422cad74686bd2a9811865chyCml22WmmdNN[] = {
/* columns rows colors chars-per-pixel */
"50 50 176 2 ",
"   c None",
".  c #100E0C",
"X  c #12110E",
"o  c #0E1111",
"O  c #141413",
"+  c #1B1611",
"@  c #171817",
"#  c #14171A",
"$  c #17191A",
"%  c #191C1C",
"&  c #1B1812",
"*  c #2D1D0E",
"=  c #311F0F",
"-  c #251C12",
";  c #2B1D11",
":  c #38230E",
">  c #26211F",
",  c #342415",
"<  c #3D2715",
"1  c #36281B",
"2  c #1B1D22",
"3  c #171C22",
"4  c #1C2123",
"5  c #1E232A",
"6  c #1E282C",
"7  c #1E2533",
"8  c #20262D",
"9  c #222A2C",
"0  c #222223",
"q  c #3F3124",
"w  c #212631",
"e  c #242A35",
"r  c #2A2C33",
"t  c #252D39",
"y  c #253135",
"u  c #26313C",
"i  c #29353C",
"p  c #2B3A3F",
"a  c #343135",
"s  c #32373E",
"d  c #43260D",
"f  c #46280D",
"g  c #48290D",
"h  c #522E0F",
"j  c #422916",
"k  c #462E19",
"l  c #4A311F",
"z  c #52351C",
"x  c #5B3616",
"c  c #633915",
"v  c #44392B",
"b  c #493C35",
"n  c #623E21",
"m  c #714017",
"M  c #77471E",
"N  c #7A491F",
"B  c #4D4133",
"V  c #534035",
"C  c #6B4626",
"Z  c #794B27",
"A  c #674F39",
"S  c #644931",
"D  c #75573C",
"F  c #2A3642",
"G  c #2C3B44",
"H  c #2E3D49",
"J  c #263343",
"K  c #2E424D",
"L  c #33444D",
"P  c #344652",
"I  c #354954",
"U  c #3B4D54",
"Y  c #394D5A",
"T  c #3B525D",
"R  c #3B5057",
"E  c #3D5562",
"W  c #3E5966",
"Q  c #3A5A6B",
"!  c #5A544C",
"~  c #464F50",
"^  c #435259",
"/  c #49575A",
"(  c #435054",
")  c #525856",
"_  c #6C5D4B",
"`  c #6B5F50",
"'  c #74614C",
"]  c #6D6050",
"[  c #415A64",
"{  c #415E6B",
"}  c #415665",
"|  c #435E70",
" . c #42616F",
".. c #446473",
"X. c #4A6475",
"o. c #476877",
"O. c #4C6778",
"+. c #46697A",
"@. c #4B6C7C",
"#. c #4A6A77",
"$. c #4F707F",
"%. c #696C68",
"&. c #894F1E",
"*. c #844F22",
"=. c #935B2D",
"-. c #9D5D2A",
";. c #975E30",
":. c #9F602D",
">. c #8D613B",
",. c #996539",
"<. c #A5632D",
"1. c #A9652D",
"2. c #B26A2F",
"3. c #BD6E2E",
"4. c #A56835",
"5. c #B26C32",
"6. c #BF7232",
"7. c #C5702A",
"8. c #8B6543",
"9. c #906D4C",
"0. c #91704F",
"q. c #977B5D",
"w. c #977D60",
"e. c #516E81",
"r. c #4E758A",
"t. c #4D7081",
"y. c #537584",
"u. c #537A8C",
"i. c #587E8F",
"p. c #557788",
"a. c #537E91",
"s. c #597E92",
"d. c #568296",
"f. c #55859B",
"g. c #5A869C",
"h. c #5B8A9F",
"j. c #5F8595",
"k. c #628C9D",
"l. c #718C93",
"z. c #5B8CA3",
"x. c #5F90A7",
"c. c #5C90A8",
"v. c #618CA0",
"b. c #6294AB",
"n. c #6B99AC",
"m. c #6595A9",
"M. c #6B9DB3",
"N. c #689DB5",
"B. c #719FB5",
"V. c #6DA3BC",
"C. c #71A1B6",
"Z. c #71A3BB",
"A. c #6FA7C0",
"S. c #73AAC2",
"D. c #7AAFC7",
"F. c #7AB0C7",
"G. c #7DB4CD",
"H. c #7EB7D1",
"J. c #7FB8D2",
"K. c #80B7CF",
"L. c #80B7D0",
"P. c #82BCD4",
"I. c #84BFD9",
"U. c #86C1DA",
"Y. c #86C1DA",
"T. c #88C2DC",
"R. c #89C4DE",
"E. c #8AC6DF",
"W. c #8AC7E1",
"Q. c #8AC6E0",
"!. c #8CC9E3",
"~. c #8DCBE6",
"^. c #8DCBE5",
"/. c #8DCBE5",
"(. c #8FCEE8",
"). c #91D0EB",
/* pixels */
"                                                                                                    ",
"                                                                                                    ",
"                                                                                                    ",
"                                                                                                    ",
"                                                                                                    ",
"                                                                                                    ",
"                                    O O O O % w e e e w w e e e e                                   ",
"                                    O @ 2 9 G E P Y @.e.e.@.| P e w                                 ",
"                                  O @ 2 t P +.g...y.P.W.R.T.S.u.P t e                               ",
"                              O O @ 4 w t P +.h...p.Y./.!.W.Y.G.Z.} w e                             ",
"                              O @ 2 w t t P @.z...p.R.(././.!.~.!.g.P e w                           ",
"                            O O % w w w e L ..a.{ @.D.L.G.G.Y.W.I.V.r.H t e                         ",
"                            O X O @ @ @ # w F H F G Y Y Y E B.Y.V.b.z.r.I e                         ",
"                            $ i R [ I I [ X.O.X.O.O.X.X.E G O.s.+.a.b.c.E w                         ",
"                            4 +.V.P.N.N.I.T.T.T.T.T.T.W.Z.{ H t u ..z.f.Y e                         ",
"                            4 @.S.T.N.V.W./.!.!.!.!.!./.G.d.W G e F Y { L e                         ",
"                            4 @.S.R.V.V.!.~./././././.(.P.b.u...E J u Y G e                         ",
"                            4 ..N.F.b.m.G.L.K.K.K.K.K.L.S.z.z.z.j.^ s Y G e                         ",
"                            @ 9 G L p G L L L L L L L L U ..f.l.q.,.D ^ G e                         ",
"                            O X . . @ O . O O . O O . O 2 F Q %.5.7.,./ G e                         ",
"                            O O O @ 8 5 @ 8 8 @ 8 8 @ 8 8 @ 5 b <.2.>.( F e                         ",
"                              O X O i F 5 G F 5 F F 5 F i @ 2 r b V v 9 w e                         ",
"                              X 9 T y.y.X.y.y.X.y.y.X.p.X.y u F e 7 3 O 2                           ",
"                              . R F.P.P.P.P.P.P.P.P.P.P.n.E Y P e % O O                             ",
"                              X p i.N.S.A.A.A.A.A.S.V.v.$.E L e @ X .                               ",
"                              O 4 G W ................P G L I I U U U                               ",
"                            @ @ @ $ % % % % % % % % % % 2 u +.N.K.Y.C...                            ",
"                          % 5 5 t p 8 2 2 O O 2 2 8 p G G I v.I.!.~.Y.M.[                           ",
"                        O 2 e e G R H H P G G P G H T E T [ C.~.W.W./.R.[ .                         ",
"                        O 2 e e G T E o.g.h.h.g...T E E T E n.W.W.W.!.Y.[ X                         ",
"                        O 2 e e I u.n.S.G.H.H.G.S.m.a.a. .i [ n.W.).W.Z.I X                         ",
"                        O % 5 5 P d.M.F.H.J.J.H.D.N.d.d.{ $ 9 E k.n.k.+.G X                         ",
"                            @ O e E [ t.x.b.b.z.@.W W W L $ @ % 4 4 4 4                             ",
"                              X 9 R R ..z.z.z.h...Y T T L 8 4 % X . X                               ",
"                              O 8 I Y +.z.c.c.z...T T E P t t 8 @ O O                               ",
"                              O 2 u I #.h.z.x.h.X.T T T P t e 5 @                                   ",
"                                # 0 A 0.q.q.w.q.9.D v v v 1 > % O                                   ",
"                                X ; Z -.=.=.=.=.;.Z j < j < - O O                                   ",
"                              @ ; d h l a a a a a a r r r r % O                                     ",
"                            @ y B *.&.S H t 7 e G K L L L K t 2 O     O O O O O O O                 ",
"                            @ K ] 5.3.8.T u 8 t L Y T T T T L e %     O O O O O O O                 ",
"                            % K ` 5.3.8.U 6 % e t G T T T T T L e % O O O O O O O O                 ",
"                          k C ~ / _ ' ! G 2 @ 2 8 t G Y E E E T L 5 O O O O O O O O                 ",
"                        + z =._ ) ) U H w $ O O 4 w t H L L L P L 8 O O O O O O O O                 ",
"                      + : g x =.4.,.q %   @ O O @ $   2 % % % % % @ O O O O O @                     ",
"                <., + = d f g m M x ,                       O O O O O O O O O                       ",
"              :.<.z , f f g f d ; O                         @ O O O O O O O                         ",
"            O n 2.<.M g f g d - +                               O O O O @                           ",
"            O , C 1.<.N h : ; &                                                                     ",
"            O o - =.6.1.c * O                                                                       "
};
