/* XPM */
static char *result[] = {
/* columns rows colors chars-per-pixel */
"50 50 158 2 ",
"   c #141412",
".  c #1A1611",
"X  c #1D1810",
"o  c #161718",
"O  c #171818",
"+  c #1A1B1E",
"@  c #2B1D0F",
"#  c #301F0F",
"$  c #231A12",
"%  c #2A1F14",
"&  c #37210E",
"*  c #3B230E",
"=  c #2E2216",
"-  c #3E2B1A",
";  c #362617",
":  c #1B1E22",
">  c #1D2224",
",  c #1F2329",
"<  c #20252D",
"1  c #222B2D",
"2  c #2C292B",
"3  c #252223",
"4  c #352921",
"5  c #3C352E",
"6  c #242A35",
"7  c #252D38",
"8  c #263136",
"9  c #283032",
"0  c #27303B",
"q  c #29333C",
"w  c #2A393F",
"e  c #353536",
"r  c #3A3831",
"t  c #373838",
"y  c #3D3735",
"u  c #45260D",
"i  c #47280D",
"p  c #422812",
"a  c #442D1A",
"s  c #512E10",
"d  c #4D341E",
"f  c #5C3514",
"g  c #51351E",
"h  c #5C3A1D",
"j  c #6A3F1A",
"k  c #633C1B",
"l  c #4E3B2D",
"z  c #453B2F",
"x  c #543926",
"c  c #413C33",
"v  c #493B33",
"b  c #513E34",
"n  c #67401F",
"m  c #6D421D",
"M  c #76451C",
"N  c #7D4A1E",
"B  c #40413C",
"V  c #4D433E",
"C  c #5F4633",
"Z  c #524232",
"A  c #5F503F",
"S  c #654122",
"D  c #6A4220",
"F  c #784A24",
"G  c #664935",
"H  c #6A4F3A",
"J  c #6C4B33",
"K  c #2A3541",
"L  c #2D3B44",
"P  c #2E3C48",
"I  c #323F4D",
"U  c #2F4047",
"Y  c #2F4149",
"T  c #31424C",
"R  c #344652",
"E  c #364B56",
"W  c #364B58",
"Q  c #384D5A",
"!  c #3B535E",
"~  c #3B5463",
"^  c #3E5967",
"/  c #3E596A",
"(  c #4F5756",
")  c #495558",
"_  c #435358",
"`  c #515755",
"'  c #5B5951",
"]  c #625A4F",
"[  c #785F47",
"{  c #705D49",
"}  c #725C46",
"|  c #7B654D",
" . c #425C67",
".. c #425E6B",
"X. c #43616E",
"o. c #456474",
"O. c #496472",
"+. c #456678",
"@. c #4B6C7C",
"#. c #4F707D",
"$. c #677272",
"%. c #8C5628",
"&. c #905728",
"*. c #9E5E2A",
"=. c #A05F29",
"-. c #8B613D",
";. c #9E6738",
":. c #A5632E",
">. c #AB672F",
",. c #A26330",
"<. c #AB6730",
"1. c #A56835",
"2. c #AD6A32",
"3. c #B56C30",
"4. c #826245",
"5. c #81705A",
"6. c #867966",
"7. c #887D6A",
"8. c #8A7C67",
"9. c #4B6F80",
"0. c #4C7283",
"q. c #4F778B",
"w. c #547685",
"e. c #567885",
"r. c #537789",
"t. c #537A8C",
"y. c #527D92",
"u. c #558297",
"i. c #5D8395",
"p. c #57869B",
"a. c #5B869B",
"s. c #5B899E",
"d. c #688994",
"f. c #618B9E",
"g. c #5C8DA4",
"h. c #5E91A8",
"j. c #638CA0",
"k. c #6395AC",
"l. c #6A95AA",
"z. c #6C9AAE",
"x. c #679BB3",
"c. c #6D9CB2",
"v. c #709EB4",
"b. c #6DA3BA",
"n. c #70A1B7",
"m. c #71A6BE",
"M. c #76A8BD",
"N. c #75ACC4",
"B. c #79AEC5",
"V. c #77AFC8",
"C. c #7BB0C7",
"Z. c #7BB4CD",
"A. c #81BAD3",
"S. c #85BFD9",
"D. c #87C2DC",
"F. c #88C4DD",
"G. c #8AC6E0",
"H. c None",
/* pixels */
"H.H.H.H.H.H.H.H.H.H.H.H.H.H.H.H.H.H.H.H.H.H.H.H.H.H.H.H.H.H.H.H.H.H.H.H.H.H.H.H.H.H.H.H.H.H.H.H.H.H.",
"H.H.H.H.H.H.H.H.H.H.H.H.H.H.H.H.H.H.H.H.H.H.H.H.H.H.H.H.H.H.H.H.H.H.H.H.H.H.H.H.H.H.H.H.H.H.H.H.H.H.",
"H.H.H.H.H.H.H.H.H.H.H.H.H.H.H.H.H.H.H.H.H.H.H.H.H.H.H.H.H.H.H.H.H.H.H.H.H.H.H.H.H.H.H.H.H.H.H.H.H.H.",
"H.H.H.H.H.H.H.H.H.H.H.H.H.H.H.H.H.H.H.H.H.H.H.H.H.H.H.H.H.H.H.H.H.H.H.H.H.H.H.H.H.H.H.H.H.H.H.H.H.H.",
"H.H.H.H.H.H.H.H.H.H.H.H.H.H.H.H.H.H.H.H.H.H.H.H.H.H.H.H.H.H.H.H.H.H.H.H.H.H.H.H.H.H.H.H.H.H.H.H.H.H.",
"H.H.H.H.H.H.H.H.H.H.H.H.H.H.H.H.H.H.H.H.H.H.H.H.H.H.H.H.H.H.H.H.H.H.H.H.H.H.H.H.H.H.H.H.H.H.H.H.H.H.",
"H.H.H.H.H.H.H.H.H.H.H.H.H.H.H.H.H.H.H.H.H.H.H.H.H.H.H.H.H.H.H.H.H.H.H.H.H.H.H.H.H.H.H.H.H.H.H.H.H.H.",
"H.H.H.H.H.H.H.H.H.H.H.H.H.H.H.H.H.H.H.H.H.H.H.H.H.H.H.H.H.H.H.H.H.H.H.H.H.H.H.H.H.H.H.H.H.H.H.H.H.H.",
"H.H.H.H.H.H.H.H.H.H.H.H.H.H.H.H.H.H.H.        : 6 6 6 6 6 6 6 6 6 6 H.H.H.H.H.H.H.H.H.H.H.H.H.H.H.H.",
"H.H.H.H.H.H.H.H.H.H.H.H.H.H.H.H.H.H.    + , 0 W ..R ..i.i.y.y.9.~ 7 6 H.H.H.H.H.H.H.H.H.H.H.H.H.H.H.",
"H.H.H.H.H.H.H.H.H.H.H.H.H.H.H.H.H.    o , K Q 9.p...a.G.G.G.G.B.y.~ K 6 H.H.H.H.H.H.H.H.H.H.H.H.H.H.",
"H.H.H.H.H.H.H.H.H.H.H.H.H.H.H.H.    + < < K Q 9.p...i.G.G.G.G.S.Z.N.o.6 7 H.H.H.H.H.H.H.H.H.H.H.H.H.",
"H.H.H.H.H.H.H.H.H.H.H.H.H.H.H.    + , 6 6 K W 9.a...y.G.G.G.G.G.G.G.j.~ K 7 H.H.H.H.H.H.H.H.H.H.H.H.",
"H.H.H.H.H.H.H.H.H.H.H.H.H.H.      , 6 6 6 K W 9.a. .f.G.G.G.G.G.G.S.v.y.R 7 7 H.H.H.H.H.H.H.H.H.H.H.",
"H.H.H.H.H.H.H.H.H.H.H.H.H.H.      < 6 6 6 K Q 9.p...d.G.G.G.G.G.A.x.h.g.q.~ 6 H.H.H.H.H.H.H.H.H.H.H.",
"H.H.H.H.H.H.H.H.H.H.H.H.H.H.      : 6 6 6 K I ~ o.W O.j.j.j.j.j.a.q.p.g.g.+.7 H.H.H.H.H.H.H.H.H.H.H.",
"H.H.H.H.H.H.H.H.H.H.H.H.H.H.      < 6 6 6 6 6 6 6 6 6 6 6 6 6 6 K Q 0.g.g.+.6 H.H.H.H.H.H.H.H.H.H.H.",
"H.H.H.H.H.H.H.H.H.H.H.H.H.H.  8 +.a.j.9.a.l.l.l.l.l.l.l.l.r.R K 7 K I Q / W 7 H.H.H.H.H.H.H.H.H.H.H.",
"H.H.H.H.H.H.H.H.H.H.H.H.H.H.  Y g.Z.Z.h.C.G.G.F.G.G.G.G.G.v.O.~ W W K q Q T 7 H.H.H.H.H.H.H.H.H.H.H.",
"H.H.H.H.H.H.H.H.H.H.H.H.H.H.  Y g.Z.Z.h.C.G.G.F.G.G.G.G.G.V.p.g.p.g.~ q W Y 6 H.H.H.H.H.H.H.H.H.H.H.",
"H.H.H.H.H.H.H.H.H.H.H.H.H.H.  Y h.Z.Z.h.V.G.F.F.G.G.G.G.G.V.h.g.d.7.4.H _ R 6 H.H.H.H.H.H.H.H.H.H.H.",
"H.H.H.H.H.H.H.H.H.H.H.H.H.H.  q 9.f.j.q.s.z.n.v.z.v.c.z.v.j.9.0.$.2.3.;.` P 6 H.H.H.H.H.H.H.H.H.H.H.",
"H.H.H.H.H.H.H.H.H.H.H.H.H.H.  O > , 6 K 8 6 P q 1 L q 1 L q > 7 V >.3.;.` P 6 H.H.H.H.H.H.H.H.H.H.H.",
"H.H.H.H.H.H.H.H.H.H.H.H.H.H.H.      > L 6 1 L 6 3 L 0 : q 6   , e G J C t 7 7 H.H.H.H.H.H.H.H.H.H.H.",
"H.H.H.H.H.H.H.H.H.H.H.H.H.H.H.H.  > w ..Q R  .Q R  .Q I  .T + < 0 6 6 , o : 6 H.H.H.H.H.H.H.H.H.H.H.",
"H.H.H.H.H.H.H.H.H.H.H.H.H.H.H.H.  e.M.V.B.N.C.N.N.N.N.N.N.f.R R T 6 : o     H.H.H.H.H.H.H.H.H.H.H.H.",
"H.H.H.H.H.H.H.H.H.H.H.H.H.H.H.H.  @.z.N.N.N.V.V.N.N.N.N.z.t._ R L > O     H.H.H.H.H.H.H.H.H.H.H.H.H.",
"H.H.H.H.H.H.H.H.H.H.H.H.H.H.H.H.. w X.u.p.p.p.p.p.p.a.u.X.Q ! P 1 > : : H.H.H.H.H.H.H.H.H.H.H.H.H.H.",
"H.H.H.H.H.H.H.H.H.H.H.H.H.H.      : 1 w K w w K w w L w 6 6 w ^ r.f.j.d.X.H.H.H.H.H.H.H.H.H.H.H.H.H.",
"H.H.H.H.H.H.H.H.H.H.H.H.H.H.+ + + 1 , + : +   o : + > 1 1 8 L t.N.F.F.A.f.O.H.H.H.H.H.H.H.H.H.H.H.H.",
"H.H.H.H.H.H.H.H.H.H.H.H.H.o 6 6 6 R R 8 6 , o : 6 6 P ! ! ! ! c.G.G.G.G.G.e.  H.H.H.H.H.H.H.H.H.H.H.",
"H.H.H.H.H.H.H.H.H.H.H.H.H.o , 6 6 T ! T ^ +.X.o.o.E E ! ! ! ! z.G.G.G.G.G.e.  H.H.H.H.H.H.H.H.H.H.H.",
"H.H.H.H.H.H.H.H.H.H.H.H.H.o , 6 6 ! o.@.s.x.x.x.k.r.@.X.X.! Y i.C.D.F.D.Z.w.  H.H.H.H.H.H.H.H.H.H.H.",
"H.H.H.H.H.H.H.H.H.H.H.H.H.O < 6 6 @.x.A.D.F.F.F.F.S.m.s.g.X.o Y w.D.G.A.x.^   H.H.H.H.H.H.H.H.H.H.H.",
"H.H.H.H.H.H.H.H.H.H.H.H.H.o + : > ! 0.i.l.m.m.b.b.s.r.@.@.E   , w X.X.X.E L H.H.H.H.H.H.H.H.H.H.H.H.",
"H.H.H.H.H.H.H.H.H.H.H.H.H.H.      Y ! ! 0.g.g.h.p.X.! ! ! L o o .         H.H.H.H.H.H.H.H.H.H.H.H.H.",
"H.H.H.H.H.H.H.H.H.H.H.H.H.H.H.H.  L ! ! 0.g.g.g.p.X.Q ! ! T < < >       H.H.H.H.H.H.H.H.H.H.H.H.H.H.",
"H.H.H.H.H.H.H.H.H.H.H.H.H.H.H.H.H.6 B } 5.7.7.8.6.| ] c c 5 - 3 +     H.H.H.H.H.H.H.H.H.H.H.H.H.H.H.",
"H.H.H.H.H.H.H.H.H.H.H.H.H.H.H.H.H.  a *.,.,.:.:.:.;.M p u p p $     H.H.H.H.H.H.H.H.H.H.H.H.H.H.H.H.",
"H.H.H.H.H.H.H.H.H.H.H.H.H.H.H.H.H.  % k x l k x v v 5 2 2 2 2 +     H.H.H.H.H.H.H.H.H.H.H.H.H.H.H.H.",
"H.H.H.H.H.H.H.H.H.H.H.H.H.H.H.H.H.+ ; j v c j v L L 7 7 K L L 8 ,   H.H.H.H.H.H.H.H.H.H.H.H.H.H.H.H.",
"H.H.H.H.H.H.H.H.H.H.H.H.H.H.H.H.  , v 2.{ ' 1.[ ! ~ T 7 R ! ! ! T O H.H.H.H.H.H.H.H.H.H.H.H.H.H.H.H.",
"H.H.H.H.H.H.H.H.H.H.H.H.H.H.    o , Z >.{ ' 1.| ! ! Y 7 0 Y ~ ! Q Y 1   H.H.H.H.H.H.H.H.H.H.H.H.H.H.",
"H.H.H.H.H.H.H.H.H.H.H.H.H.H.  $ a l G -.' ( 4.] Q ~ P , , t ] ] ] ] Z a H.H.H.H.H.H.H.H.H.H.H.H.H.H.",
"H.H.H.H.H.H.H.H.H.H.H.H.H.H.  d >.>.-.) ! ! _ ! ~ ! w     g 2.2.2.2.>.&.=   H.H.H.H.H.H.H.H.H.H.H.H.",
"H.H.H.H.H.H.H.H.H.H.H.H.H.H.H.- h m S z z r 9 6 6 9 >     = h m M M M m * @ H.H.H.H.H.H.H.H.H.H.H.H.",
"H.H.H.H.H.H.H.H.H.H.H.H.H.H.H.H.  & i i i * .                 @ * i i i i & $ H.H.H.H.H.H.H.H.H.H.H.",
"H.H.H.H.H.H.H.H.H.H.H.H.H.H.H.H.  & i i i * .   H.H.H.H.H.H.H.. $ u i i i u * X   H.H.H.H.H.H.H.H.H.",
"H.H.H.H.H.H.H.H.H.H.H.H.H.H.H.- S M N N N k $ H.H.H.H.H.H.H.H.H.X @ * s M N M m g H.H.H.H.H.H.H.H.H.",
"H.H.H.H.H.H.H.H.H.H.H.H.H.H.  g 3.3.3.3.3.%.= H.H.H.H.H.H.H.H.H.H.  # f *.3.3.3.F   H.H.H.H.H.H.H.H."
};
