/* XPM */
static char *result[] = {
/* columns rows colors chars-per-pixel */
"50 50 161 2 ",
"   c #141412",
".  c #1A1611",
"X  c #1D1810",
"o  c #161718",
"O  c #171819",
"+  c #191B1D",
"@  c #2B1D0F",
"#  c #301F0F",
"$  c #231B14",
"%  c #291F15",
"&  c #37210E",
"*  c #3B230E",
"=  c #2E2216",
"-  c #342416",
";  c #3E2B1A",
":  c #3D2611",
">  c #1B1E22",
",  c #1D2225",
"<  c #1F232A",
"1  c #21252D",
"2  c #212A2D",
"3  c #2D2C2D",
"4  c #352921",
"5  c #3A2F28",
"6  c #3D2F26",
"7  c #222731",
"8  c #242B35",
"9  c #262E3A",
"0  c #322F30",
"q  c #263036",
"w  c #283134",
"e  c #273139",
"r  c #28343C",
"t  c #2A393F",
"y  c #323234",
"u  c #3A3831",
"i  c #30353B",
"p  c #45260D",
"a  c #47280D",
"s  c #402814",
"d  c #452E1A",
"f  c #512E11",
"g  c #4F3016",
"h  c #44301C",
"j  c #4C321C",
"k  c #51351E",
"l  c #5A3A1F",
"z  c #5B3413",
"x  c #693E19",
"c  c #633C1B",
"v  c #413022",
"b  c #4D382A",
"n  c #47372B",
"m  c #543C2B",
"M  c #423A30",
"N  c #4A3F39",
"B  c #513E34",
"V  c #6D421D",
"C  c #76451D",
"Z  c #7D4A1E",
"A  c #5B4433",
"S  c #654122",
"D  c #6A4220",
"F  c #7A4B23",
"G  c #744B2B",
"H  c #6C4B33",
"J  c #634633",
"K  c #67513D",
"L  c #79563A",
"P  c #2A3541",
"I  c #2D3C45",
"U  c #2E3D49",
"Y  c #363E42",
"T  c #2F4149",
"R  c #31434D",
"E  c #3D4A4E",
"W  c #354653",
"Q  c #354A55",
"!  c #384B53",
"~  c #384D59",
"^  c #374B5B",
"/  c #3B535E",
"(  c #3C5463",
")  c #3E5A66",
"_  c #3D5768",
"`  c #3F5A6B",
"'  c #4E4D48",
"]  c #5C564C",
"[  c #4B5454",
"{  c #42555C",
"}  c #515755",
"|  c #5A5952",
" . c #615040",
".. c #785F47",
"X. c #705D49",
"o. c #415D6C",
"O. c #405565",
"+. c #425F71",
"@. c #45626E",
"#. c #566060",
"$. c #456373",
"%. c #496473",
"&. c #476979",
"*. c #4C6C7C",
"=. c #4A6875",
"-. c #516F7D",
";. c #656E6D",
":. c #607275",
">. c #8C5628",
",. c #8C582C",
"<. c #915727",
"1. c #905728",
"2. c #A05F29",
"3. c #87603D",
"4. c #9E6738",
"5. c #9F693B",
"6. c #956236",
"7. c #AA662E",
"8. c #AB6730",
"9. c #A56835",
"0. c #AD6A33",
"q. c #B56C30",
"w. c #8F6541",
"e. c #957859",
"r. c #A16D40",
"t. c #A47245",
"y. c #4A6E82",
"u. c #4C7283",
"i. c #4F7689",
"p. c #4F788C",
"a. c #527485",
"s. c #567885",
"d. c #547689",
"f. c #56798C",
"g. c #5A7F8D",
"h. c #537E92",
"j. c #5D8596",
"k. c #57859B",
"l. c #5C879C",
"z. c #698187",
"x. c #6C878F",
"c. c #6B8890",
"v. c #5C8EA5",
"b. c #5E91A8",
"n. c #638CA1",
"m. c #6492A6",
"M. c #6795AA",
"N. c #6B97AB",
"B. c #6C9AAF",
"V. c #659AB2",
"C. c #6B9EB5",
"Z. c #6DA3BB",
"A. c #73A5BA",
"S. c #71A2B6",
"D. c #74AAC3",
"F. c #7CB4CD",
"G. c #82BBD4",
"H. c #87C2DC",
"J. c #88C3DD",
"K. c #8AC6E0",
"L. c None",
/* pixels */
"L.L.L.L.L.L.L.L.L.L.L.L.L.L.L.L.L.L.L.L.L.L.L.L.L.L.L.L.L.L.L.L.L.L.L.L.L.L.L.L.L.L.L.L.L.L.L.L.L.L.",
"L.L.L.L.L.L.L.L.L.L.L.L.L.L.L.L.L.L.L.L.L.L.L.L.L.L.L.L.L.L.L.L.L.L.L.L.L.L.L.L.L.L.L.L.L.L.L.L.L.L.",
"L.L.L.L.L.L.L.L.L.L.L.L.L.L.L.L.L.L.L.L.L.L.L.L.L.L.L.L.L.L.L.L.L.L.L.L.L.L.L.L.L.L.L.L.L.L.L.L.L.L.",
"L.L.L.L.L.L.L.L.L.L.L.L.L.L.L.L.L.L.L.L.L.L.L.L.L.L.L.L.L.L.L.L.L.L.L.L.L.L.L.L.L.L.L.L.L.L.L.L.L.L.",
"L.L.L.L.L.L.L.L.L.L.L.L.L.L.L.L.L.L.L.L.L.L.L.L.L.L.L.L.L.L.L.L.L.L.L.L.L.L.L.L.L.L.L.L.L.L.L.L.L.L.",
"L.L.L.L.L.L.L.L.L.L.L.L.L.L.L.L.L.L.L.        > 8 8 8 8 8 8 8 8 8 8 L.L.L.L.L.L.L.L.L.L.L.L.L.L.L.L.",
"L.L.L.L.L.L.L.L.L.L.L.L.L.L.L.L.L.L.    + 1 t / $.^ $.n.n.n.n.d._ 8 8 8 L.L.L.L.L.L.L.L.L.L.L.L.L.L.",
"L.L.L.L.L.L.L.L.L.L.L.L.L.L.L.L.L.    O < P ~ u.k.o.j.K.K.K.K.D.v._ U 9 L.L.L.L.L.L.L.L.L.L.L.L.L.L.",
"L.L.L.L.L.L.L.L.L.L.L.L.L.L.L.L.    + 7 8 r ~ y.k.o.j.J.K.K.K.J.K.G.y.8 8 8 L.L.L.L.L.L.L.L.L.L.L.L.",
"L.L.L.L.L.L.L.L.L.L.L.L.L.L.L.    + < 8 8 P ~ y.k.o.j.K.K.K.K.K.K.K.n._ P 8 L.L.L.L.L.L.L.L.L.L.L.L.",
"L.L.L.L.L.L.L.L.L.L.L.L.L.L.      > 1 1 7 9 W +.i.( a.D.D.D.D.G.K.F.C.h.^ P 8 L.L.L.L.L.L.L.L.L.L.L.",
"L.L.L.L.L.L.L.L.L.L.L.L.L.L.      o O O O > 9 P U r U W E W W N.G.V.b.v.h._ 8 L.L.L.L.L.L.L.L.L.L.L.",
"L.L.L.L.L.L.L.L.L.L.L.L.L.L.  2 ~ $.%./ +.-.d.f.f.f.d.f.f.+.U %.u.+.p.b.v.$.8 L.L.L.L.L.L.L.L.L.L.L.",
"L.L.L.L.L.L.L.L.L.L.L.L.L.L.  T n.F.F.b.F.K.K.K.K.K.K.K.K.B.o.U 9 8 ` h.k.+.8 L.L.L.L.L.L.L.L.L.L.L.",
"L.L.L.L.L.L.L.L.L.L.L.L.L.L.  T v.F.F.b.D.K.K.K.K.K.K.K.K.D.h.o.R 9 P ^ ` Q 8 L.L.L.L.L.L.L.L.L.L.L.",
"L.L.L.L.L.L.L.L.L.L.L.L.L.L.  T v.F.F.b.D.K.K.K.K.K.K.K.K.F.n.d.` ( U e ^ U 8 L.L.L.L.L.L.L.L.L.L.L.",
"L.L.L.L.L.L.L.L.L.L.L.L.L.L.  T v.F.F.b.D.J.K.K.K.K.J.K.K.F.v.v.b.v._ 9 ^ U 8 L.L.L.L.L.L.L.L.L.L.L.",
"L.L.L.L.L.L.L.L.L.L.L.L.L.L.  , P R R I R ! ! ! ! ! ! ! ! / $.h.c.e.w.L [ R 8 L.L.L.L.L.L.L.L.L.L.L.",
"L.L.L.L.L.L.L.L.L.L.L.L.L.L.          + O   O O   O O   O 2 T ) ;.0.q.4.} W 8 L.L.L.L.L.L.L.L.L.L.L.",
"L.L.L.L.L.L.L.L.L.L.L.L.L.L.        + 2 > O 1 > O 1 ,   < <   2 N 8.q.5.} U 8 L.L.L.L.L.L.L.L.L.L.L.",
"L.L.L.L.L.L.L.L.L.L.L.L.L.L.L.      , T w < U e 1 I e , P 9   , y J J A w 9 8 L.L.L.L.L.L.L.L.L.L.L.",
"L.L.L.L.L.L.L.L.L.L.L.L.L.L.L.L.  q / *.@.o.*.@.O.=.%.( =./ , 9 9 8 7 > O + 8 L.L.L.L.L.L.L.L.L.L.L.",
"L.L.L.L.L.L.L.L.L.L.L.L.L.L.L.L.  j.D.F.F.F.F.F.F.G.F.F.F.n.! ! W 8 ,       L.L.L.L.L.L.L.L.L.L.L.L.",
"L.L.L.L.L.L.L.L.L.L.L.L.L.L.L.L.  =.M.A.A.D.D.D.D.A.D.D.M.a./ W t , O     L.L.L.L.L.L.L.L.L.L.L.L.L.",
"L.L.L.L.L.L.L.L.L.L.L.L.L.L.L.L.  t ) k.j.k.k.k.h.h.k.p.) ! ~ T r 2 2 2 L.L.L.L.L.L.L.L.L.L.L.L.L.L.",
"L.L.L.L.L.L.L.L.L.L.L.L.L.L.      o , < , < , < 2 < 2 < , < e $.l.S.A.N.=.L.L.L.L.L.L.L.L.L.L.L.L.L.",
"L.L.L.L.L.L.L.L.L.L.L.L.L.  > > + < < , + +   O > > < w w r U h.F.H.J.H.m.=.L.L.L.L.L.L.L.L.L.L.L.L.",
"L.L.L.L.L.L.L.L.L.L.L.L.L.O 1 8 q Q Q e e 2 , < e 9 U / / / / V.K.J.J.K.J.s.  L.L.L.L.L.L.L.L.L.L.L.",
"L.L.L.L.L.L.L.L.L.L.L.L.L.o < 8 8 W ~ W ` y.&.&.&.~ ! / / / / B.J.J.K.J.K.s.  L.L.L.L.L.L.L.L.L.L.L.",
"L.L.L.L.L.L.L.L.L.L.L.L.L.o 7 8 8 ( &.j.m.Z.Z.Z.Z.j.a.&.&.( I s.A.H.K.J.F.=.  L.L.L.L.L.L.L.L.L.L.L.",
"L.L.L.L.L.L.L.L.L.L.L.L.L.  < e 8 y.Z.G.K.K.K.J.J.K.D.b.v.o.  t -.H.J.G.V._   L.L.L.L.L.L.L.L.L.L.L.",
"L.L.L.L.L.L.L.L.L.L.L.L.L.L.+ + + ~ &.j.m.Z.Z.Z.Z.j.u.&.&.!   , t / { / R r L.L.L.L.L.L.L.L.L.L.L.L.",
"L.L.L.L.L.L.L.L.L.L.L.L.L.L.      T / / u.v.v.v.j.@./ / ( I O O O         L.L.L.L.L.L.L.L.L.L.L.L.L.",
"L.L.L.L.L.L.L.L.L.L.L.L.L.L.L.L.  I / / i.v.v.v.k.` / / ~ W 8 8 1       L.L.L.L.L.L.L.L.L.L.L.L.L.L.",
"L.L.L.L.L.L.L.L.L.L.L.L.L.L.L.L.  9 R / u.b.v.v.k.) / / / R 8 8 1     L.L.L.L.L.L.L.L.L.L.L.L.L.L.L.",
"L.L.L.L.L.L.L.L.L.L.L.L.L.L.L.L.  , i [ :.x.x.x.z.#.[ E ! Y 3 2 <   L.L.L.L.L.L.L.L.L.L.L.L.L.L.L.L.",
"L.L.L.L.L.L.L.L.L.L.L.L.L.L.L.L.L.o v 6.9.t.t.t.t.5.G v h h s %     L.L.L.L.L.L.L.L.L.L.L.L.L.L.L.L.",
"L.L.L.L.L.L.L.L.L.L.L.L.L.L.L.L.L.  - C G G F G H H m 4 4 4 4 O     L.L.L.L.L.L.L.L.L.L.L.L.L.L.L.L.",
"L.L.L.L.L.L.L.L.L.L.L.L.L.L.L.L.L.o % f 5 y g 6 e 9 8 8 9 9 9 , O   L.L.L.L.L.L.L.L.L.L.L.L.L.L.L.L.",
"L.L.L.L.L.L.L.L.L.L.L.L.L.L.L.L.  > n 1. .' ,.K Q Q U 8 T ! W W r O L.L.L.L.L.L.L.L.L.L.L.L.L.L.L.L.",
"L.L.L.L.L.L.L.L.L.L.L.L.L.L.L.L.  1 B 7.X.| 9.../ / R 8 I ! / / R w , L.L.L.L.L.L.L.L.L.L.L.L.L.L.L.",
"L.L.L.L.L.L.L.L.L.L.L.L.L.L.L.L.  , B 7.X.| 9.../ ( U 8 8 I / / / / 8   L.L.L.L.L.L.L.L.L.L.L.L.L.L.",
"L.L.L.L.L.L.L.L.L.L.L.L.L.L.      O 0 ] [ { | } / / I + + > 2 q I I ,   L.L.L.L.L.L.L.L.L.L.L.L.L.L.",
"L.L.L.L.L.L.L.L.L.L.L.L.L.L.  $ h h n ~ / / / / / / r     $ d b B B b d L.L.L.L.L.L.L.L.L.L.L.L.L.L.",
"L.L.L.L.L.L.L.L.L.L.L.L.L.L.  j 7.7.3.{ / / / / / / r     j 7.7.7.7.7.<.-   L.L.L.L.L.L.L.L.L.L.L.L.",
"L.L.L.L.L.L.L.L.L.L.L.L.L.L.L.; l V S M u u w w 9 w ,     = l V C C C x * @ L.L.L.L.L.L.L.L.L.L.L.L.",
"L.L.L.L.L.L.L.L.L.L.L.L.L.L.L.L.  & a a a * .                 @ * p a a p & $ L.L.L.L.L.L.L.L.L.L.L.",
"L.L.L.L.L.L.L.L.L.L.L.L.L.L.L.L.  * a a a * .   L.L.L.L.L.L.L.. $ p a a p p * X   L.L.L.L.L.L.L.L.L.",
"L.L.L.L.L.L.L.L.L.L.L.L.L.L.L.; S C Z Z Z c $ L.L.L.L.L.L.L.L.L.X @ * f C Z C V k L.L.L.L.L.L.L.L.L.",
"L.L.L.L.L.L.L.L.L.L.L.L.L.L.  k q.q.q.q.q.>.= L.L.L.L.L.L.L.L.L.L.  # z 2.q.q.q.F   L.L.L.L.L.L.L.L."
};
