/* XPM */
static char *result[] = {
/* columns rows colors chars-per-pixel */
"50 50 161 2 ",
"   c #141412",
".  c #1B1711",
"X  c #1E1913",
"o  c #161718",
"O  c #171819",
"+  c #191B1D",
"@  c #2D1E0F",
"#  c #311F0F",
"$  c #241C13",
"%  c #281B10",
"&  c #36210E",
"*  c #3B230E",
"=  c #2B2015",
"-  c #3B2612",
";  c #3B2816",
":  c #322417",
">  c #1B1D21",
",  c #1D2225",
"<  c #1F232A",
"1  c #21252E",
"2  c #212A2D",
"3  c #29292E",
"4  c #332720",
"5  c #352921",
"6  c #392F2A",
"7  c #352F2D",
"8  c #222731",
"9  c #242A35",
"0  c #262D3A",
"q  c #263135",
"w  c #27313A",
"e  c #29343C",
"r  c #2B393E",
"t  c #2C3233",
"y  c #363333",
"u  c #383731",
"i  c #33383D",
"p  c #47280D",
"a  c #43260D",
"s  c #432E1A",
"d  c #45301C",
"f  c #4D331C",
"g  c #533012",
"h  c #56381E",
"j  c #5C3A1D",
"k  c #643B17",
"l  c #4A3524",
"z  c #4D392B",
"x  c #513A2A",
"c  c #413B31",
"v  c #513E34",
"b  c #6F421D",
"n  c #77451D",
"m  c #7D4A1E",
"M  c #5A4233",
"N  c #534238",
"B  c #534133",
"V  c #654122",
"C  c #6C4321",
"Z  c #724A2B",
"A  c #634633",
"S  c #6C4B33",
"D  c #74563C",
"F  c #2A3642",
"G  c #2D3B45",
"H  c #2F3D49",
"J  c #303F4B",
"K  c #353C40",
"L  c #31434C",
"P  c #3D4A4E",
"I  c #354654",
"U  c #354A54",
"Y  c #384B53",
"T  c #374C5B",
"R  c #394E5C",
"E  c #3B535E",
"W  c #3C5463",
"Q  c #3E5A66",
"!  c #574F45",
"~  c #475152",
"^  c #43555C",
"/  c #4A5658",
"(  c #4B5657",
")  c #515755",
"_  c #5E5A50",
"`  c #555D5C",
"'  c #615040",
"]  c #615A4F",
"[  c #685C4C",
"{  c #705D49",
"}  c #405666",
"|  c #415A65",
" . c #425D6C",
".. c #415F70",
"X. c #46616D",
"o. c #446374",
"O. c #4A6675",
"+. c #456877",
"@. c #4A6877",
"#. c #466779",
"$. c #476978",
"%. c #4C6D7C",
"&. c #51707E",
"*. c #6B6D68",
"=. c #627579",
"-. c #845127",
";. c #965A29",
":. c #8E633E",
">. c #96653B",
",. c #9E6738",
"<. c #9E683A",
"1. c #AB662E",
"2. c #A7632B",
"3. c #AB6730",
"4. c #AD6A32",
"5. c #B56C30",
"6. c #805F40",
"7. c #997654",
"8. c #A16E40",
"9. c #A47245",
"0. c #4F6F81",
"q. c #4D7384",
"w. c #4F778A",
"e. c #4F788A",
"r. c #517484",
"t. c #567789",
"y. c #55798C",
"u. c #587E8D",
"i. c #537E92",
"p. c #677E84",
"a. c #558297",
"s. c #5B8294",
"d. c #56849A",
"f. c #5B859A",
"g. c #5C889C",
"h. c #6D878E",
"j. c #628B9D",
"k. c #5C8EA5",
"l. c #5E91A8",
"z. c #638CA0",
"x. c #6793A7",
"c. c #6495AB",
"v. c #6997AC",
"b. c #6498B0",
"n. c #699DB3",
"m. c #709EB4",
"M. c #6DA3BB",
"N. c #71A2B7",
"B. c #72A5BC",
"V. c #75A8BE",
"C. c #74AAC2",
"Z. c #78AAC2",
"A. c #7BB3CB",
"S. c #7EB7D1",
"D. c #7EB8D1",
"F. c #80B7CF",
"G. c #83BCD5",
"H. c #86C1DB",
"J. c #89C4DE",
"K. c #8AC6E0",
"L. c None",
/* pixels */
"L.L.L.L.L.L.L.L.L.L.L.L.L.L.L.L.L.L.L.L.L.L.L.L.L.L.L.L.L.L.L.L.L.L.L.L.L.L.L.L.L.L.L.L.L.L.L.L.L.L.",
"L.L.L.L.L.L.L.L.L.L.L.L.L.L.L.L.L.L.L.L.L.L.L.L.L.L.L.L.L.L.L.L.L.L.L.L.L.L.L.L.L.L.L.L.L.L.L.L.L.L.",
"L.L.L.L.L.L.L.L.L.L.L.L.L.L.L.L.L.L.L.L.L.L.L.L.L.L.L.L.L.L.L.L.L.L.L.L.L.L.L.L.L.L.L.L.L.L.L.L.L.L.",
"L.L.L.L.L.L.L.L.L.L.L.L.L.L.L.L.L.L.L.L.L.L.L.L.L.L.L.L.L.L.L.L.L.L.L.L.L.L.L.L.L.L.L.L.L.L.L.L.L.L.",
"L.L.L.L.L.L.L.L.L.L.L.L.L.L.L.L.L.L.L.L.L.L.L.L.L.L.L.L.L.L.L.L.L.L.L.L.L.L.L.L.L.L.L.L.L.L.L.L.L.L.",
"L.L.L.L.L.L.L.L.L.L.L.L.L.L.L.L.0 0 9 9 9 0 9 9 0 9 ,         L.L.L.L.L.L.L.L.L.L.L.L.L.L.L.L.L.L.L.",
"L.L.L.L.L.L.L.L.L.L.L.L.L.L.L.9 9 } r.z.z.z.z.@.I o.W r 8 >     L.L.L.L.L.L.L.L.L.L.L.L.L.L.L.L.L.L.",
"L.L.L.L.L.L.L.L.L.L.L.L.L.L.9 F W i.C.J.K.K.K.z.Q a.q.E F < +     L.L.L.L.L.L.L.L.L.L.L.L.L.L.L.L.L.",
"L.L.L.L.L.L.L.L.L.L.L.L.L.9 9 ..G.H.J.K.K.K.K.j.Q a.q.R F 9 9 >     L.L.L.L.L.L.L.L.L.L.L.L.L.L.L.L.",
"L.L.L.L.L.L.L.L.L.L.L.L.8 F W k.K.K.K.K.K.K.K.j.Q a.q.E F 9 9 < +     L.L.L.L.L.L.L.L.L.L.L.L.L.L.L.",
"L.L.L.L.L.L.L.L.L.L.L.9 F J i.n.G.J.G.Z.Z.Z.V.y.E q.#.I 0 8 8 8 ,       L.L.L.L.L.L.L.L.L.L.L.L.L.L.",
"L.L.L.L.L.L.L.L.L.L.L.9 T i.k.l.b.F.m.R I I I J e G F 0 > o o o         L.L.L.L.L.L.L.L.L.L.L.L.L.L.",
"L.L.L.L.L.L.L.L.L.L.L.9 W k.k.i. .0.O.J X.y.y.y.y.y.y.y.r. .R X.X.E q   L.L.L.L.L.L.L.L.L.L.L.L.L.L.",
"L.L.L.L.L.L.L.L.L.L.L.9 W d.d...9 0 J W v.K.K.K.J.J.J.K.K.A.k.A.D.l.U   L.L.L.L.L.L.L.L.L.L.L.L.L.L.",
"L.L.L.L.L.L.L.L.L.L.L.9 I  .T G 0 L Q i.M.J.K.K.K.K.K.K.J.A.k.A.D.l.U   L.L.L.L.L.L.L.L.L.L.L.L.L.L.",
"L.L.L.L.L.L.L.L.L.L.L.9 G T e F R Q 0.k.A.K.K.K.K.K.K.K.K.A.k.C.D.l.U   L.L.L.L.L.L.L.L.L.L.L.L.L.L.",
"L.L.L.L.L.L.L.L.L.L.L.9 H Y F E k.k.k.k.Z.K.K.K.K.K.K.K.K.A.k.A.D.l.U   L.L.L.L.L.L.L.L.L.L.L.L.L.L.",
"L.L.L.L.L.L.L.L.L.L.L.9 G ^ D :.7.h.i.#.W Y Y Y Y Y Y Y Y L r L L r ,   L.L.L.L.L.L.L.L.L.L.L.L.L.L.",
"L.L.L.L.L.L.L.L.L.L.L.9 H / >.5.5.*...L 2 O   o +   o + o   O           L.L.L.L.L.L.L.L.L.L.L.L.L.L.",
"L.L.L.L.L.L.L.L.L.L.L.9 G / >.5.5.N 8 + < <   > 2 o > 8 + + 9 +         L.L.L.L.L.L.L.L.L.L.L.L.L.L.",
"L.L.L.L.L.L.L.L.L.L.L.9 9 t B A A y <   9 G < w G 1 9 L 9 9 L ,       L.L.L.L.L.L.L.L.L.L.L.L.L.L.L.",
"L.L.L.L.L.L.L.L.L.L.L.9 ,   , < 9 e 0 , Y @.W X.%.} X.%.Q  .%.E t   L.L.L.L.L.L.L.L.L.L.L.L.L.L.L.L.",
"L.L.L.L.L.L.L.L.L.L.L.L.o     , 9 L T U g.D.A.D.A.A.A.F.F.A.F.A.j.+ L.L.L.L.L.L.L.L.L.L.L.L.L.L.L.L.",
"L.L.L.L.L.L.L.L.L.L.L.L.L.    X > F I R r.x.B.V.C.C.C.C.C.C.C.v.&.+ L.L.L.L.L.L.L.L.L.L.L.L.L.L.L.L.",
"L.L.L.L.L.L.L.L.L.L.L.L.L.L.2 2 < w L Y Y Q e.a.a.u.a.i.i.a.a.Q G o   L.L.L.L.L.L.L.L.L.L.L.L.L.L.L.",
"L.L.L.L.L.L.L.L.L.L.L.L.L.X.x.V.B.g.+.F < , 2 < 2 < 2 2 < 2 < , O       L.L.L.L.L.L.L.L.L.L.L.L.L.L.",
"L.L.L.L.L.L.L.L.L.L.L.L.X.z.D.J.J.A.d.L r q q < , > O   + + , < 1 > > >   L.L.L.L.L.L.L.L.L.L.L.L.L.",
"L.L.L.L.L.L.L.L.L.L.L.  X.J.J.J.K.J.N.Q E E E L 0 w < + 8 w q U I 0 9 1 O   L.L.L.L.L.L.L.L.L.L.L.L.",
"L.L.L.L.L.L.L.L.L.L.L.  X.J.K.K.K.K.N.Q E E E Y U +.%.$.%...U T I 0 9 8 O   L.L.L.L.L.L.L.L.L.L.L.L.",
"L.L.L.L.L.L.L.L.L.L.L.  X.A.J.J.K.V.s.L E +.$.q.s.M.M.M.M.c.s.%.Q 0 9 8 O   L.L.L.L.L.L.L.L.L.L.L.L.",
"L.L.L.L.L.L.L.L.L.L.L.  L l.D.J.J.&.L   Q k.k.C.J.J.J.K.J.J.J.M.w.0 9 1 O   L.L.L.L.L.L.L.L.L.L.L.L.",
"L.L.L.L.L.L.L.L.L.L.L.L.q L E ^ E r ,   L $.$.%.s.M.M.M.M.c.s.%.W , > + L.L.L.L.L.L.L.L.L.L.L.L.L.L.",
"L.L.L.L.L.L.L.L.L.L.L.L.L.          + + F E W E | a.k.k.k.w.E E L       L.L.L.L.L.L.L.L.L.L.L.L.L.L.",
"L.L.L.L.L.L.L.L.L.L.L.L.L.L.      , 9 8 J E E E Q a.k.k.k.w.E E L   L.L.L.L.L.L.L.L.L.L.L.L.L.L.L.L.",
"L.L.L.L.L.L.L.L.L.L.L.L.L.L.L.    1 9 9 L E E E Q d.k.k.k.w.E L w o L.L.L.L.L.L.L.L.L.L.L.L.L.L.L.L.",
"L.L.L.L.L.L.L.L.L.L.L.L.L.L.L.L.  , 1 9 K P P ~ ` p.h.h.h.=.) i <   L.L.L.L.L.L.L.L.L.L.L.L.L.L.L.L.",
"L.L.L.L.L.L.L.L.L.L.L.L.L.L.L.L.    $ ; s d s Z <.8.9.9.9.4.,.l o L.L.L.L.L.L.L.L.L.L.L.L.L.L.L.L.L.",
"L.L.L.L.L.L.L.L.L.L.L.L.L.L.L.L.    X 5 5 5 5 z S S Z Z Z Z -.;   L.L.L.L.L.L.L.L.L.L.L.L.L.L.L.L.L.",
"L.L.L.L.L.L.L.L.L.L.L.L.L.L.L.L.  o , 0 0 0 9 0 0 0 6 g y 7 g =   L.L.L.L.L.L.L.L.L.L.L.L.L.L.L.L.L.",
"L.L.L.L.L.L.L.L.L.L.L.L.L.L.L.L.  w L I Y L 0 G U U ' ;.! ! ;.x <   L.L.L.L.L.L.L.L.L.L.L.L.L.L.L.L.",
"L.L.L.L.L.L.L.L.L.L.L.L.L.L.L., 2 L E E Y H 0 H E E [ 4._ [ 5.M 1   L.L.L.L.L.L.L.L.L.L.L.L.L.L.L.L.",
"L.L.L.L.L.L.L.L.L.L.L.L.L.L.  2 W E E W H 9 9 H E E { 4.] [ 5.M 1   L.L.L.L.L.L.L.L.L.L.L.L.L.L.L.L.",
"L.L.L.L.L.L.L.L.L.L.L.L.L.L.  , F F w 2 , + + r E E / _ / / ] y O       L.L.L.L.L.L.L.L.L.L.L.L.L.L.",
"L.L.L.L.L.L.L.L.L.L.L.L.L.L.s l v v z s %     w E E E E E E E u s s =   L.L.L.L.L.L.L.L.L.L.L.L.L.L.",
"L.L.L.L.L.L.L.L.L.L.L.L.L.$ -.4.1.1.1.1.h     q E E E E E E E :.3.1.j   L.L.L.L.L.L.L.L.L.L.L.L.L.L.",
"L.L.L.L.L.L.L.L.L.L.L.L.$ * k n n n n j :     , t q q q u c c V n x s L.L.L.L.L.L.L.L.L.L.L.L.L.L.L.",
"L.L.L.L.L.L.L.L.L.L.L.X & p p p p * #                   & p p p & . L.L.L.L.L.L.L.L.L.L.L.L.L.L.L.L.",
"L.L.L.L.L.L.L.L.L.L.X & a p p p p % . L.L.L.L.L.L.L.  . & p p p *   L.L.L.L.L.L.L.L.L.L.L.L.L.L.L.L.",
"L.L.L.L.L.L.L.L.L.f C n m n g * @ $ L.L.L.L.L.L.L.L.L.. j m m m n V s L.L.L.L.L.L.L.L.L.L.L.L.L.L.L.",
"L.L.L.L.L.L.L.L.  C 5.5.5.2.k &   L.L.L.L.L.L.L.L.L.L.X -.5.5.5.5.5.j   L.L.L.L.L.L.L.L.L.L.L.L.L.L."
};
