/* XPM */
static char *result[] = {
/* columns rows colors chars-per-pixel */
"50 50 147 2 ",
"   c #141412",
".  c #1A1712",
"X  c #161817",
"o  c #1E1A16",
"O  c #171718",
"+  c #171919",
"@  c #181A1C",
"#  c #201910",
"$  c #2F1F11",
"%  c #352617",
"&  c #1B1E22",
"*  c #1D2025",
"=  c #1F232A",
"-  c #1F282A",
";  c #21262C",
":  c #212A2D",
">  c #2A2E2D",
",  c #342B25",
"<  c #392C25",
"1  c #32302D",
"2  c #3E362B",
"3  c #222731",
"4  c #242A35",
"5  c #2A2C34",
"6  c #262E3A",
"7  c #263135",
"8  c #27313A",
"9  c #29353C",
"0  c #2B383D",
"q  c #343133",
"w  c #3D3A34",
"e  c #363C3B",
"r  c #40250D",
"t  c #47280D",
"y  c #462911",
"u  c #4F3117",
"i  c #44301C",
"p  c #533216",
"a  c #5B3413",
"s  c #5E3919",
"d  c #653B16",
"f  c #4D3725",
"g  c #503722",
"h  c #423B35",
"j  c #513E34",
"k  c #79481E",
"l  c #5A4130",
"z  c #644020",
"x  c #6E4523",
"c  c #724723",
"v  c #634632",
"b  c #7D5B3C",
"n  c #2A3541",
"m  c #2D3A44",
"M  c #2E3C49",
"N  c #303F44",
"B  c #303D4B",
"V  c #2F4046",
"C  c #2F4148",
"Z  c #314046",
"A  c #3D4443",
"S  c #31434D",
"D  c #39464E",
"F  c #334452",
"G  c #364A55",
"H  c #3A4C53",
"J  c #374C5A",
"K  c #384D59",
"L  c #3B535E",
"P  c #3D5261",
"I  c #3E5965",
"U  c #3F5C6B",
"Y  c #434846",
"T  c #504C46",
"R  c #5C574D",
"E  c #555853",
"W  c #635242",
"Q  c #62594C",
"!  c #685C4C",
"~  c #785F47",
"^  c #705D49",
"/  c #415964",
"(  c #415D6C",
")  c #45616D",
"_  c #446472",
"`  c #4A6574",
"'  c #496876",
"]  c #46677A",
"[  c #4A6778",
"{  c #476979",
"}  c #4A6C7D",
"|  c #576E78",
" . c #6A6B63",
".. c #824D20",
"X. c #86552C",
"o. c #9A5E2B",
"O. c #815432",
"+. c #845C39",
"@. c #995F31",
"#. c #A05F29",
"$. c #AC662D",
"%. c #AB6730",
"&. c #AE6D35",
"*. c #A16C3F",
"=. c #B56C30",
"-. c #916845",
";. c #8D7B63",
":. c #4A6F80",
">. c #4C7183",
",. c #4E7689",
"<. c #4F788B",
"1. c #537484",
"2. c #567886",
"3. c #53798C",
"4. c #5A7D8E",
"5. c #517B90",
"6. c #5C7F91",
"7. c #5A8294",
"8. c #57869C",
"9. c #5D8699",
"0. c #5D8A9E",
"q. c #778380",
"w. c #628B9D",
"e. c #5C8DA4",
"r. c #5D90A7",
"t. c #618CA2",
"y. c #6291A5",
"u. c #6494A9",
"i. c #6995AA",
"p. c #6B99AD",
"a. c #679CB3",
"s. c #6B9CB3",
"d. c #709FB5",
"f. c #6DA3BB",
"g. c #71A2B7",
"h. c #72A5BC",
"j. c #74AAC2",
"k. c #79ADC4",
"l. c #7DB2CB",
"z. c #7FB8D2",
"x. c #80B7CF",
"c. c #81BAD3",
"v. c #84BFD8",
"b. c #87C2DC",
"n. c #89C4DE",
"m. c #8AC6E0",
"M. c None",
/* pixels */
"M.M.M.M.M.M.M.M.M.M.M.M.M.M.M.M.M.M.M.M.M.M.M.M.M.M.M.M.M.M.M.M.M.M.M.M.M.M.M.M.M.M.M.M.M.M.M.M.M.M.",
"M.M.M.M.M.M.M.M.M.M.M.M.M.M.M.M.M.M.M.M.M.M.M.M.M.M.M.M.M.M.M.M.M.M.M.M.M.M.M.M.M.M.M.M.M.M.M.M.M.M.",
"M.M.M.M.M.M.M.M.M.M.M.M.M.M.M.M.M.M.M.M.M.M.M.M.M.M.M.M.M.M.M.M.M.M.M.M.M.M.M.M.M.M.M.M.M.M.M.M.M.M.",
"M.M.M.M.M.M.M.M.M.M.M.M.M.M.M.M.M.M.M.M.M.M.M.M.M.M.M.M.M.M.M.M.M.M.M.M.M.M.M.M.M.M.M.M.M.M.M.M.M.M.",
"M.M.M.M.M.M.M.M.M.M.M.M.M.M.M.M.M.M.M.M.M.M.M.M.M.M.M.M.M.M.M.M.M.M.M.M.M.M.M.M.M.M.M.M.M.M.M.M.M.M.",
"M.M.M.M.M.M.M.M.M.M.M.M.M.M.M.M.M.M.M.M.M.M.M.M.M.M.M.M.M.M.M.M.M.M.M.M.M.M.M.M.M.M.M.M.M.M.M.M.M.M.",
"M.M.M.M.M.M.M.M.M.M.M.M.M.M.M.M.M.M.M.M.M.M.M.M.M.M.M.M.M.M.M.M.M.M.M.M.M.M.M.M.M.M.M.M.M.M.M.M.M.M.",
"M.M.M.M.M.M.M.M.M.M.M.M.M.M.M.M.M.M.M.M.M.M.M.M.M.M.M.M.M.M.M.M.M.M.M.M.M.M.M.M.M.M.M.M.M.M.M.M.M.M.",
"M.M.M.M.M.M.M.M.M.M.M.M.M.M.M.M.M.M.M.M.M.M.M.M.M.M.M.M.M.M.M.M.M.M.M.M.M.M.M.M.M.M.M.M.M.M.M.M.M.M.",
"M.M.M.M.M.M.M.M.M.M.M.M.M.M.M.M.M.M.M.M.M.M.M.M.M.M.M.M.M.M.M.M.M.M.M.M.M.M.M.M.M.M.M.M.M.M.M.M.M.M.",
"M.M.M.M.M.M.M.M.M.M.M.M.M.M.M.M.M.M.M.M.M.M.M.M.M.M.M.M.M.M.M.M.M.M.M.M.M.M.M.M.M.M.M.M.M.M.M.M.M.M.",
"M.M.M.M.M.M.M.M.M.M.M.M.M.M.M.M.M.M.M.M.M.M.M.M.M.M.M.M.M.M.M.M.M.M.M.M.M.M.M.M.M.M.M.M.M.M.M.M.M.M.",
"M.M.M.M.M.M.M.M.M.M.M.M.M.M.M.M.M.M.M.M.M.M.M.M.M.M.M.M.M.M.M.M.M.M.M.M.M.M.M.M.M.M.M.M.M.M.M.M.M.M.",
"M.M.M.M.M.M.M.M.M.M.M.M.M.M.M.M.M.4 6 n M B B B M 6 n n = + X     M.M.M.M.M.M.M.M.M.M.M.M.M.M.M.M.M.",
"M.M.M.M.M.M.M.M.M.M.M.M.M.M.M.M.4 4 F :.t.d.d.d.i./ U >.P 9 ; @     M.M.M.M.M.M.M.M.M.M.M.M.M.M.M.M.",
"M.M.M.M.M.M.M.M.M.M.M.M.M.M.M.4 4 P 5.d.l.m.m.m.z.[ { e._ F 4 * @     M.M.M.M.M.M.M.M.M.M.M.M.M.M.M.",
"M.M.M.M.M.M.M.M.M.M.M.M.M.M.4 6 4 i.m.m.m.m.m.m.x.[ :.6.:.F n 4 =       M.M.M.M.M.M.M.M.M.M.M.M.M.M.",
"M.M.M.M.M.M.M.M.M.M.M.M.M.4 4 B :.j.m.m.n.n.m.m.x.[ :.6.U B 4 4 4 = @     M.M.M.M.M.M.M.M.M.M.M.M.M.",
"M.M.M.M.M.M.M.M.M.M.M.M.M.6 B ] e.j.c.n.k.i.i.i.t./ / :.P n = = = = +       M.M.M.M.M.M.M.M.M.M.M.M.",
"M.M.M.M.M.M.M.M.M.M.M.M.M.n :.e.e.r.d.n.1.n n n n 5 4 n 4 = O O   .         M.M.M.M.M.M.M.M.M.M.M.M.",
"M.M.M.M.M.M.M.M.M.M.M.M.M.m ,.r.e.] U :.B n 4 4 4 4 4 4 4 =                 M.M.M.M.M.M.M.M.M.M.M.M.",
"M.M.M.M.M.M.M.M.M.M.M.M.M.n [ 5.,.B 6 n n M J P P P P P P J m n 0 m 0 : +   M.M.M.M.M.M.M.M.M.M.M.M.",
"M.M.M.M.M.M.M.M.M.M.M.M.M.8 K G n n n J J [ h.l.l.l.l.l.l.l.k.y.e.k.u.{ -   M.M.M.M.M.M.M.M.M.M.M.M.",
"M.M.M.M.M.M.M.M.M.M.M.M.M.8 F S 6 J U :.:.6.c.m.n.n.m.m.m.m.m.f.a.b.h.,.:   M.M.M.M.M.M.M.M.M.M.M.M.",
"M.M.M.M.M.M.M.M.M.M.M.M.M.6 G D q | w.e.e.a.b.n.n.n.m.m.m.m.m.d.a.b.j.,.:   M.M.M.M.M.M.M.M.M.M.M.M.",
"M.M.M.M.M.M.M.M.M.M.M.M.M.6 G R @.*.;.0.e.a.v.n.m.m.m.m.m.m.m.j.a.b.f.<.:   M.M.M.M.M.M.M.M.M.M.M.M.",
"M.M.M.M.M.M.M.M.M.M.M.M.M.8 G ! =.=.-.` U ) 4.4.3.6.6.1.6.6.1.[ { 1.) G *   M.M.M.M.M.M.M.M.M.M.M.M.",
"M.M.M.M.M.M.M.M.M.M.M.M.M.6 F Q %.$.O.5 & @ 4 * O 3 = O = =   ; - .         M.M.M.M.M.M.M.M.M.M.M.M.",
"M.M.M.M.M.M.M.M.M.M.M.M.M.4 ; 1 l j h 4 & * Z 8 ; B n ; M m = m 0 X     M.M.M.M.M.M.M.M.M.M.M.M.M.M.",
"M.M.M.M.M.M.M.M.M.M.M.M.M.; X + = 3 6 n 8 Z 1.1.[ 3.1.[ 1.1.` 1.1./ 7   M.M.M.M.M.M.M.M.M.M.M.M.M.M.",
"M.M.M.M.M.M.M.M.M.M.M.M.M.M.    X = n L P } c.m.m.m.m.m.m.m.m.m.m.m.)   M.M.M.M.M.M.M.M.M.M.M.M.M.M.",
"M.M.M.M.M.M.M.M.M.M.M.M.M.M.M.    @ = n F ( 2.t.f.f.f.f.f.f.f.f.p.7.Z   M.M.M.M.M.M.M.M.M.M.M.M.M.M.",
"M.M.M.M.M.M.M.M.M.M.M.M.M.M.M.M.    X ; 9 S S I } } >.} :.:.:.:._ S :   M.M.M.M.M.M.M.M.M.M.M.M.M.M.",
"M.M.M.M.M.M.M.M.M.M.M.M.M.M.M.M.M.        . X X @ @ @ @ @ @ @ @ X X M.M.M.M.M.M.M.M.M.M.M.M.M.M.M.M.",
"M.M.M.M.M.M.M.M.M.M.M.M.M.M.M.M.        - 0 0 9 8 - - * X X * * = 9 - M.M.M.M.M.M.M.M.M.M.M.M.M.M.M.",
"M.M.M.M.M.M.M.M.M.M.M.M.M.M.M.M.9 9 7 : C L L L J m n m 7 8 M 9 m L 7 X M.M.M.M.M.M.M.M.M.M.M.M.M.M.",
"M.M.M.M.M.M.M.M.M.M.M.M.M.M.P 1.h.h.i.3.) L L L L G ( <.<.<.7.U J L 7     M.M.M.M.M.M.M.M.M.M.M.M.M.",
"M.M.M.M.M.M.M.M.M.M.M.M.M.4 3.g.m.m.v.j._ S { >.,.9.a.h.j.j.j.u.7.>.C * & & M.M.M.M.M.M.M.M.M.M.M.M.",
"M.M.M.M.M.M.M.M.M.M.M.M.M.: p.m.m.m.m.n.) 7 <.8.e.k.z.v.b.b.b.z.j.0.I 4 4 *   M.M.M.M.M.M.M.M.M.M.M.",
"M.M.M.M.M.M.M.M.M.M.M.M.M.: p.m.m.m.m.n.) - I ) ) } 7.f.f.r.a.7.} ) C 4 4 *   M.M.M.M.M.M.M.M.M.M.M.",
"M.M.M.M.M.M.M.M.M.M.M.M.M.; 9.x.n.m.c.g.L : G P L L } e.e.e.e.{ L L M 4 4 =   M.M.M.M.M.M.M.M.M.M.M.",
"M.M.M.M.M.M.M.M.M.M.M.M.M.; } f.n.n.g.I M 9 K L L P } r.r.r.e.{ L L M 4 4 &   M.M.M.M.M.M.M.M.M.M.M.",
"M.M.M.M.M.M.M.M.M.M.M.M.M.M.0 V G H S m 6 9 K K L L :.e.e.e.r.{ G n = & & O M.M.M.M.M.M.M.M.M.M.M.M.",
"M.M.M.M.M.M.M.M.M.M.M.M.M.M.        + = ; 1 Y A A R  .q.q.q.q. .T ; +     M.M.M.M.M.M.M.M.M.M.M.M.M.",
"M.M.M.M.M.M.M.M.M.M.M.M.M.M.M.M.        $ y y y p @.&.&.&.&.&.&.X.o     M.M.M.M.M.M.M.M.M.M.M.M.M.M.",
"M.M.M.M.M.M.M.M.M.M.M.M.c     - 9 0 0 0 e w , , < l v v c c v x d O   M.M.M.M.M.M.M.M.M.M.M.M.M.M.M.",
"M.M.M.M.M.M.M.M.M.M.M.$.k # # > L L L L L G n 8 4 8 n 0 f f n f p @ O M.M.M.M.M.M.M.M.M.M.M.M.M.M.M.",
"M.M.M.M.M.M.M.M.M.M.% o...t % 2 L L L L L L K M 6 S H / +.b K b X.5 @   M.M.M.M.M.M.M.M.M.M.M.M.M.M.",
"M.M.M.M.M.M.M.M.M.z z k d t t i h H L L L K S 8 6 J E ~ ~ ~ ~ ~ W 5 &   M.M.M.M.M.M.M.M.M.M.M.M.M.M.",
"M.M.M.M.M.M.M.M.M.=.#.a t t t t t Y L L L G 8 4 8 G ^ %.Q ! =.! F 6 &   M.M.M.M.M.M.M.M.M.M.M.M.M.M."
};
