/* XPM */
static char *result[] = {
/* columns rows colors chars-per-pixel */
"50 50 124 2 ",
"   c #141412",
".  c #161719",
"X  c #17191A",
"o  c #191B1C",
"O  c #301F0F",
"+  c #211A12",
"@  c #3F2A17",
"#  c #1B1E23",
"$  c #1D2124",
"%  c #1E2329",
"&  c #212326",
"*  c #20262D",
"=  c #222A2E",
"-  c #222631",
";  c #242A35",
":  c #2C2D35",
">  c #262E39",
",  c #263236",
"<  c #283336",
"1  c #27303A",
"2  c #29343D",
"3  c #2A393F",
"4  c #3A3435",
"5  c #42260D",
"6  c #47280D",
"7  c #452D17",
"8  c #533215",
"9  c #51351E",
"0  c #503F2E",
"q  c #77451C",
"w  c #5E4A3C",
"e  c #644021",
"r  c #64482D",
"t  c #784B24",
"y  c #614533",
"u  c #614F3E",
"i  c #734E32",
"p  c #2A3541",
"a  c #2D3B45",
"s  c #2F3E4A",
"d  c #303F4B",
"f  c #2F4047",
"g  c #2F4048",
"h  c #3A4346",
"j  c #32434D",
"k  c #3E4849",
"l  c #354653",
"z  c #364A54",
"x  c #364C5A",
"c  c #384E5A",
"v  c #3B535E",
"b  c #3D5564",
"n  c #3F5A66",
"m  c #3F5A6B",
"M  c #444241",
"N  c #4A4A48",
"B  c #584B40",
"V  c #534F48",
"C  c #415156",
"Z  c #43555B",
"A  c #4A5658",
"S  c #555853",
"D  c #5B5951",
"F  c #615A4F",
"G  c #6E5D4A",
"H  c #795F46",
"J  c #705D49",
"K  c #425A65",
"L  c #425C6B",
"P  c #45616D",
"I  c #456575",
"U  c #4A6474",
"Y  c #4C6877",
"T  c #476978",
"R  c #4A6C7C",
"E  c #51717E",
"W  c #76756C",
"Q  c #825E3E",
"!  c #905B31",
"~  c #8B633F",
"^  c #9A663A",
"/  c #AD6A32",
"(  c #B56C30",
")  c #8E7A63",
"_  c #4A6F80",
"`  c #506E80",
"'  c #4D7485",
"]  c #4F768A",
"[  c #537484",
"{  c #567885",
"}  c #517789",
"|  c #54798C",
" . c #5A7D8E",
".. c #537E92",
"X. c #558297",
"o. c #5C8394",
"O. c #568399",
"+. c #5D869A",
"@. c #6E868C",
"#. c #628A9D",
"$. c #5C8EA5",
"%. c #5E91A8",
"&. c #648FA3",
"*. c #6691A5",
"=. c #6395AC",
"-. c #6894AA",
";. c #679CB3",
":. c #6A9EB6",
">. c #6FA1B7",
",. c #6DA3BB",
"<. c #72A1B6",
"1. c #73A5BA",
"2. c #76A9BF",
"3. c #76A9C1",
"4. c #79AEC6",
"5. c #7BB0C7",
"6. c #7AB3CB",
"7. c #7EB8D1",
"8. c #82BCD4",
"9. c #84BFD8",
"0. c #86C1DB",
"q. c #89C5DF",
"w. c #8AC6E0",
"e. c None",
/* pixels */
"e.e.e.e.e.e.e.e.e.e.e.e.e.e.e.e.e.e.e.e.e.e.e.e.e.e.e.e.e.e.e.e.e.e.e.e.e.e.e.e.e.e.e.e.e.e.e.e.e.e.",
"e.e.e.e.e.e.e.e.e.e.e.e.e.e.e.e.e.e.e.e.e.e.e.e.e.e.e.e.e.e.e.e.e.e.e.e.e.e.e.e.e.e.e.e.e.e.e.e.e.e.",
"e.e.e.e.e.e.e.e.e.e.e.e.e.e.e.e.e.e.e.e.e.e.e.e.e.e.e.e.e.e.e.e.e.e.e.e.e.e.e.e.e.e.e.e.e.e.e.e.e.e.",
"e.e.e.e.e.e.e.e.e.e.e.e.e.e.e.e.e.e.e.e.e.e.e.e.e.e.e.e.e.e.e.e.e.e.e.e.e.e.e.e.e.e.e.e.e.e.e.e.e.e.",
"e.e.e.e.e.e.e.e.e.e.e.e.e.e.e.e.e.e.e.e.e.e.e.e.e.e.e.e.e.e.e.e.e.e.e.e.e.e.e.e.e.e.e.e.e.e.e.e.e.e.",
"e.e.e.e.e.e.e.e.e.e.e.e.e.e.e.e.e.e.e.e.e.e.e.e.e.e.e.e.e.e.e.e.e.e.e.e.e.e.e.e.e.e.e.e.e.e.e.e.e.e.",
"e.e.e.e.e.e.e.e.e.e.e.e.e.e.e.e.e.e.e.e.e.e.e.e.e.e.e.e.e.e.e.e.e.e.e.e.e.e.e.e.e.e.e.e.e.e.e.e.e.e.",
"e.e.e.e.e.e.e.e.e.e.e.e.e.e.e.e.e.e.e.e.e.e.e.e.e.e.e.e.e.e.e.e.e.e.e.e.e.e.e.e.e.e.e.e.e.e.e.e.e.e.",
"e.e.e.e.e.e.e.e.e.e.e.e.e.e.e.e.e.e.e.e.e.e.e.e.e.e.e.e.e.e.e.e.e.e.e.e.e.e.e.e.e.e.e.e.e.e.e.e.e.e.",
"e.e.e.e.e.e.e.e.e.e.e.e.e.e.e.e.e.e.e.e.e.e.e.e.e.e.e.e.e.e.e.e.e.e.e.e.e.e.e.e.e.e.e.e.e.e.e.e.e.e.",
"e.e.e.e.e.e.e.e.e.e.e.e.e.e.e.e.e.e.e.e.e.e.e.e.e.e.e.e.e.e.e.e.e.e.e.e.e.e.e.e.e.e.e.e.e.e.e.e.e.e.",
"e.e.e.e.e.e.e.e.e.e.e.e.e.e.e.e.e.e.e.e.e.e.e.e.e.e.e.e.e.e.e.e.e.e.e.e.e.e.e.e.e.e.e.e.e.e.e.e.e.e.",
"e.e.e.e.e.e.e.e.e.e.e.e.e.e.e.e.e.e.e.e.e.e.e.e.e.e.e.e.e.e.e.e.e.e.e.e.e.e.e.e.e.e.e.e.e.e.e.e.e.e.",
"e.e.e.e.e.e.e.e.e.e.e.e.e.e.e.e.e.e.e.e.e.e.e.e.e.e.e.e.e.e.e.e.e.e.e.e.e.e.e.e.e.e.e.e.e.e.e.e.e.e.",
"e.e.e.e.e.e.e.e.e.e.e.e.e.e.e.e.e.e.e.e.e.e.e.e.e.e.e.e.e.e.e.e.e.e.e.e.e.e.e.e.e.e.e.e.e.e.e.e.e.e.",
"e.e.e.e.e.e.e.e.e.e.e.e.e.e.e.e.e.e.e.e.e.e.e.e.e.e.e.e.e.e.e.e.e.e.e.e.e.e.e.e.e.e.e.e.e.e.e.e.e.e.",
"e.e.e.e.e.e.e.e.e.e.e.e.e.e.e.e.e.e.e.e.e.e.e.e.e.e.e.e.e.e.e.e.e.e.e.e.e.e.e.e.e.e.e.e.e.e.e.e.e.e.",
"e.e.e.e.e.e.e.e.e.e.e.e.e.e.e.e.e.e.e.e.e.e.e.e.e.; - ; ; ; ; ; ; ; ; - .       e.e.e.e.e.e.e.e.e.e.",
"e.e.e.e.e.e.e.e.e.e.e.e.e.e.e.e.e.e.e.e.e.e.e.e.e.; a x K L L L b p j g ; $ o     e.e.e.e.e.e.e.e.e.",
"e.e.e.e.e.e.e.e.e.e.e.e.e.e.e.e.e.e.e.e.e.e.e.e.; ; b $.3.8.8.9.,.b _ ..n s * X     e.e.e.e.e.e.e.e.",
"e.e.e.e.e.e.e.e.e.e.e.e.e.e.e.e.e.e.e.e.e.e.e.; p ` -.4.9.w.w.w.2.n ' X.L d ; & o     e.e.e.e.e.e.e.",
"e.e.e.e.e.e.e.e.e.e.e.e.e.e.e.e.e.e.e.e.e.e.; p K 4.q.q.w.w.w.w.2.n ' X.L d ; ; % X     e.e.e.e.e.e.",
"e.e.e.e.e.e.e.e.e.e.e.e.e.e.e.e.e.e.e.e.e.; ; b ..9.q.q.q.q.w.w.3.n ' X.L j ; ; ; - o     e.e.e.e.e.",
"e.e.e.e.e.e.e.e.e.e.e.e.e.e.e.e.e.e.e.e.; p b ] =.,.8.0.*.| | | R j v b l 1 $ # # # .     e.e.e.e.e.",
"e.e.e.e.e.e.e.e.e.e.e.e.e.e.e.e.e.e.e.e.; l ..%.$...;.3.K ; ; ; ; ; ; ; ; #               e.e.e.e.e.",
"e.e.e.e.e.e.e.e.e.e.e.e.e.e.e.e.e.e.e.e.; x ......x d l p ; ; ; ; ; ; ; ; #               e.e.e.e.e.",
"e.e.e.e.e.e.e.e.e.e.e.e.e.e.e.e.e.e.e.e.; s ` _ I p p p d x ` ` [ E R [ ` R L c v P c 3 . e.e.e.e.e.",
"e.e.e.e.e.e.e.e.e.e.e.e.e.e.e.e.e.e.e.e.; p x s ; p s b K ..q.q.w.w.w.w.w.w.9.:.,.q.>.T o e.e.e.e.e.",
"e.e.e.e.e.e.e.e.e.e.e.e.e.e.e.e.e.e.e.e.; p x s p ` ] ..] :.w.w.w.w.w.w.q.q.8.;.,.q.,.I o e.e.e.e.e.",
"e.e.e.e.e.e.e.e.e.e.e.e.e.e.e.e.e.e.e.e.; p C N w W  .$...3.w.w.w.w.w.w.w.q.9.;.,.q.,.I o e.e.e.e.e.",
"e.e.e.e.e.e.e.e.e.e.e.e.e.e.e.e.e.e.e.e.; p d H / ( ) $...,.w.w.w.w.q.q.w.w.0.>.,.w.>.I o e.e.e.e.e.",
"e.e.e.e.e.e.e.e.e.e.e.e.e.e.e.e.e.e.e.e.; p x H ( ( Q b x l ` L Z I P K I P v b v v j , . e.e.e.e.e.",
"e.e.e.e.e.e.e.e.e.e.e.e.e.e.e.e.e.e.e.e.; < f u ! ! r ; o # p $ $ 2 * o 1 - # ; *         e.e.e.e.e.",
"e.e.e.e.e.e.e.e.e.e.e.e.e.e.e.e.e.e.e.  % % o & < : : = X = v p 2 c a 2 d s > l p       e.e.e.e.e.e.",
"e.e.e.e.e.e.e.e.e.e.e.e.e.e.e.e.e.e.T E o.Y # X # - 2 d a K *.#.#.&.#.+.*.&. .*.#.{ <   e.e.e.e.e.e.",
"e.e.e.e.e.e.e.e.e.e.e.e.e.e.e.e.e.P o.0.q.<.j = $ - a z c R 3.3.3.2.3.2.3.3.4.3.2.<.k   e.e.e.e.e.e.",
"e.e.e.e.e.e.e.e.e.e.e.e.e.e.e.e.  o.7.q.q.0.2.E j 1 ; 2 1 a x l l l l l x l x l f 2 e.e.e.e.e.e.e.e.",
"e.e.e.e.e.e.e.e.e.e.e.e.e.e.e.e.  &.q.q.q.q.q.#.v j s s s z L m L L x d d p ; ; &   e.e.e.e.e.e.e.e.",
"e.e.e.e.e.e.e.e.e.e.e.e.e.e.e.e.  #.0.q.q.q.6.o.z n n n P [ =.%.=.=.] P L d ; ; %   e.e.e.e.e.e.e.e.",
"e.e.e.e.e.e.e.e.e.e.e.e.e.e.e.e.  E 2.q.q.5.o.z ; R X.X.;.4.7.7.7.7.4.:.+.m ; ; $   e.e.e.e.e.e.e.e.",
"e.e.e.e.e.e.e.e.e.e.e.e.e.e.e.e.  c T o.o.E j % # I ] | &.,.6.6.6.6.1.*...v $ % #   e.e.e.e.e.e.e.e.",
"e.e.e.e.e.e.e.e.e.e.e.e.e.e.e.e.e.              X l v v v T $.$.$.$.R v v 3       e.e.e.e.e.e.e.e.e.",
"e.e.e.e.e.e.e.e.e.e.e.e.e.e.e.e.e.            o % c v v v T $.$.$.$.R v v 3   e.e.e.e.e.e.e.e.e.e.e.",
"e.e.e.e.e.e.e.e.e.e.e.e.e.e.e.e.e.o $ % # # % , 3 f s g z T $.$.$.$.R v z ;   e.e.e.e.e.e.e.e.e.e.e.",
"e.e.e.e.e.e.e.e.e.e.e.e.e.e.      % 2 z a < z c z $   o s T $.$.$.$.T x p %   e.e.e.e.e.e.e.e.e.e.e.",
"e.e.e.e.e.e.e.e.e.e.e.e.. . # - 3 g l c s 3 c v v r y 3 a l b b b l f % $ o e.e.e.e.e.e.e.e.e.e.e.e.",
"e.e.e.e.e.e.e.e.e.e.e.+ + + > s v v v v a 2 c A F ~ G z M 4 ; - $         e.e.e.e.e.e.e.e.e.e.e.e.e.",
"e.e.e.e.e.e.      O 5 5 5 @ h c v v v v s 2 c J ^ D C v Q i ; # .       e.e.e.e.e.e.e.e.e.e.e.e.e.e.",
"e.e.e.e.e.e.9 e e 8 6 6 6 7 k v v v z j 2 > a V J Z S H H B ; o       e.e.e.e.e.e.e.e.e.e.e.e.e.e.e.",
"e.e.e.e.e.  t ( ( q 6 6 6 7 k v v v l > ; ; ; s v b J / F j ; #     e.e.e.e.e.e.e.e.e.e.e.e.e.e.e.e."
};
