/* XPM */
static char *result[] = {
/* columns rows colors chars-per-pixel */
"50 50 125 2 ",
"   c #141412",
".  c #1D1711",
"X  c #161718",
"o  c #171819",
"O  c #191A1C",
"+  c #201910",
"@  c #291E13",
"#  c #35210E",
"$  c #3A230E",
"%  c #2F2217",
"&  c #37281E",
"*  c #3B2919",
"=  c #1B1D21",
"-  c #1D2225",
";  c #1F232A",
":  c #20262D",
">  c #222B2D",
",  c #383127",
"<  c #3D3429",
"1  c #222731",
"2  c #242A35",
"3  c #262F3A",
"4  c #253035",
"5  c #273239",
"6  c #29343B",
"7  c #2B393F",
"8  c #3C3B36",
"9  c #37363A",
"0  c #383B3A",
"q  c #40250D",
"w  c #47280D",
"e  c #472C16",
"r  c #5B3414",
"t  c #5E3817",
"y  c #693D17",
"u  c #48382F",
"i  c #533721",
"p  c #4C3C34",
"a  c #7A471D",
"s  c #7E4A1E",
"d  c #5A442D",
"f  c #7C4F28",
"g  c #674A34",
"h  c #6A4F3A",
"j  c #71543D",
"k  c #2A3541",
"l  c #2D3B45",
"z  c #303B44",
"x  c #313F4C",
"c  c #2F4149",
"v  c #31424C",
"b  c #334551",
"n  c #354954",
"m  c #3A4D55",
"M  c #374D5A",
"N  c #394E5A",
"B  c #3B535E",
"V  c #3C5462",
"C  c #3F5A66",
"Z  c #3E5A69",
"A  c #455255",
"S  c #43545A",
"D  c #4A5658",
"F  c #515755",
"G  c #665747",
"H  c #6C5D4B",
"J  c #785E44",
"K  c #7F6144",
"L  c #415664",
"P  c #425B6B",
"I  c #425F71",
"U  c #47616C",
"Y  c #446373",
"T  c #4A6776",
"R  c #496876",
"E  c #4A6C7B",
"W  c #52707C",
"Q  c #686E6B",
"!  c #8B5222",
"~  c #8D572A",
"^  c #925625",
"/  c #975C2C",
"(  c #9A5D2A",
")  c #825430",
"_  c #8C633D",
"`  c #96653B",
"'  c #9E6738",
"]  c #A0612C",
"[  c #946E4A",
"{  c #997654",
"}  c #837360",
"|  c #4C7284",
" . c #4D7588",
".. c #527282",
"X. c #557588",
"o. c #55798B",
"O. c #587E8E",
"+. c #527C91",
"@. c #568195",
"#. c #5B8496",
"$. c #5A869B",
"%. c #58889E",
"&. c #618B9D",
"*. c #5C8EA5",
"=. c #628DA2",
"-. c #6391A7",
";. c #6595AB",
":. c #6C9AAF",
">. c #6599B1",
",. c #6B9CB1",
"<. c #6DA3BB",
"1. c #71A2B7",
"2. c #73A4B9",
"3. c #76A9BF",
"4. c #73AAC2",
"5. c #78ACC3",
"6. c #79B2CA",
"7. c #7FB9D2",
"8. c #80B7CF",
"9. c #83BBD4",
"0. c #84BFD8",
"q. c #87C2DC",
"w. c #89C4DE",
"e. c #8AC6E0",
"r. c None",
/* pixels */
"r.r.r.r.r.r.r.r.r.r.r.r.r.r.r.r.r.r.r.r.r.r.r.r.r.r.r.r.r.r.r.r.r.r.r.r.r.r.r.r.r.r.r.r.r.r.r.r.r.r.",
"r.r.r.r.r.r.r.r.r.r.r.r.r.r.r.r.r.r.r.r.r.r.r.r.r.r.r.r.r.r.r.r.r.r.r.r.r.r.r.r.r.r.r.r.r.r.r.r.r.r.",
"r.r.r.r.r.r.r.r.r.r.r.r.r.r.r.r.r.r.r.r.r.r.r.r.r.r.r.r.r.r.r.r.r.r.r.r.r.r.r.r.r.r.r.r.r.r.r.r.r.r.",
"r.r.r.r.r.r.r.r.r.r.r.r.r.r.r.r.r.r.r.r.r.r.r.r.r.r.r.r.r.r.r.r.r.r.r.r.r.r.r.r.r.r.r.r.r.r.r.r.r.r.",
"r.r.r.r.r.r.r.r.r.r.r.r.r.r.r.r.r.r.r.r.r.r.r.r.r.r.r.r.r.r.r.r.r.r.r.r.r.r.r.r.r.r.r.r.r.r.r.r.r.r.",
"r.r.r.r.r.r.r.r.r.r.r.r.r.r.r.r.r.r.r.r.r.r.r.r.r.r.r.r.r.r.r.r.r.r.r.r.r.r.r.r.r.r.r.r.r.r.r.r.r.r.",
"r.r.r.r.r.r.r.r.r.r.r.r.r.r.r.r.r.r.r.r.r.r.r.r.r.r.r.r.r.r.r.r.r.r.r.r.r.r.r.r.r.r.r.r.r.r.r.r.r.r.",
"r.r.r.r.r.r.r.r.r.r.r.r.r.r.r.r.r.r.r.r.r.r.r.r.r.r.r.r.r.r.r.r.r.r.r.r.r.r.r.r.r.r.r.r.r.r.r.r.r.r.",
"r.r.r.r.r.r.r.r.r.r.r.r.r.r.r.r.r.r.r.r.r.r.r.r.r.r.r.r.r.r.r.r.r.r.r.r.r.r.r.r.r.r.r.r.r.r.r.r.r.r.",
"r.r.r.r.r.r.r.r.r.r.r.r.r.r.r.r.r.r.r.r.r.r.r.r.r.r.r.r.r.r.r.r.r.r.r.r.r.r.r.r.r.r.r.r.r.r.r.r.r.r.",
"r.r.r.r.r.r.r.r.r.r.r.r.r.r.r.r.r.r.r.r.r.r.r.r.r.r.r.r.r.r.r.r.r.r.r.r.r.r.r.r.r.r.r.r.r.r.r.r.r.r.",
"r.r.r.r.r.r.r.r.r.r.r.r.r.r.r.r.r.r.r.r.r.r.r.r.r.r.r.r.r.r.r.r.r.r.r.r.r.r.r.r.r.r.r.r.r.r.r.r.r.r.",
"r.r.r.r.r.r.r.r.r.r.r.r.r.r.r.r.r.r.r.r.r.r.r.r.r.r.r.r.r.r.r.r.r.r.r.r.r.r.r.r.r.r.r.r.r.r.r.r.r.r.",
"r.r.r.r.r.r.r.r.r.r.r.r.r.r.r.r.r.r.r.r.r.r.r.r.r.r.r.r.r.r.r.r.r.r.r.r.r.r.r.r.r.r.r.r.r.r.r.r.r.r.",
"r.r.r.r.r.r.r.r.r.r.r.r.r.r.r.r.r.r.r.r.r.r.r.r.r.r.r.r.r.r.r.r.r.r.r.r.r.r.r.r.r.r.r.r.r.r.r.r.r.r.",
"r.r.r.r.r.r.r.r.r.r.r.r.r.r.r.r.r.r.r.r.r.r.r.r.r.r.r.r.r.r.r.r.r.r.r.r.r.r.r.r.r.r.r.r.r.r.r.r.r.r.",
"r.r.r.r.r.r.r.r.r.r.r.r.r.r.r.r.r.r.r.r.r.r.r.r.r.r.r.r.r.r.r.r.r.r.r.r.r.r.r.r.r.r.r.r.r.r.r.r.r.r.",
"r.r.r.r.r.r.r.r.r.r.r.r.r.r.r.r.r.r.r.r.r.r.r.r.r.r.r.r.r.r.r.r.r.r.r.r.r.r.r.r.r.r.r.r.r.r.r.r.r.r.",
"r.r.r.r.r.r.r.r.r.r.r.r.r.r.r.r.r.r.r.r.r.r.r.r.r.r.r.r.r.r.r.r.r.r.r.r.r.r.r.r.r.r.r.r.r.r.r.r.r.r.",
"r.r.r.r.r.r.r.r.r.r.r.r.r.r.r.r.r.r.r.r.r.r.r.r.r.r.r.r.r.r.r.r.r.r.r.r.r.r.r.r.r.r.r.r.r.r.r.r.r.r.",
"r.r.r.r.r.r.r.r.r.r.r.r.r.r.r.r.r.r.r.r.r.r.r.r.r.r.r.r.r.r.r.r.r.r.r.r.r.r.r.r.r.r.r.r.r.r.r.r.r.r.",
"r.r.r.r.r.r.r.r.r.r.r.r.r.r.r.r.r.r.r.r.r.r.r.r.r.r.r.r.r.r.r.r.r.r.r.r.r.r.r.r.r.r.r.r.r.r.r.r.r.r.",
"r.r.r.r.r.r.r.r.r.r.r.r.r.r.r.r.r.r.r.r.r.r.r.r.r.r.r.r.r.r.r.r.r.r.r.r.r.r.r.r.r.r.r.r.r.r.r.r.r.r.",
"r.r.r.r.r.r.r.r.r.r.r.r.r.r.r.r.r.r.r.r.r.r.r.r.r.r.r.r.r.r.r.r.r.r.r.r.r.r.r.r.r.r.r.r.r.r.r.r.r.r.",
"r.r.r.r.r.r.r.r.r.r.r.r.r.r.r.r.r.r.r.r.r.r.r.r.r.r.r.r.r.r.r.r.r.r.r.r.r.r.r.r.r.r.r.r.r.r.r.r.r.r.",
"r.r.r.r.r.r.r.r.r.r.r.r.r.r.r.r.r.r.r.r.r.r.r.r.r.r.r.r.r.r.r.r.r.r.r.r.r.r.r.r.r.r.r.r.r.r.r.r.r.r.",
"r.r.r.r.r.r.r.r.r.r.r.r.r.r.r.r.r.r.r.r.r.r.r.r.r.r.r.r.r.r.r.r.r.r.r.r.r.r.r.r.r.r.r.r.r.r.r.r.r.r.",
"r.r.r.r.r.r.r.r.r.r.r.r.r.r.r.r.r.r.r.r.r.r.r.r.r.r.r.r.r.r.r.r.r.r.r.r.r.r.r.r.r.r.r.r.r.r.r.r.r.r.",
"r.r.r.r.r.r.r.r.r.r.r.r.r.r.r.r.r.r.r.r.r.r.r.r.r.r.r.r.r.r.r.r.r.r.r.r.r.r.r.r.r.r.r.r.r.r.r.r.r.r.",
"r.r.r.r.r.r.r.r.r.r.r.r.r.r.r.r.r.r.r.r.r.r.r.r.r.r.r.r.r.r.r.r.r.r.r.r.r.r.r.r.r.r.r.r.r.r.r.r.r.r.",
"r.r.r.r.r.r.r.r.r.r.r.r.r.r.r.r.r.r.r.r.r.r.r.r.r.r.r.r.r.r.r.r.r.r.r.r.r.r.r.r.r.r.r.r.r.r.r.r.r.r.",
"r.r.r.r.r.r.r.r.r.r.r.r.r.r.r.r.r.r.r.r.r.r.r.r.r.r.r.r.r.r.r.r.r.r.r.r.r.r.r.r.r.r.r.r.r.r.r.r.r.r.",
"r.r.r.r.r.r.r.r.r.r.r.r.r.r.r.r.r.r.r.r.r.r.r.r.r.r.r.r.r.r.r.r.r.r.r.r.r.r.r.r.r.r.r.r.r.r.r.r.r.r.",
"r.r.r.r.r.r.r.r.r.r.r.r.r.r.r.r.r.r.r.r.r.r.r.r.r.r.r.r.r.r.r.r.r.2 2 2 2 2 2 2 2 2 2 2 2 r.r.r.r.r.",
"r.r.r.r.r.r.r.r.r.r.r.r.r.r.r.r.r.r.r.r.r.r.r.          r.r.r.r.X = 5 c v x v c M Y Y V 3 2 r.r.r.r.",
"r.r.r.r.r.r.r.r.r.r.r.r.r.r.r.r.r.r.r.r.r.r.> 4 5 5 > - r.r.r.  X X 0 F F S n n Y *.*. .x k 2 r.r.r.",
"r.r.r.r.r.r.r.r.r.r.r.r.r.r.r.r.r.r.r.r.r.4 E &.2.2.@.c > .     X : g ' ' h 6 6 V *.*.*.+.M 2 2 r.r.",
"r.r.r.r.r.r.r.r.r.r.r.r.r.r.r.r.r.r.r.r.  7 ;.7.w.w.3.#.7   - > 3 2 p j } Q Z b M P =.4.4.-. .I M r.",
"r.r.r.r.r.r.r.r.r.r.r.r.r.r.r.r.r.r.r.r.  l 2.q.w.e.w.6.m O 4 b n 2 1 l  .%.%.Y n k =.8.w.e.8.>.I 2 ",
"r.r.r.r.r.r.r.r.r.r.r.r.r.r.r.r.r.        > U :.e.e.7.;.7 > m M v O O : B  .*.@.| x M X.0.e.q.9...3 ",
"r.r.r.r.r.r.r.r.r.r.r.r.r.r.r.r.r.  O ; 4 4 7 E :.:.#.Y 4 > B E R 4 - ; 6 R <.2.-.+.x I 0.e.e.e.o.2 ",
"r.r.r.r.r.r.r.r.r.r.r.r.r.          ; M B v o 4 B B c 2 O ; B :.3.C l 1 o U e.e.w.w.P P 0.w.e.e.X.2 ",
"r.r.r.r.r.r.r.r.r.r.r.  > c c 5 ; % , B B M c C  .C M v - l +.3.2.x : o X U e.e.e.e.P P 0.e.e.e.X.3 ",
"r.r.r.r.r.r.r.r.r.r.r.; l B B v 2 t d B B B B @.>.U M v - c *.6.2.x : o   U e.e.e.e.P N :.1.1.1.T 3 ",
"r.r.r.r.r.r.r.r.    - v B B B v 4 f _ S B B B #.6.Y v 2 O c *.6.3.V l : X U w.e.e.e.P l L P P L v 2 ",
"                  O : k l l 8 < & ~ [ .. .| | <.q.@.M = X c *.6.3.C l : O U w.e.e.e.P k N N V N 7 = ",
"* * * @ + + + +   ; k 6 9 u e w w ^ { &.*.*.*.4.q.>.C o   c *.6.4.N 6 ; o U e.e.e.e.L 3 b n n n 2   ",
"] ] ( r q q $ #   5 M M G ( r w w ^ { &.*.*.*.3.q.>.Y ; o c *.6.1.l = X   P e.e.e.e.m = 3 3 3 3 -   ",
"! a a r w w w # . 5 S H K J f y w ~ [ W E | E ,.9.@.B 1 O v *.6.2.b 2 = X B 5.4.4.4.v O 2 2 1 = = r.",
"w w w w w w w $   6 F ' K D ` ! w ^ _ S B V B =.7.R v 1 O c *.6.5.L l : X b *.*.*.*.7 O 2 2 ; X r.r."
};
