/* XPM */
static const char *cGxheWVyX2lkbGVfMg__[] = {
/* columns rows colors chars-per-pixel */
"50 50 158 2 ",
"   c #141412",
".  c #1B1711",
"X  c #1E1812",
"o  c #171818",
"O  c #1A1C1D",
"+  c #2D1E0F",
"@  c #311E0F",
"#  c #231B12",
"$  c #281B10",
"%  c #36210E",
"&  c #3B230E",
"*  c #2A2016",
"=  c #322315",
"-  c #3C2511",
";  c #3A2A1D",
":  c #1B1E22",
">  c #1D2225",
",  c #1F232A",
"<  c #21252E",
"1  c #222A2D",
"2  c #2C292B",
"3  c #232223",
"4  c #332821",
"5  c #3B342C",
"6  c #242B35",
"7  c #262D39",
"8  c #273034",
"9  c #27303B",
"0  c #28333C",
"q  c #2A3A3F",
"w  c #303637",
"e  c #393432",
"r  c #3B3B3A",
"t  c #47280D",
"y  c #43260D",
"u  c #422812",
"i  c #422D1A",
"p  c #47301C",
"a  c #4C321C",
"s  c #543011",
"d  c #56381E",
"f  c #5C3A1D",
"g  c #613916",
"h  c #653C19",
"j  c #4E3A2D",
"k  c #553A24",
"l  c #513B2B",
"z  c #423B33",
"x  c #493B33",
"c  c #6E411D",
"v  c #76451C",
"b  c #7D4A1E",
"n  c #45443D",
"m  c #5A4333",
"M  c #56473D",
"N  c #5C4E3E",
"B  c #654122",
"V  c #6C4321",
"C  c #724621",
"Z  c #6B4B34",
"A  c #66503D",
"S  c #2A3541",
"D  c #2D3B45",
"F  c #2F3E4A",
"G  c #303F4C",
"H  c #2F4047",
"J  c #32434D",
"K  c #334551",
"L  c #354954",
"P  c #364B59",
"I  c #394E5A",
"U  c #3B535E",
"Y  c #3B5363",
"T  c #3E5966",
"R  c #3F5A6A",
"E  c #42535A",
"W  c #4A5658",
"Q  c #5D5A51",
"!  c #555854",
"~  c #615A4F",
"^  c #685C4C",
"/  c #7B5F46",
"(  c #705D49",
")  c #7A634B",
"_  c #425B65",
"`  c #415C6B",
"'  c #45616D",
"]  c #446373",
"[  c #4B6777",
"{  c #496877",
"}  c #4B6D7E",
"|  c #476A7A",
" . c #6E726D",
".. c #845127",
"X. c #8E643E",
"o. c #96653B",
"O. c #A5632D",
"+. c #AB672F",
"@. c #A26330",
"#. c #AD6A32",
"$. c #B56C30",
"%. c #846040",
"&. c #896340",
"*. c #82715D",
"=. c #887D6A",
"-. c #8A7963",
";. c #4A6F81",
":. c #4D7385",
">. c #4F778A",
",. c #4F788C",
"<. c #527584",
"1. c #54798B",
"2. c #557F93",
"3. c #5B7F93",
"4. c #5B808F",
"5. c #558297",
"6. c #5C8295",
"7. c #57869B",
"8. c #5B869B",
"9. c #5D8A9E",
"0. c #6B8890",
"q. c #628C9E",
"w. c #5B8DA4",
"e. c #5E91A8",
"r. c #638CA0",
"t. c #6193AA",
"y. c #6A95AA",
"u. c #6498AF",
"i. c #6C9AAE",
"p. c #679CB3",
"a. c #6D9CB2",
"s. c #709EB4",
"d. c #6CA0B7",
"f. c #6DA2BA",
"g. c #71A2B7",
"h. c #70A6BE",
"j. c #76A9BE",
"k. c #76A9C1",
"l. c #75ADC6",
"z. c #76ADC6",
"x. c #74ABC4",
"c. c #78ABC2",
"v. c #79ACC3",
"b. c #7AAFC6",
"n. c #7BB0C7",
"m. c #78B1C9",
"M. c #7DB4CB",
"N. c #7EB8D1",
"B. c #7FB9D3",
"V. c #85BED7",
"C. c #84BFD8",
"Z. c #85BFD8",
"A. c #87C2DC",
"S. c #89C4DE",
"D. c #8AC6E0",
"F. c #8AC6E0",
"G. c None",
"H. c black",
/* pixels */
"G.G.G.G.G.G.G.G.G.G.G.G.G.G.G.G.G.G.G.G.G.G.G.G.G.G.G.G.G.G.G.G.G.G.G.G.G.G.G.G.G.G.G.G.G.G.G.G.G.G.",
"G.G.G.G.G.G.G.G.G.G.G.G.G.G.G.G.G.G.G.G.G.G.G.G.G.G.G.G.G.G.G.G.G.G.G.G.G.G.G.G.G.G.G.G.G.G.G.G.G.G.",
"G.G.G.G.G.G.G.G.G.G.G.G.G.G.G.G.G.G.G.G.G.G.G.G.G.G.G.G.G.G.G.G.G.G.G.G.G.G.G.G.G.G.G.G.G.G.G.G.G.G.",
"G.G.G.G.G.G.G.G.G.G.G.G.G.G.G.G.G.G.G.G.G.G.G.G.G.G.G.G.G.G.G.G.G.G.G.G.G.G.G.G.G.G.G.G.G.G.G.G.G.G.",
"G.G.G.G.G.G.G.G.G.G.G.G.G.G.G.G.G.G.G.G.G.G.G.G.G.G.G.G.G.G.G.G.G.G.G.G.G.G.G.G.G.G.G.G.G.G.G.G.G.G.",
"G.G.G.G.G.G.G.G.G.G.G.G.G.G.G.G.G.G.G.G.G.G.G.G.G.G.G.G.G.G.G.G.G.G.G.G.G.G.G.G.G.G.G.G.G.G.G.G.G.G.",
"G.G.G.G.G.G.G.G.G.G.G.G.G.G.G.G.G.G.G.G.G.G.G.G.G.G.G.G.G.G.G.G.G.G.G.G.G.G.G.G.G.G.G.G.G.G.G.G.G.G.",
"G.G.G.G.G.G.G.G.G.G.G.G.G.G.G.G.G.G.G.G.G.G.G.G.G.G.G.G.G.G.G.G.G.G.G.G.G.G.G.G.G.G.G.G.G.G.G.G.G.G.",
"G.G.G.G.G.G.G.G.G.G.G.G.G.G.G.G.6 6 6 6 6 6 6 6 6 6 >         G.G.G.G.G.G.G.G.G.G.G.G.G.G.G.G.G.G.G.",
"G.G.G.G.G.G.G.G.G.G.G.G.G.G.G.6 6 Y } 3.6.6.6.] K ` I 0 < O     G.G.G.G.G.G.G.G.G.G.G.G.G.G.G.G.G.G.",
"G.G.G.G.G.G.G.G.G.G.G.G.G.G.6 S L 2.h.A.D.D.D.q.T 5.:.U S , o     G.G.G.G.G.G.G.G.G.G.G.G.G.G.G.G.G.",
"G.G.G.G.G.G.G.G.G.G.G.G.G.6 6 ` k.M.C.S.D.D.D.q.T 5.:.U S 6 < O     G.G.G.G.G.G.G.G.G.G.G.G.G.G.G.G.",
"G.G.G.G.G.G.G.G.G.G.G.G.6 9 I 6.D.D.D.D.D.D.D.q.T 5.:.U S 6 6 , O     G.G.G.G.G.G.G.G.G.G.G.G.G.G.G.",
"G.G.G.G.G.G.G.G.G.G.G.6 7 K ,.d.C.S.D.D.D.D.D.q.T 5.:.U S 6 6 6 <       G.G.G.G.G.G.G.G.G.G.G.G.G.G.",
"G.G.G.G.G.G.G.G.G.G.G.6 P ,.7.t.p.B.D.D.D.D.D.q.T 5.:.U S 6 6 6 <       G.G.G.G.G.G.G.G.G.G.G.G.G.G.",
"G.G.G.G.G.G.G.G.G.G.G.6 Y w.w.7.>.8.r.r.r.r.r.[ L ] T J 0 6 6 6 <       G.G.G.G.G.G.G.G.G.G.G.G.G.G.",
"G.G.G.G.G.G.G.G.G.G.G.6 Y w.w.>.U S 6 6 6 6 6 6 6 6 6 6 6 6 6 6 <       G.G.G.G.G.G.G.G.G.G.G.G.G.G.",
"G.G.G.G.G.G.G.G.G.G.G.6 K ] U K S 7 0 J <.y.y.y.y.y.y.y.y.8.;.8.q.| q   G.G.G.G.G.G.G.G.G.G.G.G.G.G.",
"G.G.G.G.G.G.G.G.G.G.G.6 D I S S P P Y ] a.D.D.D.D.D.D.D.D.m.w.m.B.e.L   G.G.G.G.G.G.G.G.G.G.G.G.G.G.",
"G.G.G.G.G.G.G.G.G.G.G.6 D I S I 7.7.7.w.x.D.D.D.D.D.D.D.D.m.w.m.B.e.L   G.G.G.G.G.G.G.G.G.G.G.G.G.G.",
"G.G.G.G.G.G.G.G.G.G.G.6 D E A / -.0.w.w.l.D.D.D.D.S.D.D.D.m.w.m.B.e.L   G.G.G.G.G.G.G.G.G.G.G.G.G.G.",
"G.G.G.G.G.G.G.G.G.G.G.6 D W o.$.$. .:.;.9.a.i.a.s.i.a.s.i.q.>.q.r.:.D   G.G.G.G.G.G.G.G.G.G.G.G.G.G.",
"G.G.G.G.G.G.G.G.G.G.G.6 D W o.$.$.M 9 > 0 D 1 0 D 6 0 F 8 7 S 7 1 > o   G.G.G.G.G.G.G.G.G.G.G.G.G.G.",
"G.G.G.G.G.G.G.G.G.G.G.6 7 w m Z Z e ,   6 S , 7 D , 7 D 1 6 F >       G.G.G.G.G.G.G.G.G.G.G.G.G.G.G.",
"G.G.G.G.G.G.G.G.G.G.G.6 :   , 6 6 7 6 O J T J I ` K I ` L P ' D >   G.G.G.G.G.G.G.G.G.G.G.G.G.G.G.G.",
"G.G.G.G.G.G.G.G.G.G.G.G.o     : 6 J L K 6.b.k.v.b.k.v.b.c.c.n.j.4.O G.G.G.G.G.G.G.G.G.G.G.G.G.G.G.G.",
"G.G.G.G.G.G.G.G.G.G.G.G.G.    o > S K U <.i.k.l.l.l.l.l.l.l.l.a.<.o G.G.G.G.G.G.G.G.G.G.G.G.G.G.G.G.",
"G.G.G.G.G.G.G.G.G.G.G.G.G.G.O O O 6 D I I ` 2.7.7.7.7.7.7.7.7.] H   G.G.G.G.G.G.G.G.G.G.G.G.G.G.G.G.",
"G.G.G.G.G.G.G.G.G.G.G.G.G.` 6.q.q.1.` D 7 1 q q q q q q q q q 6 >       G.G.G.G.G.G.G.G.G.G.G.G.G.G.",
"G.G.G.G.G.G.G.G.G.G.G.G._ 8.M.D.D.l.6.G 9 1 1 > O O o   o O O , < : O O G.G.G.G.G.G.G.G.G.G.G.G.G.G.",
"G.G.G.G.G.G.G.G.G.G.G.  ' D.D.D.D.D.g.T U U U F 6 6 >   , 6 6 J L 7 6 < o   G.G.G.G.G.G.G.G.G.G.G.G.",
"G.G.G.G.G.G.G.G.G.G.G.  ' D.D.D.D.D.g.T U U U L L ] ] ' ] R J P L 7 6 < o   G.G.G.G.G.G.G.G.G.G.G.G.",
"G.G.G.G.G.G.G.G.G.G.G.  _ B.A.D.D.M.q.L U ' ' { <.t.p.p.p.9.} ] Y 7 6 < o   G.G.G.G.G.G.G.G.G.G.G.G.",
"G.G.G.G.G.G.G.G.G.G.G.  L u.B.D.D.1.J O T w.w.f.C.A.A.A.A.A.V.p.:.9 6 < o   G.G.G.G.G.G.G.G.G.G.G.G.",
"G.G.G.G.G.G.G.G.G.G.G.G.0 L _ ' ' D ,   J } } 1.9.d.h.h.h.i.6.<.T > : O   G.G.G.G.G.G.G.G.G.G.G.G.G.",
"G.G.G.G.G.G.G.G.G.G.G.G.G.          o o q U U U T 5.w.w.w.>.U U J       G.G.G.G.G.G.G.G.G.G.G.G.G.G.",
"G.G.G.G.G.G.G.G.G.G.G.G.G.G.      > < < F U U U T 5.w.w.w.>.U U J     G.G.G.G.G.G.G.G.G.G.G.G.G.G.G.",
"G.G.G.G.G.G.G.G.G.G.G.G.G.G.G.    O 3 4 5 z z N ) -.=.=.=.*./ n 6   G.G.G.G.G.G.G.G.G.G.G.G.G.G.G.G.",
"G.G.G.G.G.G.G.G.G.G.G.G.G.G.G.G.    # - u u u C @.@.O.O.O.O.O.a   G.G.G.G.G.G.G.G.G.G.G.G.G.G.G.G.G.",
"G.G.G.G.G.G.G.G.G.G.G.G.G.G.G.G.    o 2 2 2 2 e x x k g l l g =   G.G.G.G.G.G.G.G.G.G.G.G.G.G.G.G.G.",
"G.G.G.G.G.G.G.G.G.G.G.G.G.G.G.G.  > 7 D D S 6 0 D D x c z z v ; O G.G.G.G.G.G.G.G.G.G.G.G.G.G.G.G.G.",
"G.G.G.G.G.G.G.G.G.G.G.G.G.G.G.G.  D U U U L 7 F U U ( #.~ ^ $.m <   G.G.G.G.G.G.G.G.G.G.G.G.G.G.G.G.",
"G.G.G.G.G.G.G.G.G.G.G.G.G.G.  1 D L U U J 0 6 F U U ( #.~ ^ $.m <       G.G.G.G.G.G.G.G.G.G.G.G.G.G.",
"G.G.G.G.G.G.G.G.G.G.G.G.G.G.i l ~ ~ ~ ~ r , , D U U Q &.! Q X.Z j p *   G.G.G.G.G.G.G.G.G.G.G.G.G.G.",
"G.G.G.G.G.G.G.G.G.G.G.G.G.# ..+.#.#.#.#.k     0 U U U E U U E %.+.+.d   G.G.G.G.G.G.G.G.G.G.G.G.G.G.",
"G.G.G.G.G.G.G.G.G.G.G.G.# - h v v v c f =     > 6 6 6 8 e z z B c f i G.G.G.G.G.G.G.G.G.G.G.G.G.G.G.",
"G.G.G.G.G.G.G.G.G.G.G.X @ t t t t & @                   % t t t %   G.G.G.G.G.G.G.G.G.G.G.G.G.G.G.G.",
"G.G.G.G.G.G.G.G.G.G.X % y t t t t $ . G.G.G.G.G.G.G.    % t t t %   G.G.G.G.G.G.G.G.G.G.G.G.G.G.G.G.",
"G.G.G.G.G.G.G.G.G.a V b b v s & + # G.G.G.G.G.G.G.G.G.. f b b b v B i G.G.G.G.G.G.G.G.G.G.G.G.G.G.G.",
"G.G.G.G.G.G.G.G.  V $.$.$.O.g %   G.G.G.G.G.G.G.G.G.G.X ..$.$.$.$.$.f   G.G.G.G.G.G.G.G.G.G.G.G.G.G."
};
