/* XPM */
static const char *cGxheWVyX2lkbGVfMw__[] = {
/* columns rows colors chars-per-pixel */
"50 50 157 2 ",
"   c #141412",
".  c #1B1711",
"X  c #1E1913",
"o  c #161718",
"O  c #171919",
"+  c #1A1D1E",
"@  c #2D1E0F",
"#  c #311E0F",
"$  c #241C13",
"%  c #281B10",
"&  c #36210E",
"*  c #3B230E",
"=  c #2B2015",
"-  c #3B2612",
";  c #372616",
":  c #1B1E23",
">  c #1D2125",
",  c #1F232A",
"<  c #21262C",
"1  c #21292D",
"2  c #2C2B2E",
"3  c #332720",
"4  c #352921",
"5  c #392F2A",
"6  c #352F2D",
"7  c #222731",
"8  c #242A35",
"9  c #262D39",
"0  c #292C35",
"q  c #263035",
"w  c #273239",
"e  c #29343C",
"r  c #2A383F",
"t  c #353233",
"y  c #383731",
"u  c #33383D",
"i  c #47280D",
"p  c #43260D",
"a  c #432E1A",
"s  c #45301C",
"d  c #4D331C",
"f  c #533012",
"g  c #56381E",
"h  c #5C3A1D",
"j  c #643B17",
"k  c #4A3524",
"l  c #4D392B",
"z  c #513A2A",
"x  c #423A32",
"c  c #513E34",
"v  c #6F421D",
"b  c #77451D",
"n  c #7D4A1E",
"m  c #4B433E",
"M  c #5A4233",
"N  c #654122",
"B  c #6C4321",
"V  c #724A2B",
"C  c #6C4B33",
"Z  c #785537",
"A  c #2A3541",
"S  c #2D3B45",
"D  c #2E3D49",
"F  c #303D4B",
"G  c #353C40",
"H  c #2F424A",
"J  c #31434D",
"K  c #3D4A4E",
"L  c #3D4647",
"P  c #334552",
"I  c #354954",
"U  c #364B59",
"Y  c #394D5B",
"T  c #37505A",
"R  c #3B535E",
"E  c #3C5462",
"W  c #3E5965",
"Q  c #3F5968",
"!  c #574F45",
"~  c #43565C",
"^  c #495558",
"/  c #495455",
"(  c #5F5950",
")  c #535A59",
"_  c #615040",
"`  c #615A4F",
"'  c #685C4C",
"]  c #705D49",
"[  c #625C55",
"{  c #445E6A",
"}  c #46616C",
"|  c #456574",
" . c #496673",
".. c #476979",
"X. c #496C7E",
"o. c #466679",
"O. c #627579",
"+. c #845127",
"@. c #965A29",
"#. c #905B31",
"$. c #8F623B",
"%. c #9E6738",
"&. c #9A673B",
"*. c #AB662E",
"=. c #A7632B",
"-. c #AB6730",
";. c #AE6B33",
":. c #B56C30",
">. c #805F40",
",. c #A16E40",
"<. c #A47245",
"1. c #4A6F81",
"2. c #4D7385",
"3. c #4F778A",
"4. c #507283",
"5. c #567887",
"6. c #56798C",
"7. c #597B8E",
"8. c #527D91",
"9. c #5A7E91",
"0. c #677E84",
"q. c #558297",
"w. c #5D8295",
"e. c #5C8699",
"r. c #5C899D",
"t. c #6C878F",
"y. c #778381",
"u. c #638C9E",
"i. c #5C8EA5",
"p. c #5E91A8",
"a. c #638FA1",
"s. c #6494AA",
"d. c #6598AF",
"f. c #6C9AAE",
"g. c #6793A7",
"h. c #6498B0",
"j. c #6D9EB4",
"k. c #709FB5",
"l. c #6CA1B9",
"z. c #71A2B7",
"x. c #71A5BC",
"c. c #75A9BF",
"v. c #76ACC3",
"b. c #7AADC5",
"n. c #78B1C9",
"m. c #7AB3CB",
"M. c #7EB8D1",
"N. c #7EB8D1",
"B. c #81B9D2",
"V. c #83BDD6",
"C. c #82BDD6",
"Z. c #84BFD8",
"A. c #88C4DE",
"S. c #8AC6E0",
"D. c #8AC6E0",
"F. c None",
"G. c black",
/* pixels */
"F.F.F.F.F.F.F.F.F.F.F.F.F.F.F.F.F.F.F.F.F.F.F.F.F.F.F.F.F.F.F.F.F.F.F.F.F.F.F.F.F.F.F.F.F.F.F.F.F.F.",
"F.F.F.F.F.F.F.F.F.F.F.F.F.F.F.F.F.F.F.F.F.F.F.F.F.F.F.F.F.F.F.F.F.F.F.F.F.F.F.F.F.F.F.F.F.F.F.F.F.F.",
"F.F.F.F.F.F.F.F.F.F.F.F.F.F.F.F.F.F.F.F.F.F.F.F.F.F.F.F.F.F.F.F.F.F.F.F.F.F.F.F.F.F.F.F.F.F.F.F.F.F.",
"F.F.F.F.F.F.F.F.F.F.F.F.F.F.F.F.F.F.F.F.F.F.F.F.F.F.F.F.F.F.F.F.F.F.F.F.F.F.F.F.F.F.F.F.F.F.F.F.F.F.",
"F.F.F.F.F.F.F.F.F.F.F.F.F.F.F.F.F.F.F.F.F.F.F.F.F.F.F.F.F.F.F.F.F.F.F.F.F.F.F.F.F.F.F.F.F.F.F.F.F.F.",
"F.F.F.F.F.F.F.F.F.F.F.F.F.F.F.F.F.F.F.F.F.F.F.F.F.F.F.F.F.F.F.F.F.F.F.F.F.F.F.F.F.F.F.F.F.F.F.F.F.F.",
"F.F.F.F.F.F.F.F.F.F.F.F.F.F.F.F.8 8 8 8 8 8 8 8 8 8 >         F.F.F.F.F.F.F.F.F.F.F.F.F.F.F.F.F.F.F.",
"F.F.F.F.F.F.F.F.F.F.F.F.F.F.F.8 8 D I R E E E P A J e > + o     F.F.F.F.F.F.F.F.F.F.F.F.F.F.F.F.F.F.",
"F.F.F.F.F.F.F.F.F.F.F.F.F.F.8 8 8 X.d.B.V.V.V.e.W 8.X.U e >       F.F.F.F.F.F.F.F.F.F.F.F.F.F.F.F.F.",
"F.F.F.F.F.F.F.F.F.F.F.F.F.8 8 U w.j.m.A.S.S.S.u.W q.2.T A 7 > O     F.F.F.F.F.F.F.F.F.F.F.F.F.F.F.F.",
"F.F.F.F.F.F.F.F.F.F.F.F.8 9 S 4.S.S.S.S.S.S.S.u.W q.2.T A 8 8 : o     F.F.F.F.F.F.F.F.F.F.F.F.F.F.F.",
"F.F.F.F.F.F.F.F.F.F.F.8 8 A o.d.S.S.S.S.S.S.S.u.W q.2.T A 8 8 7 >       F.F.F.F.F.F.F.F.F.F.F.F.F.F.",
"F.F.F.F.F.F.F.F.F.F.F.8 F | q.h.v.V.b.9.6.6.6.{ J E Y S 1 : : : +       F.F.F.F.F.F.F.F.F.F.F.F.F.F.",
"F.F.F.F.F.F.F.F.F.F.F.8 E i.i.r.q.z.u.A A F F F F F F D q < > < 1 > O   F.F.F.F.F.F.F.F.F.F.F.F.F.F.",
"F.F.F.F.F.F.F.F.F.F.F.8 E i.i.2.P Y Y I 6.k.k.k.k.k.k.k.f.r.1.r.a.2.S   F.F.F.F.F.F.F.F.F.F.F.F.F.F.",
"F.F.F.F.F.F.F.F.F.F.F.8 U 3.X.E 8 A I | j.S.S.S.S.S.S.S.S.n.i.n.N.p.I   F.F.F.F.F.F.F.F.F.F.F.F.F.F.",
"F.F.F.F.F.F.F.F.F.F.F.8 S Y A 8 8 P | i.v.S.S.S.S.S.S.S.S.n.i.n.N.p.I   F.F.F.F.F.F.F.F.F.F.F.F.F.F.",
"F.F.F.F.F.F.F.F.F.F.F.8 S Y A P 1.3.q.i.v.S.S.S.S.S.S.S.S.n.i.n.N.p.I   F.F.F.F.F.F.F.F.F.F.F.F.F.F.",
"F.F.F.F.F.F.F.F.F.F.F.8 S T m ( y.u.r.8.e.u.u.u.u.u.u.u.u.9.| 9.w...r   F.F.F.F.F.F.F.F.F.F.F.F.F.F.",
"F.F.F.F.F.F.F.F.F.F.F.8 S ^ $.;.;.y.8.W e + + + + + + + + + + + + + o   F.F.F.F.F.F.F.F.F.F.F.F.F.F.",
"F.F.F.F.F.F.F.F.F.F.F.8 S ^ &.:.:.[ I q < : o + : o O : o O > O         F.F.F.F.F.F.F.F.F.F.F.F.F.F.",
"F.F.F.F.F.F.F.F.F.F.F.8 e L Z #.#.x , o < 8 + < w : , e > , A >         F.F.F.F.F.F.F.F.F.F.F.F.F.F.",
"F.F.F.F.F.F.F.F.F.F.F.8 , + 2 t t 0 , o w J 8 S I 9 A I e A Y 1       F.F.F.F.F.F.F.F.F.F.F.F.F.F.F.",
"F.F.F.F.F.F.F.F.F.F.F.F.: o + , 8 A S w  .e.7.w.u.7.w.u.9.9.u.5.~ O F.F.F.F.F.F.F.F.F.F.F.F.F.F.F.F.",
"F.F.F.F.F.F.F.F.F.F.F.F.F.    + 7 J Y R u.B.V.Z.Z.Z.Z.Z.Z.Z.Z.B.a.+ F.F.F.F.F.F.F.F.F.F.F.F.F.F.F.F.",
"F.F.F.F.F.F.F.F.F.F.F.F.F.F.  o O 7 S T } 4.s.h.h.h.h.h.h.h.h.6.R O F.F.F.F.F.F.F.F.F.F.F.F.F.F.F.F.",
"F.F.F.F.F.F.F.F.F.F.F.F.F.W { } } Q Y J S S R W W W W W W W W J 8 o   F.F.F.F.F.F.F.F.F.F.F.F.F.F.F.",
"F.F.F.F.F.F.F.F.F.F.F.F.F. .v.S.S.l.2.e > o o o o o       o o o o o o   F.F.F.F.F.F.F.F.F.F.F.F.F.F.",
"F.F.F.F.F.F.F.F.F.F.F.  { x.V.S.S.B.g.Y J S S w , , +   : , , w r , , > o F.F.F.F.F.F.F.F.F.F.F.F.F.",
"F.F.F.F.F.F.F.F.F.F.F.  } S.S.S.S.S.z.W R R R P D U I H U I S I I 9 8 < O   F.F.F.F.F.F.F.F.F.F.F.F.",
"F.F.F.F.F.F.F.F.F.F.F.  } S.S.S.S.S.z.W R R R R W q.i.i.i.3.R R I 9 8 < O   F.F.F.F.F.F.F.F.F.F.F.F.",
"F.F.F.F.F.F.F.F.F.F.F.  T x.V.S.S.g. .q E 3.3.r.j.v.n.n.n.c.f.e.| 9 8 < O   F.F.F.F.F.F.F.F.F.F.F.F.",
"F.F.F.F.F.F.F.F.F.F.F.  H 2.a.f.f.{ w o T 8.8.s.v.m.N.N.N.n.c.a...7 < , O F.F.F.F.F.F.F.F.F.F.F.F.F.",
"F.F.F.F.F.F.F.F.F.F.F.F.F.+ + + + O o   r W W W } r.p.p.p.6.W W J O o   F.F.F.F.F.F.F.F.F.F.F.F.F.F.",
"F.F.F.F.F.F.F.F.F.F.F.F.F.F.F.    + > > S R R R W q.i.i.i.3.R J w o   F.F.F.F.F.F.F.F.F.F.F.F.F.F.F.",
"F.F.F.F.F.F.F.F.F.F.F.F.F.F.F.F.  > < 2 G K K / ) 0.t.t.t.O.) u ,   F.F.F.F.F.F.F.F.F.F.F.F.F.F.F.F.",
"F.F.F.F.F.F.F.F.F.F.F.F.F.F.F.F.  o $ - a s s V %.<.<.<.<.,.%.k O F.F.F.F.F.F.F.F.F.F.F.F.F.F.F.F.F.",
"F.F.F.F.F.F.F.F.F.F.F.F.F.F.F.F.    X 3 4 4 4 z C C V n V V n -   F.F.F.F.F.F.F.F.F.F.F.F.F.F.F.F.F.",
"F.F.F.F.F.F.F.F.F.F.F.F.F.F.F.F.  O > 9 9 9 8 9 9 9 5 f 6 5 f = o F.F.F.F.F.F.F.F.F.F.F.F.F.F.F.F.F.",
"F.F.F.F.F.F.F.F.F.F.F.F.F.F.F.F.  w J I I J 9 S I I _ @.! ! @.l > o F.F.F.F.F.F.F.F.F.F.F.F.F.F.F.F.",
"F.F.F.F.F.F.F.F.F.F.F.F.F.F.F.> 1 J R R I D 9 D R R ] ;.` ' :.M < o F.F.F.F.F.F.F.F.F.F.F.F.F.F.F.F.",
"F.F.F.F.F.F.F.F.F.F.F.F.F.F.  1 R R R R S 8 8 D R R ] ;.` ' :.M < o F.F.F.F.F.F.F.F.F.F.F.F.F.F.F.F.",
"F.F.F.F.F.F.F.F.F.F.F.F.F.F.  > A A w 1 > + + e R R ^ ( ^ ^ ` t O       F.F.F.F.F.F.F.F.F.F.F.F.F.F.",
"F.F.F.F.F.F.F.F.F.F.F.F.F.F.a k c c l s =     w R R R R R R R x a a =   F.F.F.F.F.F.F.F.F.F.F.F.F.F.",
"F.F.F.F.F.F.F.F.F.F.F.F.F.$ +.*.-.-.*.*.g     w R R R R R R R >.*.*.g   F.F.F.F.F.F.F.F.F.F.F.F.F.F.",
"F.F.F.F.F.F.F.F.F.F.F.F.$ - j b b b v h ;     > 8 8 8 q y x x N v h a F.F.F.F.F.F.F.F.F.F.F.F.F.F.F.",
"F.F.F.F.F.F.F.F.F.F.F.X # i i i i * #                   & i i i &   F.F.F.F.F.F.F.F.F.F.F.F.F.F.F.F.",
"F.F.F.F.F.F.F.F.F.F.. & p i i i i % . F.F.F.F.F.F.F.    & i i i &   F.F.F.F.F.F.F.F.F.F.F.F.F.F.F.F.",
"F.F.F.F.F.F.F.F.F.d B b n b f * @ $ F.F.F.F.F.F.F.F.F.. h n n n b N a F.F.F.F.F.F.F.F.F.F.F.F.F.F.F.",
"F.F.F.F.F.F.F.F.  B :.:.:.=.j &   F.F.F.F.F.F.F.F.F.F.X +.:.:.:.:.:.h   F.F.F.F.F.F.F.F.F.F.F.F.F.F."
};
