/* XPM */
static char *_9b5575982124bcbdf72bfa73a8fcfc84sLkMDUB8MVrQitO[] = {
/* columns rows colors chars-per-pixel */
"50 50 176 2 ",
"   c None",
".  c #100E0B",
"X  c #12110E",
"o  c #1A150F",
"O  c #0E1111",
"+  c #141412",
"@  c #1A1611",
"#  c #141619",
"$  c #171919",
"%  c #191C1D",
"&  c #2D1D0F",
"*  c #311F0F",
"=  c #261C12",
"-  c #2A1D11",
";  c #38220E",
":  c #26211F",
">  c #342415",
",  c #3D2715",
"<  c #302418",
"1  c #3A291D",
"2  c #1B1D22",
"3  c #171C22",
"4  c #1C2123",
"5  c #1E232A",
"6  c #1E282C",
"7  c #1E2533",
"8  c #20262D",
"9  c #222A2C",
"0  c #212122",
"q  c #3F3124",
"w  c #222632",
"e  c #242A35",
"r  c #2A2C33",
"t  c #252D39",
"y  c #253035",
"u  c #26313C",
"i  c #29353C",
"p  c #2B3A3F",
"a  c #343135",
"s  c #32373E",
"d  c #43260D",
"f  c #46280D",
"g  c #48290D",
"h  c #522E0F",
"j  c #422916",
"k  c #462E19",
"l  c #4A311F",
"z  c #52351C",
"x  c #5B3616",
"c  c #633915",
"v  c #44392B",
"b  c #493C35",
"n  c #613E20",
"m  c #714017",
"M  c #77471E",
"N  c #7A491F",
"B  c #4D4133",
"V  c #534035",
"C  c #6B4626",
"Z  c #794B27",
"A  c #674F39",
"S  c #644931",
"D  c #75573C",
"F  c #2A3642",
"G  c #2C3B44",
"H  c #2E3D49",
"J  c #263343",
"K  c #2E424D",
"L  c #33444D",
"P  c #344652",
"I  c #354954",
"U  c #3A4D54",
"Y  c #394D5A",
"T  c #3B525D",
"R  c #3B5057",
"E  c #3D5562",
"W  c #3E5966",
"Q  c #3A5A6B",
"!  c #5A544C",
"~  c #464F50",
"^  c #435259",
"/  c #49575A",
"(  c #435054",
")  c #525856",
"_  c #6C5D4B",
"`  c #6B5F50",
"'  c #74614C",
"]  c #6D6050",
"[  c #415763",
"{  c #415A64",
"}  c #415E6B",
"|  c #435E70",
" . c #42616F",
".. c #446473",
"X. c #4A6475",
"o. c #476877",
"O. c #4C6778",
"+. c #46697A",
"@. c #4B6C7C",
"#. c #4A6A77",
"$. c #4F707F",
"%. c #696C68",
"&. c #894F1E",
"*. c #844F22",
"=. c #935B2D",
"-. c #9D5D2A",
";. c #975E30",
":. c #9E602C",
">. c #8D613B",
",. c #996539",
"<. c #A5632C",
"1. c #A9652D",
"2. c #B26A2F",
"3. c #BD6E2E",
"4. c #A56835",
"5. c #B26C32",
"6. c #BF7232",
"7. c #C5702A",
"8. c #8B6543",
"9. c #906D4C",
"0. c #91704F",
"q. c #977B5D",
"w. c #977D60",
"e. c #516E81",
"r. c #4E758A",
"t. c #4D7081",
"y. c #537584",
"u. c #537A8C",
"i. c #587E8F",
"p. c #557788",
"a. c #537E91",
"s. c #597E92",
"d. c #568296",
"f. c #55859B",
"g. c #5A869C",
"h. c #5B8A9F",
"j. c #5F8595",
"k. c #628C9D",
"l. c #718C93",
"z. c #5B8CA3",
"x. c #5F90A7",
"c. c #5C90A8",
"v. c #618CA0",
"b. c #6294AB",
"n. c #6B99AC",
"m. c #6595A9",
"M. c #6B9DB3",
"N. c #689DB5",
"B. c #719FB5",
"V. c #6DA3BC",
"C. c #71A1B6",
"Z. c #71A3BB",
"A. c #6FA7C0",
"S. c #73AAC2",
"D. c #7AAFC7",
"F. c #7AB0C7",
"G. c #7DB4CD",
"H. c #7EB7D1",
"J. c #7FB8D2",
"K. c #80B7CF",
"L. c #80B7D0",
"P. c #82BCD4",
"I. c #84BFD9",
"U. c #86C1DA",
"Y. c #86C1DA",
"T. c #88C2DC",
"R. c #89C4DE",
"E. c #8AC6DF",
"W. c #8AC7E1",
"Q. c #8AC6E0",
"!. c #8CC9E3",
"~. c #8DCBE6",
"^. c #8DCBE5",
"/. c #8DCBE5",
"(. c #8FCEE8",
"). c #91D0EB",
/* pixels */
"                                                                                                    ",
"                                                                                                    ",
"                                                                                                    ",
"                                                                                                    ",
"                                                                                                    ",
"                                                                                                    ",
"                                  t e w w w w w e t w % + + + +                                     ",
"                                w e P | @.e.e.@.Y P E G 9 2 # +                                     ",
"                              e t P u.S.T.R.W.I.y...g.o.P t 2 # +                                   ",
"                            t w [ Z.G.Y.W.!.!.Y.p...h.+.P t w 4 # + +                               ",
"                          w t P g.!.~.!.!.!.(.R.p...z.@.P t t w 2 # +                               ",
"                        t t H r.V.I.W.Y.G.G.L.D.@.} a...L t w w w % + +                             ",
"                        w I r.z.b.V.Y.B.E Y Y Y G F H F 9 $ # # # + X +                             ",
"                        w E c.b.a.o.s.O.G E O.X.O.O.O.O.X.{ I I [ T i $                             ",
"                        w Y f.z...u t H } Z.W.T.T.T.T.T.T.I.N.N.P.V.o.4                             ",
"                        e L } Y F t G W d.G.!.!.!.!.!.!.!.W.V.N.T.S.@.4                             ",
"                        e G Y u J E ..u.b.P.(.!.!.!.!.!.~.!.V.V.R.S.@.4                             ",
"                        e G Y s ^ j.z.z.z.S.L.K.K.K.K.K.L.G.m.b.F.N...%                             ",
"                        e G ^ D ,.q.l.f...U L L L L L L L L G p L G 9 #                             ",
"                        e H / ,.7.5.%.Q F 2 + . + + . + + . + # . . X +                             ",
"                        e F ( >.2.<.b 5 $ 8 8 $ 8 8 $ 8 8 $ 5 8 # + + +                             ",
"                        t w 9 v V b r 2 # i F 5 F F 5 F G 5 F i + X +                               ",
"                          2 + 3 7 e F u y X.p.O.y.y.O.y.y.O.y.y.T 9 X                               ",
"                            + + % t P Y E n.I.P.P.P.P.P.P.P.P.I.F.R .                               ",
"                              . X $ t L E $.v.V.S.A.A.A.A.A.S.N.i.p .                               ",
"                              U U U I I L G P ................W G 4 X                               ",
"                            ..C.Y.K.M.o.u 2 % % % % % % % % % % % # # +                             ",
"                          [ M.Y.~.!.I.v.I G G p 8 2 2 + + 2 2 8 p t 5 5 %                           ",
"                        . [ R.!.W.W.~.C.{ T E T H G P G G P H H T G t t 2 +                         ",
"                        . [ Y.!.W.W.W.n.E T E E T ..g.h.h.g.o.E T G t t 2 +                         ",
"                        X I Z.W.).W.n.{ i  .a.a.m.S.G.H.H.G.S.n.u.I t t 2 +                         ",
"                        X F +.k.n.k.E 9 % } d.d.M.D.H.J.J.H.F.M.d.P 5 5 % +                         ",
"                            % 4 4 4 % # % L W W W @.z.b.b.x.t.{ E e + #                             ",
"                              . . X % 4 8 L T T Y ..h.z.z.z...T T 9 X                               ",
"                              + + # 8 t t P E T T ..z.c.c.z.o.Y I 8 +                               ",
"                                  # 5 t t P T T T X.h.z.z.h.#.I u 2 +                               ",
"                                  + % : 1 v v v D 9.q.w.q.q.0.A 0 #                                 ",
"                                  + + = , j , j Z ;.=.=.=.=.-.N - X                                 ",
"                                    + % r r r r a a a a a a l h d = +                               ",
"                + + + + + + +     + 2 t K L L L K G e 7 J H S &.*.B y $                             ",
"                + + + + + + +     % t L T T T T Y L t 8 u T 8.3.5.] K $                             ",
"                + + + + + + + + % t L T T T T T G t e % 6 U 8.3.5.` K %                             ",
"                + + + + + + + + 5 L T E E E Y G t 8 2 # 2 G ! ' _ / ~ C k                           ",
"                + + + + + + + + 8 L P L L L G t w 4 + + % w H U ) ) _ =.z @                         ",
"                    + + + + + + # % % % % % %   $ # + + #   $ q ,.4.=.x g ; @                       ",
"                      + + + + + + + + X                       > x M m g f d * o < <.                ",
"                        + + + + + + + +                         + & d f g f f > z <.:.              ",
"                          + + + + +                               @ = d g f g M <.2.n +             ",
"                                                                    @ - ; h N <.1.C < +             ",
"                                                                      + & c 1.6.=.= O +             "
};
