/* XPM */
static char *result[] = {
/* columns rows colors chars-per-pixel */
"50 50 135 2 ",
"   c #141412",
".  c #1C1711",
"X  c #171A13",
"o  c #1C1C13",
"O  c #2C1E0F",
"+  c #241A10",
"@  c #2D1E10",
"#  c #301F10",
"$  c #1C2316",
"%  c #1F2A17",
"&  c #36220F",
"*  c #3B240F",
"=  c #202C17",
"-  c #2F261C",
";  c #232F19",
":  c #322213",
">  c #3C2714",
",  c #3D2815",
"<  c #342B1D",
"1  c #223017",
"2  c #233319",
"3  c #29371C",
"4  c #27391B",
"5  c #2A3C1C",
"6  c #36341F",
"7  c #383C1F",
"8  c #3D2F21",
"9  c #3E3327",
"0  c #41260F",
"q  c #44280F",
"w  c #452D16",
"e  c #4C2E12",
"r  c #533213",
"t  c #5A3515",
"y  c #5F3817",
"u  c #533519",
"i  c #593719",
"p  c #643D1A",
"a  c #4B3720",
"s  c #593E25",
"d  c #2D411E",
"f  c #30471F",
"g  c #314620",
"h  c #3F4024",
"j  c #334B21",
"k  c #375123",
"l  c #395425",
"z  c #3E5B26",
"x  c #3F5B28",
"c  c #68421F",
"v  c #70431C",
"b  c #474321",
"n  c #43452A",
"m  c #4A4A2D",
"M  c #415E29",
"N  c #454B30",
"B  c #5A4830",
"V  c #525C39",
"C  c #744720",
"Z  c #774A22",
"A  c #7A4D27",
"S  c #7E532C",
"D  c #685239",
"F  c #43642A",
"G  c #47692B",
"H  c #496E2C",
"J  c #4C722E",
"K  c #566833",
"L  c #566A39",
"P  c #4F7730",
"I  c #4F7830",
"U  c #527732",
"Y  c #527C31",
"T  c #606F38",
"R  c #5A5543",
"E  c #5B5942",
"W  c #725B42",
"Q  c #6E6546",
"!  c #79624B",
"~  c #607240",
"^  c #7A7459",
"/  c #83562F",
"(  c #845730",
")  c #865A34",
"_  c #885B33",
"`  c #825E3A",
"'  c #895F38",
"]  c #91653D",
"[  c #8B6642",
"{  c #966D47",
"}  c #946D48",
"|  c #99724D",
" . c #8A7753",
".. c #91775D",
"X. c #877E62",
"o. c #8D7A68",
"O. c #568334",
"+. c #598635",
"@. c #5B8C36",
"#. c #5D8D38",
"$. c #5E9037",
"%. c #619539",
"&. c #659B3C",
"*. c #689F3D",
"=. c #6AA33E",
"-. c #73964A",
";. c #6EAA41",
":. c #71AE42",
">. c #73B243",
",. c #77B845",
"<. c #9C945B",
"1. c #AE8259",
"2. c #AC885F",
"3. c #8D8765",
"4. c #958C61",
"5. c #908568",
"6. c #98986B",
"7. c #AE8A68",
"8. c #B28962",
"9. c #B88C63",
"0. c #BD9168",
"q. c #A89E77",
"w. c #A3AB71",
"e. c #B0AC78",
"r. c #BDAB86",
"t. c #B6B380",
"y. c #CFA883",
"u. c #C3A689",
"i. c #D4AD89",
"p. c #D1B08E",
"a. c #DAB795",
"s. c #D5B698",
"d. c #E5C4A5",
"f. c #ECCBAC",
"g. c None",
/* pixels */
"g.g.g.g.g.g.g.g.g.g.g.g.g.g.g.g.g.g.g.g.g.g.g.g.g.g.g.g.g.g.g.g.g.g.g.g.g.g.g.g.g.g.g.g.g.g.g.g.g.g.",
"g.g.g.g.g.g.g.g.g.g.g.g.g.g.g.g.g.g.g.g.g.2 2 1 2 2 2 g.g.g.g.g.g.g.g.g.g.g.g.g.g.g.g.g.g.g.g.g.g.g.",
"g.g.g.g.g.g.g.g.g.g.g.g.g.g.g.g.g.g.g.g.f k z z z z j g.g.g.g.g.g.g.g.g.g.g.g.g.g.g.g.g.g.g.g.g.g.g.",
"g.g.g.g.g.g.g.g.g.g.g.g.g.g.g.g.g.g.4 5 J &.,.,.,.;.@.j g.g.g.g.g.g.g.g.g.g.g.g.g.g.g.g.g.g.g.g.g.g.",
"g.g.g.g.g.g.g.g.g.g.g.g.g.g.g.g.1 l O.&.;.:.,.,.,.,.;.;.G 1 g.g.g.g.g.g.g.g.g.g.g.g.g.g.g.g.g.g.g.g.",
"g.g.g.g.g.g.g.g.g.g.g.g.g.g.g.2 z O.;.,.,.,.,.,.,.,.,.,.I 5   g.g.g.g.g.g.g.g.g.g.g.g.g.g.g.g.g.g.g.",
"g.g.g.g.g.g.g.g.g.g.g.g.g.g.g.1 H &.,.,.,.,.,.,.,.,.,.,.O.g   g.g.g.g.g.g.g.g.g.g.g.g.g.g.g.g.g.g.g.",
"g.g.g.g.g.g.g.g.g.g.g.g.g.g.g.1 P &.,.,.,.,.,.,.,.,.,.,.O.g   g.g.g.g.g.g.g.g.g.g.g.g.g.g.g.g.g.g.g.",
"g.g.g.g.g.g.g.g.g.g.g.g.g.g.d J &.>.,.,.,.,.,.,.,.,.>.,.&.M X g g.g.g.g.g.g.g.g.g.g.g.g.g.g.g.g.g.g.",
"g.g.g.g.g.g.g.g.g.g.g.g.g.g.5 J ;.,.,.,.,.,.,.,.,.:.;.Y z 5 X 9 b g.g.g.g.g.g.g.g.g.g.g.g.g.g.g.g.g.",
"g.g.g.g.g.g.g.g.g.g.g.g.g.g.4 z $.:.,.,.,.,.,.,.&.+.P g %   X < B W g.g.g.g.g.g.g.g.g.g.g.g.g.g.g.g.",
"g.g.g.g.g.g.g.g.g.g.g.g.g.g.4 z I ;.,.,.,.,.,.,.l X 1 l 1     % X.u.a g.g.g.g.g.g.g.g.g.g.g.g.g.g.g.",
"g.g.g.g.g.g.g.g.g.g.g.g.g.g.4 z F Y &.>.,.;.#.j $   $ k I J % 1 3.u.a g.g.g.g.g.g.g.g.g.g.g.g.g.g.g.",
"g.g.g.g.g.g.g.g.g.g.g.g.g.1 4 z x G Y #.$.#.O.k E R 4 G &.#.1 d 5.s.o.D g.g.g.g.g.g.g.g.g.g.g.g.g.g.",
"g.g.g.g.g.g.g.g.1 5 j j j j k G H H H H F J $.$.e.u.K Y $.O.5 z 6.f.f.W g.g.g.g.g.g.g.g.g.g.g.g.g.g.",
"g.g.g.g.g.g.g.g.2 J :.>.>.:.>.>.>.>.>.>.I J #.$.t.a.7.h k F z Y w.f.f.W g.g.g.g.g.g.g.g.g.g.g.g.g.g.",
"g.g.g.g.g.g.g.g.g.k J ,.,.:.-.%.O.+.#.F j z #.#.t.d.p.N j F O.+.-.w.f.7.g.g.g.g.g.g.g.g.g.g.g.g.g.g.",
"g.g.g.g.g.g.g.g.g.g.k I $.$.$.;.O.J G 4 1 l #.#.t.f.d.5.V z I I H L o.! g.g.g.g.g.g.g.g.g.g.g.g.g.g.",
"g.g.g.g.g.g.g.g.g.g.g.4 j O.,.,.&.I l 4 2 l #.#.e.d.f.f.^ d z z j %     g.g.g.g.g.g.g.g.g.g.g.g.g.g.",
"g.g.g.g.g.g.g.g.g.g.g.g.4 H ,.,.&.I l 4 1 l #.#.<.y.f.f.^ 5 z F g %     g.g.g.g.g.g.g.g.g.g.g.g.g.g.",
"g.g.g.g.g.g.g.g.g.g.g.g.g.j l k Y G d 2 1 d z G L 4.f.i.Q 1 2 ; $ o g.g.g.g.g.g.g.g.g.g.g.g.g.g.g.g.",
"g.g.g.g.g.g.g.g.g.g.g.g.g.g.    z M l k f 4 % f z ~ q. .N = o X     g.g.g.g.g.g.g.g.g.g.g.g.g.g.g.g.",
"g.g.g.g.g.g.g.g.g.g.g.g.g.g.g.g.5 F #.#.J g X % f z l 4 2 = % X     g.g.g.g.g.g.g.g.g.g.g.g.g.g.g.g.",
"g.g.g.g.g.g.g.g.g.g.g.g.g.g.g.1 G O.#.#.+.z     = 3 4 2 2 $ X X X     g.g.g.g.g.g.g.g.g.g.g.g.g.g.g.",
"g.g.g.g.g.g.g.g.g.g.g.g.g.g.g.1 J #.#.#.#.H g z J +.+.+.I J Y G 3     g.g.g.g.g.g.g.g.g.g.g.g.g.g.g.",
"g.g.g.g.g.g.g.g.g.g.g.g.g.g.g.% F O.#.#.O.J F $.=.,.,.,.=.=.>.=.l     g.g.g.g.g.g.g.g.g.g.g.g.g.g.g.",
"g.g.g.g.g.g.g.g.g.g.g.g.g.g.g.  g H +.+.H z G :.,.,.,.,.,.,.,.,.G     g.g.g.g.g.g.g.g.g.g.g.g.g.g.g.",
"g.g.g.g.g.g.g.g.g.g.g.g.g.g.g.g.o $ 2 5 5 f G ;.,.,.,.,.,.,.,.,.F   X g.g.g.g.g.g.g.g.g.g.g.g.g.g.g.",
"g.g.g.g.g.g.g.g.g.g.g.g.g.g.g.g.g.g.X o $ = k ;.,.,.,.,.,.,.,.,.G   g.g.g.g.g.g.g.g.g.g.g.g.g.g.g.g.",
"g.g.g.g.g.g.g.g.g.g.g.g.g.g.g.g.g.g.g.X   X 4 &.>.,.,.,.>.:.,.,.P   g.g.g.g.g.g.g.g.g.g.g.g.g.g.g.g.",
"g.g.g.g.g.g.g.g.g.g.g.g.g.g.g.g.g.g.g.g.    $ P =.>.>.>.&.%.>.:.g.g.g.g.g.g.g.g.g.g.g.g.g.g.g.g.g.g.",
"g.g.g.g.g.g.g.g.g.g.g.g.g.g.g.g.g.g.g.g.g.  . f F J J J H H H j g.g.g.g.g.g.g.g.g.g.g.g.g.g.g.g.g.g.",
"g.g.g.g.g.g.g.g.g.g.g.g.g.g.g.g.g.g.g.g.g.  X o 4 f f j j d 3 $ g.g.g.g.g.g.g.g.g.g.g.g.g.g.g.g.g.g.",
"g.g.g.g.g.g.g.g.g.g.g.g.g.g.g.g.g.g.g.g.  o - - 8 h N N N a 9 g.g.g.g.g.g.g.g.g.g.g.g.g.g.g.g.g.g.g.",
"g.g.g.g.g.g.g.g.g.g.g.g.g.g.g.g.g.g.g.g.  8 ` ` ` { 9.0.0.0.8.a g.g.g.g.g.g.g.g.g.g.g.g.g.g.g.g.g.g.",
"g.g.g.g.g.g.g.g.g.g.g.g.g.g.g.g.g.g.g.  @ 0 u u c A ) [ ' ) [ < g.g.g.g.g.g.g.g.g.g.g.g.g.g.g.g.g.g.",
"g.g.g.g.g.g.g.g.g.g.g.g.g.g.g.g.g.g.g.  : q q q p c v | _ / | s - g.g.g.g.g.g.g.g.g.g.g.g.g.g.g.g.g.",
"g.g.g.g.g.g.g.g.g.g.g.g.g.g.g.g.g.g.g.+ * q q q p v v 1.] _ 9.( w   g.g.g.g.g.g.g.g.g.g.g.g.g.g.g.g.",
"g.g.g.g.g.g.g.g.g.g.g.g.g.g.g.g.g.g.. * 0 0 q q t v v 1.] _ 0.( w   g.g.g.g.g.g.g.g.g.g.g.g.g.g.g.g.",
"g.g.g.g.g.g.g.g.g.g.g.g.g.g.g.g.g.g.. 0 q 0 q 0 p p v ( A v _ v r @   g.g.g.g.g.g.g.g.g.g.g.g.g.g.g.",
"g.g.g.g.g.g.g.g.g.g.g.g.g.g.g.g.g.g.. @ @ O @ # , w w w w w w w > @ X g.g.g.g.g.g.g.g.g.g.g.g.g.g.g.",
"g.g.g.g.g.g.g.g.g.g.g.g.g.g.g.g.g.g.    . . . + .         . . + .     g.g.g.g.g.g.g.g.g.g.g.g.g.g.g.",
"g.g.g.g.g.g.g.g.g.g.g.g.g.g.g.g.g.g.g.  @ 0 0 0 +     g.  + 0 0 0 #   g.g.g.g.g.g.g.g.g.g.g.g.g.g.g.",
"g.g.g.g.g.g.g.g.g.g.g.g.g.g.g.g.g.g.g.  # q 0 q +     g.  + q q 0 > X g.g.g.g.g.g.g.g.g.g.g.g.g.g.g.",
"g.g.g.g.g.g.g.g.g.g.g.g.g.g.g.g.g.g.g.+ * q q q +     g.. + 0 0 0 0 O . g.g.g.g.g.g.g.g.g.g.g.g.g.g.",
"g.g.g.g.g.g.g.g.g.g.g.g.g.g.g.g.g.g.g.0 q q q q +   g.g.g.+ > 0 0 q 0 . g.g.g.g.g.g.g.g.g.g.g.g.g.g.",
"g.g.g.g.g.g.g.g.g.g.g.g.g.g.g.g.g.g.. * q q q q +   g.g.g.g.  * q 0 0 + g.g.g.g.g.g.g.g.g.g.g.g.g.g.",
"g.g.g.g.g.g.g.g.g.g.g.g.g.g.g.g.g.g.+ * q q 0 O . g.g.g.g.g.  * q 0 0 * + g.g.g.g.g.g.g.g.g.g.g.g.g.",
"g.g.g.g.g.g.g.g.g.g.g.g.g.g.g.g.g.: > r r r e + g.g.g.g.g.g.  * e r r r e : g.g.g.g.g.g.g.g.g.g.g.g.",
"g.g.g.g.g.g.g.g.g.g.g.g.g.g.g.g.  > v c c v p . g.g.g.g.g.g.  > t v v v v t . g.g.g.g.g.g.g.g.g.g.g."
};
