/* XPM */
static char *result[] = {
/* columns rows colors chars-per-pixel */
"50 50 126 2 ",
"   c #141412",
".  c #1D1711",
"X  c #171A13",
"o  c #181D14",
"O  c #1D1D18",
"+  c #231B12",
"@  c #2B1E13",
"#  c #1C2416",
"$  c #1F2A17",
"%  c #3E250F",
"&  c #2C2317",
"*  c #29231A",
"=  c #212B18",
"-  c #332111",
";  c #223017",
":  c #243319",
">  c #29371C",
",  c #2B3C1D",
"<  c #33371E",
"1  c #302A20",
"2  c #2F3A22",
"3  c #393624",
"4  c #43270F",
"5  c #44280F",
"6  c #4A2C12",
"7  c #4A3017",
"8  c #4D3219",
"9  c #5C3716",
"0  c #593719",
"q  c #57381C",
"w  c #5B3B1D",
"e  c #653E1A",
"r  c #6A3F1A",
"t  c #423422",
"y  c #4A3620",
"u  c #473827",
"i  c #543F29",
"p  c #2D421E",
"a  c #314621",
"s  c #3E4226",
"d  c #334B21",
"f  c #375223",
"g  c #395225",
"h  c #3E5C27",
"j  c #3F5C28",
"k  c #6A401B",
"l  c #70431C",
"z  c #554028",
"x  c #5D472F",
"c  c #405F27",
"v  c #405F28",
"b  c #484E34",
"n  c #5E4E37",
"m  c #744923",
"M  c #794C24",
"N  c #7D512A",
"B  c #6C5137",
"V  c #6C5A3E",
"C  c #7B5A37",
"Z  c #79593A",
"A  c #43642A",
"S  c #476B2C",
"D  c #496D2C",
"F  c #4C722E",
"G  c #4C6531",
"H  c #586034",
"J  c #4E7630",
"K  c #4F7830",
"L  c #507330",
"P  c #527C31",
"I  c #67663C",
"U  c #7A6248",
"Y  c #707A4B",
"T  c #757F50",
"R  c #81552E",
"E  c #865C36",
"W  c #895D35",
"Q  c #8D633D",
"!  c #83664A",
"~  c #936C47",
"^  c #9B6E46",
"/  c #956E48",
"(  c #8F7B5B",
")  c #9E7952",
"_  c #A47850",
"`  c #568233",
"'  c #598635",
"]  c #5B8B36",
"[  c #5D8D38",
"{  c #5F9239",
"}  c #62963A",
"|  c #669C3C",
" . c #6CA63F",
".. c #6DA83F",
"X. c #7F9849",
"o. c #6EAB40",
"O. c #71AE42",
"+. c #75B444",
"@. c #77B845",
"#. c #9A855B",
"$. c #969B5A",
"%. c #92B05F",
"&. c #898F60",
"*. c #9F8461",
"=. c #9D846C",
"-. c #A58A6E",
";. c #B38B63",
":. c #B88C63",
">. c #B1956C",
",. c #A59B74",
"<. c #AB977D",
"1. c #AC9A7D",
"2. c #A4AC72",
"3. c #A8B274",
"4. c #AFBE75",
"5. c #BBB67A",
"6. c #C89F79",
"7. c #BB9E81",
"8. c #B9A487",
"9. c #C0AF8A",
"0. c #D1AA85",
"q. c #D6B08C",
"w. c #CDAF91",
"e. c #CEB895",
"r. c #EBCAAB",
"t. c None",
/* pixels */
"t.t.t.t.t.t.t.t.t.t.t.t.t.t.t.t.t.t.t.t.t.t.t.t.t.t.t.t.t.t.t.t.t.t.t.t.t.t.t.t.t.t.t.t.t.t.t.t.t.t.",
"t.t.t.t.t.t.t.t.t.t.t.t.t.t.t.t.t.t.t.t.t.t.t.t.t.t.t.t.t.t.t.t.t.t.t.t.t.t.t.t.t.t.t.t.t.t.t.t.t.t.",
"t.t.t.t.t.t.t.t.t.t.t.t.t.t.t.t.t.t.t.t.t.t.t.t.t.t.t.t.t.t.t.t.t.t.t.t.t.t.t.t.t.t.t.t.t.t.t.t.t.t.",
"t.t.t.t.t.t.t.t.t.t.t.t.t.t.t.t.t.t.t.t.t.t.t.t.t.t.t.t.t.t.t.t.t.t.t.t.t.t.t.t.t.t.t.t.t.t.t.t.t.t.",
"t.t.t.t.t.t.t.t.t.t.t.t.t.t.t.t.t.t.t.t.t.t.t.t.t.t.t.t.t.t.t.t.t.t.t.t.t.t.t.t.t.t.t.t.t.t.t.t.t.t.",
"t.t.t.t.t.t.t.t.t.t.t.t.t.t.t.t.t.t.t.t.t.t.t.t.t.t.t.t.t.t.t.t.t.t.t.t.t.t.t.t.t.t.t.t.t.t.t.t.t.t.",
"t.t.t.t.t.t.t.t.t.t.t.t.t.t.t.t.t.t.t.t.t.t.t.t.t.t.t.t.t.t.t.t.t.t.t.t.t.t.t.t.t.t.t.t.t.t.t.t.t.t.",
"t.t.t.t.t.t.t.t.t.t.t.t.t.t.t.t.t.t.t.t.t.t.t.t.t.t.t.t.t.t.t.t.t.t.t.t.t.t.t.t.t.t.t.t.t.t.t.t.t.t.",
"t.t.t.t.t.t.t.t.t.t.t.t.t.t.t.t.t.t.t.t.t.t.t.t.t.t.t.t.t.t.t.t.t.t.t.t.t.t.t.t.t.t.t.t.t.t.t.t.t.t.",
"t.t.t.t.t.t.t.t.t.t.t.t.t.t.t.t.t.t.t.t.t.t.t.t.t.t.t.t.t.t.t.t.t.t.t.t.t.t.t.t.t.t.t.t.t.t.t.t.t.t.",
"t.t.t.t.t.t.t.t.t.t.t.t.t.t.t.t.t.t.t.t.t.t.t.t.t.t.t.t.t.t.t.t.t.t.t.t.t.t.t.t.t.t.t.t.t.t.t.t.t.t.",
"t.t.t.t.t.t.t.t.t.t.t.t.t.t.t.t.t.t.t.t.t.t.t.t.t.t.t.t.t.t.t.t.t.t.t.t.t.t.t.t.t.t.t.t.t.t.t.t.t.t.",
"t.t.t.t.t.t.t.t.t.t.t.t.t.t.t.t.t.t.t.t.t.t.t.t.t.t.t.t.t.t.t.t.t.t.t.t.t.t.t.t.t.t.t.t.t.t.t.t.t.t.",
"t.t.t.t.t.t.t.t.t.t.t.t.t.t.t.t.t.t.t.t.t.t.t.t.t.t.t.t.t.t.t.t.t.t.t.t.t.t.t.t.t.t.t.t.t.t.t.t.t.t.",
"t.t.t.t.t.t.t.t.t.t.t.t.t.t.t.t.t.t.t.t.t.t.t.t.t.t.t.t.t.t.t.t.t.t.t.t.t.t.t.t.t.t.t.t.t.t.t.t.t.t.",
"t.t.t.t.t.t.t.t.t.t.t.t.t.t.t.t.t.t.t.t.t.t.t.t.t.t.t.t.t.t.t.t.t.t.t.t.t.t.t.t.t.t.t.t.t.t.t.t.t.t.",
"t.t.t.t.t.t.t.t.t.t.t.t.t.t.t.t.t.t.t.t.t.t.t.t.t.t.: : : : : ; : $   t.t.t.t.t.t.t.t.t.t.t.t.t.t.t.",
"t.t.t.t.t.t.t.t.t.t.t.t.t.t.t.t.t.t.t.t.t.t.t.t.t.d S S S S S S S S h : t.t.t.t.t.t.t.t.t.t.t.t.t.t.",
"t.t.t.t.t.t.t.t.t.t.t.t.t.t.t.t.t.t.t.t.t.t.t.t.d F @.@.@.@.@.@.@.@.@.a o t.t.t.t.t.t.t.t.t.t.t.t.t.",
"t.t.t.t.t.t.t.t.t.t.t.t.t.t.t.t.t.t.t.t.t.t.t.: P o.@.@.@.@.@.@.@.@.@.D > X t.t.t.t.t.t.t.t.t.t.t.t.",
"t.t.t.t.t.t.t.t.t.t.t.t.t.t.t.t.t.t.t.t.t.t.p P  .@.@.@.@.@.@.@.@.@.@.] v > X t.t.t.t.t.t.t.t.t.t.t.",
"t.t.t.t.t.t.t.t.t.t.t.t.t.t.t.t.t.t.t.t.t.t.p ..@.@.@.@.@.@.@.@.@.@.@.J g : X * t.t.t.t.t.t.t.t.t.t.",
"t.t.t.t.t.t.t.t.t.t.t.t.t.t.t.t.t.t.t.t.t.t.p | +.@.@.@.@.@.@.@.@.o...2   X   u x t.t.t.t.t.t.t.t.t.",
"t.t.t.t.t.t.t.t.t.t.t.t.t.t.t.t.t.t.t.t.: p h A | @.@.@.@.@.@.@. .P p d >     =.=.8 t.t.t.t.t.t.t.t.",
"t.t.t.t.t.t.t.t.t.t.t.t.t.t.t.t.t.t.t.t.; p c h `  .@.@.@.o.` h d a d g a # $ <.-.y t.t.t.t.t.t.t.t.",
"t.t.t.t.t.t.t.t.t.t.t.t.t.t.t.t.t.t.t.t.: p h h F ' |  ...{ A $   $ S J S f : 1.7.U t.t.t.t.t.t.t.t.",
"t.t.t.t.t.t.t.t.t.t.t.t.t.t.t.t.t.t.> > , p c c h c c ` [ [ ' > O 2 ] o.@.} > <.r.w.z t.t.t.t.t.t.t.",
"t.t.t.t.t.t.t.t.t.t.t.t.t.t.t.t.; S | |  . .| A h h h A K [ [ P &.,.A ' o.| h #.q.w.z t.t.t.t.t.t.t.",
"t.t.t.t.t.t.t.t.t.t.t.t.t.t.t.t.: d K O.@.+.| { D A K ] [ [ [ [ 2.8.A A ` ` K &.5.w.z t.t.t.t.t.t.t.",
"t.t.t.t.t.t.t.t.t.t.t.t.t.t.t.t.t.: p ` ....| | F v J ' [ { | | 4.e.X.G c D D } %.,.t t.t.t.t.t.t.t.",
"t.t.t.t.t.t.t.t.t.t.t.t.t.t.t.t.t.t.; ; ` O.o.S v f ; : v } +.+.4.r.r.Y F F : D ' F o t.t.t.t.t.t.t.",
"t.t.t.t.t.t.t.t.t.t.t.t.t.t.t.t.    o o , K +.' S f : : p j | } $.6.r.>.I p : > = : t.t.t.t.t.t.t.t.",
"t.t.t.t.t.t.t.t.t.t.t.t.t.t.t.t.d g d g > 2 A g 2 > : : = p v v H ( r.6.V # o X t.t.t.t.t.t.t.t.t.t.",
"t.t.t.t.t.t.t.t.t.t.t.t.t.t.t.d P [ [ [ g : > > , a f d > = $ $ = b 8.*.n X X t.t.t.t.t.t.t.t.t.t.t.",
"t.t.t.t.t.t.t.t.t.t.t.t.t.t.p ' [ [ [ [ [ [ } +.@.@.+.{ a       # : : : t.t.t.t.t.t.t.t.t.t.t.t.t.t.",
"t.t.t.t.t.t.t.t.t.t.t.t.t.t.p ] [ [ [ [ J ` O.+.@.@.+.+.| S     X o t.t.t.t.t.t.t.t.t.t.t.t.t.t.t.t.",
"t.t.t.t.t.t.t.t.t.t.t.t.t.t.: D ' ] ' P S P @.@.@.@.@.@.@.| A =     t.t.t.t.t.t.t.t.t.t.t.t.t.t.t.t.",
"t.t.t.t.t.t.t.t.t.t.t.t.t.t.# d A F D g f F O.+.@.@.+.+.+.@.O.,     t.t.t.t.t.t.t.t.t.t.t.t.t.t.t.t.",
"t.t.t.t.t.t.t.t.t.t.t.t.t.t.t.X X $ > : : g } +.@.@.@.}  .@.o.,   t.t.t.t.t.t.t.t.t.t.t.t.t.t.t.t.t.",
"t.t.t.t.t.t.t.t.t.t.t.t.t.t.t.t.t.o o o o : g F K K F F F S a t.t.t.t.t.t.t.t.t.t.t.t.t.t.t.t.t.t.t.",
"t.t.t.t.t.t.t.t.t.t.t.t.t.t.t.t.t.t.      X = p d d d d p >   t.t.t.t.t.t.t.t.t.t.t.t.t.t.t.t.t.t.t.",
"t.t.t.t.t.t.t.t.t.t.t.t.t.t.t.t.t.t.t.  O * * 2 s 3 b 3 3 1 t.t.t.t.t.t.t.t.t.t.t.t.t.t.t.t.t.t.t.t.",
"t.t.t.t.t.t.t.t.t.t.t.t.t.t.t.t.t.t.t.  i C C C ) ;.;.;.;.!   t.t.t.t.t.t.t.t.t.t.t.t.t.t.t.t.t.t.t.",
"t.t.t.t.t.t.t.t.t.t.t.t.t.t.t.t.t.t.. - 6 q w m N Q ~ E ~ B   t.t.t.t.t.t.t.t.t.t.t.t.t.t.t.t.t.t.t.",
"t.t.t.t.t.t.t.t.t.t.t.t.t.t.t.t.t.  . % 5 5 5 r l M / M E Z - + t.t.t.t.t.t.t.t.t.t.t.t.t.t.t.t.t.t.",
"t.t.t.t.t.t.t.t.t.t.t.t.t.t.t.      + % 5 5 6 r l W :.N ^ _ k @ t.t.t.t.t.t.t.t.t.t.t.t.t.t.t.t.t.t.",
"t.t.t.t.t.t.t.t.t.t.t.t.t.t.      + 4 5 5 5 6 r l W :.N ^ _ r @ t.t.t.t.t.t.t.t.t.t.t.t.t.t.t.t.t.t.",
"t.t.t.t.t.t.t.t.t.t.t.t.t.6 - - . @ 4 5 5 5 6 k l M Q l N E r @ t.t.t.t.t.t.t.t.t.t.t.t.t.t.t.t.t.t.",
"t.t.t.t.t.t.t.t.t.t.t.t.e 9 5 5 + + - - - - - 6 8 8 8 8 8 6 8 @ t.t.t.t.t.t.t.t.t.t.t.t.t.t.t.t.t.t.",
"t.t.t.t.t.t.t.t.t.t.t.X 0 9 4 4 +                             t.t.t.t.t.t.t.t.t.t.t.t.t.t.t.t.t.t.t."
};
