/* XPM */
static char *result[] = {
/* columns rows colors chars-per-pixel */
"50 50 122 2 ",
"   c #141412",
".  c #1A1611",
"X  c #161913",
"o  c #1A1C13",
"O  c #231B12",
"+  c #2C1E10",
"@  c #1C2416",
"#  c #1F2A17",
"$  c #3A240F",
"%  c #232017",
"&  c #202B17",
"*  c #29231C",
"=  c #222D19",
"-  c #342212",
";  c #392715",
":  c #3B2816",
">  c #372A1B",
",  c #3A2C1D",
"<  c #233219",
"1  c #2B361C",
"2  c #2A3B1D",
"3  c #2E2E20",
"4  c #2E3B21",
"5  c #313420",
"6  c #323B21",
"7  c #353928",
"8  c #40260F",
"9  c #44280F",
"0  c #422A14",
"q  c #41351E",
"w  c #533316",
"e  c #5F3817",
"r  c #533418",
"t  c #653C18",
"y  c #4A3720",
"u  c #4E3822",
"i  c #5F3F21",
"p  c #2D411E",
"a  c #2F4120",
"s  c #314721",
"d  c #334B21",
"f  c #3A5524",
"g  c #3E5C27",
"h  c #3F5C28",
"j  c #4A4B2E",
"k  c #554028",
"l  c #405F28",
"z  c #504C3B",
"x  c #53563B",
"c  c #7C4F28",
"v  c #7D532C",
"b  c #6E5132",
"n  c #7E5732",
"m  c #426329",
"M  c #476B2C",
"N  c #496D2D",
"B  c #4D742F",
"V  c #516C31",
"C  c #4F7830",
"Z  c #507731",
"A  c #527C31",
"S  c #6E703F",
"D  c #5D5E43",
"F  c #755D45",
"G  c #626C44",
"H  c #7C634B",
"J  c #687547",
"K  c #6A7848",
"L  c #6F6C51",
"P  c #7E6B57",
"I  c #8C6038",
"U  c #91653D",
"Y  c #8E6F4B",
"T  c #956A43",
"R  c #946D48",
"E  c #9B744E",
"W  c #806950",
"Q  c #85725D",
"!  c #9D7957",
"~  c #9D7E59",
"^  c #568234",
"/  c #598635",
"(  c #5B8B36",
")  c #5D8D38",
"_  c #5F9139",
"`  c #61953A",
"'  c #68913D",
"]  c #659B3B",
"[  c #689F3D",
"{  c #6AA33E",
"}  c #728542",
"|  c #6C9344",
" . c #6DA740",
".. c #6EAA40",
"X. c #70AD41",
"o. c #74B443",
"O. c #77B845",
"+. c #878A5F",
"@. c #8E9D5B",
"#. c #96A354",
"$. c #948265",
"%. c #A68B6F",
"&. c #BD9168",
"*. c #AF9377",
"=. c #B3967A",
"-. c #9BA86A",
";. c #A1A969",
":. c #B6AC7B",
">. c #C39C73",
",. c #B59F80",
"<. c #B9A487",
"1. c #BFB787",
"2. c #C1AA8C",
"3. c #D7B18E",
"4. c #CDAF91",
"5. c #CCB490",
"6. c #D7BB9D",
"7. c #E1BE9D",
"8. c #E2C2A3",
"9. c #E9C7A7",
"0. c #ECCBAC",
"q. c None",
/* pixels */
"q.q.q.q.q.q.q.q.q.q.q.q.q.q.q.q.q.q.q.q.q.q.q.q.q.q.q.q.q.q.q.q.q.q.q.q.q.q.q.q.q.q.q.q.q.q.q.q.q.q.",
"q.q.q.q.q.q.q.q.q.q.q.q.q.q.q.q.q.q.q.q.q.q.q.q.q.q.q.q.q.q.q.q.q.q.q.q.q.q.q.q.q.q.q.q.q.q.q.q.q.q.",
"q.q.q.q.q.q.q.q.q.q.q.q.q.q.q.q.q.q.q.q.q.q.q.q.q.q.q.q.q.q.q.q.q.q.q.q.q.q.q.q.q.q.q.q.q.q.q.q.q.q.",
"q.q.q.q.q.q.q.q.q.q.q.q.q.q.q.q.q.q.q.q.q.q.q.q.q.q.q.q.q.q.q.q.q.q.q.q.q.q.q.q.q.q.q.q.q.q.q.q.q.q.",
"q.q.q.q.q.q.q.q.q.q.q.q.q.q.q.q.q.q.q.q.q.q.q.q.q.q.q.q.q.q.q.q.q.q.q.q.q.q.q.q.q.q.q.q.q.q.q.q.q.q.",
"q.q.q.q.q.q.q.q.q.q.q.q.q.q.q.q.q.q.q.q.q.q.q.q.q.q.q.q.q.q.q.q.q.q.q.q.q.q.q.q.q.q.q.q.q.q.q.q.q.q.",
"q.q.q.q.q.q.q.q.q.q.q.q.q.q.q.q.q.q.q.q.q.q.q.q.q.q.q.q.q.q.q.q.q.q.q.q.q.q.q.q.q.q.q.q.q.q.q.q.q.q.",
"q.q.q.q.q.q.q.q.q.q.q.q.q.q.q.q.q.q.q.q.q.q.q.q.q.q.q.q.q.q.q.q.q.q.q.q.q.q.q.q.q.q.q.q.q.q.q.q.q.q.",
"q.q.q.q.q.q.q.q.q.q.q.q.q.q.q.q.q.q.q.q.q.q.q.q.q.q.q.q.q.q.q.q.q.q.q.q.q.q.q.q.q.q.q.q.q.q.q.q.q.q.",
"q.q.q.q.q.q.q.q.q.q.q.q.q.q.q.q.q.q.q.q.q.q.q.q.q.q.q.q.q.q.q.q.q.q.q.q.q.q.q.q.q.q.q.q.q.q.q.q.q.q.",
"q.q.q.q.q.q.q.q.q.q.q.q.q.q.q.q.q.q.q.q.q.q.q.q.q.q.q.q.q.q.q.q.q.q.q.q.q.q.q.q.q.q.q.q.q.q.q.q.q.q.",
"q.q.q.q.q.q.q.q.q.q.q.q.q.q.q.q.q.q.q.q.q.q.q.q.q.q.q.q.q.q.q.q.q.q.q.q.q.q.q.q.q.q.q.q.q.q.q.q.q.q.",
"q.q.q.q.q.q.q.q.q.q.q.q.q.q.q.q.q.q.q.q.q.q.q.q.q.q.q.q.q.q.q.q.q.q.q.q.q.q.q.q.q.q.q.q.q.q.q.q.q.q.",
"q.q.q.q.q.q.q.q.q.q.q.q.q.q.q.q.q.q.q.q.q.q.q.q.q.q.q.q.q.q.q.q.q.q.q.q.q.q.q.q.q.q.q.q.q.q.q.q.q.q.",
"q.q.q.q.q.q.q.q.q.q.q.q.q.q.q.q.q.q.q.q.q.q.q.q.q.q.q.q.q.q.q.q.q.q.q.q.q.q.q.q.q.q.q.q.q.q.q.q.q.q.",
"q.q.q.q.q.q.q.q.q.q.q.q.q.q.q.q.q.q.q.q.q.q.q.q.q.q.q.q.q.q.q.q.q.q.q.q.q.q.q.q.q.q.q.q.q.q.q.q.q.q.",
"q.q.q.q.q.q.q.q.q.q.q.q.q.q.q.q.q.q.q.q.q.q.q.q.q.q.q.q.q.q.q.q.q.q.q.q.q.q.q.q.q.q.q.q.q.q.q.q.q.q.",
"q.q.q.q.q.q.q.q.q.q.q.q.q.q.q.q.q.q.q.q.q.q.q.q.q.q.q.q.q.q.q.q.q.q.q.q.q.q.q.q.q.q.q.q.q.q.q.q.q.q.",
"q.q.q.q.q.q.q.q.q.q.q.q.q.q.q.q.q.q.q.q.q.q.q.q.q.q.q.q.q.q.q.q.q.q.q.q.q.q.q.q.q.q.q.q.q.q.q.q.q.q.",
"q.q.q.q.q.q.q.q.q.q.q.q.q.q.q.q.q.q.q.q.q.q.q.q.q.q.q.q.q.q.q.q.q.q.q.q.q.q.q.q.q.q.q.q.q.q.q.q.q.q.",
"q.q.q.q.q.q.q.q.q.q.q.q.q.q.q.q.q.q.q.q.q.q.q.q.q.q.q.q.q.q.q.q.q.q.q.q.q.q.q.q.q.q.q.q.q.q.q.q.q.q.",
"q.q.q.q.q.q.q.q.q.q.q.q.q.q.q.q.q.q.q.q.q.q.q.q.q.q.q.q.q.q.q.q.q.q.q.q.q.q.q.q.q.q.q.q.q.q.q.q.q.q.",
"q.q.q.q.q.q.q.q.q.q.q.q.q.q.q.q.q.q.q.q.q.q.q.q.q.q.q.q.q.q.q.q.q.q.q.q.q.q.q.q.q.q.q.q.q.q.q.q.q.q.",
"q.q.q.q.q.q.q.q.q.q.q.q.q.q.q.q.q.q.q.q.q.q.q.q.q.q.q.q.q.q.q.q.q.q.q.q.q.q.q.q.q.q.q.q.q.q.q.q.q.q.",
"q.q.q.q.q.q.q.q.q.q.q.q.q.q.q.q.q.q.q.q.q.q.q.q.q.q.q.q.q.q.q.q.q.q.q.q.q.q.q.q.q.q.q.q.q.q.q.q.q.q.",
"q.q.q.q.q.q.q.q.q.q.q.q.q.q.q.q.q.q.q.q.q.q.q.q.q.q.q.q.q.q.q.q.q.q.q.q.q.q.q.q.q.q.q.q.q.q.q.q.q.q.",
"q.q.q.q.q.q.q.q.q.q.q.q.q.q.q.q.q.q.q.q.q.q.q.q.q.q.q.q.q.q.q.q.q.q.q.q.q.q.q.q.q.q.q.q.q.q.q.q.q.q.",
"q.q.q.q.q.q.q.q.q.q.q.q.q.q.q.q.q.q.q.q.q.q.q.q.q.q.q.q.q.q.q.q.q.q.q.q.q.q.q.q.q.q.q.q.q.q.q.q.q.q.",
"q.q.q.q.q.q.q.q.q.q.q.q.q.q.q.q.q.q.q.q.q.q.q.q.q.q.q.q.q.q.q.q.q.q.q.q.q.q.q.q.q.q.q.q.q.q.q.q.q.q.",
"q.q.q.q.q.q.q.q.q.q.q.q.q.q.q.q.q.q.q.q.q.q.q.q.q.q.q.q.q.q.q.q.q.q.q.q.q.q.q.q.q.q.q.q.q.q.q.q.q.q.",
"q.q.q.q.q.q.q.q.q.q.q.q.q.q.q.q.q.q.q.q.q.q.q.q.q.q.q.q.q.q.q.q.h l h m m m q.q.q.q.q.q.q.q.q.q.q.q.",
"q.q.q.q.q.q.q.q.q.q.q.q.q.q.q.q.q.q.q.q.q.q.< = < < < q.q.q.< < h ^ ^ `  ._ m l q.q.q.q.q.q.q.q.q.q.",
"q.q.q.q.q.q.q.q.q.q.q.q.q.q.q.q.q.q.q.q.q.q.2 M B B C { q.p p p N _ { { O.o._ ( ^ q.q.q.q.q.q.q.q.q.",
"q.q.q.q.q.q.q.q.q.q.q.q.q.q.q.q.q.q.q.q.q.q.p ) ..o...o.^ f l l A { O.O.O.O.O.O.] B q.q.q.q.q.q.q.q.",
"q.q.q.q.q.q.q.q.q.q.q.q.q.q.q.q.q.q.q.q.q.q.q.< ^ .._ X.O.{ g g _ O.O.O.O.O.O.O.O.{ m q.q.q.q.q.q.q.",
"q.q.q.q.q.q.q.q.q.q.q.q.q.q.q.q.q.q.q.q.q.q.q.q.d B ..] { _ l l ) O.O.O.O.O.O.O.O.o.{ B q.q.q.q.q.q.",
"q.q.q.q.q.q.q.q.q.q.q.q.q.q.q.q.q.q.q.q.q.q.q.q.@ p / C _ ( l g ^ { O.O.O.O.O.O.O.O.O.B l q.q.q.q.q.",
"q.q.q.q.q.q.q.q.q.q.q.q.q.q.q.q.q.q.q.q.q.q.q.q.@ = f f C ^ l l B ] { O.O.O.O.O.O.O.O.^ M q.q.q.q.q.",
"q.q.q.q.q.q.q.q.q.q.q.q.q.q.q.q.q.q.q.q.q.q.= = = = < f C ^ l l B ) ) { O.O.O.O.O.O.O.] A g q.q.q.q.",
"q.q.q.q.q.q.q.q.q.q.q.q.q.q.q.q.q.q.q.q.q.< f M B f @ 2 p p p f B _ ) g d M { O.O.o.] _ A g q.q.q.q.",
"q.q.q.q.q.q.q.q.q.q.q.q.q.q.q.q.q.q.q.q.  4 B ( ) C s < < < < l ^ | -.7   = C A ^ ( A m d 4 q.q.q.q.",
"q.q.q.q.q.q.q.q.q.q.q.q.            q.q.  4 ) ) ) _ / 4 < < d ^ ' @.0.z @ # a < 2 d d #     q.q.q.q.",
"q.q.q.q.          q.q.q.            q.q.  a ) ) ) ) ^ = @ d ( ..#.>.0.J f m ^ 2 X o X       q.q.q.q.",
"q.q.q.q.  ; r r r ;   q.q.        , b O   < B / ) ^ M @ X a ) ` ;.6.0.K N ^ ) 2   . > Q P , q.q.q.q.",
"q.q.q.q.  : w e t 0 O q.q.. + O + r b @ X 4 B ` ] _ A h = = N } :.0.0.G M ) ) a @ 3 H 4.*.y q.q.q.q.",
"q.q.q.q.q.  O 9 8 9 $   . + 9 9 9 i b % # g ` o.O.O.O.O.h o 4 ~ 3.0.9.x h / / d 4 D 8.0.*.y q.q.q.q.",
"q.q.q.q.q.  O 9 9 9 $   - $ 9 9 9 k b 1 s C o.O.O.O.O.O.l o 4 <.9.7.>.j s m M a L 6.0.0.*.y q.q.q.q.",
"q.q.q.q.q.q.. O $ 9 $ - w e e t e n Y 6 d ^ O.O.O.O.O.O.m # 4 <.0.5.S V B A C +.<.0.0.%.H q.q.q.q.q.",
"q.q.q.q.q.q.q.  - 9 9 9 t c I I v T ~ 5 s A { O.O.O.O.{ C < 4 $.*.~ s m A ) ) 1.0.8.=.F q.q.q.q.q.q.",
"q.q.q.q.q.q.q.  $ 9 9 9 t U &.&.R E ! * a N ` o.O.O.o.` q.q.q.r r 7 < < l ) ) 1.0.5.u q.q.q.q.q.q.q."
};
