/* XPM */
static char *result[] = {
/* columns rows colors chars-per-pixel */
"50 50 240 2 ",
"   c #131311",
".  c #131312",
"X  c #141411",
"o  c #151411",
"O  c #171511",
"+  c #141412",
"@  c #181511",
"#  c #1A1611",
"$  c #191612",
"%  c #161812",
"&  c #171812",
"*  c #161813",
"=  c #161913",
"-  c #1E1811",
";  c #1D1812",
":  c #191F14",
">  c #2C1E0F",
",  c #241B10",
"<  c #241A11",
"1  c #261B10",
"2  c #271D12",
"3  c #231E17",
"4  c #271D14",
"5  c #2A1E12",
"6  c #2A1F13",
"7  c #1B2315",
"8  c #1C2315",
"9  c #1D2416",
"0  c #39230F",
"q  c #3C240F",
"w  c #3E250F",
"e  c #2E2013",
"r  c #242F19",
"t  c #322010",
"y  c #362515",
"u  c #372515",
"i  c #3A2D1E",
"p  c #223018",
"a  c #233118",
"s  c #223119",
"d  c #233219",
"f  c #25321B",
"g  c #26331B",
"h  c #27341B",
"j  c #27351B",
"k  c #26371A",
"l  c #27371B",
"z  c #27391B",
"x  c #283A1B",
"c  c #28391C",
"v  c #293B1C",
"b  c #2B3B1D",
"n  c #2A3C1C",
"m  c #2B3D1D",
"M  c #3E3221",
"N  c #353728",
"B  c #42270F",
"V  c #44280F",
"C  c #46290F",
"Z  c #462A10",
"A  c #442C16",
"S  c #492B10",
"D  c #4B2F15",
"F  c #573314",
"G  c #543418",
"H  c #593719",
"J  c #5C3919",
"K  c #603A19",
"L  c #653D1A",
"P  c #663D1A",
"I  c #6A3F1A",
"U  c #2D421D",
"Y  c #2E411F",
"T  c #2F411F",
"R  c #2D421E",
"E  c #2F441F",
"W  c #30431F",
"Q  c #30441F",
"!  c #314720",
"~  c #324621",
"^  c #314820",
"/  c #314920",
"(  c #324B21",
")  c #334822",
"_  c #334D22",
"`  c #354D22",
"'  c #364D22",
"]  c #364D23",
"[  c #364F22",
"{  c #364F23",
"}  c #365022",
"|  c #385324",
" . c #385424",
".. c #3A5425",
"X. c #3A5525",
"o. c #3B5725",
"O. c #3C5827",
"+. c #3D5A26",
"@. c #3D5B26",
"#. c #3E5B26",
"$. c #3E5C26",
"%. c #3F5C26",
"&. c #3F5D26",
"*. c #3F5D27",
"=. c #3F5F27",
"-. c #70431C",
";. c #454024",
":. c #415F29",
">. c #534232",
",. c #544E30",
"<. c #594E34",
"1. c #505030",
"2. c #6E4520",
"3. c #754821",
"4. c #7A4E27",
"5. c #7E512A",
"6. c #7A5734",
"7. c #7F5A36",
"8. c #406028",
"9. c #416028",
"0. c #416128",
"q. c #426228",
"w. c #426329",
"e. c #426429",
"r. c #446529",
"t. c #44652A",
"y. c #47642C",
"u. c #46672C",
"i. c #46692B",
"p. c #466A2B",
"a. c #476B2C",
"s. c #486B2C",
"d. c #486A2D",
"f. c #486C2C",
"g. c #496D2D",
"h. c #4A6E2D",
"j. c #4A6F2D",
"k. c #4B702D",
"l. c #4B732D",
"z. c #4A702E",
"x. c #4B712E",
"c. c #4D752F",
"v. c #4E762F",
"b. c #546A37",
"n. c #4F7630",
"m. c #4F7730",
"M. c #507A30",
"N. c #517A30",
"B. c #537D31",
"V. c #537E32",
"C. c #537E33",
"Z. c #547F32",
"A. c #547F33",
"S. c #5B763A",
"D. c #574D42",
"F. c #6E6D47",
"G. c #727252",
"H. c #777854",
"J. c #835730",
"K. c #835933",
"L. c #8B5E36",
"P. c #8C6038",
"I. c #8D6742",
"U. c #A0764F",
"Y. c #A37A53",
"T. c #558133",
"R. c #578434",
"E. c #578534",
"W. c #588535",
"Q. c #588634",
"!. c #598735",
"~. c #598835",
"^. c #598836",
"/. c #5C8D37",
"(. c #5D8D38",
"). c #5E8F38",
"_. c #5E9038",
"`. c #5F9238",
"'. c #609239",
"]. c #609339",
"[. c #609439",
"{. c #629539",
"}. c #629639",
"|. c #61943A",
" X c #62963A",
".X c #63973B",
"XX c #63983B",
"oX c #679E3C",
"OX c #679E3D",
"+X c #689F3D",
"@X c #68A03D",
"#X c #69A13D",
"$X c #69A23D",
"%X c #69A13E",
"&X c #6AA23E",
"*X c #6AA43E",
"=X c #6CA73F",
"-X c #6A9242",
";X c #78944F",
":X c #77984D",
">X c #7E8458",
",X c #7F8658",
"<X c #6DA740",
"1X c #6FAA41",
"2X c #6FAC41",
"3X c #72A445",
"4X c #70AD41",
"5X c #71AE42",
"6X c #71AF42",
"7X c #72AF42",
"8X c #73B243",
"9X c #74B343",
"0X c #74B443",
"qX c #75B444",
"wX c #75B544",
"eX c #75B644",
"rX c #76B644",
"tX c #76B744",
"yX c #77B845",
"uX c #818859",
"iX c #848D5B",
"pX c #B4885F",
"aX c #8FBC5A",
"sX c #8D9C60",
"dX c #A78C62",
"fX c #B58A62",
"gX c #B88C63",
"hX c #BD9168",
"jX c #92A463",
"kX c #95A566",
"lX c #97AD65",
"zX c #A4AC72",
"xX c #AEBE76",
"cX c #D7B18E",
"vX c #D6BD9B",
"bX c #DFC5A2",
"nX c #E2C2A1",
"mX c #E9C7A7",
"MX c #ECCBAC",
"NX c None",
/* pixels */
"NXNXNXNXNXNXNXNXNXNXNXNXNXNXNXNXNXNXNXNXNXNXNXNXNXNXNXNXNXNXNXNXNXNXNXNXNXNXNXNXNXNXNXNXNXNXNXNXNXNX",
"NXNXNXNXNXNXNXNXNXNXNXNXNXNXNXNXNXNXNXNXNXNXNXNXNXNXNXNXNXNXNXNXNXNXNXNXNXNXNXNXNXNXNXNXNXNXNXNXNXNX",
"NXNXNXNXNXNXNXNXNXNXNXNXNXNXNXNXNXNXNXNXNXNXNXNXNXNXNXNXNXNXNXNXNXNXNXNXNXNXNXNXNXNXNXNXNXNXNXNXNXNX",
"NXNXNXNXNXNXNXNXNXNXNXNXNXNXNXNXNXNXNXNXNXNXNXNXNXNXNXNXNXNXNXNXNXNXNXNXNXNXNXNXNXNXNXNXNXNXNXNXNXNX",
"NXNXNXNXNXNXNXNXNXNXNXNXNXNXNXNXNXNXNXNXNXNXNXNXNXNXNXNXNXNXNXNXNXNXNXNXNXNXNXNXNXNXNXNXNXNXNXNXNXNX",
"NXNXNXNXNXNXNXNXNXNXNXNXNXNXNXNXNXNXNXNXNXNXNXNXNXNXNXNXNXNXNXNXNXNXNXNXNXNXNXNXNXNXNXNXNXNXNXNXNXNX",
"NXNXNXNXNXNXNXNXNXNXNXNXNXNXNXNXNXNXNXNXNXNXNXNXNXNXNXNXNXNXNXNXNXNXNXNXNXNXNXNXNXNXNXNXNXNXNXNXNXNX",
"NXNXNXNXNXNXNXNXNXNXNXNXNXNXNXNXNXNXNXNXNXNXNXNXNXNXNXNXNXNXNXNXNXNXNXNXNXNXNXNXNXNXNXNXNXNXNXNXNXNX",
"NXNXNXNXNXNXNXNXNXNXNXNXNXNXNXNXNXNXNXNXNXNXNXNXNXNXNXNXNXNXNXNXNXNXNXNXNXNXNXNXNXNXNXNXNXNXNXNXNXNX",
"NXNXNXNXNXNXNXNXNXNXNXNXNXNXNXNXNXNXNXNXNXNXNXNXNXNXNXNXNXNXNXNXNXNXNXNXNXNXNXNXNXNXNXNXNXNXNXNXNXNX",
"NXNXNXNXNXNXNXNXNXNXNXNXNXNXNXNXNXNXNXNXNXNXNXNXNXNXNXNXNXNXNXNXNXNXNXNXNXNXNXNXNXNXNXNXNXNXNXNXNXNX",
"NXNXNXNXNXNXNXNXNXNXNXNXNXNXNXNXNXNXNXNXNXNXNXNXNXNXNXNXNXNXNXNXNXNXNXNXNXNXNXNXNXNXNXNXNXNXNXNXNXNX",
"NXNXNXNXNXNXNXNXNXNXNXNXNXNXNXNXNXNXNXNXNXNXNXNXNXNXNXNXNXNXNXNXNXNXNXNXNXNXNXNXNXNXNXNXNXNXNXNXNXNX",
"NXNXNXNXNXNXNXNXNXNXNXNXNXNXNXNXNXNXNXNXNXNXNXNXNXNXNXNXNXNXNXNXNXNXNXNXNXNXNXNXNXNXNXNXNXNXNXNXNXNX",
"NXNXNXNXNXNXNXNXNXNXNXNXNXNXNXNXNXNXNXNXNXNXNXNXNXNXNXNXNXNXNXNXNXNXNXNXNXNXNXNXNXNXNXNXNXNXNXNXNXNX",
"NXNXNXNXNXNXNXNXNXNXNXNXNXNXNXNXNXNXNXNXNXNXNXNXNXNXNXNXNXNXNXNXNXNXNXNXNXNXNXNXNXNXNXNXNXNXNXNXNXNX",
"NXNXNXNXNXNXNXNXNXNXNXNXNXNXNXNXNXNXNXNXNXNXNXNXNXNXNXNXNXNXNXNXNXNXNXNXNXNXNXNXNXNXNXNXNXNXNXNXNXNX",
"NXNXNXNXNXNXNXNXNXNXNXNXNXNXNXNXNXNXNXNXNXNXNXNXNXNXNXNXNXNXNXNXNXNXNXNXNXNXNXNXNXNXNXNXNXNXNXNXNXNX",
"NXNXNXNXNXNXNXNXNXNXNXNXNXNXNXNXNXNXNXNXNXNXNXNXNXNXNXNXNXNXNXNXNXNXNXNXNXNXNXNXNXNXNXNXNXNXNXNXNXNX",
"NXNXNXNXNXNXNXNXNXNXNXNXNXNXNXNXNXNXNXNXNXNXNXNXNXNXNXNXNXNXNXNXNXNXNXNXNXNXNXNXNXNXNXNXNXNXNXNXNXNX",
"NXNXNXNXNXNXNXNXNXNXNXNXNXNXNXNXNXNXNXNXNXNXNXNXNXNXNXNXNXNXNXNXNXNXNXNXNXNXNXNXNXNXNXNXNXNXNXNXNXNX",
"NXNXNXNXNXNXNXNXNXNXNXNXNXNXNXNXNXNXNXNXNXNXNXNXNXNXNXNXNXNXNXNXNXNXNXNXNXNXNXNXNXNXNXNXNXNXNXNXNXNX",
"NXNXNXNXNXNXNXNXNXNXNXNXNXNXNXNXNXNXNXNXNXNXNXNXNXNXNXNXNXNXNXNXNXNXNXNXNXNXNXNXNXNXNXNXNXNXNXNXNXNX",
"NXNXNXNXNXNXNXNXNXNXNXNXNXNXNXNXNXNXNXNXNXNXNXNXNXNXNXNXNXNXNXNXNXNXNXNXNXNXNXNXNXNXNXNXNXNXNXNXNXNX",
"NXNXNXNXNXNXNXNXNXNXNXNXNXNXNXNXNXNXNXNXNXNXNXNXNXNXNXNXNXNXNXNXNXNXNXNXNXNXNXNXNXNXNXNXNXNXNXNXNXNX",
"NXNXNXNXNXNXNXNXNXNXNXNXNXNXNXNXNXNXNXNXNXNXNXNXNXNXNXNXNXNXNXNXNXNXNXNXNXNXNXNXNXNXNXNXNXNXNXNXNXNX",
"NXNXNXNXNXNXNXNXNXNXNXNXNXNXNXNXNXNXNXNXNXNXNXNXNXNXNXNXNXNXNXNXNXNXNXNXNXNXNXNXNXNXNXNXNXNXNXNXNXNX",
"NXNXNXNXNXNXNXNXNXNXNXNXNXNXNXNXNXNXNXNXNXNXNXNXNXNXNXNXNXNXNXNXNXNXNXNXNXNXNXNXNXNXNXNXNXNXNXNXNXNX",
"NXNXNXNXNXNXNXNXNXNXNXNXNXNXNXNXNXNXNXNXNXNXNXNXNXNXNXNXNXNXNXNXNXNXNXNXNXNXNXNXNXNXNXNXNXNXNXNXNXNX",
"NXNXNXNXNXNXNXNXNXNXNXNXNXNXNXNXNXNXNXNXNXNXNXNXNXNXNXNXNXNXNXNXNXNXNXNXNXNXNXNXNXNXNXNXNXNXNXNXNXNX",
"NXNXNXNXNXNXNXNXNXNXNXNXNXNXNXNXNXNXNXNXNXNXNXNXNXNXNXNXNXNXNXNXNXNXNXNXNXNXNXNXNXNXNXNXNXNXNXNXNXNX",
"NXNXNXNXNXNXNXNXNXNXNXNXNXNXNXNXNXNXNXNXNXNXNXNXNXNXNXNXNXNXNXNXNXNXNXNXNXNXNXNXNXNXNXNXNXNXNXNXNXNX",
"NXNXNXNXNXNXNXNXNXNXNXNXNXNXNXNXNXNXNXNXNXNXNXNXNXNXNXNXNXNXNXNXNXNXNXNXNXNXNXNXNXNXNXNXNXNXNXNXNXNX",
"NXNXNXNXNXNXNXNXNXNXNXNXNXNXNXNXNXNXNXNXNXNXNXNXNXNXNXNXNXNXNXNXNXNXNXNXNXNXNXNXNXNXNXNXNXNXNXNXNXNX",
"NXNXNXNXNXNXNXNXNXNXNXNXNXNXNXNXNXNXNXNXNXNXNXNXNXNXNXNXNXNXNXNXNXNXd d NXNXNXNXNXNXNXNXNXNXNXNXNXNX",
"NXNXNXNXNXNXNXNXNXNXNXNXNXNXNXNXNXNXNXNXNXNXNXNXNXNXNXNXNXNXNXNXNX}  X( NXNXNXNXNXNXNXNXNXNXNXNXNXNX",
"NXNXNXNXNXNXNXNXNXNXNXNXNXNXNXNXNXNXNXNXNXNXNXNXNXNXNXNXNXNXNXNX=.E.yX| NXNXNXNXNXNXNXNXNXNXNXNXNXNX",
"NXNXNXNXNXNXNXNXNXNXNXNXNXNXNXNXNXNXNXNXNXNXNXNXNXNXNXNXNXNXNXa c.wX4Xi._ NXNXNXNXNXNXNXNXNXNXNXNXNX",
"NXNXNXNXNXNXNXNXNXNXNXNXNXNXNXNXNXNXNXNXNXNXNXNXNXNXNXNXNXNXNXa c.4X).=Xl.s s s E &.&.NXNXNXNXNXNXNX",
"NXNXNXNXNXNXNXNXNXNXNXNXNXNXNXNXNXNXNXNXNXNXNXNXNXNXNXNXNX  & Q c..X(.4Xc.z ` M.[.}.A.p.%.$.NXNXNXNX",
"NXNXNXNXNXNXNXNXNXNXNXNXNXNXNXNXNXNXNXNXNXNXNXNXNXNXNXNXf g j E a.(.(.4XV.} j.$XyX9X%X/.B.k.0.NXNXNX",
"NXNXNXNXNXNXNXNXNXNXNXNXNXNXNXNXNXNXNXNXNXNXNXNXNXNXNXl ` *.+.n @.R.R.oXQ.x.'.4XyXyXyXyX1X).s.NXNXNX",
"NXNXNXNXNXNXNXNXNXNXNXNXX           X NXNXNXNXNXNXNX* ' #.*.+.n / 8.8.q.v.|.8XtXyXyXyXyXrX7X).h.$.NX",
"NXNXNXNX+           . NXX + + + + +   .           . * { *.*.+.n ! r.V.V.W.^.N.*XyXyXyXyXyXeX2XM.&.NX",
"NXNXNXNXX 4 y y y e < NX. + O , 1 1 6 i 3 % : : h ~ ..v.v.S.>XG.H.iXjX-Xn.O.W ].yXyXyXyXyXyXyXZ.&.NX",
"NXNXNXNXX A P I I F 0 # o $ 2 Z S S G 6.M 8 k k z.OXyXyX3XkXMXMXmXnXvX;X] + + T.qXyXyXyXyXyXyXZ.&.NX",
"NXNXNXNXNX; 5 S S C B w - u L I I I 2.7.;.m o.o._.0XyXyXxXbXMXMXcXdXb.y.b + + d.&XyXyXyXyXyXyXZ.&.NX",
"NXNXNXNXNX+ @ 1 q V V V D J -.-.-.-.4.U.,.R 9.m.#XyXyXyXaXlX,X,XF.1.R f.g.O.W T ) :.XX6XyX0X@Xe.U NX",
"NXNXNXNXNXNX. . > t t t K -.3.L.P.J.K.pX<.v w.!.<XyXyXyX5X!.Y Y c x  .C.:XsXuXN + 9 t.~.{.`.V.X.NXNX",
"NXNXNXNXNXNXNXNXX + + + H -.5.gXhXY.I.fX>.r w.!.<XyXyXyX+Xu.+ + 7 ^ (.(.zXMXMXD.+ = p [ *.*.*.NXNXNX"
};
