/* XPM */
static char *_cf570a92adb47d292936c0ada740728Xt8RYAI1gq0qnFWN[] = {
/* columns rows colors chars-per-pixel */
"50 50 148 2 ",
"   c None",
".  c #141411",
"X  c #191612",
"o  c #161812",
"O  c #1B1C14",
"+  c #241A10",
"@  c #2D1E10",
"#  c #1B2215",
"$  c #1F2917",
"%  c #1F2718",
"&  c #35210F",
"*  c #3A240F",
"=  c #2B271A",
"-  c #222D19",
";  c #362313",
":  c #382310",
">  c #3C2816",
",  c #302E1B",
"<  c #223017",
"1  c #233219",
"2  c #2A351D",
"3  c #27391B",
"4  c #2A3C1C",
"5  c #33371E",
"6  c #3F3E2F",
"7  c #41260F",
"8  c #44280F",
"9  c #432B15",
"0  c #4B2F16",
"q  c #4B3017",
"w  c #4A321B",
"e  c #513013",
"r  c #5A3515",
"t  c #5F3817",
"y  c #533418",
"u  c #593719",
"i  c #613A18",
"p  c #473524",
"a  c #4B3520",
"s  c #4A3A20",
"d  c #493C2B",
"f  c #543F28",
"g  c #2D421E",
"h  c #30431F",
"j  c #2F4220",
"k  c #314621",
"l  c #344C22",
"z  c #375223",
"x  c #395424",
"c  c #3E5C27",
"v  c #70431C",
"b  c #474121",
"n  c #404B24",
"m  c #56412A",
"M  c #405F27",
"N  c #4C5E2B",
"B  c #514533",
"V  c #52563B",
"C  c #5A5A35",
"Z  c #634324",
"A  c #6E4927",
"S  c #62492F",
"D  c #774C25",
"F  c #794C25",
"G  c #794F29",
"H  c #7C522C",
"J  c #6F5333",
"K  c #675138",
"L  c #6A533A",
"P  c #785432",
"I  c #725935",
"U  c #436429",
"Y  c #46692B",
"T  c #496D2D",
"R  c #4C732E",
"E  c #566633",
"W  c #576D3A",
"Q  c #4E7630",
"!  c #4F7830",
"~  c #527B31",
"^  c #7B623B",
"/  c #585640",
"(  c #585940",
")  c #735C43",
"_  c #616F42",
"`  c #7E6D4C",
"'  c #835730",
"]  c #875A33",
"[  c #885B33",
"{  c #8B5F38",
"}  c #87623D",
"|  c #8B6139",
" . c #91653D",
".. c #996F47",
"X. c #9A6F48",
"o. c #816E54",
"O. c #9F7751",
"+. c #9C7F54",
"@. c #568334",
"#. c #598635",
"$. c #5B8C37",
"%. c #5C8539",
"&. c #5D8D38",
"*. c #5F9138",
"=. c #62953A",
"-. c #669C3C",
";. c #689F3D",
":. c #6AA33E",
">. c #6D9345",
",. c #7F9A53",
"<. c #6DA740",
"1. c #6EA940",
"2. c #71AE42",
"3. c #74B343",
"4. c #77B845",
"5. c #8A8052",
"6. c #A5875B",
"7. c #AC825A",
"8. c #88A659",
"9. c #91B85D",
"0. c #8D8566",
"q. c #908366",
"w. c #94886B",
"e. c #97926B",
"r. c #9D966D",
"t. c #AE8864",
"y. c #B88C63",
"u. c #BD9168",
"i. c #A09A71",
"p. c #AA987B",
"a. c #A0A670",
"s. c #A5AD72",
"d. c #AEBC76",
"f. c #B5B37F",
"g. c #CCA47F",
"h. c #C5A78A",
"j. c #C9A98A",
"k. c #C6B68E",
"l. c #D6B08C",
"z. c #CDAF91",
"x. c #C9B192",
"c. c #E3C7A4",
"v. c #E7C5A5",
"b. c #E1C4A3",
"n. c #E8C6A7",
"m. c #E4C9A5",
"M. c #ECCBAC",
"N. c #EBCAAA",
/* pixels */
"                                                                                                    ",
"                                                                                                    ",
"                                                                                                    ",
"                                                                                                    ",
"                                                                                                    ",
"                                                                                                    ",
"                                      1 1 1 1 1 1 1 1 1 1 1 1                                       ",
"                                      k l x x x x x x x x l k g                                     ",
"                                  1 l @.;.2.2.2.2.2.2.2.2.:.#.z 1                                   ",
"                                1 h U ;.2.4.4.4.4.4.4.4.4.3.:.$.R 3                                 ",
"                                3 z ~ 3.4.4.4.4.4.4.4.4.4.4.4.4.-.k 4                               ",
"                            1 g x c ~ 3.4.4.4.4.4.4.4.4.4.4.4.4.1.~ x 1                             ",
"                          1 1 g c c R ;.2.4.4.4.4.4.4.4.4.4.4.4.:.~ k #                             ",
"                1 4 g g g g g l c c Y @.;.3.4.4.4.4.4.4.4.4.4.3.;.U 1 o                             ",
"                1 Y =.=.=.=.=.@.c c U Y @.;.3.4.4.4.4.4.4.4.4.:.#.U 1 o                             ",
"                1 Y &.2.3.<.<.=.~ ~ R M T #.:.;.*.~ ~ ~ @.@.@.T c h 3 -                             ",
"                  1 k ;.:.&.&.;.4.4.-.U c Y #.R x # o o $ 1 1 O o o 4 c                             ",
"                      x ~ :.~ R ~ *.-.-.! Y #.#.R % o o 4 l l - o o , b s                           ",
"                      < c @.R U c Y ~ $.~ R #.&.%.( 6 - x R ~ 4 O O B ) f a                         ",
"                          - T ~ c g 3 3 U #.&.&.>.k.e.c ~ -.3.U 1 1 0.h.K a                         ",
"                          # h k g 3 1 1 U =.:.8.f.b.i.U ~ ;.4.U 1 1 w.z.K a                         ",
"                            o O $ - 1 1 U =.1.d.M.M.i.M R &.:.U k V p.z.K a                         ",
"                                o $ 1 1 U &.*.s.M.M.i.c U U Y c _ x.b.z.K a                         ",
"                                  # # # k Y #.s.M.M.i.c T R R @.,.c.M.z.K a                         ",
"                                  . o o # g Q a.N.v.r.M Q @.@.:.9.m.n.j.K a                         ",
"                                . . o o o # 4 0.v.g.5.c k g g Q 8.c.l.t.S a                         ",
"                              4 k k j 3 # o # / q.` C k 1 # # l W 0.o.L m                           ",
"                            3 x &.&.~ U 4 O O - 3 3 3 3 # O O - 3 1 # .                             ",
"                          4 U ~ &.&.#.~ R Y Y ~ &.&.&.#.R R #.#.R # o .                             ",
"                          4 Q &.&.&.&.&.@.@.-.1.4.4.4.4.:.:.4.4.&.O o o                             ",
"                          4 Q &.&.&.&.&.R R 2.4.4.4.4.4.4.4.4.4.&.O o o                             ",
"                          $ c ~ &.&.@.R U R 2.4.4.4.4.4.4.4.4.4.&.O o o                             ",
"                          O 4 c T R Y x z Y :.3.4.4.4.4.3.3.4.4.&.O o o                             ",
"                            o o O - 3 3 3 k @.:.4.4.4.4.;.;.4.4.&.O                                 ",
"                                  O # # # - x T @.@.@.@.Q ~ @.T x                                   ",
"                                  o o . O = 5 n N E E E E E E 2 o                                   ",
"                                      . p J J I ^ +.6.6.6.6.6.d o                                   ",
"                                    O + w Z Z A H  .X.O.....O.d o                                   ",
"                                  . + 7 8 8 8 r v v H } D G } p O                                   ",
"                                  . + 7 8 8 8 r v v { 7.' ] 7.P q X                                 ",
"                                  + @ 7 8 8 8 r v v  .y.[ | u.| u X                                 ",
"                                . & 8 8 8 8 8 r v v  .y.[ | u.| u X                                 ",
"                                . & 8 8 8 8 8 r v v F ] D F [ F i : + o                             ",
"                                o + & & & & & 9 y y y y y y y y 0 : + o                             ",
"                                o o o o o o o X X X X X X X X X X o o o                             ",
"                                o + @ @ @ @ @ + . .     . O @ @ @ @ O o                             ",
"                              X + * 8 8 8 7 * + o       . + 8 8 8 8 + o                             ",
"                            o + * 7 8 8 8 * O X         . + 8 8 8 8 + . .                           ",
"                          O > 0 r r r r 9 + X           . + 8 e r r 0 9 9 ;                         ",
"                          O u v v v v v > o             . + 8 t v v v v v 0 .                       "
};
