/* XPM */
static char *_52e817e8d4743d9cc4d1eaa75699fb1xmXH02yHCrhZUo66[] = {
/* columns rows colors chars-per-pixel */
"50 50 145 2 ",
"   c None",
".  c #141411",
"X  c #191612",
"o  c #171A13",
"O  c #1B1B13",
"+  c #241A10",
"@  c #2D1E10",
"#  c #1C2315",
"$  c #1E2917",
"%  c #35210F",
"&  c #3A240F",
"*  c #202D17",
"=  c #2B271A",
"-  c #222D18",
";  c #362313",
":  c #382310",
">  c #3C2816",
",  c #32291A",
"<  c #233117",
"1  c #233219",
"2  c #2B361D",
"3  c #27391B",
"4  c #2A3C1C",
"5  c #33371E",
"6  c #3D3F2D",
"7  c #41260F",
"8  c #44280F",
"9  c #432B15",
"0  c #4B2F16",
"q  c #4B3017",
"w  c #4A351D",
"e  c #4A391F",
"r  c #513013",
"t  c #5A3515",
"y  c #5F3817",
"u  c #533418",
"i  c #593719",
"p  c #613A18",
"a  c #473524",
"s  c #4B3520",
"d  c #493C2B",
"f  c #2D421E",
"g  c #30441F",
"h  c #314721",
"j  c #344B22",
"k  c #375223",
"l  c #395324",
"z  c #3E5C27",
"x  c #3F5C28",
"c  c #70431C",
"v  c #424D24",
"b  c #414828",
"n  c #5D472D",
"m  c #405F27",
"M  c #40532B",
"N  c #415F29",
"B  c #4C5E2B",
"V  c #534C38",
"C  c #465530",
"Z  c #555335",
"A  c #634324",
"S  c #6E4927",
"D  c #774C25",
"F  c #794C25",
"G  c #794F29",
"H  c #7C522C",
"J  c #654D34",
"K  c #6F5333",
"L  c #69523A",
"P  c #785432",
"I  c #725935",
"U  c #426429",
"Y  c #466A2B",
"T  c #496E2C",
"R  c #4C722E",
"E  c #566633",
"W  c #4F7730",
"Q  c #4F7830",
"!  c #527C31",
"~  c #7B623B",
"^  c #5F5F44",
"/  c #625F47",
"(  c #695D47",
")  c #5F6044",
"_  c #7F7548",
"`  c #835730",
"'  c #875A33",
"]  c #885B33",
"[  c #8B5F38",
"{  c #87623D",
"}  c #8B6139",
"|  c #91653D",
" . c #996F47",
".. c #9A6F48",
"X. c #827B5E",
"o. c #9F7751",
"O. c #9C7F54",
"+. c #947A5F",
"@. c #A07A56",
"#. c #568334",
"$. c #598635",
"%. c #5B8B37",
"&. c #5D8E38",
"*. c #5E9037",
"=. c #5E9038",
"-. c #638A3E",
";. c #61953A",
":. c #669C3C",
">. c #689F3D",
",. c #6AA33E",
"<. c #6F814B",
"1. c #729A48",
"2. c #7A9551",
"3. c #6FAA41",
"4. c #71AE42",
"5. c #74B343",
"6. c #77B845",
"7. c #A5875B",
"8. c #AC825A",
"9. c #8EA25F",
"0. c #8CAF5A",
"q. c #94886B",
"w. c #948C61",
"e. c #97986B",
"r. c #B88C63",
"t. c #BC926A",
"y. c #A09A71",
"u. c #BD9A79",
"i. c #A4AC72",
"p. c #ABB675",
"a. c #A6BA70",
"s. c #C6A17E",
"d. c #C0A98B",
"f. c #CDAF91",
"g. c #DBB693",
"h. c #D7BD9C",
"j. c #D9BA9A",
"k. c #E0BC9B",
"l. c #D7C29B",
"z. c #DCC49F",
"x. c #E4C8A5",
"c. c #E9C7A8",
"v. c #ECCBAC",
"b. c #E8C9A9",
"n. c #E1C4A3",
/* pixels */
"                                                                                                    ",
"                                                                                                    ",
"                                                                                                    ",
"                                                                                                    ",
"                                                                                                    ",
"                                                                                                    ",
"                                      1 1 1 1 1 1 1 1 1 1 1 1                                       ",
"                                      h j l l l l l l l l j h f                                     ",
"                                  1 j #.:.4.4.4.4.4.4.4.4.,.$.k 1                                   ",
"                                1 g U >.4.6.6.6.6.6.6.6.6.5.,.%.R 3                                 ",
"                                3 k ! 5.6.6.6.6.6.6.6.6.6.6.6.6.;.3                                 ",
"                            1 f l z ! 5.6.6.6.6.6.6.6.6.6.6.6.6.;.3                                 ",
"                            1 f z z ! 5.6.6.6.6.6.6.6.6.6.6.6.6.,.U j                               ",
"                            1 f z z R 4.5.6.6.6.6.6.6.6.6.6.6.6.3.%.l *                             ",
"                1 1 1 1 1 1 1 f z z T ;.3.6.6.6.6.6.6.6.6.6.6.6.,.T 4 o                             ",
"                1 j U U U U U T ! ! ! ! ;.3.5.6.6.6.6.6.6.6.6.4.;.U 1 .                             ",
"                1 ! 6.6.6.6.6.6.6.6.:.U Q ;.5.6.6.6.6.6.6.6.6.:.#.U 1 .                             ",
"                  l T ,.3.:.:.&.! =.:.:.#.W ;.%.R l h h l z z h 2 - 4 h                             ",
"                    h #.;.;.$.R z Y ! %.R Y $.! U # . . 1 4 4 # . . 2 v                             ",
"                      3 R 3.R m z f 3 3 j Y $.%.! - . o g z z * . . , e s w                         ",
"                        j N R U f 3 1 1 z ! %.&.-.X./ f U #.*.j # # ( +.n s                         ",
"                          # T U $ * 1 1 U &.;.1.9.l.y.U ! :.6.U 1 1 q.f.L s                         ",
"                                . $ 1 1 U ;.4.a.z.b.y.U ! :.6.U 1 1 q.f.L s                         ",
"                                  # # # N ;.>.p.v.v.y.z T ! %.U C X.d.f.L s                         ",
"                                  . . . l #.%.i.v.v.y.z U U U U <.n.v.f.L s                         ",
"                                  . . . * l #.i.v.v.y.m W #.#.:.0.x.v.f.L s                         ",
"                                  . . . O 3 z e.c.g.w.z U U U &.0.x.k.u.J s                         ",
"                                o o o o . o * X.j.t._ l 4 1 1 U 2.h.s.@.n w                         ",
"                            < h Y Y x h - . o 6 ^ Z b 4 $ O O 4 M ) V d                             ",
"                            j Y &.&.#.R j 2 j z U U U U z l l z l $ o .                             ",
"                          4 W &.&.&.&.&.R R 4.6.6.6.6.6.6.6.6.6.&.O . .                             ",
"                          4 W &.&.&.#.R U R 4.6.6.6.6.6.6.6.6.6.&.O . .                             ",
"                          3 Y $.&.&.! l k Y ,.5.6.6.6.5.5.5.6.6.&.O . .                             ",
"                          O j R &.&.R 3 3 h #.,.6.6.6.5.:.:.6.6.&.O                                 ",
"                          O 1 4 h l h # # * l T #.#.#.#.W ! #.Y l                                   ",
"                            . . . $ # . O = 5 v B E E E E E E 2 .                                   ",
"                                      . a K K I ~ O.7.7.7.7.7.d .                                   ",
"                                    O + w A A S H | ..o. . .o.d .                                   ",
"                                  . + 7 8 8 8 t c c H { D G { a O                                   ",
"                                  . + 7 8 8 8 t c c [ 8.` ' 8.P q X                                 ",
"                                  + @ 7 8 8 8 t c c | r.] } t.} i X                                 ",
"                                . % 8 8 8 8 8 t c c | r.] } t.} i X                                 ",
"                                . % 8 8 8 8 8 t c c F ' D F ] F p : + .                             ",
"                                . + % % % % % 9 u u u u u u u u 0 : + .                             ",
"                                . . . . . . . X X X X X X X X X X . . .                             ",
"                                . + @ @ @ @ @ + . .     . O @ @ @ @ O .                             ",
"                              X + & 8 8 8 7 & + .       . + 8 8 8 8 + .                             ",
"                            . + & 7 8 8 8 & O X         . + 8 8 8 8 + . .                           ",
"                          O > 0 t t t t 9 + X           . + 8 r t t 0 9 9 ;                         ",
"                          O i c c c c c > .             . + 8 y c c c c c 0 .                       "
};
