/* XPM */
static char *result[] = {
/* columns rows colors chars-per-pixel */
"50 50 197 2 ",
"   c #2D0C02",
".  c #3B1808",
"X  c #341812",
"o  c #310F03",
"O  c #3A2E3A",
"+  c #431E09",
"@  c #4A240B",
"#  c #502D0A",
"$  c #5B350C",
"%  c #5B3111",
"&  c #4C2C1B",
"*  c #633C0E",
"=  c #613810",
"-  c #533625",
";  c #483435",
":  c #6A430F",
">  c #6C4114",
",  c #734A11",
"<  c #754619",
"1  c #784B1B",
"2  c #7A5113",
"3  c #604733",
"4  c #17165A",
"5  c #18175A",
"6  c #3C3548",
"7  c #1B1C62",
"8  c #1C1D70",
"9  c #1E2265",
"0  c #1F2177",
"q  c #242465",
"w  c #242C6E",
"e  c #33326D",
"r  c #2A3576",
"t  c #2A367B",
"y  c #373C77",
"u  c #423E54",
"i  c #403F76",
"p  c #35427E",
"a  c #5A5357",
"s  c #51494D",
"d  c #6E5751",
"f  c #78625B",
"g  c #565A6A",
"h  c #46457A",
"j  c #4E556F",
"k  c #7F6A64",
"l  c #865C16",
"z  c #8E6318",
"x  c #9B6E1B",
"c  c #926619",
"v  c #9D711D",
"b  c #8B5E23",
"n  c #8D6126",
"m  c #9D712F",
"M  c #A97E35",
"N  c #A67A33",
"B  c #A27622",
"V  c #86736D",
"C  c #887670",
"Z  c #AE822D",
"A  c #AF8339",
"S  c #BA8F39",
"D  c #B28736",
"F  c #BD923C",
"G  c #C39945",
"H  c #24278D",
"J  c #2F3E82",
"K  c #2A3389",
"L  c #272BA2",
"P  c #282DA7",
"I  c #2E38B9",
"U  c #334588",
"Y  c #39509A",
"T  c #3C55A4",
"R  c #465A96",
"E  c #4D5689",
"W  c #4B6199",
"Q  c #58709C",
"!  c #6D6D97",
"~  c #646A97",
"^  c #74739B",
"/  c #666B8D",
"(  c #405EAA",
")  c #4866A8",
"_  c #567BB8",
"`  c #4F6DAB",
"'  c #6575A5",
"]  c #7C7CA2",
"[  c #2F38CB",
"{  c #3038CE",
"}  c #313BC2",
"|  c #2E3ED1",
" . c #343FD0",
".. c #2B48D6",
"X. c #3541D1",
"o. c #3B4BD5",
"O. c #3B42D0",
"+. c #2755DD",
"@. c #3F54D7",
"#. c #245DE2",
"$. c #1B7DF1",
"%. c #1E74ED",
"&. c #2666E5",
"*. c #316BE4",
"=. c #4255D7",
"-. c #525AD7",
";. c #4B67DD",
":. c #557BDA",
">. c #4F73C1",
",. c #7379DE",
"<. c #5679E4",
"1. c #747EE0",
"2. c #738086",
"3. c #6082B6",
"4. c #698BB4",
"5. c #738DA7",
"6. c #1985F6",
"7. c #288EF7",
"8. c #3494F7",
"9. c #3A98F8",
"0. c #308BF2",
"q. c #5A84CD",
"w. c #5A86C5",
"e. c #5C8ADB",
"r. c #739ECC",
"t. c #6998D9",
"y. c #6B8BCB",
"u. c #74A6D9",
"i. c #5B85E9",
"p. c #4398F5",
"a. c #5C99F2",
"s. c #6395EC",
"d. c #679EEB",
"f. c #699AEF",
"g. c #689DF1",
"h. c #6B91EB",
"j. c #57AAFA",
"k. c #49A3F9",
"l. c #6BA3E7",
"z. c #72A8E9",
"x. c #6AA8F3",
"c. c #6EB3F9",
"v. c #6EB9FD",
"b. c #79BBFB",
"n. c #73AFF2",
"m. c #7CC1FE",
"M. c #938B8B",
"N. c #A69A97",
"B. c #8789AC",
"V. c #9999B6",
"C. c #808FB6",
"Z. c #A09DA0",
"A. c #A1A2BD",
"S. c #A7AAAF",
"D. c #83A3D4",
"F. c #B6B6CB",
"G. c #ABABC3",
"H. c #8ABEE6",
"J. c #87B9F5",
"K. c #A6B1ED",
"L. c #BCC4CC",
"P. c #85C5FF",
"I. c #8AC5FB",
"U. c #89C9FD",
"Y. c #96CCFE",
"T. c #9AD5FF",
"R. c #9ED3F7",
"E. c #8BC2EE",
"W. c #A9CEF7",
"Q. c #BECFF5",
"!. c #A3DAFF",
"~. c #ABDCFF",
"^. c #A7D4FE",
"/. c #B2DCFE",
"(. c #B8DEFD",
"). c #BACDE6",
"_. c #BCE4FF",
"`. c #B4E0FF",
"'. c #C4C5D7",
"]. c #C3D1DC",
"[. c #D4D4E1",
"{. c #C8D1F5",
"}. c #C9D8F2",
"|. c #C5E5FF",
" X c #CCE6FE",
".X c #C9EAFF",
"XX c #D4EAFE",
"oX c #D9EFFF",
"OX c #DBF0FF",
"+X c #E6E6ED",
"@X c #F1EFEF",
"#X c #E5F4FF",
"$X c #EBF7FF",
"%X c #F6FBFF",
"&X c #FFFFFF",
"*X c #F2F2F7",
"=X c None",
/* pixels */
"=X=X=X=X=X=X=X=X=X=X=X=X=X=X=X=X=X=X=X=X=X=X=X=X=X=X=X=X=X=X=X=X=X=X=X=X=X=X=X=X=X=X=X=X=X=X=X=X=X=X",
"=X=X=X=X=X=X=X=X=X=X=X=X=X=X=X=X=X=X=X=X=X=X=X=X=X=X=X=X=X=X=X=X=X=X=X=X=X=X=X=X=X=X=X=X=X=X=X=X=X=X",
"=X=X=X=X=X=X=X=X=X=X=X=X=X=X=X=X=X=X=X=X=X=X=X=X=X=X=X=X=X=X=X=X=X=X=X=X=X=X=X=X=X=X=X=X=X=X=X=X=X=X",
"=X=X=X=X=X=X=X=X=X=X=X=X=X=X=X=X=X=X=X=X=X=X=X=X=X=X=X=X=X=X=X=X=X=X=X=X=X=X=X=X=X=X=X=X=X=X=X=X=X=X",
"=X=X=X=X=X=X=X=X=X=X=X=X=X=X=X=X=X=X=X=X=X=X=X=X=X=X=X=X=X=X=X=X=X=X=X=X=X=X=X=X=X=X=X=X=X=X=X=X=X=X",
"=X=X=X=X=X=X=X=X=X=X=X=X=X=X=X=X=X=X=X=X=X=X=X=X=X=X=X=X=X=X=X=X=X=X=X=X=X=X=X=X=X=X=X=X=X=X=X=X=X=X",
"=X=X=X=X=X=X=X=X=X=X=X=X=X=X=X=X=X=X=X=X=X=X=X=X=X=X=X=X=X=X=X=X=X=X=X=X=X=X=X=X=X=X=X=X=X=X=X=X=X=X",
"=X=X=X=X=X=X=X=X=X=X=X=X=X=X=X=X=X=X=X=X=X=X=X=X=X=X=X=X=X=X=X=X=X=X=X=X=X=X=X=X=X=X=X=X=X=X=X=X=X=X",
"=X=X=X=X=X=X=X=X=X=X=X=X=X=X=X=X=X=X=X=X=X=X=X=X=X=X=X=X5 U s.a # # # # =X=X=X=X=X=X=X=X=X=X=X=X=X=X",
"=X=X=X=X=X=X=X=X=X=X=X=X=X=X=X=X=X=X=X=X=X=X=X=X=X=X=Xq ` Q g 3 : 2 2 , $ # =X=X=X=X=X=X=X=X=X=X=X=X",
"=X=X=X=X=X=X=X=X=X=X=X=X=X=X=X=X=X=X=X=X=X=X=X=X=X=Xr p 4.2.$ 1 b x x z : $ $ =X=X=X=X=X=X=X=X=X=X=X",
"=X=X=X=X=X=X=X=X=X=X=X=X=X=X=X=X=X=X=X=X=X=X=X=X=X4 W u.g - > m D v x x c z z * # =X=X=X=X=X=X=X=X=X",
"=X=X=X=X=X=X=X=X=X=X=X=X=X=X=X=X=X=X=X=X=X=X=X=X=X5 ' }.a @ < M F v x x x x z * # =X=X=X=X=X=X=X=X=X",
"=X=X=X=X=X=X=X=X=X=X=X=X=X=X=X=X=X=X=X=X=X=X=X=X=X5 ^ @Xd @ < M F v x x x x c : $ =X=X=X=X=X=X=X=X=X",
"=X=X=X=X=X=X=X=X=X=X=X=X=X=X=X=X=X4 5 5 4 4 4 4 5 5 ] @Xd @ < M F v x x x x x z :   =X=X=X=X=X=X=X=X",
"=X=X=X=X=X=X=X=X=X=X=X=X=X=X=X=X=X/ ! ! ! ~ W W R q ] @Xd . % n M Z B x x x x x ,   =X=X=X=X=X=X=X=X",
"=X=X=X=X=X=X=X=X=X=X=X=X=X=X5 5 5 F.&X&X&X#X!.T.H.t ^ @Xd     % b G D x x x x x ,   =X=X=X=X=X=X=X=X",
"=X=X=X=X=X=X=X=X=X=X=X=X=Xe V.F.F.+X&X&XOX~.T.r.W A.)._.L.V   @ > n N S S S D n =   =X=X=X=X=X=X=X=X",
"=X=X=X=X=X=X=X=X=X=X=X=Xh ^ [.&X&X#X#X&X.XE.u.' ^ +X].5.S.M.d - @ % b A A D N < - 6 =X=X=X=X=X=X=X=X",
"=X=X=X=X=X=X=X=X=X=X=X5 ] *X%X&X&X_.!.=X=X=Xq B.@X&XN.X . V @Xf     % 1 1 1 < + s e.=X=X=X=X=X=X=X=X",
"=X=X=X=X=X=X=X=X=X=Xi B.'.&X&X&X&X.X=X=X=X=X( D..X_.M.  o - V M.V . . @ @ @ @ j Y Y =X=X=X=X=X=X=X=X",
"=X=X=X=X=X=X=X=X=X5 h [.&X&X&X%X#X=X=X=X=X=Xs.n.I.E.3.O X     Z.L.s ; 6 O O 6 ) T 4 =X=X=X=X=X=X=X=X",
"=X=X=X=X=X=X=X=X=X4 h [.&X&X&XOX!.=X=X=X=X=X=Xl.d.d.t.>.6 X   5.R.H.r.q.q.q.>.U 9 =X=X=X=X=X=X=X=X=X",
"=X=X=X=X=X=X=X=X=X/ A.+X&X&X&XXXT.j.=X=X=X=X=X0.9.x.n.x.Q g g r.u._ ) T T T Y r =X=X=X=X=X=X=X=X=X=X",
"=X=X=X=X=X=X=X=X5 V.&X&X&X&X&XoXT.k.7.8.8.8.8.8.9.b.P.b.n.n.P.x.>.7 4 4 4 4 5 =X=X=X=X=X=X=X=X=X=X=X",
"=X=X=X=X=X=X=X=X7 V.&X&X&X&X&XoXT.m.J.XXXXXXXXXXXX#X/.P.I.c.8.*.I 7 4 4 =X=X=X=X=X=X=X=X=X=X=X=X=X=X",
"=X=X=X=X=X=X=X=X5 5.OX%X&X&X&XoXT.~. X%X&X&X&X&X%XXX^.m.P.x.#...[ H 8 4 =X=X=X=X=X=X=X=X=X=X=X=X=X=X",
"=X=X=X=X=X=X=X=X5 3.~.$X&X&X&XoXT.oX%X&X&X&X&X&X*XT.P.P.I.s.X.{  . .H 4 =X=X=X=X=X=X=X=X=X=X=X=X=X=X",
"=X=X=X=X=X=X=X=X4 3.!.$X&X&X&XoXT.!._.%X&X&X&X&X&XoXXXoXXXW.s.s.f.z.R 4 =X=X=X=X=X=X=X=X=X=X=X=X=X=X",
"=X=X=X=X=X=X=X=X4 3.~.$X&X&X&X#X_./.|.&X&X&X&X&X&X&X$X.X/.I.j.v.U._.' 4 =X=X=X=X=X=X=X=X=X=X=X=X=X=X",
"=X=X=X=X=X=X=X=X4 3.~.$X&X&X&X&X&X&X&X&X&X&X&X&X&X&X}.b.9.6.6.j.T.%X] 5 =X=X=X=X=X=X=X=X=X=X=X=X=X=X",
"=X=X=X=X=X=X=X=X4 _ Y.(.oX&X&X&X&XY.c.c.c.c.c.c.c.c.j.9.*.+.#.a.^.%X] 5 =X=X=X=X=X=X=X=X=X=X=X=X=X=X",
"=X=X=X=X=X=X=X=X5 ) u.P.W.}.*X&X&XI.9.6.6.6.6.6.6.6.6.&...{ { h.W.'.^ 5 =X=X=X=X=X=X=X=X=X=X=X=X=X=X",
"=X=X=X=X=X=X=X=X=X9 p l.i.-.{.&X&X%XW.7.6.6.6.6.6.6.&.{ { { { K.'.e =X=X=X=X=X=X=X=X=X=X=X=X=X=X=X=X",
"=X=X=X=X=X=X=X=X=X4 r l.i.O.,.K.|.$X.Xc.9.6.6.6.6.6.&.| { @.i.{.'.q =X=X=X=X=X=X=X=X=X=X=X=X=X=X=X=X",
"=X=X=X=X=X=X=X=X=X=Xr w.:.=.{ ;.J.Q.Q.J.p.6.6.6.6.$.+.[ [ <.Y.).G.q =X=X=X=X=X=X=X=X=X=X=X=X=X=X=X=X",
"=X=X=X=X=X=X=X=X=X=X=Xr ` g.@.X.@.-.-.@.*.6.6.6.$.+...{ { ,.$XB.i =X=X=X=X=X=X=X=X=X=X=X=X=X=X=X=X=X",
"=X=X=X=X=X=X=X=X=X=X=X=XU ` <.<.i.o.[ [ +.#.#.#.+.| { X.;.y.B.E =X=X=X=X=X=X=X=X=X=X=X=X=X=X=X=X=X=X",
"=X=X=X=X=X=X=X=X=X=X=X=X=Xw w.n.z.;.o.o. .{ { { { { [ I e._ 4 =X=X=X=X=X=X=X=X=X=X=X=X=X=X=X=X=X=X=X",
"=X=X=X=X=X=X=X=X=X=X=X=X=X=Xp U U :.g.g.;.{ { { { { P 0 K t =X=X=X=X=X=X=X=X=X=X=X=X=X=X=X=X=X=X=X=X",
"=X=X=X=X=X=X=X=X=X=X=X=X=X=X=X5 5 ) w.w.T L P L L L H 5 5 =X=X=X=X=X=X=X=X=X=X=X=X=X=X=X=X=X=X=X=X=X",
"=X=X=X=X=X=X=X=X=X=X=X=X=X=X=X=X=X4 4 5 4 4 5 5 5 4 4 =X=X=X=X=X=X=X=X=X=X=X=X=X=X=X=X=X=X=X=X=X=X=X",
"=X=X=X=X=X=X=X=X=X=X=X=X=X=X=X=X=X=X=X=X=X=X=X=X=X=X=X=X=X=X=X=X=X=X=X=X=X=X=X=X=X=X=X=X=X=X=X=X=X=X",
"=X=X=X=X=X=X=X=X=X=X=X=X=X=X=X=X=X=X=X=X=X=X=X=X=X=X=X=X=X=X=X=X=X=X=X=X=X=X=X=X=X=X=X=X=X=X=X=X=X=X",
"=X=X=X=X=X=X=X=X=X=X=X=X=X=X=X=X=X=X=X=X=X=X=X=X=X=X=X=X=X=X=X=X=X=X=X=X=X=X=X=X=X=X=X=X=X=X=X=X=X=X",
"=X=X=X=X=X=X=X=X=X=X=X=X=X=X=X=X=X=X=X=X=X=X=X=X=X=X=X=X=X=X=X=X=X=X=X=X=X=X=X=X=X=X=X=X=X=X=X=X=X=X",
"=X=X=X=X=X=X=X=X=X=X=X=X=X=X=X=X=X=X=X=X=X=X=X=X=X=X=X=X=X=X=X=X=X=X=X=X=X=X=X=X=X=X=X=X=X=X=X=X=X=X",
"=X=X=X=X=X=X=X=X=X=X=X=X=X=X=X=X=X=X=X=X=X=X=X=X=X=X=X=X=X=X=X=X=X=X=X=X=X=X=X=X=X=X=X=X=X=X=X=X=X=X",
"=X=X=X=X=X=X=X=X=X=X=X=X=X=X=X=X=X=X=X=X=X=X=X=X=X=X=X=X=X=X=X=X=X=X=X=X=X=X=X=X=X=X=X=X=X=X=X=X=X=X",
"=X=X=X=X=X=X=X=X=X=X=X=X=X=X=X=X=X=X=X=X=X=X=X=X=X=X=X=X=X=X=X=X=X=X=X=X=X=X=X=X=X=X=X=X=X=X=X=X=X=X"
};
