/* XPM */
static char *result[] = {
/* columns rows colors chars-per-pixel */
"50 50 139 2 ",
"   c black",
".  c #140D0C",
"X  c #18100F",
"o  c #151515",
"O  c #1C1211",
"+  c #1C1817",
"@  c #1D1D1D",
"#  c #231615",
"$  c #211D1C",
"%  c #2A1B1A",
"&  c #27201F",
"*  c #30211F",
"=  c #232323",
"-  c #2A2A2A",
";  c #332423",
":  c #3B2624",
">  c #3F2826",
",  c #352C2C",
"<  c #333333",
"1  c #3D3D3D",
"2  c #402A27",
"3  c #462D2A",
"4  c #492F2C",
"5  c #413635",
"6  c #4E3533",
"7  c #403837",
"8  c #423B3A",
"9  c #513735",
"0  c #543936",
"q  c #5C3B37",
"w  c #543F3D",
"e  c #5C3D3A",
"r  c #603F3C",
"t  c #59413E",
"y  c #64413E",
"u  c #69433F",
"i  c #464545",
"p  c #4D4C4C",
"a  c #584443",
"s  c #5A4847",
"d  c #5E4D4B",
"f  c #555555",
"g  c #5C5C5C",
"h  c #644744",
"j  c #6B4541",
"k  c #674A46",
"l  c #694B47",
"z  c #6B4D4A",
"x  c #704844",
"c  c #734E4A",
"v  c #6D514E",
"b  c #75514D",
"n  c #655452",
"m  c #6D5350",
"M  c #665958",
"N  c #6B5F5D",
"B  c #765451",
"V  c #7B5652",
"C  c #745956",
"Z  c #7A5956",
"A  c #735E5B",
"S  c #7A5D59",
"D  c #64605F",
"F  c #74605E",
"G  c #7E615E",
"H  c #656565",
"J  c #6D6463",
"K  c #6F6867",
"L  c #6E6E6E",
"P  c #766563",
"I  c #7B6462",
"U  c #736867",
"Y  c #796967",
"T  c #766E6D",
"R  c #7E6C6A",
"E  c #7F706E",
"W  c #757575",
"Q  c #7B7574",
"!  c #7D7B7A",
"~  c #815E5A",
"^  c #83615D",
"/  c #826563",
"(  c #826866",
")  c #836C6A",
"_  c #8D6D69",
"`  c #84726F",
"'  c #91726F",
"]  c #837573",
"[  c #8A7674",
"{  c #867876",
"}  c #827C7B",
"|  c #8B7C7B",
" . c #947976",
".. c #987B78",
"X. c #82807F",
"o. c #8D807E",
"O. c #98817E",
"+. c #838282",
"@. c #898685",
"#. c #8A8989",
"$. c #918382",
"%. c #928887",
"&. c #938C8B",
"*. c #97908F",
"=. c #939393",
"-. c #999594",
";. c #9C9B9B",
":. c #A18684",
">. c #A99491",
",. c #AC9896",
"<. c #A09E9E",
"1. c #B29C9A",
"2. c #A1A09F",
"3. c #B5A19F",
"4. c #A4A4A4",
"5. c #A9A9A9",
"6. c #BCAEAD",
"7. c #B4B1B1",
"8. c #BFB1B0",
"9. c #BCBCBC",
"0. c #C3B3B2",
"q. c #C8B8B7",
"w. c #CCBDBC",
"e. c #C5C5C5",
"r. c #CECECE",
"t. c #D4C8C7",
"y. c #D5CDCB",
"u. c #D8CFCE",
"i. c gray82",
"p. c #DDD3D3",
"a. c gray86",
"s. c #E4DCDB",
"d. c #E5E3E3",
"f. c #E9E3E2",
"g. c #EDEDED",
"h. c #F1EDED",
"j. c #F4F3F3",
"k. c #FEFEFE",
"l. c None",
/* pixels */
"l.l.l.l.l.l.l.l.l.l.l.l.l.                                                  l.l.l.l.l.l.l.l.l.l.l.l.",
"l.l.l.l.l.l.l.l.l.l.l.l.l.                                                  l.l.l.l.l.l.l.l.l.l.l.l.",
"l.l.l.l.l.l.l.l.l.l.l.l.L p 1 1 8 1 < = O O O O O O O O O O O O O O O O X X l.l.l.l.l.l.l.l.l.l.l.l.",
"l.l.l.l.l.l.l.l.< X.r.d.9.;.=.#.=.@.U s 2 2 2 2 2 2 2 2 2 2 > 2 2 2 2 2 : % .         l.l.l.l.l.l.l.",
"l.l.l.l.l.l.    - X.r.k.j.h.h.h.g.d.0.' u u u u u u u u r u u u u u u u q > .           l.l.l.l.l.l.",
"l.l.l.l.l.l.< 1 H 2.a.k.k.k.k.h.s.t.1.' x x x x x x x x x x x x x x x x y 4 % O + @ = @ l.l.l.l.l.l.",
"l.l.l.l.  < H +.4.e.g.k.k.k.h.u.0.>...~ x x x x x x x x x x x x x x x x y 0 2 > 5 i p 1 =   l.l.l.l.",
"l.l.l.l.  1 +.e.d.g.k.k.k.k.h.q.%.~ ~ c x x x x x x x x x x x x x x x x j y q t n U L p -     l.l.l.",
"l.l.l.- - H 4.d.k.k.k.j.h.f.t.1._ x x x x x x x x x x x x x x x x x x x j j y l J ! +.g 1 + + l.l.l.",
"l.l.< g ! 2.e.j.k.k.k.j.s.q.,...~ x x x x x x x x x x x x x x x x x x x j j y k F ! +.L g i < @ l.l.",
"    1 ! e.a.g.j.k.k.k.h.w.:./ S b x x x x x x x x x x x x x x x x x x x x u y k F Q @.X.W L i -     ",
"    1 =.h.k.k.k.k.j.g.p.3./ x x x x x x x x x x x x x x x x x x x x x x x j y l A ! #.#.@.#.f -     ",
"    1 #.j.k.k.k.h.u.8.>. .Z x x x x x x x x x x x x x x x x x x x x x x j u y k F } #.@.#.#.g -     ",
"    i #.h.k.k.k.f.8.O.^ Z c x x x x x x x x x x x x x x x x x x x x x x j j y k F Q #.#.#.#.f -     ",
"    1 =.h.k.j.j.y.,.G y u j x x x x x x x x x x x x x x x x x x x x x x x j y z P { #.#.#.#.g -     ",
"    i #.h.j.d.i.7.$.C y u j x x x x x x x x x x x x x x x x x x x x x x j j y k I +.=.-.=.=.g -     ",
"    1 =.g.d.r.7.-.] m y u x x x x x x x x x x x x x x x x x x x x x x x x u y z R @.<.;.2.;.H <     ",
"    1 #.g.a.9.=.} P z y j j x x x x x x x x x x x x x x x x x x x x x x j j u z R %.4.4.4.4.H <     ",
"    < W e.9.5.=.} P z y u j x x x x x x x x x x x x x x x x x x x x x x x j y z ) &.4.4.4.4.L <     ",
"    - H 4.4.;.#.} P z y j j x x x x x x x x x x x x x x x x x x x x x x j j y z ) &.4.4.4.4.H <     ",
"    = p X.@.@.#.! P z y u j x x x x x x x x x x x x x x x x x x x x x x j j y z R &.4.4.4.4.H <     ",
"    = p X.#.#.#.} P z y y u j j x x x x x x x x x x x x x x x x x x j j j y y z R &.4.4.4.4.H <     ",
"    = p X.#.#.#.! P z y y y y j u x x x x x x x x x x x x x x x x j j j y y y k R &.4.4.4.4.H <     ",
"    = p X.#.#.@.} P z y y y y h x x x x x x x x x x x x x x x x x j u y y y y z ) %.4.4.4.4.H <     ",
"    = f #.=.=.=.+.R z y y y y y u j j j j b Z I ^ / / S B j j j j u y y y y y z R &.4.4.4.4.H <     ",
"    = f =.=.;.=.#.R v y y r y y y u y y y S ) O.$.| | [ S j j j j j y r r y y z R #.4.4.4.4.H <     ",
"    - g ;.4.2.4.*.` v y y y y y y y y y y I @.<.<.<.<.$.R h r y y r y r y y y z R &.4.4.4.4.H <     ",
"    - g =.;.;.;.*.{ F m v v v m m v m C C ] &.4.4.4.4.-.[ A C m m m m m m m m C ] &.<.;.<.<.D <     ",
"    = f #.=.=.=.#.+.` Y Y Y Y Y Y Y E ] } #.-.4.4.4.4.;.&.[ ] E R Y Y Y Y Y Y T } #.-.=.=.-.g <     ",
"    = p +.#.#.#.#.@.@.+.+.+.@.+.+.@.#.-.;.2.4.4.4.4.4.4.4.<.-.*.@.+.+.+.+.@.+.+.@.#.#.#.#.#.f -     ",
"    = p X.#.#.#.+.+.! Q Q Q Q Q Q { &.-.4.=.#.! ! ! ! @.=.4.;.#.} } ] Q Q Q Q ! X.+.#.#.#.#.f -     ",
"    = p X.#.#.#.} T J M M M M A P R | =.4.+.H i i i i g ! ;.-.o.R P F M M M M N T ! #.#.#.#.f -     ",
"    = p X.#.#.#.! H d w w w t h z B ) %.4.L 1 o o o o 1 H ;.*.[ Z z h t w w w s N Q #.#.+.#.f -     ",
"    = p X.#.+.#.! H a 6 6 9 0 r j c / | -.K i @ @ @ @ 1 D &.| ( b j r e 0 9 9 w M Q #.#.#.#.f -     ",
"    = p X.#.#.#.! N a 6 9 e r j j x Z / [ P M f f f f g U [ ) S b j j e e 0 9 w M Q @.#.#.#.f -     ",
"    = p X.#.#.#.! N a 6 e r j j x x c B Z Y } +.+.+.+.} ) Z B c x j j j h e 9 w M Q #.#.#.#.f -     ",
"    = p +.#.#.+.! N a 9 e j j x x x x x x / | ;.-.;.<.$.( c x x x x x x j r 9 w M Q #.#.#.#.f -     ",
"    = p X.#.#.#.! N a 9 e j x x x x x x x Z ( [ [ [ [ ( S x x x x x x x j r 0 w M W #.#.#.#.f -     ",
"    = p X.#.#.#.! N a 9 e j x x x x x x x c B Z V Z Z B c x x x x x x x j r 9 w M Q #.#.+.#.f -     ",
"    = p X.#.#.#.! N a 9 e j x x x x x x x x x x x x x x x x x x x x x x j r 0 w M Q #.#.#.#.f -     ",
"    = p ! #.#.#.Q N a 9 e j j x x x x x x x x x x x x x x x x x x x x x j r 9 w M T #.#.#.#.f -     ",
"    = p X.#.#.#.! N a 9 e j x x x x x x x x x x x x x x x x x x x x x j j r 9 w M Q #.#.#.+.f -     ",
"    = p X.#.#.@.! N a 9 e j j x x x x x x x x x x x x x x x x x x x j j j e 9 w M Q @.#.#.#.f -     ",
"    = p X.#.#.#.! N a 6 0 e r j j x x x x x x x x x x x x x x x x j j j r e 9 w M Q #.#.#.#.f -     ",
"    = p X.#.#.#.! N a 6 9 0 e r j j j x x x x x x x x x x x x x x j h e 9 9 9 w M W #.#.#.#.f -     ",
"    = p X.#.#.#.Q N a 6 6 6 9 e j j x x x x x j x x x x x j x x x j e 9 6 9 9 w M Q #.#.#.#.f -     ",
"    @ 1 p f f f p 8 , * * * ; : > 4 3 3 4 4 3 3 3 4 4 3 3 3 4 4 3 2 > ; * * * ; 7 p f f f f 1 =     ",
"l.l.l.= - - - - - $ o X X X O O # # # # # # # # # # # # # # # # # # O X X X X O $ & - - - - = o l.l.",
"l.l.l.                                                                                        l.l.l.",
"l.l.l.                                                                                        l.l.l."
};
