/* XPM */
static char *result[] = {
/* columns rows colors chars-per-pixel */
"50 50 163 2 ",
"   c black",
".  c #0D0807",
"X  c #150C0C",
"o  c #18100F",
"O  c #151515",
"+  c #1B1212",
"@  c #1C1817",
"#  c #1D1C1C",
"$  c #231615",
"%  c #201C1C",
"&  c #2F1E1C",
"*  c #30211F",
"=  c #232323",
"-  c #292322",
";  c #2A2A2A",
":  c #332423",
">  c #392524",
",  c #3E2826",
"<  c #372A29",
"1  c #3E2F2D",
"2  c #333333",
"3  c #3D3433",
"4  c #3E3E3E",
"5  c #402A27",
"6  c #462D2A",
"7  c #413635",
"8  c #4E3533",
"9  c #403837",
"0  c #4D3A37",
"q  c #423B3A",
"w  c #513734",
"e  c #543936",
"r  c #593A37",
"t  c #543F3D",
"y  c #5C3D3A",
"u  c #603F3C",
"i  c #49403F",
"p  c #5B403D",
"a  c #64423E",
"s  c #69433F",
"d  c #454444",
"f  c #4D4C4C",
"g  c #574240",
"h  c #594443",
"j  c #5C4847",
"k  c #5D4F4D",
"l  c #545454",
"z  c #5C5C5C",
"x  c #654643",
"c  c #6B4541",
"v  c #664A46",
"b  c #694A46",
"n  c #624E4C",
"m  c #6B4D49",
"M  c #704844",
"N  c #734E4A",
"B  c #75524E",
"V  c #78534F",
"C  c #655452",
"Z  c #6D5351",
"A  c #665958",
"S  c #6B5E5D",
"D  c #755451",
"F  c #7B5753",
"G  c #745956",
"H  c #7B5956",
"J  c #735E5B",
"K  c #7C5C59",
"L  c #64605F",
"P  c #74605E",
"I  c #656565",
"U  c #6B6766",
"Y  c #6F6867",
"T  c #6D6D6D",
"R  c #736462",
"E  c #7B6562",
"W  c #756867",
"Q  c #7A6967",
"!  c #766D6C",
"~  c #7E6C6A",
"^  c #7F706E",
"/  c #747474",
"(  c #7B7574",
")  c #7D7A7A",
"_  c #805D59",
"`  c #84615E",
"'  c #816562",
"]  c #886764",
"[  c #826866",
"{  c #8A6A67",
"}  c #836C6A",
"|  c #8C6D6A",
" . c #86726F",
".. c #8F706C",
"X. c #91726F",
"o. c #837472",
"O. c #8A7674",
"+. c #877876",
"@. c #837C7B",
"#. c #8A7C7B",
"$. c #937471",
"%. c #917976",
"&. c #997D7A",
"*. c #8D807E",
"=. c #9C817E",
"-. c #838383",
";. c #8A8686",
":. c #8B8A8A",
">. c #918382",
",. c #9C8481",
"<. c #928887",
"1. c #9F8987",
"2. c #938B8B",
"3. c #9A8E8D",
"4. c #97908F",
"5. c #959393",
"6. c #9A9595",
"7. c #9E9897",
"8. c #9C9B9A",
"9. c #A28986",
"0. c #A68E8B",
"q. c #A7918E",
"w. c #AA928F",
"e. c #A49493",
"r. c #AB9593",
"t. c #A09E9E",
"y. c #A1A09F",
"u. c #B2A19F",
"i. c #A4A4A4",
"p. c #ADA3A2",
"a. c #ACABAB",
"s. c #B4A4A3",
"d. c #B8A4A2",
"f. c #BBA9A7",
"g. c #B3AFAF",
"h. c #BDABA9",
"j. c #BFB1AF",
"k. c #B6B5B5",
"l. c #C0AEAD",
"z. c #C6B5B4",
"x. c #C4B9B8",
"c. c #CABBBA",
"v. c #CDC0BE",
"b. c #C6C5C4",
"n. c #CCC5C4",
"m. c #CCCCCC",
"M. c #D2C5C4",
"N. c #D6CCCB",
"B. c #DACFCE",
"V. c #DAD0CF",
"C. c #D5D5D5",
"Z. c #DCD4D4",
"A. c #DCDCDC",
"S. c #E2DCDC",
"D. c #E5E2E2",
"F. c #EAE5E4",
"G. c #EDE8E7",
"H. c #EEEDED",
"J. c #F2F0EF",
"K. c #F4F3F2",
"L. c #F8F7F6",
"P. c #FFFFFF",
"I. c None",
/* pixels */
"I.I.I.I.I.I.I.I.I.I.I.I.I.                                                  I.I.I.I.I.I.I.I.I.I.I.I.",
"I.I.I.I.I.I.I.I.I.I.I.I.I.                                                  I.I.I.I.I.I.I.I.I.I.I.I.",
"I.I.I.I.I.I.I.I.I.I.I.I.X o + + + + + + + - 2 4 d 4 4 4 4 4 4 4 4 4 4 4 4 2 I.I.I.I.I.I.I.I.I.I.I.I.",
"I.I.I.I.I.I.I.I.      . $ > 5 5 5 , 5 5 , k ! 2.:.5.:.5.:.5.:.5.5.5.:.5.-.I ;         I.I.I.I.I.I.I.",
"I.I.I.I.I.I.          . & e s c u s u u s =.z.H.K.H.H.H.K.H.H.H.J.H.H.H.C.:.;           I.I.I.I.I.I.",
"I.I.I.I.I.I.= ; ; # + $ , u M M M M _ ] $.l.Z.P.P.P.P.P.P.P.P.P.P.L.G.S.k.*.3 + @ # = @ I.I.I.I.I.I.",
"I.I.I.I.  = 4 l l q 6 5 8 u M M M N ..0.l.B.F.P.P.P.P.P.P.P.P.P.P.G.N.l.9.Q 0 > 7 d f 4 =   I.I.I.I.",
"I.I.I.I.  ; l ) *.R x r u s M M M V 9.z.G.J.L.P.P.P.P.P.P.P.P.P.P.S.l.&.K m p p C W T f ;     I.I.I.",
"I.I.I.@ # d I 5.5.( Z u s c N F ` X.d.B.P.P.P.P.P.P.P.P.P.P.L.G.F.c.w.` M s a v P ) -.z 4 # # I.I.I.",
"I.I.# 4 f I -.8.5.( B u c c B | 0.f.M.D.P.P.P.P.P.P.P.P.P.P.G.N.l.w.$._ M s s b P ) -.T l d 2 # I.I.",
"    ; f ) :.8.y.2. .D u c c _ 9.z.S.G.L.P.P.P.P.P.P.P.P.P.P.S.h.&.` _ N M s s v P ( -.-./ T f =     ",
"    ; z 8.i.i.i.5.o.B x N F X.d.S.P.P.P.P.P.P.P.P.P.P.L.K.G.v.0._ M s M M s s x J ) :.:.:.:.l ;     ",
"    ; z 8.i.i.i.5. .Z m { q.l.N.F.P.P.P.P.P.P.P.P.P.P.G.N.f.0...V M M M c s s v P o.:.:.:.:.l ;     ",
"    ; z 8.i.i.i.2.o.Z D ,.v.D.G.L.P.P.P.P.P.P.P.P.P.P.S.h.X.` F N M M M c s a v P ( :.:.:.:.l ;     ",
"    ; l 5.y.y.y.6.#.E { u.D.P.P.P.P.P.P.P.P.P.P.L.K.G.c.0.V M M M M M M m s a v P ) :.:.:.:.l ;     ",
"    ; l :.8.8.5.7.7.e.u.n.G.P.P.P.P.P.P.P.P.P.P.F.N.z.r.$.N M M M M M M M s s b W *.5.5.5.8.z ;     ",
"    = f :.:.5.:.8.g.n.Z.F.L.P.P.P.P.P.P.P.P.P.P.Z.f.&.{ _ M M M M M M M c c a m ~ ;.8.8.t.8.I 2     ",
"    = f -.:.:.5.i.b.G.P.P.P.P.P.P.P.P.P.P.L.L.K.c.9.V M M M M M M M M M c c a m } 2.i.i.i.i.I 2     ",
"    = f ) 5.i.g.b.A.K.P.P.P.P.P.P.P.P.P.P.F.B.c.r.X.N M M M M M M M M M M s a m } 2.i.i.i.i.I 2     ",
"    = f -.8.k.m.A.H.L.P.P.P.P.P.P.P.P.P.P.B.f.=.X._ N M M M M M M M M M M s a m ~ 4.i.i.i.a.I 2     ",
"    = l -.i.m.H.P.P.P.P.P.P.P.P.P.P.P.P.P.c.=.M M M M M M M M M M M M M c s a m ~ 2.i.i.i.i.I 2     ",
"    ; I a.b.A.L.P.P.P.P.P.P.P.P.P.L.F.B.c.0.| M M M M M M M M M M M c c s s a m ~ 2.i.i.i.i.I 2     ",
"    2 ) m.D.H.L.P.P.P.P.P.P.P.P.P.L.V.f.=.{ F M M M M M M M M M M c c a s a a m } 2.i.i.i.i.U 2     ",
"    4 5.H.P.P.P.P.P.P.P.P.P.P.P.P.K.c.=.M M M M M M M M M M M M M c s a a a a m ~ 2.i.i.i.i.I 2     ",
"    4 :.H.P.P.P.P.P.P.P.P.P.L.D.Z.c.r.{ c B H ' ' ' ' K B c c c c s s u s u p m ~ 4.i.i.i.i.I 2     ",
"    4 5.K.P.P.P.P.P.P.P.P.P.J.N.s.=. .H a H } *.>.#.>. .K b s s s c s u a a a m ~ :.i.i.i.i.I 2     ",
"    4 5.H.P.P.P.P.P.P.P.P.P.G.h.%.m x x a E ;.t.t.t.t.>.~ x a a u u u u a y a m ~ 2.i.i.i.i.I 2     ",
"    d :.H.P.P.P.P.P.P.P.K.D.C.p.o.Z Z G G o.2.i.i.i.i.6.+.P Z Z Z Z Z Z Z Z Z J o.2.8.t.t.y.I 2     ",
"    4 5.H.P.P.P.P.P.P.K.D.m.g.t.#.Q ^ o.@.:.6.i.i.i.i.8.2.+.o. .W W W Q W W W ! @.:.4.5.5.5.z ;     ",
"    4 :.H.P.P.P.P.P.P.K.m.i.2.:.;.;.2.5.8.y.i.i.i.i.i.i.i.t.8.2.:.-.;.;.;.;.-.:.:.:.:.:.:.:.l ;     ",
"    4 5.H.P.P.P.L.D.Z.v.p.;.( ( o.@.:.6.i.5.-.) ) ) ) :.5.y.6.:.@.@.o.( ( ( ( ( -.-.:.-.:.:.l ;     ",
"    4 5.H.P.P.P.G.n.p.<.o.U A P P Q #.5.i.-.I f d d d z ) t.6.*.} P J A A A A A ! ) :.:.:.:.l ;     ",
"    4 5.H.P.P.P.A.a.} n j h h x b D } <.i.! 4 O O O O 3 I 8.4. .H m x h t t t j S ) :.:.:.:.l ;     ",
"    4 :.H.L.H.H.n.2.C 8 8 w r y c N ' #.5.U d # % # # 4 L 2.*.[ B c u r e w 8 t A / :.:.:.-.l ;     ",
"    4 5.H.K.A.m.a.#.n 0 e y y c c N H ' O.W A l l l l z Y  .} K N c s u r e w t A ( ;.;.:.:.l ;     ",
"    4 :.H.D.m.a.2.W j w r u c c c m N D H Q @.-.-.-.-.@.~ H D B m M c c s y w t A ( ;.:.-.:.l ;     ",
"    4 :.A.C.k.5.) S h w y c c M M M M M M ' #.7.8.8.7.>.} N M M M M M M c u e t A ( :.-.:.:.l ;     ",
"    2 T k.k.t.5.) I h w y c M M M M M M M H [ O.O.O.O.} K M M M M M M M c u e t A / :.:.:.:.l ;     ",
"    ; l 8.5.5.:.( S h w r c M M M M M M M N D F F H H F N M M M M M M M c u w t A / :.:.:.:.l ;     ",
"    = f -.:.:.:.) S h w y c M M M M M M M M M M c M c M M M M M M M M M c u w t A ( -.:.:.-.l ;     ",
"    = f -.:.:.:.) S h w y c c M M M M M M M M M M M M M M M M M M M M M c u w t A ( :.:.-.:.l ;     ",
"    # f ) -.:.:.@.S h w y c M M M M M M M M M M M M M M M M M M M M M M c u e t A ( :.:.:.:.l ;     ",
"    = f -.-.:.-.( S h w r c c c M M M M M M M M M M M M M M M M M c c M c y w t A ( ;.:.-.:.l ;     ",
"    = f -.:.:.:.) S h 8 e y x c c M M M M M M M M M M M M M M M M c c a u r w t A ( ;.;.:.:.l ;     ",
"    = f -.:.:.-.) S h 8 w e r a c c M M M M M M M M M M M M M M M c a y e e w t A ( :.:.:.-.l ;     ",
"    = f @.:.:.:.) S h 8 8 8 w y c M M M M M M M M M M M M M M M M c u w 8 8 8 t A / :.:.:.:.l ;     ",
"    # 4 l l l l f 9 < - * : : > 5 6 6 6 6 6 6 6 6 6 6 6 6 6 6 6 6 5 , : * * * < 3 f l l l l 4 =     ",
"I.I.I.= ; ; ; ; - % + o o o o + $ $ $ $ $ $ $ $ $ $ $ $ $ $ $ $ $ $ + o o X o + % = ; ; ; ; = O I.I.",
"I.I.I.                                                                                        I.I.I.",
"I.I.I.                                                                                        I.I.I."
};
