/* XPM */
static char *result[] = {
/* columns rows colors chars-per-pixel */
"50 50 149 2 ",
"   c black",
".  c #0D0807",
"X  c #140D0C",
"o  c #19100F",
"O  c #151515",
"+  c #1C1211",
"@  c #1C1817",
"#  c #1D1C1C",
"$  c #231615",
"%  c #211D1D",
"&  c #2C1C1A",
"*  c #30211F",
"=  c #232323",
"-  c #2A2A2A",
";  c #322221",
":  c #3A2523",
">  c #302827",
",  c #3F2826",
"<  c #372A29",
"1  c #3E2F2D",
"2  c #333333",
"3  c #3C3C3C",
"4  c #402A27",
"5  c #462D2A",
"6  c #492F2C",
"7  c #413635",
"8  c #4E3533",
"9  c #423B3A",
"0  c #513734",
"q  c #563936",
"w  c #5B3B37",
"e  c #543F3D",
"r  c #5C3D3A",
"t  c #603F3C",
"y  c #49403F",
"u  c #59413E",
"i  c #64413E",
"p  c #69433F",
"a  c #454444",
"s  c #4E4E4E",
"d  c #584443",
"f  c #5E4D4B",
"g  c #545454",
"h  c #5C5C5C",
"j  c #644744",
"k  c #6B4541",
"l  c #664A46",
"z  c #6B4B47",
"x  c #6B4D4A",
"c  c #704844",
"v  c #734E4A",
"b  c #61504F",
"n  c #6D514E",
"m  c #74524E",
"M  c #78524E",
"N  c #665553",
"B  c #6D5350",
"V  c #655A59",
"C  c #6B5E5D",
"Z  c #765451",
"A  c #7A5552",
"S  c #745956",
"D  c #795956",
"F  c #745F5C",
"G  c #7C5C59",
"H  c #64605F",
"J  c #74605E",
"K  c #656565",
"L  c #6D6463",
"P  c #6F6867",
"I  c #6C6C6C",
"U  c #756563",
"Y  c #7B6462",
"T  c #756867",
"R  c #796967",
"E  c #7E6C6A",
"W  c #7F706E",
"Q  c #747474",
"!  c #7D7574",
"~  c #7D7B7A",
"^  c #805D5A",
"/  c #84635F",
"(  c #806563",
")  c #826866",
"_  c #8A6A67",
"`  c #826C6A",
"'  c #8E6E6B",
"]  c #83716F",
"[  c #8B716E",
"{  c #91726F",
"}  c #837472",
"|  c #8A7674",
" . c #867876",
".. c #827C7B",
"X. c #8B7C7B",
"o. c #937572",
"O. c #997C7A",
"+. c #82807F",
"@. c #8E807E",
"#. c #9C817E",
"$. c #838282",
"%. c #8A8685",
"&. c #8A8989",
"*. c #918381",
"=. c #928887",
"-. c #938C8B",
";. c #9A8B8A",
":. c #97908F",
">. c #949393",
",. c #999595",
"<. c #9D9C9C",
"1. c #A18684",
"2. c #A28885",
"3. c #A6908E",
"4. c #AC9592",
"5. c #AE9895",
"6. c #A09D9D",
"7. c #B19B99",
"8. c #A1A09F",
"9. c #A4A3A3",
"0. c #ADA2A1",
"q. c #ABABAB",
"w. c #B1A6A5",
"e. c #BBA9A7",
"r. c gray71",
"t. c #B8B7B6",
"y. c #BDBCBC",
"u. c #C0AEAD",
"i. c #C3B3B2",
"p. c #C8B8B7",
"a. c #CABCBB",
"s. c #C2C2C2",
"d. c #CCC6C5",
"f. c #CCCCCC",
"g. c #D4C8C7",
"h. c #D5CCCB",
"j. c #D3D3D3",
"k. c #DCD2D1",
"l. c #DCDCDC",
"z. c #E3DDDC",
"x. c #E3E0DF",
"c. c #E5E2E2",
"v. c #EAE4E4",
"b. c #ECEAEA",
"n. c #F1EDED",
"m. c #F3F2F2",
"M. c #F9F7F7",
"N. c #FFFFFF",
"B. c None",
/* pixels */
"B.B.B.B.B.B.B.B.B.B.B.B.B.                                                  B.B.B.B.B.B.B.B.B.B.B.B.",
"B.B.B.B.B.B.B.B.B.B.B.B.B.                                                  B.B.B.B.B.B.B.B.B.B.B.B.",
"B.B.B.B.B.B.B.B.B.B.B.B.X + + + + + + + o o + o $ o + o + o + + o + $ o o o B.B.B.B.B.B.B.B.B.B.B.B.",
"B.B.B.B.B.B.B.B.      . $ : , , , 4 , , 4 4 4 4 , , 4 4 4 4 4 4 4 : 4 4 : & X         B.B.B.B.B.B.B.",
"B.B.B.B.B.B.          . & q p k p p p p p p p p p p p p t p p p p p p p w : o           B.B.B.B.B.B.",
"B.B.B.B.B.B.= - - # + $ 4 t k c c c c c c c c c c c c c c c c c c c c c i 6 & o @ % = # B.B.B.B.B.B.",
"B.B.B.B.  = 3 g g y 5 4 0 t c c c c c c c c c c c c c c c c c c c c c c p q 4 < 7 a s 3 =   B.B.B.B.",
"B.B.B.B.  - g ~ ..U j w t p c c c c c c c c c c c c c c c c c c c c c c p i w u N P I s -     B.B.B.",
"B.B.B.# = 3 I >.>.! n t k k k c c c c c c c c c c c c c c c c c c c c c c k i l J ~ $.H 3 # O B.B.B.",
"B.B.# 3 s K $.<.>.Q m i k k c c c c c c c c c c c c c c c c c c c c c c k p i l J ~ $.I h a 2 = B.B.",
"    - s ~ &.>.9.-.} B i k k c c c c c c c c c c c c c c c c c c c c c c c p p l J ~ &.+.Q I s -     ",
"    - h <.9.9.9.,.] B i k k c c c c c c c c c c c c c c c c c c c c c c c k p l J ! &.&.&.&.g -     ",
"    - h ,.9.9.9.:.} B i k k c c c c c c c c c c c c c c c c c c c c c c k p i l J ! &.&.&.&.g -     ",
"    - h ,.9.9.9.:.] B i k k c c c c c c c c c c c c c c c c c c c c c c k p p l J ! &.&.&.&.g -     ",
"    - h >.9.8.9.-.] n i i k c c c c c c c c c c c c c c c c c c c c c c c k p l J ..&.&.&.&.g -     ",
"    - g >.>.,.,.=.E n i k k c c c c c c c c c c c c c c c c c c c c c c k p i x Y $.>.>.>.>.H -     ",
"    = s $.>.&.>.+.T x i k k c c c c c c c c c c c c c c c c c c c c c c c p i x R %.<.<.8.8.K 2     ",
"    = s +.&.&.&...U x i p k c c c c c c c c c c c c c c c c c c c c c c c p i x ` -.9.9.9.9.K 2     ",
"    = s +.&.$.&...U x i k k c c c c c c c c c c c c c c c c c c c c c c c k p x ` -.9.9.9.9.K 2     ",
"    # s +.&.&.&...U n i k k c c c c c c c c c c c c c c c c c c c c c c k p p x R :.9.9.9.9.K 2     ",
"    = s +.&.&.&...U n i p k c c c c c c c c c c c c c c c c c c c c c c k p i x ` -.9.9.9.9.K 2     ",
"    = s +.&.&.&. .U x i i p k k c c c c c c c c c c c c c c c c c c k p p i i x R -.9.9.9.9.K 2     ",
"    = s +.&.&.&...U x u i i p j p c c c c c c c c c c c c c c c c z p p p p i x ` -.9.9.9.9.I 2     ",
"    = s +.&.&.%...U x i i i i p c c c c c c c c c c c c c c c c c k p i i i i x ` -.9.9.9.9.K 2     ",
"    = g %.>.>.>.%.R x i i i i p p k k k k m D ( ^ ( ( G Z k k k j p p i i u i l E -.9.q.t.s.Q 3     ",
"    - g >.>.,.>.&.E n i i i i i i p p i p D ` @.*.*.X.| G k k k p p p i i i i x E -.q.y.f.l.&.a     ",
"    - h >.9.9.9.>.] n i i u i i i i i i i Y %.6.6.6.6.*.E l i i i i i i i i i x E -.9.s.l.N.<.s     ",
"    - g >.<.<.<.-. .J n n n n n N n B S S } -.9.9.9.9.,.| J B B n B B N n n n J @.9.y.j.b.N.9.s     ",
"    = g &.>.>.>.&.%.! R R R R R R R W } ..%.,.9.9.9.9.,.-.| } ] R R T R R T T ..6.p.l.c.m.N.<.s     ",
"    = s $.&.&.&.&.$.$.%.$.%.$.$.$.%.&.,.<.8.9.9.9.9.9.9.9.<.,.>.&.$.$.%.&.%.$.>.t.l.N.M.N.N.8.s     ",
"    = s $.&.&.&.$.+.! ! ! ! ! ! !  .-.,.9.>.&.~ +.~ ~ $.>.9.,.&... .} ! ~ &.8.q.f.b.N.N.N.N.<.s     ",
"    = s $.&.&.&.+.W L V V V V F J E X.>.9.$.K a s a a h ~ 6.,.%.` J J V T -.t.j.l.n.N.N.N.N.8.g     ",
"    = s +.&.&.&.Q K f e e e u j z Z ` ;.9.I a O O O O 3 K <.-.| D v j d N ;.j.m.M.M.N.N.N.N.<.g     ",
"    = s +.&.&.&.~ K d 8 8 0 q r k v ( X.,.P a # # # # 3 H =.*.( m z B B ] 0.z.N.N.N.N.N.N.N.<.s     ",
"    = s +.&.&.&.~ C d 8 q r t p k c D ( | R V s g g s h U } ) G v A [ ;.w.d.b.N.N.N.N.N.N.N.9.s     ",
"    = s +.&.$.&.~ C d 0 r t k k z c v Z D R } %.$.%.$...` G Z v c ( 3.a.z.b.M.N.N.N.N.N.N.N.8.s     ",
"    # s $.&.&.&.~ C d 0 r j c c c c c c c ( X.,.,.<.,.*.` v v A ^ O.u.z.N.N.N.N.N.N.N.N.N.N.<.g     ",
"    = s +.&.&.&.~ C d 0 r k c c c c c c c D _ | | | | ` G v ^ O.5.i.k.n.N.N.N.N.N.N.N.N.N.N.<.s     ",
"    = s +.&.&.&.~ C d 0 r p c c c c c c c v Z D D D D Z v c ' 7.h.v.n.M.N.N.N.N.N.N.N.N.N.N.9.s     ",
"    = s +.&.&.&.~ C d 0 r p c c c c c c c c c c c c c v A ^ 1.p.n.N.N.N.N.N.N.N.N.N.N.M.m.n.>.s     ",
"    # s +.&.&.%.~ C d 0 r k k c c c c c c c c c c c c ^ o.3.i.k.m.N.N.N.N.N.N.N.N.N.N.b.l.f.~ 3     ",
"    = s +.&.&.&.! C d 0 r k c c c c c c c c c c c c c _ 4.g.z.b.M.N.N.N.N.N.N.N.N.N.N.l.s.9.I 2     ",
"    = s +.&.&.&.~ C d 0 r p k c c c c c c c c c c M M O.i.M.N.N.N.N.N.N.N.N.N.N.M.M.n.f.q.&.g -     ",
"    = s ~ &.&.&.~ C d 8 q t t k k c c c c c c c ^ { 2.e.h.M.N.N.N.N.N.N.N.N.N.M.b.x.j.r.9.&.g -     ",
"    = s $.&.&.&.~ C d 8 0 q e t k k c c c c c c ' 5.a.z.v.N.N.N.N.N.N.N.N.N.N.m.l.s.q.9.>.&.g -     ",
"    = s $.&.&.%.~ C d 8 8 8 0 r k c c c c c c k #.p.n.N.N.N.N.N.N.N.N.N.N.N.N.n.f.9.&.&.&.&.g -     ",
"    # 3 g g g g s 7 < ; * * ; : 4 5 5 5 5 5 5 5 b W ,.6.8.8.8.9.<.<.<.9.9.<.9.>.+.K g g g g 3 =     ",
"B.B.B.= - - - - = % O o o o + + $ $ $ $ $ $ $ $ > 3 s g s s s s s g s s s s s s 3 2 - - - - = # B.B.",
"B.B.B.                                                                                        B.B.B.",
"B.B.B.                                                                                        B.B.B."
};
