/* XPM */
static char *result[] = {
/* columns rows colors chars-per-pixel */
"50 50 88 1 ",
"  c black",
". c #130D0C",
"X c #18100F",
"o c #131313",
"O c #1B1312",
"+ c #1C1C1C",
"@ c #231615",
"# c #211C1C",
"$ c #2B1D1C",
"% c #30211F",
"& c #222222",
"* c #2D2827",
"= c #2A2A2A",
"- c #352524",
"; c #392725",
": c #3B2827",
"> c #372B2A",
", c #3D2A29",
"< c #3E302F",
"1 c gray20",
"2 c #3F3433",
"3 c #3B3B3B",
"4 c #402A27",
"5 c #442E2B",
"6 c #46302F",
"7 c #423434",
"8 c #4D3533",
"9 c #433837",
"0 c #493836",
"q c #453B3A",
"w c #4E3B3A",
"e c #513735",
"r c #543936",
"t c #543F3D",
"y c #5C3D3A",
"u c #603F3C",
"i c #51403E",
"p c #58413F",
"a c #64423E",
"s c #454444",
"d c #4C4140",
"f c #4D4D4D",
"g c #544240",
"h c #584443",
"j c #5B4847",
"k c #544C4C",
"l c #5E4D4B",
"z c #59504F",
"x c #555555",
"c c #5D5454",
"v c #5C5C5C",
"b c #624745",
"n c #6B4541",
"m c #6C4C49",
"M c #704844",
"N c #74514E",
"B c #625655",
"V c #675958",
"C c #6B5E5D",
"Z c #765350",
"A c #715F5D",
"S c #76615F",
"D c #646464",
"F c #6E6362",
"G c #6D6D6C",
"H c #776260",
"J c #7C6563",
"K c #7F6866",
"L c #736F6E",
"P c #757272",
"I c #7A7473",
"U c #7C7A7A",
"Y c #806967",
"T c #836D6B",
"R c #86706E",
"E c #817776",
"W c #827D7C",
"Q c #82807F",
"! c #8A807F",
"~ c #818181",
"^ c #8B8180",
"/ c #898989",
"( c #918786",
") c #978D8C",
"_ c #939393",
"` c #9A9A9A",
"' c #A4A4A4",
"] c None",
/* pixels */
"]]]]]]                                      ]]]]]]",
"]]]]]]                                      ]]]]]]",
"]]]]]]+&&&&&&&&&&&&&&&&&&&&&&&&&&&&&&&&&&&&+]]]]]]",
"]]]] +1sfffffffffffffffffffffffffffffffffff3& ]]]]",
"]]]  &fP~W~~~~QQ~~U~QQQ~QQQ~~~U~QQ~QQ~~~~~Px=  ]]]",
"]]]+&3vU/UPLLLLLPIIIIIIIIIIIIIIIIILLLLLPUQ~Ds&+]]]",
"  +1fvG~~LVzzzzBBVVVVVVVVVVVVVVVBBcczzzcGU/Lvf3&  ",
"  +fGU~/Ivd<<<79tttttttttttttttitt07<<2qcL/Q~Pf=  ",
"  &f~///Ic9---:5888888e888888888865,;--,xP////x=  ",
"  &f~///Iv9-:,5688888888888e88888855,,-<kG////x=  ",
"  &f~///Ic9-:56888e88888888888e888885,-<cL////v=  ",
"  &f~///IB9-,8888888888888888888880885,2cL////x=  ",
"  &f~///UVw5688888888888888888e888888650cL////x=  ",
"  &fU///UCp7788888888088888088888888886tBI////x=  ",
"  &f~///UCd5555555556555556555555,555550BP////x=  ",
"  =x/``_~c2$$$$$$$$$$$$$$$$$$$$$$$$$$$$:kL////x=  ",
"  &x_'``~x*.....................O......#sG////x=  ",
"  =v`'''/x&                            o3D////x=  ",
"  =v`'''~x+                            osG____v=  ",
"  =v`'''~x+                            osI````D1  ",
"  =v`'''/x+                            ofU''''D1  ",
"  &v/```Uf+                            osU''''D1  ",
"  &x/___Is+                            osU''''D1  ",
"  &f~///Gs+                            ofU''''D1  ",
"  &f~///Gf+                            osI````D1  ",
"  &fU///Gs+                            o3P____v=  ",
"  &f~///Gs+                            o3G////v=  ",
"  &f~///Px1&&&&&&&&&==&========&&&&&&&&=fG////x=  ",
"  &f~///UGvfffffxxxxvvvvvvvBvvxxkffffffxGU////x=  ",
"  &f~////~~~~~Q~U~/_``````````_/~~~~~~~~~/////x=  ",
"  &f~///^~IIIIIEEEW())))))))))(^WEIIIIII~~////x=  ",
"  &fU///WPFVVVVAHJYTRRRRRRRRRETYJHSVVVVCLU////x*  ",
"  &f~///UFlttthbMMMYMMYMYMMYMMYMMMuuptthCI////x=  ",
"  &f~///UCh88rrunMMMMMMMnnMMMMMMMMuure8pVI////x=  ",
"  &f~///UCheryuauMMMMMMMMMMMMMMMMMuuyr8tVI////x=  ",
"  &fU///UCh8yannMMMMMMMMMMMMMMMMMMMaayetVI////x=  ",
"  &f~///UCheynMMMMMMMMMMMMMMMMMMMMMMauryVI////x=  ",
"  &f~///UCheyaMMMMMMMMMMMMMMMMMMMMMMMurrVI////x=  ",
"  &f~///UCheynMMMMMMMMMMMMMMMMMMMMMMauyyVI////x=  ",
"  &f~///UCheuaMMMMMMMMMMMMMMMMMMMMMMMuyyVI////x=  ",
"  &f~///ECheyaMMMMMMMMMMMMMMMMMMMMMMayetVI////x=  ",
"  &f~///UCheyaMMMMMMMMMMMMMMMMMMMMMMaaetVI////x=  ",
"  &fU///UCheuaMMMMMMMMMMMMMMMMMMMMaMaarpVI(///x=  ",
"  &f~///UCheruaaMMMMMMMMMMMMMMMMMaaaaaepVI////x=  ",
"  &f~///UCh8rryunMMMMMuYMMMMMMMMMMaarreiVI////x=  ",
"  &f~///UCh8e8eyMMMMMMMaMMMMMMMMMayy888iVU////x=  ",
"  +3xxxxf9,-%%%;455545555555555554;%%%%-9sxxxx3&  ",
"]]]&===*&#OXXXXO@@@@@@@@@@@@@@@@@@@XXXXX#*====&+]]",
"]]]                                            ]]]",
"]]]                                            ]]]"
};
