/* XPM */
static char *result[] = {
/* columns rows colors chars-per-pixel */
"50 50 104 2 ",
"   c black",
".  c #0D0807",
"X  c #140D0C",
"o  c #19100F",
"O  c #151515",
"+  c #1C1211",
"@  c #1C1817",
"#  c #1D1C1C",
"$  c #231615",
"%  c #201C1C",
"&  c #2C1C1A",
"*  c #30211F",
"=  c #232323",
"-  c #2A2A2A",
";  c #332423",
":  c #3A2524",
">  c #3F2826",
",  c #372A29",
"<  c #3E2F2D",
"1  c #333333",
"2  c #3B3B3B",
"3  c #402A27",
"4  c #462D2A",
"5  c #492F2C",
"6  c #413635",
"7  c #4E3533",
"8  c #403837",
"9  c #423B3A",
"0  c #513734",
"q  c #543936",
"w  c #5B3B37",
"e  c #543F3D",
"r  c #5C3D3A",
"t  c #603F3C",
"y  c #49403F",
"u  c #59413E",
"i  c #64413E",
"p  c #69433F",
"a  c #454444",
"s  c #4D4D4D",
"d  c #584443",
"f  c #5B4847",
"g  c #5E4D4B",
"h  c #545454",
"j  c #5C5C5C",
"k  c #644744",
"l  c #6B4541",
"z  c #664A46",
"x  c #694B47",
"c  c #6B4D4A",
"v  c #704844",
"b  c #734E4A",
"n  c #6D514E",
"m  c #74524E",
"M  c #655452",
"N  c #6D5350",
"B  c #665958",
"V  c #6B5F5D",
"C  c #765451",
"Z  c #745956",
"A  c #795956",
"S  c #735E5B",
"D  c #7A5D59",
"F  c #64605F",
"G  c #74605E",
"H  c #656565",
"J  c #6D6463",
"K  c #6F6867",
"L  c #6D6D6D",
"P  c #756563",
"I  c #7B6462",
"U  c #756867",
"Y  c #796967",
"T  c #766E6D",
"R  c #7E6C6A",
"E  c #7F706E",
"W  c #747474",
"Q  c #7B7574",
"!  c #7D7A7A",
"~  c #806563",
"^  c #826866",
"/  c #836C6A",
"(  c #83716F",
")  c #837472",
"_  c #8A7674",
"`  c #867876",
"'  c #827C7B",
"]  c #8B7C7B",
"[  c #82807F",
"{  c #8D807E",
"}  c #838282",
"|  c #8A8686",
" . c #898989",
".. c #918381",
"X. c #928887",
"o. c #938C8B",
"O. c #97908F",
"+. c #949393",
"@. c #999595",
"#. c #9B9B9A",
"$. c #A09E9E",
"%. c #A1A09F",
"&. c #A4A4A4",
"*. c None",
/* pixels */
"*.*.*.*.*.*.*.*.*.*.*.*.*.                                                  *.*.*.*.*.*.*.*.*.*.*.*.",
"*.*.*.*.*.*.*.*.*.*.*.*.*.                                                  *.*.*.*.*.*.*.*.*.*.*.*.",
"*.*.*.*.*.*.*.*.*.*.*.*.X + + + + + + + + + + + + + + + + + + + o $ + o o X *.*.*.*.*.*.*.*.*.*.*.*.",
"*.*.*.*.*.*.*.*.      . $ : > > 3 > 3 > > > 3 > 3 3 3 > 3 > > 3 3 3 3 3 : & X         *.*.*.*.*.*.*.",
"*.*.*.*.*.*.          . * q p l p p p p p p p p p p p p p p p p p p p p w : X           *.*.*.*.*.*.",
"*.*.*.*.*.*.= - - % + $ 3 t l v v v v v v v v v v v v v v v v v v v v v i 5 & + @ # = # *.*.*.*.*.*.",
"*.*.*.*.  = 2 h h 9 4 3 7 t v v v v v v v v v v v v v v v v v v v v v v p q 4 : 6 a s 2 =   *.*.*.*.",
"*.*.*.*.  - h ! ' P k w t p v v v v v v v v v v v v v v v v v v v v v v l i w u M U L s -     *.*.*.",
"*.*.*.# = 2 L +.+.R N i l l l v v v v v v v v v v v v v v v v v v v v v l l i x G Q } j 2 # O *.*.*.",
"*.*.# 2 s H } #.+.Q N i l l v v v v v v v v v v v v v v v v v v v v v v v p i z G !  .L j a 1 # *.*.",
"    - s [  .+.%.+./ N i l l v v v v v v v v v v v v v v v v v v v v v v v p i z G Q } [ W W s -     ",
"    - j #.&.&.&.+.) C i l l v v v v v v v v v v v v v v v v v v v v v v l l p x G !  . . . .h -     ",
"    - j #.&.&.&.+.( C t l l v v v v v v v v v v v v v v v v v v v v v v l l i x G Q  . . . .h -     ",
"    - j #.&.&.&.+.( N i l l v v v v v v v v v v v v v v v v v v v v v v v p i z G !  . . . .h -     ",
"    - h +.%.%.&.o./ N i l l v v v v v v v v v v v v v v v v v v v v v v l l i z G '  . . .o.j -     ",
"    - h +.+.#.+.X.R n i i l v v v v v v v v v v v v v v v v v v v v v v v p i c I [ @.@.+.+.j -     ",
"    = s  .+. . .[ U n i p l v v v v v v v v v v v v v v v v v v v v v v v p i c Y | $.#.&.#.H 1     ",
"    = s [  . . .' P x i p v v v v v v v v v v v v v v v v v v v v v v v v l p c / o.&.&.&.&.H 1     ",
"    = s [  . . .' P x i l l v v v v v v v v v v v v v v v v v v v v v v l l i c / o.&.&.&.&.H 1     ",
"    = s !  . . .' P n p l l v v v v v v v v v v v v v v v v v v v v v v v p i c / o.&.&.&.&.H 1     ",
"    = s [  . . .' P c i p l v v v v v v v v v v v v v v v v v v v v v v v p i c R o.&.&.&.&.H 1     ",
"    = s [  . . .' P c i i p p l l v v v v v v v v v v v v v v v v v l l p p i c R o.&.&.&.&.H 1     ",
"    = s [  . . .! P c i i i p k l v v v v v v v v v v v v v v v v l p p p i u c R X.&.&.&.&.L 1     ",
"    = s [  . . .' P c i i i i p l v v v v v v v v v v v v v v v v l p i i i i c / o.&.&.&.&.H 1     ",
"    = h  .+. .+.| Y n i t i i i p l l l p m D ~ ~ ~ ~ ~ b v p l l l t i i i i c R  .&.&.&.&.H 1     ",
"    - h +.+.#.#. .R n i i i i p i p p i i D / { ..] ] _ D l p p l l i t t i i c / +.&.&.&.&.H 1     ",
"    - j #.&.&.%.O.E n i i i u i i i i i i I ..$.$.$.$.X.Y k i t t i t t i i i c R o.&.&.&.&.H 1     ",
"    - h +.#.$.#.O.` G n n n n n N n N Z Z ) o.&.&.&.&.O.] S Z C N N N N N N N Z ) o.#.%.#.%.F 1     ",
"    = h  .+.+.+. .} E U Y U Y Y U U E ) '  .@.&.&.&.&.#.X.] ) ( U U U U U U U T '  .+.+.@.@.j 1     ",
"    = s }  . . . .| | | | } | } | |  .@.#.%.&.&.&.&.&.&.%.$.#.o.| | | | | | | |  . . . . . .h -     ",
"    = s }  . . .} [ Q Q Q W Q ` ) ]  .#.&.+. .! ! ! ! | +.%.@. .[ ` Q Q T Q Q ! ! |  . . . .h -     ",
"    = s }  . . .[ E J B B B B V G Y ] O.&.[ H s a a a j ! $.@.| / G S V B B B V T !  . . . .h -     ",
"    = s [  . . .W H g e e e u k x C ( X.&.L 2 O O O O 1 H #.O._ A c k u e e e f V Q  . . . .h -     ",
"    = s [  . . .! H d 7 7 0 w r l b ~ ] O.K a # # = = 2 F o.{ ^ b l t r 0 0 7 e B Q  . . . .h -     ",
"    = s }  . . .! V d 7 0 r t l l v A ~ _ U F h h h h j P ) / D b l p t u q 7 e B Q  . . . .h -     ",
"    = s !  . . .! V d 0 r t l l v v b C A ^ ) | } | } ` / A C m v v l l i t 0 e B Q  . . . .h -     ",
"    = s [  . . .! V d 0 r l l v v v v v v ~ ] #.@.#.#.../ b v v v v v v l t q e B T  . . . .h -     ",
"    = s [  . . .! V d 0 r l v v v v v v v A ^ _ _ _ _ / D v v v v v v v l t q e B W  . . . .h -     ",
"    = s [  . . .! V d 0 r l v v v v v v v b C A A A A C b v v v v v v v l t q e B Q  . . . .h -     ",
"    = s [  . . .! V d 7 r l v v v v v v v v v v l v v v v v v v v v v v l t q e B T  . . . .h -     ",
"    = s [  . . .! V d 0 u l l v v v v v v v v v v v v v v v v v v v v v l t q e B Q  . . . .h -     ",
"    # s [ |  . .! V d 0 r l v v v v v v v v v v v v v v v v v v v v v v l t 0 e B Q  . . . .h -     ",
"    = s [  . . .! V d 0 r p l v v v v v v v v v v v v v v v v v v v v l l t 0 e B Q  . . . .h -     ",
"    # s [  . . .Q V d 7 q t i p l v v v v v v v v v v v v v v v v l l t t w 0 e B Q  . . . .h -     ",
"    = s [  . . .! V d 7 0 q r t l l v v v v v v v v v v v v v v v l t t q 0 7 e B T  . . . .h -     ",
"    = s }  . . .! V d 7 7 7 0 r l v v v v v v v v v v v v v v v v l t 0 7 7 7 e B Q  . . . .h -     ",
"    = 2 h h h h s 8 , ; * * ; : > 4 4 5 4 4 4 4 4 4 4 4 4 5 4 5 4 3 : ; * * * , 8 s h h h h 2 =     ",
"*.*.*.= - - - - = % O o o o o + $ $ $ $ $ $ $ $ $ $ $ $ $ $ $ $ $ @ + + o o o + % = - - - - = # *.*.",
"*.*.*.                                                                                        *.*.*.",
"*.*.*.                                                                                        *.*.*."
};
