/* XPM */
static char *result[] = {
/* columns rows colors chars-per-pixel */
"50 50 130 2 ",
"   c black",
".  c #0D0807",
"X  c #140D0C",
"o  c #19100F",
"O  c #151515",
"+  c #1C1211",
"@  c #1E1817",
"#  c #1D1D1D",
"$  c #231615",
"%  c #211D1D",
"&  c #2C1C1A",
"*  c #30211F",
"=  c #232323",
"-  c #2A2A2A",
";  c #332321",
":  c #3A2524",
">  c #3F2826",
",  c #342B2A",
"<  c #3E2F2D",
"1  c #3E302F",
"2  c #333333",
"3  c #3B3B3B",
"4  c #402A27",
"5  c #462D2A",
"6  c #492F2C",
"7  c #413635",
"8  c #4E3533",
"9  c #423B3A",
"0  c #513734",
"q  c #543936",
"w  c #5B3B37",
"e  c #543F3D",
"r  c #5C3D3A",
"t  c #603F3C",
"y  c #49403F",
"u  c #56413F",
"i  c #59413E",
"p  c #64413E",
"a  c #69433F",
"s  c #454444",
"d  c #4D4D4D",
"f  c #594443",
"g  c #5B4847",
"h  c #5F4C4A",
"j  c #545454",
"k  c #5C5C5C",
"l  c #644643",
"z  c #6B4541",
"x  c #664A46",
"c  c #684A46",
"v  c #644D4B",
"b  c #6B4D4A",
"n  c #704844",
"m  c #734E4A",
"M  c #6D514E",
"N  c #74524E",
"B  c #655452",
"V  c #6D5350",
"C  c #605857",
"Z  c #6C5957",
"A  c #665958",
"S  c #6B5F5D",
"D  c #765451",
"F  c #745956",
"G  c #795956",
"H  c #745D5B",
"J  c #7A5D59",
"K  c #64605F",
"L  c #6D605F",
"P  c #74605E",
"I  c #656565",
"U  c #6D6463",
"Y  c #6F6867",
"T  c #6D6D6D",
"R  c #756563",
"E  c #7B6462",
"W  c #756867",
"Q  c #796967",
"!  c #766E6D",
"~  c #7E6C6A",
"^  c #7E706F",
"/  c #747474",
"(  c #7C7574",
")  c #7D7A7A",
"_  c #806563",
"`  c #826866",
"'  c #836C6A",
"]  c #83716F",
"[  c #837472",
"{  c #897674",
"}  c #867876",
"|  c #827C7B",
" . c #8B7C7B",
".. c #82807F",
"X. c #8D807F",
"o. c #838282",
"O. c #8A8686",
"+. c #8A8989",
"@. c #918381",
"#. c #928887",
"$. c #938C8B",
"%. c #9A8D8C",
"&. c #97908F",
"*. c #9D908F",
"=. c #949393",
"-. c #999595",
";. c #9D9C9C",
":. c #A19493",
">. c #A09D9D",
",. c #A1A09F",
"<. c #A4A4A4",
"1. c #ACACAC",
"2. c #B2A6A5",
"3. c #B1B1B1",
"4. c #BCB6B5",
"5. c gray",
"6. c #C0B7B7",
"7. c gray76",
"8. c #CEC7C7",
"9. c #CACACA",
"0. c #D5CFCF",
"q. c #D5D5D5",
"w. c #DEDBDB",
"e. c #E3DFDF",
"r. c gray89",
"t. c #EAEAEA",
"y. c #F1EFEF",
"u. c gray96",
"i. c white",
"p. c None",
/* pixels */
"p.p.p.p.p.p.p.p.p.p.p.p.p.                                                  p.p.p.p.p.p.p.p.p.p.p.p.",
"p.p.p.p.p.p.p.p.p.p.p.p.p.                                                  p.p.p.p.p.p.p.p.p.p.p.p.",
"p.p.p.p.p.p.p.p.p.p.p.p.X o + o + o $ o + + + + $ o o o + o $ o o o $ o o X p.p.p.p.p.p.p.p.p.p.p.p.",
"p.p.p.p.p.p.p.p.      . $ : 4 4 4 4 4 4 4 4 4 4 4 4 4 4 4 4 4 4 4 4 4 4 : & X         p.p.p.p.p.p.p.",
"p.p.p.p.p.p.          . & q a a t a a a a a a a a a a a t a a a a a a a w : X           p.p.p.p.p.p.",
"p.p.p.p.p.p.= - = % @ $ 4 t n n n n n n n n n n n n n n n n n n n n n n p 6 & O @ % = # p.p.p.p.p.p.",
"p.p.p.p.  = 3 j j 9 5 4 0 t n n n n n n n n n n n n n n n n n n n n n n a q 4 > 7 s d 3 =   p.p.p.p.",
"p.p.p.p.  - j ) ..R l w t a n n n n n n n n n n n n n n n n n n n n n n a p w i B W T d -     p.p.p.",
"p.p.p.# = s I =.=.~ V p a z n n n n n n n n n n n n n n n n n n n n n n n z p c R ) o.k 3 # # p.p.p.",
"p.p.# 3 d I o.;.=.( V p z z n n n n n n n n n n n n n n n n n n n n n n z a p c P ) o.T j s 2 # p.p.",
"    - d ) +.=.<.%.] V p z z n n n n n n n n n n n n n n n n n n n n n n n z p c P ( +.) / / d =     ",
"    - k ;.<.<.<.=.[ V p a z n n n n n n n n n n n n n n n n n n n n n n n a p b P ) +.+.+.+.j -     ",
"    - k -.<.<.<.=.] D p p z n n n n n n n n n n n n n n n n n n n n n n z a p c P ) O.+.+.+.j -     ",
"    - k -.<.<.<.=.] V p z z n n n n n n n n n n n n n n n n n n n n n n n z p c P ( +.+.+.+.j -     ",
"    - j ;.,.,.;.%.' V p z z n n n n n n n n n n n n n n n n n n n n n n z z p c P | +.+.=.+.j -     ",
"    - j +.;.-.;.O.~ M p l z n n n n n n n n n n n n n n n n n n n n n n z z p b E ..=.-.=.=.K -     ",
"    = d o.+.=.+...Q M p z n n n n n n n n n n n n n n n n n n n n n n n n a p b Q O.>.;.<.;.I 2     ",
"    = d o.+.+.+.| R x p p z n n n n n n n n n n n n n n n n n n n n n n n z p b ' $.<.<.<.<.I 2     ",
"    = d ..+.+.+.| R b p z z n n n n n n n n n n n n n n n n n n n n n n z a p b ' $.<.<.<.<.I 2     ",
"    = d ..+.+.+.| R M p z z n n n n n n n n n n n n n n n n n n n n n n n a a b ' $.<.<.<.<.I 2     ",
"    = d o.+.+.+.| R b p a z n n n n n n n n n n n n n n n n n n n n n n z a p b ~ $.<.<.<.<.I 2     ",
"    = d ) +.+.+.} R x p p z z z n n n n n n n n n n n n n n n n n n z z z p p b ~ $.<.<.<.<.I 2     ",
"    = d ..+.+.+.| R M p p p p z n n n n n n n n n n n n n n n n n z z a p p p b ~ $.<.<.<.<.I 2     ",
"    # d ..+.+.+.| W x p p p p a a n n n n n n n n n n n n n n n n z z p p p p b ' $.<.<.<.<.Y 2     ",
"    = d +.+.=.=.O.Q b p p p p p z z z a z N G _ _ _ _ _ m z z z a a a p p p p x ' +.<.<.<.<.I 2     ",
"    - j =.;.=.;.+.~ M p p p p p p a p l a J ' X. . . .[ J z p z l p p p p p p b ~ =.<.<.<.<.I 2     ",
"    - k -.<.<.<.&.^ M p p p i p p p p p p E O.>.<.>.>.#.Q c p p p p t t t p p b ~ $.<.<.<.<.I 2     ",
"    - j =.;.;.;.&.} P V M M M M V M V D F [ #.<.2.<.<.%. .H F V V V V V M V M H [ $.;.;.;.,.K 2     ",
"    = j +.=.=.=.+...[ Q W Q W Q W W ^ [ | +.-.<.<.<.<.-.#. .[ ' W W W W Q W Q ! | +.=.=.-.=.k 2     ",
"    = d o.+.+.+.+.O.O.o.o.O.o.O.O.O.+.-.;.,.<.<.<.<.<.<.,.>.-.=.+.O.O.O.O.o.O.O.+.+.+.+.+.+.j -     ",
"    = d o.+.+.+.o...( ( ( ( ( ( (  .#.-.<.=.+.) ) ..) O.=.<.-.+.| } [ ( ( / ( ( ) O.+.+.+.+.j -     ",
"    # d o.+.+.+...^ U A A A A P P Q  .=.<...I d s s s k ) >.-.O.' R H A A A A S ! ) +.+.+.+.j -     ",
"    = d ..+.+.o.) I h e e e u l n D ' #.<.T 3 O O O O 3 I ;.$.{ G b x f e e e g S ( +.+.+.+.j -     ",
"    = d ..+.+.+.) I f 8 8 q w r z m _  .-.Y s # # # # 3 K $.X.` m z t w q q 8 e A ( O.+.+.+.j -     ",
"    = d o.+.+.+.) S f 8 q r t l z n G _ { W A j j j j k W ] ' J m z z t r q 0 e A / +.+.+.+.j -     ",
"    = d ) +.+.+.) S f 8 w p z z n n m D G ` ) O.o.o.O.| ' J D m m z z z p r 0 e A ( +.+.+.+.j -     ",
"    = d ..+.+.+.) S f q r l n n n n n n n `  .-.-.-.:.#.' m n n n n n n z t 0 e S / +.+.=.=.k 2     ",
"    = d ..+.+.o.) S f 8 r z n n n n n n n J ` { { { { ` J n n n n n n n z r q e A ) +.<.3.7.) 3     ",
"    = d ..+.+.+.) S f q r a n n n n n n n m m J J J G D m n n n n n n n z t q e A ( +.1.9.t.=.s     ",
"    = d ..+.+.+.) S f 0 r a n n n n n n n n n n n n n n n n n n n n n n z t q u L | ;.5.w.i.<.d     ",
"    = d ..+.+.+.( S f q r a n n n n n n n n n n n n n n n n n n n n n n z p q f ^ >.7.q.t.i.;.j     ",
"    = d ..O.+.+.) S f 0 r l n n n n n n n n n n n n n n n n n n n n n n z r q l  .4.r.t.u.i.;.d     ",
"    = d ..+.+.+.) S f 0 r a z n n n n n n n n n n n n n n n n n n n z n c l f Z :.0.i.i.i.i.,.d     ",
"    = d ) +.+.O.) S f 8 q r p a z n n n n n n n n n n n n n n n n z z p l G { %.6.e.i.i.i.i.,.d     ",
"    = d ..+.+.+.) S f 8 0 q r t l n n n n n n n n n n n n n n n n z t r v { 2.8.e.t.i.i.i.i.;.j     ",
"    = d o.+.+.+.) S f 8 8 8 q r z n n n n n n n n n n n n n n n n z r q v %.w.i.i.i.i.i.i.i.;.d     ",
"    # 3 j j j j d 7 , ; * * ; : 4 5 5 5 5 5 5 6 5 5 5 6 5 5 5 5 5 4 > ; < C +.,.;.,.<.,.,.,./ s     ",
"p.p.p.= - - - - = % O o o o o + $ $ $ $ $ $ $ $ $ $ $ $ $ $ $ $ $ $ + + @ - s j d d d d d d s - p.p.",
"p.p.p.                                                                                        p.p.p.",
"p.p.p.                                                                                        p.p.p."
};
