/* XPM */
static char *result[] = {
/* columns rows colors chars-per-pixel */
"50 50 156 2 ",
"   c black",
".  c #0D0807",
"X  c #140D0C",
"o  c #19100F",
"O  c #1C1211",
"+  c #1B1B1B",
"@  c #231615",
"#  c #201C1C",
"$  c #2D1D1B",
"%  c #30211F",
"&  c #232323",
"*  c #2E2423",
"=  c #2A2A2A",
"-  c #342524",
";  c #3B2524",
":  c #3F2826",
">  c #3E2F2D",
",  c #333333",
"<  c #3C3636",
"1  c #3E3E3E",
"2  c #462D2A",
"3  c #4E3533",
"4  c #403837",
"5  c #523634",
"6  c #533836",
"7  c #5B3B37",
"8  c #543F3D",
"9  c #5C3D3A",
"0  c #603F3C",
"q  c #49403F",
"w  c #64413D",
"e  c #69433F",
"r  c #424242",
"t  c #484140",
"y  c #4D4D4D",
"u  c #5A4341",
"i  c #5C4947",
"p  c #5E4D4B",
"a  c #555454",
"s  c #5B5B5B",
"d  c #634745",
"f  c #6B4541",
"g  c #614946",
"h  c #6D4A46",
"j  c #6B4E4A",
"k  c #704844",
"l  c #744E4A",
"z  c #6D514E",
"x  c #74514D",
"c  c #78524E",
"v  c #675554",
"b  c #6E5350",
"n  c #675958",
"m  c #6B5E5D",
"M  c #755552",
"N  c #7A5551",
"B  c #775956",
"V  c #7C5956",
"C  c #725E5B",
"Z  c #7C5D59",
"A  c #75605E",
"S  c #656565",
"D  c #6E6362",
"F  c #6A6A6A",
"G  c #756563",
"H  c #7D6765",
"J  c #786967",
"K  c #766E6D",
"L  c #7D6D6B",
"P  c #727272",
"I  c #7A7473",
"U  c #7F7D7D",
"Y  c #805E5A",
"T  c #84615E",
"R  c #846461",
"E  c #826966",
"W  c #8A6966",
"Q  c #826C6A",
"!  c #8C6D6A",
"~  c #83716F",
"^  c #8C706D",
"/  c #91726F",
"(  c #827371",
")  c #857977",
"_  c #8D7977",
"`  c #827C7B",
"'  c #8E7B79",
"]  c #937673",
"[  c #947A77",
"{  c #967F7C",
"}  c #997D7A",
"|  c #82807F",
" . c #8F807E",
".. c #94817F",
"X. c #9C817E",
"o. c #838282",
"O. c #8A8585",
"+. c #8A8A8A",
"@. c #948584",
"#. c #9B8683",
"$. c #938C8B",
"%. c #9B8C8A",
"&. c #96908F",
"*. c #949392",
"=. c #9C9291",
"-. c #9C9897",
";. c #9C9C9C",
":. c #A18684",
">. c #A18986",
",. c #A68D8B",
"<. c #AA928F",
"1. c #A29695",
"2. c #AB9592",
"3. c #AF9896",
"4. c #A59C9B",
"5. c #AB9D9B",
"6. c #B29D9B",
"7. c #B5A09E",
"8. c #A4A4A4",
"9. c #ADA2A1",
"0. c #ADABAA",
"q. c #B5A5A4",
"w. c #BBA9A7",
"e. c #B6AFAE",
"r. c #BCABAA",
"t. c #BFB1AF",
"y. c #B3B2B2",
"u. c #BAB6B5",
"i. c #BCBBBB",
"p. c #C0AEAD",
"a. c #C1B0AE",
"s. c #C2B3B2",
"d. c #C8B8B7",
"f. c #CABBBA",
"g. c #CEC0BF",
"h. c #C4C4C4",
"j. c #CCC4C4",
"k. c #CECDCD",
"l. c #D2C6C5",
"z. c #D4C8C7",
"x. c #D5CCCB",
"c. c #D3D3D3",
"v. c #DBD4D3",
"b. c #DCDCDC",
"n. c #E0D7D6",
"m. c #E3DDDC",
"M. c #E3E0DF",
"N. c #E4E2E2",
"B. c #EAE5E4",
"V. c #EDE8E7",
"C. c #EDEBEB",
"Z. c #F1EEEE",
"A. c #F4F3F3",
"S. c #F8F7F7",
"D. c #FFFFFF",
"F. c None",
/* pixels */
"F.F.F.F.F.F.F.F.F.F.F.F.F.                                                  F.F.F.F.F.F.F.F.F.F.F.F.",
"F.F.F.F.F.F.F.F.F.F.F.F.F.                                                  F.F.F.F.F.F.F.F.F.F.F.F.",
"F.F.F.F.F.F.F.F.F.F.F.F.X O O O O O O O O O o o O o O O O O O O O O O o o X F.F.F.F.F.F.F.F.F.F.F.F.",
"F.F.F.F.F.F.F.F.      . @ ; : : : : : : : : : 2 2 : : : : : : : : : : 2 ; $ X         F.F.F.F.F.F.F.",
"F.F.F.F.F.F.          . $ 6 e e e e e e e e e e e e e e e e e e e e e e 7 ; o           F.F.F.F.F.F.",
"F.F.F.F.F.F.& = & + O @ 2 9 k k k k k k k k k k k k k k k k k k k k k k f i t 4 r 1 r , F.F.F.F.F.F.",
"F.F.F.F.  & 1 a a 8 : 2 3 0 k k k k k k k k k k k k k k k k k k k k k k x H O.+.+.*.+.F 1   F.F.F.F.",
"F.F.F.F.  = a U ` G g 7 0 e k k k k k k k k k k k k k k k k k k k k k k V %.j.b.N.b.c.*.y     F.F.F.",
"F.F.F.+ + r F *.*.I z 0 e f k k k k k k k k k k k k k k k k k k k l Y T } p.B.D.D.D.A.y.P , = F.F.F.",
"F.F.+ 1 y S o.;.*.I M w f f k k k k k k k k k k k k k k k k k k k V / <.p.z.Z.D.D.D.A.k.8.o.s 1 F.F.",
"    = y U +.*.8.&.( z w f f k k k k k k k k k k k k k k k k k k k T <.g.m.Z.S.D.D.D.D.C.M.k.+.y     ",
"    = s ;.8.8.8.*.~ M w f k k k k k k k k k k k k k k k k k l N Y } p.m.D.D.D.D.D.D.D.D.D.D.;.y     ",
"    = s -.8.8.8.%.( b w e f k k k k k k k k k k k k k k k k Y } 3.s.v.Z.D.D.D.D.D.D.D.D.D.D.;.a     ",
"    = s -.8.8.8.*.( b w f f k k k k k k k k k k k k k k k k ! 3.z.B.Z.S.D.D.D.D.D.D.D.D.D.D.;.y     ",
"    = a *.;.8.8.$.Q b w f f k k k k k k k k k k k k k l N Y :.d.C.D.D.D.D.D.D.D.D.D.D.S.S.A.*.y     ",
"    = a *.-.-.*.$.L z w w f k k k k k k k k k k k k k Y ] <.p.v.A.D.D.D.D.D.D.D.D.D.D.A.N.c.+.r     ",
"    & y o.*.+.+.o.G j w e f k k k k k k k k k k k k k W 2.z.m.V.S.D.D.D.D.D.D.D.D.D.S.N.c.i.P 1     ",
"    & y o.+.+.+.` G j w f f k k k k k k k k k k l l c } d.A.D.D.D.D.D.D.D.D.D.D.D.S.A.b.i.8.S ,     ",
"    & y o.+.+.+.` G j w e f k k k k k k k k k k Y / :.w.x.S.D.D.D.D.D.D.D.D.D.D.C.V.b.h.i.8.S ,     ",
"    & y U +.+.+.` G z e f f k k k k k k k k k k ! 2.f.n.B.D.D.D.D.D.D.D.D.D.D.A.N.c.i.y.0.8.S ,     ",
"    & y o.+.+.+.` G z w e f h k k k k k k k k k X.d.A.D.D.D.D.D.D.D.D.D.D.D.D.A.b.i.8.8.8.8.S ,     ",
"    & y U +.+.+.` A j w e e f f e k k k k T ] ,.a.v.S.D.D.D.D.D.D.D.D.D.S.M.j.s.y.8.8.8.8.8.S ,     ",
"    & y U +.O.+.U G j w w w e e k k k k k ] 6.l.n.Z.D.D.D.D.D.D.D.D.D.D.Z.l.1...$.;.8.8.0.8.S ,     ",
"    & y | +.+.O.` G j w w w w e e k k k k ,.l.D.D.D.D.D.D.D.D.D.D.D.D.D.B.w.T j Q $.8.8.8.8.S ,     ",
"    & y +.*.*.*.O.J z w w w w e e h V ! X.p.n.D.D.D.D.D.D.D.D.D.D.A.N.x.s.%.B j L $.0.8.8.8.S ,     ",
"    = a +.-.-.-.+.L z w w 0 w e e h ^ 2.f.v.C.D.D.D.D.D.D.D.D.D.D.C.j.6.} E j j Q +.8.8.0.8.S ,     ",
"    = s -.8.8.8.&.~ z w w w w w w h #.f.A.S.S.D.D.D.D.D.D.D.D.D.D.m.q.^ h d e j L $.8.8.8.8.S ,     ",
"    = a *.;.;.;.&.) A b z z b A E [ q.v.D.D.D.D.D.D.D.D.D.D.S.C.N.j.4.Q z b z C ( $.;.;.;.;.s ,     ",
"    & a +.*.*.*.+.| ( J J J I @.4.u.z.B.D.D.D.D.D.D.D.D.D.D.C.b.h.e.*.) J J J K ` +.*.*.*.*.s ,     ",
"    & y o.+.+.+.+.+.O.o.O.o.*.y.v.A.S.D.D.D.D.D.D.D.D.D.D.D.N.i.;.+.+.O.O.o.O.+.O.+.+.+.+.+.a =     ",
"    & y U +.+.+.o.` I U +.;.y.k.B.D.D.D.D.D.D.D.D.D.D.S.A.V.k.0.@.` I I I I I I ` o.+.+.+.+.a =     ",
"    & y U +.+.+.| I D G $.u.c.M.A.D.D.D.D.D.D.D.D.D.D.A.M.x.y.1.Q G G n n n n m K U +.+.+.+.a =     ",
"    & y o.+.+.+.U S p v &.k.A.S.S.D.D.D.D.D.D.D.D.D.D.C.c.y.1._ V j d u 8 8 8 i m I +.+.+.o.a =     ",
"    & y U +.+.+.| P G L 9.M.D.D.D.D.D.D.D.D.D.D.S.A.A.v.i.1.O.E x f 0 7 6 3 3 8 n I +.+.+.+.a =     ",
"    & y U +.+.+.+.*.-.q.j.C.D.D.D.D.D.D.D.D.D.D.A.N.c.i.5.' E Z l f f 9 9 6 5 8 n I +.+.+.+.a =     ",
"    & y U +.+.+.-.y.j.M.V.S.D.D.D.D.D.D.D.D.D.D.N.k.i.4.@.Z M x k f h f f 9 5 8 n I +.+.+.+.a =     ",
"    & y | +.*.*.0.k.C.D.D.D.D.D.D.D.D.D.D.S.Z.V.c.u.4.@.E j k k k k k k f 0 6 8 n I o.+.+.+.a =     ",
"    & y o.-.0.i.k.N.A.D.D.D.D.D.D.D.D.D.D.m.f.q.2.#._ E Z k k k k k k k f 0 6 8 n I +.+.+.+.a =     ",
"    & y U 8.i.b.C.A.S.D.D.D.D.D.D.D.D.D.D.z.3.W R Y V N l k k k k k k k f 0 6 8 n I +.+.+.o.a =     ",
"    & a +.y.c.A.D.D.D.D.D.D.D.D.D.D.S.Z.V.r.} k h h h k k k k k k k k k f 0 6 8 n I +.+.+.+.a =     ",
"    , F 0.k.N.S.D.D.D.D.D.D.D.D.D.S.B.z.p.:.W k k k k k k k k k k k k k f w 6 8 n I +.o.+.+.a =     ",
"    , o.c.V.A.S.D.D.D.D.D.D.D.D.D.S.x.6.] R N k k k k k k k k k k k k h f 9 6 8 n I +.+.+.+.a =     ",
"    r +.A.D.D.D.D.D.D.D.D.D.D.S.S.V.s.} k k k k k k k k k k k k k f f h f 9 6 8 n I +.+.+.+.a =     ",
"    r +.C.D.D.D.D.D.D.D.D.D.S.N.x.s.,.! k k k k k k k k k k k k k f f f 9 7 5 8 n I +.+.+.+.a =     ",
"    r *.C.D.D.D.D.D.D.D.D.D.Z.z.6.} ! V k k k k k k k k k k k k k f 0 0 6 5 5 8 n I +.+.+.+.a =     ",
"    r +.A.D.D.D.D.D.D.D.D.D.V.p.] h k k k k k k k k k k k k k k k f 0 6 3 3 3 8 n P +.+.+.+.a =     ",
"    , F -.;.;.;.;.8.8.;.8.;.*.K p 2 2 2 2 2 2 2 2 2 2 2 2 2 2 2 2 2 ; - % % - - 1 y a a a a 1 &     ",
"F.F.F.r y y a a y y y y y a t < - @ @ @ @ @ @ @ @ @ @ @ @ @ @ @ @ @ O o o o X o + & = = = & & + F.F.",
"F.F.F.                                                                                        F.F.F.",
"F.F.F.                                                                                        F.F.F."
};
