/* XPM */
static char *result[] = {
/* columns rows colors chars-per-pixel */
"40 40 184 2 ",
"   c black",
".  c #060303",
"X  c #060403",
"o  c #080402",
"O  c #090403",
"+  c #080503",
"@  c #090503",
"#  c #0E0905",
"$  c #090808",
"%  c #0B0B0B",
"&  c #0C0C0B",
"*  c #0C0C0C",
"=  c gray5",
"-  c #110A07",
";  c #130B0A",
":  c #170C0B",
">  c #180D0B",
",  c #1B0F0D",
"<  c #1B100B",
"1  c gray9",
"2  c #191919",
"3  c gray10",
"4  c #22140D",
"5  c #221412",
"6  c #281712",
"7  c #2A1713",
"8  c #2F1C13",
"9  c #381F1B",
"0  c #362017",
"q  c #36211D",
"w  c #3A2218",
"e  c #3F231E",
"r  c #252524",
"t  c gray15",
"y  c #2A2A2A",
"u  c #312A28",
"i  c #323232",
"p  c gray20",
"a  c gray23",
"s  c #3D3C3B",
"d  c #3E3E3E",
"f  c #3F3F3F",
"g  c #42271B",
"h  c #45291C",
"j  c #472B1D",
"k  c #4F2D24",
"l  c #543223",
"z  c #5A3524",
"x  c #51322C",
"c  c #583228",
"v  c #5F3A33",
"b  c #6A3F2C",
"n  c #6A3E2E",
"m  c #6B3C32",
"M  c #764730",
"N  c #784733",
"B  c #7A4736",
"V  c #7D4B33",
"C  c #70443B",
"Z  c #74473A",
"A  c #7C4B3A",
"S  c #4B6A2F",
"D  c #4C6B30",
"F  c #4D6B32",
"G  c #4D6D30",
"H  c #507032",
"J  c #507132",
"K  c #527434",
"L  c #56733B",
"P  c #56723C",
"I  c #597D38",
"U  c #5A7F39",
"Y  c gray26",
"T  c gray28",
"R  c #4E4341",
"E  c #504E4E",
"W  c #4F504E",
"Q  c #555555",
"!  c #5A5A5A",
"~  c #5E5A59",
"^  c #5B5E59",
"/  c #5E7E40",
"(  c #607A47",
")  c #617D46",
"_  c #617B49",
"`  c #63605F",
"'  c #626262",
"]  c gray40",
"[  c #6A6A6A",
"{  c #6D6E6B",
"}  c #756461",
"|  c #70726D",
" . c #797271",
".. c #757A71",
"X. c gray50",
"o. c #824E3A",
"O. c #875138",
"+. c #8A5339",
"@. c #8A533A",
"#. c #8C543A",
"$. c #8F563B",
"%. c #855B4D",
"&. c #815F59",
"*. c #83635E",
"=. c #87655E",
"-. c #8B675C",
";. c #8A736F",
":. c #94766F",
">. c #897572",
",. c #907F7C",
"<. c #987E78",
"1. c #678B46",
"2. c #698D47",
"3. c #69894C",
"4. c #6D8358",
"5. c #6F865A",
"6. c #70855C",
"7. c #749457",
"8. c #788E63",
"9. c #7C8C6E",
"0. c #828C79",
"q. c #859774",
"w. c #86917B",
"e. c #8E8583",
"r. c #898F83",
"t. c #898989",
"y. c #8B8B8B",
"u. c #978F8D",
"i. c #94908F",
"p. c #92988D",
"a. c #909090",
"s. c #979797",
"d. c #9B9796",
"f. c #989B96",
"g. c #9F9F9F",
"h. c #AA9D9B",
"j. c #AF9F9C",
"k. c #90A082",
"l. c #92A283",
"z. c #94A585",
"x. c #95A685",
"c. c #97A986",
"v. c #97AA87",
"b. c #9AA78E",
"n. c #9AAD88",
"m. c #9BAE89",
"M. c #9FAF90",
"N. c #A2AB9A",
"B. c #A5B497",
"V. c #AAB89E",
"C. c #A5A5A5",
"Z. c #ADA8A7",
"A. c #B1A3A1",
"S. c #A9B2A0",
"D. c #B0B4AC",
"F. c #BAB0AD",
"G. c #B3BEAA",
"H. c #B7BDB1",
"J. c #B9B9B9",
"K. c #BBBBBB",
"L. c #BCC4B5",
"P. c #C0C3BE",
"I. c #C3C7BF",
"U. c #C1C1C1",
"Y. c #C6C6C6",
"T. c #C4C8C0",
"R. c #C5CAC1",
"E. c #C8CCC4",
"W. c gray79",
"Q. c #CBCDC9",
"!. c #CCCECA",
"~. c #CCCECB",
"^. c #D1D2D0",
"/. c #D5D6D5",
"(. c #DBDCDB",
"). c gray87",
"_. c #E3E4E3",
"`. c gray90",
"'. c #E9ECE5",
"]. c #E9EBE8",
"[. c #EFF1EE",
"{. c #F1F1F1",
"}. c #F3F5F2",
"|. c None",
/* pixels */
"|.|.|.|.|.|.|.|.|.|.|.|.|.|.|.|.|.|.|.|.|.|.|.|.|.|.|.|.|.|.|.|.|.|.|.|.|.|.|.|.",
"|.|.|.|.|.|.|.|.|.|.|.|.|.|.|.|.|.|.|.|.|.|.|.|.|.|.|.|.|.|.|.|.|.|.|.|.|.|.|.|.",
"|.|.|.|.|.|.|.|.|.|.|.|.|.|.|.|.|.|.|.|.|.|.|.|.|.|.|.|.|.|.|.|.|.|.|.|.|.|.|.|.",
"|.|.|.|.|.|.|.|.|.|.|.|.|.|.|.|.|.|.|.|.|.|.|.|.|.|.|.|.|.|.|.|.|.|.|.|.|.|.|.|.",
"|.|.|.|.|.|.|.|.|.|.|.|.|.|.|.|.|.|.|.|.|.|.|.|.|.|.|.|.|.|.|.|.|.|.|.|.|.|.|.|.",
"|.|.|.|.|.|.|.|.|.|.|.|.|.|.|.|.            |.|.|.|.|.|.|.|.|.|.|.|.|.|.|.|.|.|.",
"|.|.|.|.|.|.|.|.|.|.|.|.|.|.|.O + + + + + @ o |.|.|.|.|.|.|.|.|.|.|.|.|.|.|.|.|.",
"|.|.|.|.|.|.|.|.|.|.|.|.|.|.< w j j j j j h 8 # |.|.|.|.|.|.|.|.|.|.|.|.|.|.|.|.",
"|.|.|.|.|.|.|.|.|.|.|.|.|.  4 z V V V V V M g -   |.|.|.|.|.|.|.|.|.|.|.|.|.|.|.",
"|.|.|.|.|.|.|.|.|.|.|.|.; > 0 b $.$.$.$.$.O.l 6 : |.|.|.|.|.|.|.|.|.|.|.|.|.|.|.",
"|.|.|.|.|.|.|.|.|.|.|.. 7 e c N $.$.$.$.$.+.n k 9 ,   |.|.|.|.|.|.|.|.|.|.|.|.|.",
"|.|.|.|.|.|.|.|.|.|.  X q v Z o.#.#.#.#.#.@.A C x 5   |.|.|.|.|.|.|.|.|.|.|.|.|.",
"|.|.|.|.|.|.|.|.|.|.  $ R >.:.%.B B B B B A -.<.} u   |.|.|.|.|.|.|.|.|.|.|.|.|.",
"|.|.|.|.|.|.|.|.|.|.  & ` Z.j.=.m m m m m C <.F.i.s   |.|.|.|.|.|.|.|.|.|.|.|.|.",
"|.|.|.|.|.|.|.|.|.|.  * ! a.u.;.&.&.&.&.&.*.,.d.X.a   |.|.|.|.|.|.|.|.|.|.|.|.|.",
"|.|.|.|.|.|.|.|.|.|.|.|.i d ~ e.A.A.A.A.A.h. .E a t |.|.|.|.|.|.|.|.|.|.|.|.|.|.",
"|.|.|.|.|.|.|.|.|.|.|.|.% * f s./.^.~.Q.!.P.{ r * |.|.|.|.|.|.|.|.|.|.|.|.|.|.|.",
"|.|.|.|.|.|.|.|.|.|.|.% T ' t.U._.L.b.l.c.v.0.| ! i |.|.|.|.|.|.|.|.|.|.|.|.|.|.",
"|.|.|.|.|.|.|.|.|.|.  * ' C.W.`.[.V.5.) 3.7.z.D.a.d   |.|.|.|.|.|.|.|.|.|.|.|.|.",
"|.|.|.|.|.|.|.|.|.|.  = [ J.).{.}.B._ J U 2.m.R.g.Y   |.|.|.|.|.|.|.|.|.|.|.|.|.",
"|.|.|.|.|.|.|.|.|.|.  = [ J.).{.}.B._ J U 2.m.R.g.Y   |.|.|.|.|.|.|.|.|.|.|.|.|.",
"|.|.|.|.|.|.|.|.|.|.  = [ J.(.].'.M.( H I 1.n.R.g.Y   |.|.|.|.|.|.|.|.|.|.|.|.|.",
"|.|.|.|.|.|.|.|.|.|.  = [ J.E.G.M.8.P G K / x.T.g.Y   |.|.|.|.|.|.|.|.|.|.|.|.|.",
"|.|.|.|.|.|.|.|.|.|.  = [ J.H.q.( P F S D L k.I.g.Y   |.|.|.|.|.|.|.|.|.|.|.|.|.",
"|.|.|.|.|.|.|.|.|.|.  * ! a.p.9.4.4.4.4.4.6.w.f.X.a   |.|.|.|.|.|.|.|.|.|.|.|.|.",
"|.|.|.|.|.|.|.|.|.|.|.|.i d ^ r.S.S.S.S.S.N...W a t |.|.|.|.|.|.|.|.|.|.|.|.|.|.",
"|.|.|.|.|.|.|.|.|.|.|.|.|.  p y.Y.Y.Y.Y.Y.K.] 2   |.|.|.|.|.|.|.|.|.|.|.|.|.|.|.",
"|.|.|.|.|.|.|.|.|.|.|.|.|.|.y Q [ [ [ [ [ ] T 1 |.|.|.|.|.|.|.|.|.|.|.|.|.|.|.|.",
"|.|.|.|.|.|.|.|.|.|.|.|.|.|.|.2 3 3 3 3 3 2 1 |.|.|.|.|.|.|.|.|.|.|.|.|.|.|.|.|.",
"|.|.|.|.|.|.|.|.|.|.|.|.|.|.|.              |.|.|.|.|.|.|.|.|.|.|.|.|.|.|.|.|.|.",
"|.|.|.|.|.|.|.|.|.|.|.|.|.|.|.|.|.|.|.|.|.|.|.|.|.|.|.|.|.|.|.|.|.|.|.|.|.|.|.|.",
"|.|.|.|.|.|.|.|.|.|.|.|.|.|.|.|.|.|.|.|.|.|.|.|.|.|.|.|.|.|.|.|.|.|.|.|.|.|.|.|.",
"|.|.|.|.|.|.|.|.|.|.|.|.|.|.|.|.|.|.|.|.|.|.|.|.|.|.|.|.|.|.|.|.|.|.|.|.|.|.|.|.",
"|.|.|.|.|.|.|.|.|.|.|.|.|.|.|.|.|.|.|.|.|.|.|.|.|.|.|.|.|.|.|.|.|.|.|.|.|.|.|.|.",
"|.|.|.|.|.|.|.|.|.|.|.|.|.|.|.|.|.|.|.|.|.|.|.|.|.|.|.|.|.|.|.|.|.|.|.|.|.|.|.|.",
"|.|.|.|.|.|.|.|.|.|.|.|.|.|.|.|.|.|.|.|.|.|.|.|.|.|.|.|.|.|.|.|.|.|.|.|.|.|.|.|.",
"|.|.|.|.|.|.|.|.|.|.|.|.|.|.|.|.|.|.|.|.|.|.|.|.|.|.|.|.|.|.|.|.|.|.|.|.|.|.|.|.",
"|.|.|.|.|.|.|.|.|.|.|.|.|.|.|.|.|.|.|.|.|.|.|.|.|.|.|.|.|.|.|.|.|.|.|.|.|.|.|.|.",
"|.|.|.|.|.|.|.|.|.|.|.|.|.|.|.|.|.|.|.|.|.|.|.|.|.|.|.|.|.|.|.|.|.|.|.|.|.|.|.|.",
"|.|.|.|.|.|.|.|.|.|.|.|.|.|.|.|.|.|.|.|.|.|.|.|.|.|.|.|.|.|.|.|.|.|.|.|.|.|.|.|."
};
