/* XPM */
static char *result[] = {
/* columns rows colors chars-per-pixel */
"50 50 115 2 ",
"   c #2E261D",
".  c #2F281E",
"X  c #30281F",
"o  c #2E2720",
"O  c #2F2822",
"+  c #282828",
"@  c #342C21",
"#  c #392F24",
"$  c #342E2C",
"%  c #373026",
"&  c #3C3225",
"*  c #37312A",
"=  c #3E3428",
"-  c #2E2D30",
";  c #302F33",
":  c #363032",
">  c #3B3434",
",  c #36353A",
"<  c #3B373F",
"1  c #3A393F",
"2  c #403527",
"3  c #423629",
"4  c #463A2C",
"5  c #493D2E",
"6  c #433B31",
"7  c #4B3F31",
"8  c #433E38",
"9  c #4E4131",
"0  c #43413E",
"q  c #4D453D",
"w  c #524534",
"e  c #564837",
"r  c #584937",
"t  c #53493D",
"y  c #5B4C3A",
"u  c #5E503D",
"i  c #62533F",
"p  c #3C3740",
"a  c #3C3943",
"s  c #3F3C49",
"d  c #413E4E",
"f  c #474542",
"g  c #494644",
"h  c #4F4B45",
"j  c #45414B",
"k  c #534B41",
"l  c #584F44",
"z  c #514D49",
"x  c #5D5243",
"c  c #56524E",
"v  c #5C544C",
"b  c #434051",
"n  c #494656",
"m  c #4E4B55",
"M  c #494658",
"N  c #4E4B5C",
"B  c #514E56",
"V  c #514E5D",
"C  c #565553",
"Z  c #595652",
"A  c #5D5955",
"S  c #54505A",
"D  c #58545D",
"F  c #595959",
"G  c #635442",
"H  c #675844",
"J  c #6A5B46",
"K  c #615649",
"L  c #63594D",
"P  c #6C5D49",
"I  c #615E5B",
"U  c #686259",
"Y  c #4F4C60",
"T  c #514E62",
"R  c #555167",
"E  c #595567",
"W  c #575369",
"Q  c #59556B",
"!  c #5E5A6F",
"~  c #5F5A72",
"^  c #615C74",
"/  c #646362",
"(  c #6E6A66",
")  c #64616C",
"_  c #6E6D6A",
"`  c #746E65",
"'  c #756F68",
"]  c #777067",
"[  c #74716E",
"{  c #7C746B",
"}  c #67627B",
"|  c #69637D",
" . c gray45",
".. c #787571",
"X. c #7F7871",
"o. c #827B72",
"O. c #867F78",
"+. c #898076",
"@. c #858079",
"#. c #8A847C",
"$. c #90897F",
"%. c #6B6680",
"&. c #6E6984",
"*. c #756F8B",
"=. c #77718E",
"-. c #868686",
";. c #8E8B88",
":. c #928C84",
">. c #958F89",
",. c #95918C",
"<. c #9B948D",
"1. c #9D9790",
"2. c #9F9A93",
"3. c #9E9E9E",
"4. c #AFAEAE",
/* pixels */
"+ + + + + + + + + + + + + + O + + + + + O + + + + + + + + O + + + + + + + + + + + + + + + + + + + + ",
"+ + + + + + + + + + ; d n n n m n n n n n n n n n n n n n n n n M M n n n n j * + + + + + + + + + + ",
"+ + + + + + + + + - a ^ *.*.*.*.*.=.*.*.=.*.*.=.*.=.=.=.=.=.*.*.*.*.*.*.*.*.| d - + + + + + + + + + ",
"+ + + + + + + : Q ~ ^ ^ ^ ^ ^ ^ ^ ^ ^ ! ^ ^ ~ ^ ! ) ~ ~ ~ ~ ) ~ ^ ^ ^ ^ ^ ^ ^ ! ! ! , + + + + + + + ",
"+ + + + + + 1 M %.%.^ Q W W W E E E W W W W W W W W W W W W W W W W W W W W ~ ^ %.%.S a + + + + + + ",
"+ + + + + + E &.Q W Q W W W W E W R W W W W W W W W W W W W W W W W W W W W W W W W %.! - + + + + + ",
"+ + + + 1 E ~ ^ W W W W W W E E W W W W W W W W W W W W W W W W R W W W W W Q Q W W ~ ~ Q a + + + + ",
"+ + + , N &.~ W W W R T T T T T T T T T T T T T T T T T T Y R Y T T T T T T T R W W Q ~ &.V , + + + ",
"+ + + Q | Q W W W W T M d d d d b b j b d b b b b b b j b b b b b d b d b d d T W W W W Q ^ ~ ; + + ",
"+ 1 R ^ ~ W W W W Y M d d ; : : : : : : : : : : : : : : : : : : : : > ; : d d M Y W W W Q ~ ^ R a + ",
", N &.! W W W W R M d s ; X # # & O . @ % #   @ % % @ . @ % * O O # & #   $ d d M T R W W W ~ &.V , ",
"| ) ! Q W W W T n d s $ O @ e H P 4 % w G u @ 5 G G 9 . q v L 4 2 L L l # X @ a d d T W W W Q Q ^ } ",
"=.| W W W W Y M d p : & @ @ w u P 3 % w y e X 7 G u 5 . 9 x J 4 @ q x x * & 7 6 a d M Y W W W W } =.",
"=.%.W W W W M d d ; @ 4 &   4 7 y % @ 4 5 4 X 4 y 9 % . = 9 u 4 O   4 w @ 6 G 2 : d d M R W W W } =.",
"=.| W W W W M a $ & 4 5 & X 3 5 7 @ @ 5 5 2 X 4 y 9 & . = 9 y e 7   2 4 @ 2 7 5 & O a d R W W W } =.",
"=.| W W W W M a   & 5 7 3 O 4 5 5 @ @ 5 5 2 X 2 e 9 = . = 9 e 9 4 o & 3 @ # 7 4 2   d M R W W W } =.",
"*.| W W W W M p   & 5 w = . 3 5 5 X X 5 5 3 X & 9 w 3   3 5 5 #     % 4 @ % 5 5 2   < M R W W W } =.",
"=.| W W W E M B ` o.#.#.o.] { { o.` ` o.{ { ' o.:.#.o.' ] { { ] ` ` ] { ` o.#.#.o.' B n W W W W } =.",
"=.| W W W W M V O.:.<.2.,.#.#.#.#.#.+.#.#.#.#.>.2.1.>.#.#.#.#.#.#.#.#.#.+.:.<.<.>.+.D n R W W W } =.",
"=.| W W W W M m ` ] o.@.X.] ] ] ' ' ] ] ' ' ' { o.o.{ ' ' ' ' ' ' ] ] ] ] { X.X...' B n R W W W } =.",
"=.| E W W W M d g k l x k q t t t q q t l t q t l k k t t t k q q t k t q t l l k q d n T E W W } =.",
"=.| W W W W M a X # 3 3 @ . % 2 2 @ X # 2 # X @ & X @ 2 2 2 2 @ X & 2 & X @ & 2 #   < M R E W W } =.",
"=.^ W W W W M p O 4 e 7 = X 2 5 5 @ @ 4 5 4 X # 4 X # 5 4 5 9 # X 4 5 4 @ # 5 5 2   < n R W W W } =.",
"=.%.W W W E M p O 5 y w 2 X 2 5 w # @ 5 5 5 X # 4 X 2 e 5 5 9 & @ w 9 5 X # 5 7 3   < n R W W W } =.",
"=.%.W W W W M a o 5 y 9 = @ 3 9 w & X 5 9 4 X & 4 X 3 y w 5 9 % & y e 4 X & 5 5 &   , M R W W W } =.",
"=.%.W W W W M a o 5 y 9 = . 2 e J 4 @ 4 9 4 X & 4 X 3 y 9 5 9 & % y w 4 X & 5 9 3   p n R W W W } =.",
"=.^ Q W W W M a O 5 y w = X 9 r G = @ 5 5 3 X & 4 @ 4 G e w 9 # % y e 5 X & w 9 3 O p M R W W W } =.",
"=.%.Q Q W W M p   5 y 9 = X w e 9 @ X 4 9 4 X = 4 X 5 J i r 9 & % y r 9 = 9 x w &   p M R W W W } =.",
"=.^ W W W W M p o 5 y w 2 X w r 9 @ @ 5 5 3 X % 4 X @ 3 e r 9 # % y { ,.;.>.>.K 3   p n R W W W } =.",
"=.%.W W W W M a . 5 y 9 3 X w r 9 & @ 4 9 4 X 3 e 3 & X 9 e 9 # % y o.3.3.3.,.K 3 O < M R W W W } =.",
"=.%.W W W W M p O 5 y w = X w r 9 @ @ 5 9 3 X 9 P i 5 X 9 e 9 & # y U  . . ._ k &   < n R W W W } =.",
"=.%.W W W W M a . 4 y w 2 @ w r 9 # @ 4 9 4 X 5 i u 5 X 9 e 9 # & Z F F F F Z Z 0   < M W W W W } =.",
"=.^ Q W W W M a o 4 y 7 3 @ w r 5 @ # 5 5 3 X 3 r y 5 X w r 5 q k Z z f 0 f z C c h j M R W W W } =.",
"=.%.W W W W M a o 7 u 7 3 @ w w 4 # # 3 5 3   2 5 y 5 X 7 r 5 #.1.t 7 4 @ 3 y w ` 4.) M R W W W } =.",
"*.%.W W W W d a o 7 y w 2 @ w e 4 # @ 4 5 3 X # 5 y 5 X 7 r 5 ( ..w 5 4 O 3 y w K -.R M R W W W } =.",
"=.%.W W W W Y a o 4 y 7 2 @ 7 e 4 # # 3 4 3 X 2 5 y 5 X 7 e 5 k c q e q 6 q G t k C j M R W W W | =.",
"=.%.W W W W Y a   5 y w 2 @ w e 4 #   X 2 3   & 5 y 5 X 7 r 5 2 8 / '  ._  .[ ( c $ a n R W W W | =.",
"=.^ W W W W d a   4 w 5 & @ w y w e 4 X 2 3   & 5 y 5 X 7 e 5 # = v I / / / / A q   p n R W W W | =.",
"=.%.W W W W M a O # 5 5 & X 7 y u J y   2 2 X & 5 r 5 X 7 e 4 @ @ 7 q g f g g 7 &   < M R W W W ^ =.",
"=.%.W W W W M a O & 5 5 & X 5 7 7 e 5   2 2   & 5 5 2 X w 7 X X @ 7 7 6 $ = 8 5 &   1 M R W W W | =.",
"=.^ W W W W M p O # 5 5 # X 2 5 5 5 2 X 4 3 X & 5 4 2 X 5 4   X 2 5 5 3 X # 5 5 &   < n R W W W | =.",
"=.%.W W W E M p O & 5 5 2 X 2 5 7 X X 5 5 3 X & 5 5 # X 4 2   2 9 w 5 4 X # 5 5 &   < n R W W W %.=.",
"=.%.W W W W M m ` o.O.#.o.` { o.o.] ` o.o.o.` o.O.+.o.` { { ` o.{ o.{ { ] { O.#.O.' B n R W W W ^ =.",
"=.%.W W W W n V O.:.<.<.>.#.#.O.#.#.O.#.O.+.O.$.<.1.>.#.#.O.-.O.#.+.#.#.+.:.<.1.<.+.D n R W W W | =.",
"=.&.Q W W W M B ` { o.o.{ ] ' ' ] ] ] ` ] ] ` { o.o.o.` ] ] ] ] ' ] ' ' ] { X.X.{ ' N M R W W W | =.",
"=.^ W W W W M d q q l t t q q k k q d y k k 8 t l l k 7 k t k q q t k k q t l l k q d b R W W W | =.",
"=.&.W W W W M a o @ 2 2 @   @ & 2 X X 2 2 # X # 2 2 @ X # 2 2 X X & & & X X 2 & @ . p M R W W W %.=.",
"=.^ W W W E M a O # 5 5 #   X # 3 @ @ 4 4 4 X # 4 4 @ X 2 3 3 # X 4 5 3 X # 4 5 &   p M R W W W ^ =.",
"=.%.Q W W W M d o & 5 5 5 4 @ @ 5 @ @ 7 7 3 o 2 5 7 4 X 2 5 5 # X 5 5 3 X # 5 5 2   < n T E W W ^ =.",
"=.^ Q Q W W d p O 2 4 5 7 y & & 5 @ 2 x r 4 o # 5 y 5 X 2 5 5 # X 5 5 4 X # 5 5 2   < n R W W W %.=."
};
