/* XPM */
static char *result[] = {
/* columns rows colors chars-per-pixel */
"50 50 121 2 ",
"   c black",
".  c #040304",
"X  c #050506",
"o  c #060507",
"O  c #060608",
"+  c #070608",
"@  c #100F13",
"#  c #131216",
"$  c #131217",
"%  c #151419",
"&  c #16151A",
"*  c #17161C",
"=  c #18171D",
"-  c #19181E",
";  c #1A1920",
":  c #1C1B22",
">  c #1E1C24",
",  c gray13",
"<  c #222222",
"1  c #222223",
"2  c #232223",
"3  c #232324",
"4  c #262527",
"5  c #262627",
"6  c #282729",
"7  c #2A292C",
"8  c #2B2A2D",
"9  c #2F2E33",
"0  c #2D2B36",
"q  c #2F2D38",
"w  c #312F3B",
"e  c #313035",
"r  c #333238",
"t  c #35333A",
"y  c #36343B",
"u  c #32303C",
"i  c #34323E",
"p  c #37353D",
"a  c #38363E",
"s  c #39373F",
"d  c #353340",
"f  c #373442",
"g  c #373542",
"h  c #393745",
"j  c #3A3745",
"k  c #3A3840",
"l  c #3F3D47",
"z  c #3E3C4B",
"x  c #3F3C4B",
"c  c #3F3C4C",
"v  c #3F3D4C",
"b  c #413F4A",
"n  c #423F4F",
"m  c #434050",
"M  c #434051",
"N  c #454253",
"B  c #464450",
"V  c #474355",
"C  c #484556",
"Z  c #484557",
"A  c #494557",
"S  c #4B4857",
"D  c #494658",
"F  c #4D4959",
"G  c #4E4B5A",
"H  c #4F4B5B",
"J  c #4F4B5F",
"K  c #514D5E",
"L  c #524F5F",
"P  c #4F4C60",
"I  c #504C60",
"U  c #514D62",
"Y  c #514E62",
"T  c #524E62",
"R  c #524E63",
"E  c #534F64",
"W  c #535061",
"Q  c #565365",
"!  c #555167",
"~  c #575366",
"^  c #565267",
"/  c #585467",
"(  c #565268",
")  c #575369",
"_  c #58546A",
"`  c #58546B",
"'  c #59546B",
"]  c #59556B",
"[  c #5A566D",
"{  c #5C576F",
"}  c #5C586B",
"|  c #5D586D",
" . c #5D596D",
".. c #5D596E",
"X. c #5C586F",
"o. c #5D5970",
"O. c #5E5A70",
"+. c #5E5A71",
"@. c #5F5A71",
"#. c #5E5A72",
"$. c #5F5A72",
"%. c #5F5B73",
"&. c #605B72",
"*. c #605B73",
"=. c #615C74",
"-. c #615D74",
";. c #625D75",
":. c #666178",
">. c #666279",
",. c #66617A",
"<. c #67627B",
"1. c #68637C",
"2. c #69637D",
"3. c #6B657F",
"4. c #6B6580",
"5. c #6D6782",
"6. c #6D6883",
"7. c #6F6984",
"8. c #6F6985",
"9. c #756F8B",
"0. c #77718E",
/* pixels */
", , , , , , , , , , , , , , , , , , , , , , , , , , , , , , , , , , , , , , , , , , , , , , , , , , ",
", , , , , , , , , , 6 l B B B B B B B B B B B B B B B B B B B B B B B B B B b 7 , , , , , , , , , , ",
", , , , , , , < 4 5 t :.9.9.9.9.9.9.9.9.9.9.9.9.9.9.9.9.9.9.9.9.9.9.9.9.9.9.3.k 5 5 1 , , , , , , , ",
", , , , , , , 9 / } | &.=.=.=.=.=.=.=.=.=.=.=.=.=.=.=.=.=.=.=.=.=.=.=.=.=.=.*...} } r , , , , , , , ",
", , , , , , t S 1.4.<.[ ) ) ) ) ) ) ) ) ) ) ) ) ) ) ) ) ) ) ) ) ) ) ) ) ) ) ] ,.4.4.G p 2 , , , , , ",
", , , , , , Q 7.' ) ) ) ) ) ) ) ) ) ) ) ) ) ) ) ) ) ) ) ) ) ) ) ) ) ) ) ) ) ) ) ) ) 5.} 5 , , , , , ",
", , , , t Q O.*.) ) ) ) ) ) ) ) ) ) ) ) ) ) ) ) ) ) ) ) ) ) ) ) ) ) ) ) ) ) ) ) ) ) $.@.~ a , , , , ",
", , < 9 S 7.*.) ) ) ^ R Y Y Y Y Y Y Y Y Y Y Y Y Y Y Y Y Y Y Y Y Y Y Y Y Y Y R ! ) ) ) +.6.H e 3 , , ",
", , 4 / 1.' ) ) ) ) E V m m m m m m m m m m m m m m m m m m m m m m m m m m N T ) ) ) ) ` ,. .8 , , ",
", y L O.%.) ) ) ) I D M w : : : : : : : : : : : : : : : : : : : : : : : : 0 m Z J ) ) ) ) #.&.W s , ",
"e F 8.$.) ) ) ^ E D c g >                                                 * f z C E ! ) ) ) o.6.K e ",
">.;.X.` ) ) ) R V M g & O                                                 X # i m N U ) ) ) _ { -.>.",
"0.2.) ) ) ) I D n q ; o                                                     . = 0 n A P ( ) ) ) <.0.",
"0.2.) ) ) ) D v j -                                                             % h x Z ! ) ) ) <.0.",
"0.2.) ) ) ) D d $ +                                                             o @ u Z ! ) ) ) <.0.",
"0.2.) ) ) ) D w .                                                                   0 Z ! ) ) ) <.0.",
"0.2.) ) ) ) D w .                                                                   0 Z ! ) ) ) <.0.",
"0.2.) ) ) ) D w .                                                                   0 Z ! ) ) ) <.0.",
"0.2.) ) ) ) D w .                                                                   0 Z ! ) ) ) <.0.",
"0.2.) ) ) ) D w .                                                                   0 Z ! ) ) ) <.0.",
"0.2.) ) ) ) D w .                                                                   0 Z ! ) ) ) <.0.",
"0.2.) ) ) ) D w .                                                                   0 Z ! ) ) ) <.0.",
"0.2.) ) ) ) D w .                                                                   0 Z ! ) ) ) <.0.",
"0.2.) ) ) ) D w .                                                                   0 Z ! ) ) ) <.0.",
"0.2.) ) ) ) D w .                                                                   0 Z ! ) ) ) <.0.",
"0.2.) ) ) ) D w .                                                                   0 Z ! ) ) ) <.0.",
"0.2.) ) ) ) D w .                                                                   0 Z ! ) ) ) <.0.",
"0.2.) ) ) ) D w .                                                                   0 Z ! ) ) ) <.0.",
"0.2.) ) ) ) D w .                                                                   0 Z ! ) ) ) <.0.",
"0.2.) ) ) ) D w .                                                                   0 Z ! ) ) ) <.0.",
"0.2.) ) ) ) D w .                                                                   0 Z ! ) ) ) <.0.",
"0.2.) ) ) ) D w .                                                                   0 Z ! ) ) ) <.0.",
"0.2.) ) ) ) D w .                                                                   0 Z ! ) ) ) <.0.",
"0.2.) ) ) ) D w .                                                                   0 Z ! ) ) ) <.0.",
"0.2.) ) ) ) D w .                                                                   0 Z ! ) ) ) <.0.",
"0.2.) ) ) ) D w .                                                                   0 Z ! ) ) ) <.0.",
"0.2.) ) ) ) D w .                                                                   0 Z ! ) ) ) <.0.",
"0.2.) ) ) ) D w .                                                                   0 Z ! ) ) ) <.0.",
"0.2.) ) ) ) D w .                                                                   0 Z ! ) ) ) <.0.",
"0.2.) ) ) ) D w .                                                                   0 Z ! ) ) ) <.0.",
"0.2.) ) ) ) D w .                                                                   0 Z ! ) ) ) <.0.",
"0.2.) ) ) ) D w .                                                                   0 Z ! ) ) ) <.0.",
"0.2.) ) ) ) D w .                                                                   0 Z ! ) ) ) <.0.",
"0.2.) ) ) ) D w .                                                                   0 Z ! ) ) ) <.0.",
"0.2.) ) ) ) D w .                                                                   0 Z ! ) ) ) <.0.",
"0.2.) ) ) ) D w .                                                                   0 Z ! ) ) ) <.0.",
"0.2.) ) ) ) D w .                                                                   0 Z ! ) ) ) <.0.",
"0.2.) ) ) ) D w .                                                                   0 Z ! ) ) ) <.0.",
"0.2.) ) ) ) D w .                                                                   0 Z ! ) ) ) <.0.",
"0.2.) ) ) ) D w .                                                                   0 Z ! ) ) ) <.0."
};
