/* XPM */
static char *result[] = {
/* columns rows colors chars-per-pixel */
"50 50 30 1 ",
"  c #3C2A4D",
". c #3D2B4E",
"X c #3E2C50",
"o c #3F2C50",
"O c #412E53",
"+ c #422F53",
"@ c #422F54",
"# c #433055",
"$ c #49355C",
"% c #4A365D",
"& c #4A375D",
"* c #4B375E",
"= c #4C385F",
"- c #4D3860",
"; c #4E3A61",
": c #503A65",
"> c #523C67",
", c #533D67",
"< c #533D68",
"1 c #543E68",
"2 c #543E69",
"3 c #553F6A",
"4 c #56406B",
"5 c #57416B",
"6 c #57416C",
"7 c #57426C",
"8 c #5A446F",
"9 c #5B4570",
"0 c #5C4671",
"q c #5D4772",
/* pixels */
"                                                  ",
"    O%%%%%%%%%%%%%%%%%%%%%%%%%%%%%%%%%%%%%%%%@    ",
"   .$0000000000000000000000000000000000000000*.   ",
"  .*,2222222222222222222222222222222222222222,-X  ",
" O$,3::::::::::::::::::::::::::::::::::::::::21%+ ",
" %02::::::::::::::::::::::::::::::::::::::::::<9= ",
" %02::::::::::::::::::::::::::::::::::::::::::<9= ",
" %02::::::::::::::::::::::::::::::::::::::::::<9= ",
" %02::::::::::::::::::::::::::::::::::::::::::<9= ",
" %02::::::::::::::::::::::::::::::::::::::::::<9= ",
" %02::::::::::::::::::::::::::::::::::::::::::<9= ",
" %02::::::::::::::::::::::::::::::::::::::::::<9= ",
" %02::::::::::::::::::::::::::::::::::::::::::<9= ",
" %02::::::::::::::::::::::::::::::::::::::::::<9= ",
" %02::::::::::::::::::::::::::::::::::::::::::<9= ",
" %02::::::::::::::::::::::::::::::::::::::::::<9= ",
" %02::::::::::::::::::::::::::::::::::::::::::<9= ",
" %02::::::::::::::::::::::::::::::::::::::::::<9= ",
" %02::::::::::::::::::::::::::::::::::::::::::<9= ",
" %02::::::::::::::::::::::::::::::::::::::::::<9= ",
" %02::::::::::::::::::::::::::::::::::::::::::<9= ",
" %02::::::::::::::::::::::::::::::::::::::::::<9= ",
" %02::::::::::::::::::::::::::::::::::::::::::<9= ",
" %02::::::::::::::::::::::::::::::::::::::::::<9= ",
" %02::::::::::::::::::::::::::::::::::::::::::<9= ",
" %02::::::::::::::::::::::::::::::::::::::::::<9= ",
" %02::::::::::::::::::::::::::::::::::::::::::<9= ",
" %02::::::::::::::::::::::::::::::::::::::::::<9= ",
" %02::::::::::::::::::::::::::::::::::::::::::<9= ",
" %02::::::::::::::::::::::::::::::::::::::::::<9= ",
" %02::::::::::::::::::::::::::::::::::::::::::<9= ",
" %02::::::::::::::::::::::::::::::::::::::::::<9= ",
" %02::::::::::::::::::::::::::::::::::::::::::<9= ",
" %02::::::::::::::::::::::::::::::::::::::::::<9= ",
" %02::::::::::::::::::::::::::::::::::::::::::<9= ",
" %02::::::::::::::::::::::::::::::::::::::::::<9= ",
" %02::::::::::::::::::::::::::::::::::::::::::<9= ",
" %02::::::::::::::::::::::::::::::::::::::::::<9= ",
" %02::::::::::::::::::::::::::::::::::::::::::<9= ",
" %02::::::::::::::::::::::::::::::::::::::::::<9= ",
" %02::::::::::::::::::::::::::::::::::::::::::<9= ",
" %02::::::::::::::::::::::::::::::::::::::::::<9= ",
" %02::::::::::::::::::::::::::::::::::::::::::<9= ",
" %04>:::::::::::::::::::::::::::::::::::::::::<9= ",
" %006:::::::::::::::::::::::::::::::::::::::::<9= ",
" @*586>::::::::::::::::::::::::::::::::::::::21=# ",
"  .-7q4<<<<<<<<<<<<<<<<<<<<<<<<<<<<<<<<<<<<<<1;o  ",
"   X&q999999999999999999999999999999999999999=o   ",
"    +========================================#    ",
"                                                  "
};
