/* XPM */
static char *_dcd038b7e824c40c5f8feccb0a47e512xiLiV3FdiiQUX0M[] = {
/* columns rows colors chars-per-pixel */
"50 50 142 2 ",
"   c None",
".  c #141412",
"X  c #1A1611",
"o  c #161913",
"O  c #1B1C13",
"+  c #241A11",
"@  c #2C1E10",
"#  c #1D2316",
"$  c #1F2917",
"%  c #35210F",
"&  c #3C240F",
"*  c #2D2014",
"=  c #202C17",
"-  c #222D19",
";  c #312214",
":  c #3B2816",
">  c #322719",
",  c #362B1E",
"<  c #233219",
"1  c #2A361C",
"2  c #27381B",
"3  c #2A3C1D",
"4  c #342C21",
"5  c #2F3423",
"6  c #353F22",
"7  c #3E3A27",
"8  c #3C3A2A",
"9  c #41260F",
"0  c #44280F",
"q  c #462D15",
"w  c #4B2F16",
"e  c #4F3217",
"r  c #533214",
"t  c #5A3515",
"y  c #5F3817",
"u  c #593719",
"i  c #5D3919",
"p  c #633D1A",
"a  c #4B3520",
"s  c #4F3923",
"d  c #4F3F2F",
"f  c #413324",
"g  c #2D421E",
"h  c #2F4120",
"j  c #324621",
"k  c #344C22",
"l  c #384F24",
"z  c #375223",
"x  c #3A5525",
"c  c #3E5C27",
"v  c #3F5D28",
"b  c #70431C",
"n  c #41452A",
"m  c #444C23",
"M  c #534029",
"N  c #5E462D",
"B  c #57492B",
"V  c #405F27",
"C  c #405F28",
"Z  c #5E542E",
"A  c #474D33",
"S  c #5F4A32",
"D  c #4B5933",
"F  c #65482C",
"G  c #744922",
"H  c #7C4F28",
"J  c #7F532B",
"K  c #644D33",
"L  c #69523A",
"P  c #765331",
"I  c #7A5633",
"U  c #426329",
"Y  c #476A2B",
"T  c #496D2D",
"R  c #4D742F",
"E  c #4F7630",
"W  c #4E7830",
"Q  c #527C31",
"!  c #686134",
"~  c #7C7346",
"^  c #756952",
"/  c #747053",
"(  c #7A7358",
")  c #82552E",
"_  c #845932",
"`  c #885B33",
"'  c #845E39",
"]  c #8C6038",
"[  c #91653D",
"{  c #8D6742",
"}  c #857A4B",
"|  c #9D724B",
" . c #9C7652",
".. c #A0734B",
"X. c #A57A52",
"o. c #578434",
"O. c #598735",
"+. c #5B8B37",
"@. c #5D8E38",
"#. c #5F9139",
"$. c #63963A",
"%. c #659C3C",
"&. c #6AA33E",
"*. c #668D40",
"=. c #758C4D",
"-. c #779D4C",
";. c #6DA740",
":. c #6EAA40",
">. c #71AE42",
",. c #74B443",
"<. c #77B845",
"1. c #938A5E",
"2. c #AF845B",
"3. c #B1865E",
"4. c #8AAC59",
"5. c #8FB45B",
"6. c #8D8467",
"7. c #94886B",
"8. c #96956A",
"9. c #9A906F",
"0. c #A4896E",
"q. c #B88C63",
"w. c #B18E69",
"e. c #BD9168",
"r. c #A09A71",
"t. c #BA9776",
"y. c #BA9977",
"u. c #95A566",
"i. c #A4AC72",
"p. c #ACBE74",
"a. c #AAB574",
"s. c #C5AD8F",
"d. c #CDAF91",
"f. c #CCB393",
"g. c #D8B390",
"h. c #DEBA98",
"j. c #D9C39D",
"k. c #E3C6A5",
"l. c #E9C7A7",
"z. c #E4C9A5",
"x. c #ECCBAC",
"c. c #EACAAA",
/* pixels */
"                                                                                                    ",
"                                                                                                    ",
"                                                                                                    ",
"                                                                                                    ",
"                                                                                                    ",
"                                      < < < < < < < < < < < <                                       ",
"                                    j Y Q o.o.o.o.o.o.o.o.Q Y k                                     ",
"                                  3 c #.:.<.<.<.<.<.<.<.<.:.$.U j                                   ",
"                                < k R >.,.<.<.<.<.<.<.<.<.,.,.$.R <                                 ",
"                              3 j x Q ,.<.<.<.<.<.<.<.<.<.<.<.:.@.k g                               ",
"                            < g v v R :.,.<.<.<.<.<.<.<.<.<.<.<.&.U g =                             ",
"                < < < < < < < g v v T #.:.<.<.<.<.<.<.<.<.<.<.<.&.U 1 o                             ",
"                < x R R R R R T v v U R @.;.,.<.<.<.<.<.<.<.<.:.#.U < .                             ",
"                < W :.,.,.,.,.$.Y Y U v R #.>.>.:.&.&.&.&.&.&.@.R x < O                             ",
"                  k U &.:.$.$.%.&.&.+.U U R #.O.T j 3 3 k x x 3 - # 3 k                             ",
"                    j Q @.$.o.o.$.&.$.o.Y Y O.Q U # . . < g g # . . 1 m                             ",
"                      < T >.R v v Q %.,.o.Y O.@.Q = . o j v v - . . > a a a                         ",
"                        g l R R v x z c T o.+.@.*.9./ j T +.$.x $ $ ^ 0.S a                         ",
"                          # x C k 3 < < U #.$.-.u.j.r.U Q %.<.U < < 7.d.L a                         ",
"                            o # < < < < U $.,.p.z.c.r.U Q %.<.U < < 7.d.L a                         ",
"                              o # = < < U #.%.a.x.x.r.v Y Q o.U D 6.s.d.L a                         ",
"                                . # $ $ x Q +.i.x.x.r.v U Y Y T =.k.x.d.L a                         ",
"                                  . . . - z o.i.x.x.r.V Q O.O.%.5.z.x.d.L a                         ",
"                                  . . . O < x 8.l.g.1.v v C C +.4.z.h.t.K a                         ",
"                                # # # O . o $ ( f.w.~ x 3 - - U =.f.y. .N                           ",
"                            < k E E Y z - . o 5 A n 6 2 # o o < j A 8 4                             ",
"                          3 x T @.@.o.R c j j c T T T Y x l v U c $ o .                             ",
"                          3 E @.@.@.@.@.+.+.@.&.<.<.<.,.%.%.<.<.#.O . .                             ",
"                          3 E @.@.@.@.@.Q Q &.,.<.<.<.,.>.>.<.<.@.O . .                             ",
"                          < U o.@.@.O.Q Y R >.<.<.<.<.<.<.<.<.<.@.O . .                             ",
"                          O k T @.@.Q U v R >.<.<.<.<.<.<.<.<.<.@.O . .                             ",
"                            - 1 h k k g g c #.:.<.<.<.,.&.&.<.<.@.O .                               ",
"                            . . . # $ $ $ 3 T +.&.&.&.%.+.@.&.$.E O                                 ",
"                                  . . . . O < k U U U U U U U 1 O                                   ",
"                                    . . , M B Z ! ~ } } } } } 7 .                                   ",
"                                      X s P P I ' X.3.3.2.2.3.d .                                   ",
"                                  . + & q e e p G H _ { _ _ { f .                                   ",
"                                  . + 9 0 0 0 t b b _ | J )  .F : X                                 ",
"                                  X + 9 0 0 0 t b b [ q.` ] e.] u X                                 ",
"                                . @ & 9 0 0 0 t b b [ q.` ] e.] u X                                 ",
"                                . % 0 0 0 0 0 t b b _ | J ) ..) i @ O                               ",
"                                . % 0 0 0 0 0 t b b b b b b b b p 0 @ .                             ",
"                                . O + + + + + @ ; ; ; ; ; ; ; ; * + X .                             ",
"                                . O + + + + + X . . . . . X + + + + X .                             ",
"                                . ; 9 9 9 9 9 @ .       . + 9 9 9 9 + .                             ",
"                              + @ & 0 0 0 & @ +         . + 0 0 0 0 @ .                             ",
"                            . + 0 0 0 0 & ; X           . + 0 0 0 0 @ O                             ",
"                            . + 0 0 0 0 @ X             . + 0 0 0 0 9 % X                           ",
"                          O : w t t t t ; .             . + 0 r t t t r q ;                         ",
"                          O u b b b b b : .             . + 0 y b b b b b q .                       "
};
