/* XPM */
static char *a0d339663b4e4ac8c5cbad26baa13a64ieJA71AsxCsci9Pi[] = {
/* columns rows colors chars-per-pixel */
"50 50 140 2 ",
"   c None",
".  c #141412",
"X  c #1A1611",
"o  c #161913",
"O  c #1B1D13",
"+  c #241A11",
"@  c #2C1E10",
"#  c #1C2316",
"$  c #1E2916",
"%  c #35210F",
"&  c #3C240F",
"*  c #2D2014",
"=  c #212C18",
"-  c #312214",
";  c #3B2816",
":  c #342C1C",
">  c #233219",
",  c #29361C",
"<  c #27391B",
"1  c #2A3C1D",
"2  c #41260F",
"3  c #44280F",
"4  c #462D15",
"5  c #4B2F16",
"6  c #4F3217",
"7  c #4A391F",
"8  c #533214",
"9  c #5A3515",
"0  c #5F3817",
"q  c #593719",
"w  c #5D3919",
"e  c #633D1A",
"r  c #413324",
"t  c #4B3520",
"y  c #4C3C22",
"u  c #45372B",
"i  c #4F3F2F",
"p  c #523D28",
"a  c #2D421E",
"s  c #30471F",
"d  c #304620",
"f  c #334B21",
"g  c #394827",
"h  c #375223",
"j  c #385223",
"k  c #3E5C27",
"l  c #70431C",
"z  c #56432A",
"x  c #5C4E2E",
"c  c #415625",
"v  c #405F27",
"b  c #415F29",
"n  c #484635",
"m  c #574B38",
"M  c #545632",
"N  c #51503C",
"B  c #63492E",
"V  c #744922",
"C  c #7C4F28",
"Z  c #7F532B",
"A  c #644F39",
"S  c #665037",
"D  c #69523A",
"F  c #765331",
"G  c #7A5633",
"H  c #426329",
"J  c #46692B",
"K  c #496E2D",
"L  c #4D732E",
"P  c #516737",
"I  c #4E7630",
"U  c #4F7830",
"Y  c #527C31",
"T  c #5E5F44",
"R  c #735A42",
"E  c #636248",
"W  c #756343",
"Q  c #796745",
"!  c #76654D",
"~  c #7C644A",
"^  c #657445",
"/  c #82552E",
"(  c #845932",
")  c #885B33",
"_  c #845E39",
"`  c #8C6038",
"'  c #91653D",
"]  c #8D6742",
"[  c #9D724B",
"{  c #897E50",
"}  c #847B5E",
"|  c #9F7751",
" . c #A0734B",
".. c #A57A52",
"X. c #568234",
"o. c #598735",
"O. c #5B8A36",
"+. c #5E863A",
"@. c #5D8D38",
"#. c #5F9238",
"$. c #61953A",
"%. c #669C3C",
"&. c #6BA43E",
"*. c #6E9446",
"=. c #6DA740",
"-. c #6FAA41",
";. c #70AD41",
":. c #74B343",
">. c #77B845",
",. c #819E54",
"<. c #AF845B",
"1. c #B1865E",
"2. c #83A056",
"3. c #8FB45C",
"4. c #8B8464",
"5. c #94886B",
"6. c #999268",
"7. c #AC8661",
"8. c #B88C63",
"9. c #BD9168",
"0. c #A09A71",
"q. c #AF9C7F",
"w. c #9DA06E",
"e. c #97B164",
"r. c #A5AD72",
"t. c #ADBA76",
"y. c #CAA17B",
"u. c #C4A383",
"i. c #D4AE8A",
"p. c #C4BA8C",
"a. c #CDAF91",
"s. c #D1BF96",
"d. c #D5BA9B",
"f. c #E2BF9E",
"g. c #E3C7A4",
"h. c #E6C5A6",
"j. c #E5C2A2",
"k. c #E4C9A5",
"l. c #ECCBAC",
"z. c #EAC9A9",
/* pixels */
"                                                                                                    ",
"                                                                                                    ",
"                                                                                                    ",
"                                      > > > > > > > > > > > >                                       ",
"                                    a j k H H H H H H H H k j s                                     ",
"                                  > f o.&.>.>.>.>.>.>.>.>.=.@.j >                                   ",
"                                > d J &.:.>.>.>.>.>.>.>.>.:.=.#.L <                                 ",
"                              < 1 j Y :.>.>.>.>.>.>.>.>.>.>.>.>.%.f a                               ",
"                            > a k k Y :.>.>.>.>.>.>.>.>.>.>.>.>.-.O.k >                             ",
"                > > > > > > > a k k L %.;.>.>.>.>.>.>.>.>.>.>.>.&.L d #                             ",
"                > a f f f f f h k k J X.%.:.>.>.>.>.>.>.>.>.>.:.%.H > .                             ",
"                > K %.%.%.%.%.o.k k v J X.%.:.>.>.>.>.>.>.>.>.&.o.H > .                             ",
"                  H X.-.;.&.&.%.O.O.Y v J X.%.$.o.K J J L L L b f 1 1 ,                             ",
"                    f #.%.#.O.$.;.:.%.K H J o.U k # . . = < < # . . 1 c                             ",
"                      h Y &.Y K L O.%.&.Y J o.o.L = . . 1 j j = . . : y 7                           ",
"                      > k Y L J k J L X.U I O.@.+.E n > k L Y a O O m ~ z t                         ",
"                          # K Y k 1 > > H @.@.@.*.s.0.H Y %.>.H > > 5.a.D t                         ",
"                            , 1 1 < > > H $.&.e.p.g.0.H Y %.>.H > > 5.a.D t                         ",
"                            . O $ = > > H $.&.t.l.l.0.v L O.%.H g T q.a.D t                         ",
"                                . $ > > H @.@.r.l.l.0.k v H H k ^ d.h.a.D t                         ",
"                                  O # # a J o.r.l.l.0.v K U U o.,.g.l.a.D t                         ",
"                                  . . . # 1 K w.z.f.6.k K I I $.3.k.j.u.S t                         ",
"                                . . . . . # < 4.h.y.{ k d 1 1 L 2.g.i.7.B t                         ",
"                              a j j f 1 # . # N } W M a = # # f P } ! A p                           ",
"                            1 k @.@.Y J 1 # # > a a a a = $ = 1 1 = O .                             ",
"                          1 K X.@.@.O.o.Y I I O.%.%.%.%.X.X.%.%.Y # . .                             ",
"                          1 I @.@.@.@.@.X.X.%.-.>.>.>.>.&.-.>.>.@.O . .                             ",
"                          1 L O.@.@.O.O.L L ;.>.>.>.>.>.>.>.>.>.@.O . .                             ",
"                          $ k Y @.@.X.K H L ;.>.>.>.>.>.>.>.>.>.@.O . .                             ",
"                          O 1 f b J H f f H %.;.>.>.>.>.;.;.>.>.@.O . .                             ",
"                            . . . $ > > > f X.&.>.>.>.>.%.%.>.>.@.O                                 ",
"                                  O O O O = f J Y Y Y Y L L Y H f                                   ",
"                                  . . . . o $ 1 j j j j j f f = .                                   ",
"                                      . . . . $ < < < < < $ o                                       ",
"                                      . : p p z x W Q Q Q W R u                                     ",
"                                      X y F F G _ ..1.1.<.<.1.i .                                   ",
"                                  . + & 4 6 6 e V C ( ] ( ( ] r .                                   ",
"                                  . + 2 3 3 3 9 l l ( [ Z / | B ; X                                 ",
"                                  X + 2 3 3 3 9 l l ' 8.) ` 9.` q X                                 ",
"                                . @ & 2 3 3 3 9 l l ' 8.) ` 9.` q X                                 ",
"                                . % 3 3 3 3 3 9 l l ( [ Z /  ./ w @ X                               ",
"                                . % 3 3 3 3 3 9 l l l l l l l l e 3 @ .                             ",
"                                . X + + + + + @ - - - - - - - - * + X .                             ",
"                                . X + + + + + X . . . . . X + + + + X .                             ",
"                                . - 2 2 2 2 2 @ .       . + 2 2 2 2 + .                             ",
"                              + @ & 3 3 3 & @ +         . + 3 3 3 3 @ .                             ",
"                            . + 3 3 3 3 & - X           . + 3 3 3 3 @ X                             ",
"                            . + 3 3 3 3 @ X             . + 3 3 3 3 2 % X                           ",
"                          X ; 5 9 9 9 9 - .             . + 3 8 9 9 9 8 4 -                         ",
"                          X q l l l l l ; .             . + 3 0 l l l l l 4 .                       "
};
