/* XPM */
static char *_845394566c94e1df42c4547ac9126a8cDxqVZJce4Cmp6tJ[] = {
/* columns rows colors chars-per-pixel */
"50 50 144 2 ",
"   c None",
".  c black",
"X  c #0D0807",
"o  c #140D0C",
"O  c #19100F",
"+  c #151515",
"@  c #1C1211",
"#  c #1C1817",
"$  c #1D1C1C",
"%  c #231615",
"&  c #201C1C",
"*  c #2C1C1A",
"=  c #30211F",
"-  c #232323",
";  c #2A2A2A",
":  c #332423",
">  c #3A2524",
",  c #3F2826",
"<  c #372A29",
"1  c #3E2F2D",
"2  c #333333",
"3  c #3B3B3B",
"4  c #402A27",
"5  c #462D2A",
"6  c #492F2C",
"7  c #413635",
"8  c #4E3533",
"9  c #403837",
"0  c #423B3A",
"q  c #513734",
"w  c #543936",
"e  c #5B3B37",
"r  c #543F3D",
"t  c #5C3D3A",
"y  c #603F3C",
"u  c #49403F",
"i  c #59413E",
"p  c #64413E",
"a  c #69433F",
"s  c #454444",
"d  c #4D4D4D",
"f  c #584443",
"g  c #5B4847",
"h  c #5E4D4B",
"j  c #545454",
"k  c #5C5C5C",
"l  c #644744",
"z  c #6B4541",
"x  c #664A46",
"c  c #694B47",
"v  c #6B4D4A",
"b  c #704844",
"n  c #734E4A",
"m  c #6D514E",
"M  c #74524E",
"N  c #655452",
"B  c #6D5350",
"V  c #665958",
"C  c #6B5F5D",
"Z  c #765451",
"A  c #745956",
"S  c #795956",
"D  c #735E5B",
"F  c #7A5D59",
"G  c #64605F",
"H  c #74605E",
"J  c #656565",
"K  c #6D6463",
"L  c #6F6867",
"P  c #6D6D6D",
"I  c #756563",
"U  c #7B6462",
"Y  c #756867",
"T  c #796967",
"R  c #766E6D",
"E  c #7E6C6A",
"W  c #7F706E",
"Q  c #747474",
"!  c #7B7574",
"~  c #7D7A7A",
"^  c #806563",
"/  c #826866",
"(  c #836C6A",
")  c #83716F",
"_  c #837472",
"`  c #8A7674",
"'  c #867876",
"]  c #827C7B",
"[  c #8B7C7B",
"{  c #82807F",
"}  c #8D807E",
"|  c #838282",
" . c #8A8686",
".. c #8E8988",
"X. c gray55",
"o. c #8F8C8C",
"O. c #8E8E8E",
"+. c gray56",
"@. c #898989",
"#. c #908180",
"$. c #918785",
"%. c #928483",
"&. c #928887",
"*. c #918A89",
"=. c #918B8B",
"-. c #938B8A",
";. c #948B8A",
":. c #948C8B",
">. c #908D8D",
",. c #918F8F",
"<. c #958E8D",
"1. c #948F8E",
"2. c #948C8B",
"3. c #96908F",
"4. c #97908F",
"5. c #909090",
"6. c gray57",
"7. c #929292",
"8. c #939393",
"9. c #979190",
"0. c gray58",
"q. c gray59",
"w. c #989595",
"e. c #9B9695",
"r. c #999696",
"t. c #999797",
"y. c #9A9393",
"u. c #989898",
"i. c gray60",
"p. c #9B9998",
"a. c #9C9998",
"s. c #9D9D9D",
"d. c #9F9D9D",
"f. c #9D9A9A",
"g. c #A09E9D",
"h. c #A09E9E",
"j. c #A1A09F",
"k. c #A0A0A0",
"l. c #A1A0A0",
"z. c gray63",
"x. c #A2A2A1",
"c. c #A2A2A2",
"v. c #A4A4A4",
"b. c #A4A4A4",
/* pixels */
"                          . . . . . . . . . . . . . . . . . . . . . . . . .                         ",
"                          . . . . . . . . . . . . . . . . . . . . . . . . .                         ",
"                        o O @ @ @ @ @ @ @ @ @ @ @ @ @ @ @ @ @ @ @ @ @ @ O o                         ",
"                . . . X % > , , , , , , , , , , , , , , , , , , , , , , > * o . . . .               ",
"            . . . . . X * w a a a a a a a a a a a a a a a a a a a a a a e , o . . . . .             ",
"            - ; ; & @ % , t b b b b b b b b b b b b b b b b b b b b b b p 6 * @ # $ - $             ",
"        . - 3 j j u 1 , q p b b b b b b b b b b b b b b b b b b b b b b a w 4 < 7 s d 3 - .         ",
"        . ; j ~ ] I l e y z b b b b b b b b b b b b b b b b b b b b b b z p e i N L Q d ; . .       ",
"      # $ s J 8.9._ B p z z b b b b b b b b b b b b b b b b b b b b b b z z p x H ! | k 3 # +       ",
"    - 3 d J | i.9._ B p z z b b b b b b b b b b b b b b b b b b b b b b z z p x H ! | P k s 2 -     ",
". . ; j ~ O.q.k.9._ B p z z b b b b b b b b b b b b b b b b b b b b b b z z p x H ! | ~ Q P d ; . . ",
". . ; k i.v.v.v.9._ B p z z b b b b b b b b b b b b b b b b b b b b b b z z p x H ! @.@.@.@.j ; . . ",
". . ; k i.v.v.v.9._ B p z z b b b b b b b b b b b b b b b b b b b b b b z z p x H ' @.@.@.@.j ; . . ",
". . ; k i.v.v.v.9._ B p z z b b b b b b b b b b b b b b b b b b b b b b z z p x H ' @.@.@.@.j ; . . ",
". . ; k q.k.k.k.<.) m p z z b b b b b b b b b b b b b b b b b b b b b b z z p c H ] O.O.O.O.j ; . . ",
". . ; j O.i.i.i...E m p z z b b b b b b b b b b b b b b b b b b b b b b z z p c U [ q.q.q.q.k ; . . ",
". . - j | O.O.O.| T v p z z b b b b b b b b b b b b b b b b b b b b b b z z p v E ..d.d.d.d.J 2 . . ",
". . - d | @.@.@.] I v p z z b b b b b b b b b b b b b b b b b b b b b b z z p v E =.v.v.v.v.J 2 . . ",
". . - d | @.@.@.] I v p z z b b b b b b b b b b b b b b b b b b b b b b z z p v E =.v.v.v.v.J 2 . . ",
". . - d | @.@.@.] I v p z z b b b b b b b b b b b b b b b b b b b b b b z z p v E =.v.v.v.v.J 2 . . ",
". . - d | @.@.@.] I v p z z b b b b b b b b b b b b b b b b b b b b b b z z p v E =.v.v.v.v.J 2 . . ",
". . - d | @.@.@.] I v p p z z z z b b b b b b b b b b b b b b b b z z z z p p v E =.v.v.v.v.J 2 . . ",
". . - d | @.@.@.] I v p p p a z z b b b b b b b b b b b b b b b b z z z p p p v E =.v.v.v.v.J 2 . . ",
". . - d | @.@.@.] I v p p p p z z b b b b b b b b b b b b b b b b z z p p p p v E =.v.v.v.v.J 2 . . ",
". . ; j @.8.8.8.| T m p p p p p z z z z z M S ^ ^ ^ ^ F M z z z z z p p p p p v E =.v.v.v.v.J 2 . . ",
". . ; j 8.i.i.i...E m p p p p p p p p p p S ( #.#.#.#.) F z p p p p p p p p p v E =.v.v.v.v.J 2 . . ",
". . ; k q.k.k.k.3.) m p p p p p p p p p p U } h.h.h.h.$.E l p p p p p p p p p v E =.v.v.v.v.J 2 . . ",
". . ; k 8.d.d.d.<.' H B B B B B B B B A A _ :.v.v.v.v.9.[ D A B B B B B B B B D _ =.d.d.d.d.J 2 . . ",
". . ; j @.q.q.q.O.] ! T T T T T T T E _ ' =.t.v.v.v.v.a.;.[ _ W T T T T T T T E ] ..q.q.q.q.k ; . . ",
". . - d | @.@.@.@. .| | | | | | |  .,.t.d.j.k.v.v.v.v.k.k.h.t.,. .| | | | | | |  .@.@.@.@.@.j ; . . ",
". . - d | @.@.@.| ] ! ! ! ! ! ! ' ] ..t.v.q.| ~ ~ ~ ~ | 8.k.i.=.] ' ! ! ! ! ! ! ] | @.@.@.@.j ; . . ",
". . - d | @.@.@.{ ! K V V V V C H E [ 3.v.| J s s s s k ~ d.y.} ( I D V V V V C R ] @.@.@.@.j ; . . ",
". . - d | @.@.@.~ K h r r r i l v Z ( ;.v.P s + + + + 3 J i.<.` S v l f r r r g C ! @.@.@.@.j ; . . ",
". . - d | @.@.@.~ C f 8 8 q w y z n U [ y.L s $ $ $ $ 3 G =.} / M z p e w q 8 r V ! @.@.@.@.j ; . . ",
". . - d | @.@.@.~ C f 8 w t y p z b S / ` Y V j j j j V Y _ ( F n z p p t w q r V ! @.@.@.@.j ; . . ",
". . - d | @.@.@.~ C f q e p z z z b n Z S E ' | | | | ] E F Z n b z z z p t q r V ! @.@.@.@.j ; . . ",
". . - d | @.@.@.~ C f q t z b b b b b b b ^ [ a.a.a.a.%.( n b b b b b b z y w r V ! @.@.@.@.j ; . . ",
". . - d | @.@.@.~ C f q t z b b b b b b b S / ` ` ` ` ( F b b b b b b b z y w r V ! @.@.@.@.j ; . . ",
". . - d | @.@.@.~ C f q t z b b b b b b b n Z S S S S Z n b b b b b b b z y w r V ! @.@.@.@.j ; . . ",
". . - d | @.@.@.~ C f q t z b b b b b b b b b b b b b b b b b b b b b b z y w r V ! @.@.@.@.j ; . . ",
". . - d | @.@.@.~ C f q t z b b b b b b b b b b b b b b b b b b b b b b z y w r V ! @.@.@.@.j ; . . ",
". . - d | @.@.@.~ C f q t z b b b b b b b b b b b b b b b b b b b b b b z y w r V ! @.@.@.@.j ; . . ",
". . - d | @.@.@.~ C f q t p z z z b b b b b b b b b b b b b b b b z z z z t w r V ! @.@.@.@.j ; . . ",
". . - d | @.@.@.~ C f 8 w t p z z b b b b b b b b b b b b b b b b z z p y e q r V ! @.@.@.@.j ; . . ",
". . - d | @.@.@.~ C f 8 q w t p z b b b b b b b b b b b b b b b b z p t w w 8 r V ! @.@.@.@.j ; . . ",
". . - d | @.@.@.~ C f 8 8 8 q t p b b b b b b b b b b b b b b b b z t w 8 8 8 r V ! @.@.@.@.j ; . . ",
". . $ 3 j j j j d 0 < = = = : > 4 5 5 5 5 5 5 5 5 5 5 5 5 5 5 5 5 4 > : = = = : 9 d j j j j 3 - . . ",
"      - ; ; ; ; ; & @ O O O @ @ % % % % % % % % % % % % % % % % % % @ @ O O O @ & ; ; ; ; ; - #     ",
"      . . . . . . . . . . . . . . . . . . . . . . . . . . . . . . . . . . . . . . . . . . . .       ",
"      . . . . . . . . . . . . . . . . . . . . . . . . . . . . . . . . . . . . . . . . . . . .       "
};
