/* XPM */
static char *_53eda5c97ca44dfd3a75c8310c75f8bxZC4XZR76EydmHxZ[] = {
/* columns rows colors chars-per-pixel */
"50 50 5 1 ",
"  c #4C3A42",
". c #4E3C43",
"X c #4E3C44",
"o c #503F46",
"O c #514047",
/* pixels */
"OOOOOOOOOOOoX      XOOOOOOOX.     XoOOOOOOOOOOOOOO",
"OOOOOOOOOOOoX      XOOOOOOOX.     XoOOOOOOOOOOOOOO",
"OOOOOOOOOOOoX     XXOOOOOOOX.     XoOOOOOOOOOOOOOO",
"OOOOOOOOOOOooXXXXXXoOOOOOOOX.     XoOOOOOOOOOOOOOO",
"OOOOOOOOOOOoooooooooOOOOOOOX.     XoOOOOOOOOOOOOOO",
"OOOOOOOOOOOOOOOOOOOOOOOOOOOoX     XoOOOOOOOOOOOOOO",
"OOOOOOOOOOOOOOOOOOOOOOOOOOOoXXXXXXXoOOOOOOOOOOOOOO",
"OOOOOOOOOOOOOOOOOOOOOOOOOOOoooooooooOOOOOOOOOOOOOO",
"OOOOOOOOOOOOOOOOOOOOOOOOOOOOOOOOOOOOOOOOOOOOOOOOOO",
"OOOOOOOOOOOOOOOOOOOOOOOOOOOOOOOOOOOOOOOOOOOOOOOOOO",
"OOOOOOOOOOOOOOOOOOOOOOOOOOOOOOOOOOOOOOOOOOOOOOOOOO",
"oooooOOOOOOOOOOOOOOOOOOOOOOooooooOOOOOOOOOOOOOOOOO",
"XXXXoOOOOOOOOOOOOOOOOOOOOOOoXXXXoOOOOOOOOOOOOOOOOO",
"   XoOOOOOOOOOOOOOOOOOOOOOOXX  XoOOOOOOOOOOOOOOOOO",
"   XoOOOOOOOOOOOOOOOOOOOOOOXX  XoOOOOOOOOOOOOOOOOO",
"   XoOOOOOOOOOOOOOOOOOOOOOOoX.XXoOOOOOOOOOOOOOOOOO",
"   XoOOOOOOOOOOOOOOOOOOOOOOooXoooOOOOOOOOOOOOOOOOO",
"   XoOOOOOOOOOOOOOOOOOOOOOOOOOOOOOOOOOOOOOOOOOOOOO",
"  XXoOOOOOOOOOOOOOOOOOOOOOOOOOOOOOOOOOOOOOOOOOOOOO",
"XXXooOOOOOOOOOOOOOOOOOOOOOOOOOOOOOOOOOOOOOOOOOOOOO",
"OOOOOOOOOOOOOOOOOOOOOOOOOOOOOOOOOOOOOOOOOOOOOOOOOO",
"OOOOOOOOOOOOOOOOOOOOOOOOOOOOOOOOOOOOOOOooXXXXXXoOO",
"OOOOOOOOOOOOOOOOOOOOOOOOOOOOOOOOOOOOOOOoX.    XXOO",
"OOOOOOOOOOOOOOOOOOOOOOOOOOOOOOOOOOOOOOOoX      XOO",
"OOooXXXXXooOOOOOOOOOOOOOOOOOOOOOOOOOOOOoX      XOO",
"OOoX    .XoOOOOOOOOOOOOOOOOOOOOOOOOOOOOoX      XOO",
"OOX.     XoOOOOOOOOOOOOOOOOOOOOOOOOOOOOoX      XOO",
"OOX.     XoooXXXXXooOOOOOOOOOOOOOOOOOOOoX.    XXOO",
"OOX.     XooXX....XoOOOOOOOOOOOOOOOOOOOooXXXXXXoOO",
"OOX.     XooX      XOOOOOOOOOOOOOOOOOOOoooooooooOO",
"OOoX     XooX      XOOOOOOOOOOOOOOOOOOOOOOOOOOOOOO",
"OOoXXXXXXXooX      XOOOOOOOOOOOOOOOOOOOOOOOOOOOOOO",
"OOooooooooooX      XOOOOOOOOOOOOOOOOOOOOOOOOOOOOOO",
"OOOOOOOOOOOoX     .XOOOOOOOOOOOOOOOOOOOOOOOOOOOOOO",
"OOOOOOOOOOOoXXXXXXXoOOOOOOOOOOOOOOOOOOOOOOOOOOOOOO",
"OOOOOOOOOOOoooooooooOOOOOOOOOOOOOOOOOOOOOOOOOOOOOO",
"OOOOOoooooooooOOOOOOOOOOOOOOOOOOOOOOOOOOOOOOOOOOOO",
"OOOOOoXXXXXXXoOOOOOOOOOOOOOOOOOOOOOOOOOOOOOOOOOOOO",
"OOOOOXX     XoOOOOOOOOOOOOOOOOOOOOOOOOOOOOOOOOOOOO",
"OOOOOX.     .oOOOOOOOOOOOOOOOOooooooOOOoooooooooOO",
"OOOOOX.     .oOOOOOOOOOOOOOOOOoXXXXoOOOooXXXXXXoOO",
"OOOOOX.     .oOOOOOOOOOOOOOOOOoX  XoOOOoX.    XXOO",
"OOOOOX.     .oOOOOOOOOOOOOOOOOX.  XoOOOoX      XOO",
"OOOOOoX.   .XoOOOOOOOOOOOOOOOOoX..XoOOOoX      XOO",
"OOOOOooXXXXXooOOOOOOOOOOOOOOOOooXXooOOOoX      XOO",
"OOOOOOOOOOOOOOOOOOOOOOOOOOOOOOOOOOOOOOOoX      XOO",
"OOOOOOOOOOOOOOOOOOOOOOOOOOOOOOOOOOOOOOOoXX    XoOO",
"OOOOOOOOOOOOOOOOOOOOOOOOOOOOOOOOOOOOOOOooXXXXXooOO",
"OOOOOOOOOOOOOOOOOOOOOOOOOOOOOOOOOOOOOOOOOOOOOOOOOO",
"OOOOOOOOOOOOOOOOOOOOOOOOOOOOOOOOOOOOOOOOOOOOOOOOOO"
};
