/* XPM */
static char *_b192b8bd73e4a48c0f2043b8966b31dj74Ez0KDDTzs5rAd[] = {
/* columns rows colors chars-per-pixel */
"50 50 131 2 ",
"   c None",
".  c #040406",
"X  c #070807",
"o  c #090C07",
"O  c #060608",
"+  c #070808",
"@  c #0A0C0A",
"#  c #120D0C",
"$  c #180F0E",
"%  c #0E120C",
"&  c #12150E",
"*  c #1A100E",
"=  c #13190F",
"-  c #1D1310",
";  c #161D10",
":  c #1C1911",
">  c #221612",
",  c #2A1B15",
"<  c #301E17",
"1  c #172011",
"2  c #1A2312",
"3  c #1E2915",
"4  c #232515",
"5  c #2A2116",
"6  c #212D16",
"7  c #352219",
"8  c #3C251C",
"9  c #243017",
"0  c #253319",
"q  c #28371B",
"w  c #2B3C1C",
"e  c #34311C",
"r  c #363A1F",
"t  c #3E3D21",
"y  c #40271D",
"u  c #43291E",
"i  c #462B20",
"p  c #4A2D21",
"a  c #4E3524",
"s  c #473C23",
"d  c #493823",
"f  c #543325",
"g  c #5B3727",
"h  c #523F27",
"j  c #5F3929",
"k  c #643D2B",
"l  c #683F2C",
"z  c #2F411E",
"x  c #31431F",
"c  c #334620",
"v  c #3D4323",
"b  c #364B22",
"n  c #394E23",
"m  c #3B5225",
"M  c #3F5827",
"N  c #3E5728",
"B  c #3F5828",
"V  c #404623",
"C  c #454D26",
"Z  c #494B26",
"A  c #4C4E28",
"S  c #504727",
"D  c #554529",
"F  c #5B4429",
"G  c #554A2A",
"H  c #5C4C2C",
"J  c #425327",
"K  c #455428",
"L  c #4A5429",
"P  c #425B29",
"I  c #4B5D2C",
"U  c #53552C",
"Y  c #5B512D",
"T  c #535C2E",
"R  c #5A5B2F",
"E  c #5E5E31",
"W  c #63412B",
"Q  c #6D462F",
"!  c #6E422E",
"~  c #604E2D",
"^  c #634D2E",
"/  c #634E2E",
"(  c #694D2F",
")  c #6A4D30",
"_  c #6F4F32",
"`  c #724430",
"'  c #734530",
"]  c #744531",
"[  c #754631",
"{  c #774732",
"}  c #724B31",
"|  c #754932",
" . c #774832",
".. c #724C32",
"X. c #724E32",
"o. c #754C32",
"O. c #784832",
"+. c #794933",
"@. c #7A4933",
"#. c #7B4A33",
"$. c #784C33",
"%. c #7B4A34",
"&. c #7C4B34",
"*. c #7D4B34",
"=. c #7A4C34",
"-. c #7E4C35",
";. c #675030",
":. c #615730",
">. c #685130",
",. c #6F5232",
"<. c #6D5432",
"1. c #6E5533",
"2. c #615930",
"3. c #44602B",
"4. c #45612B",
"5. c #46622B",
"6. c #47622C",
"7. c #46632C",
"8. c #47642C",
"9. c #45622B",
"0. c #4B612D",
"q. c #49662D",
"w. c #49672E",
"e. c #4C662E",
"r. c #4D662E",
"t. c #4D662F",
"y. c #4E672F",
"u. c #49662D",
"i. c #4A682E",
"p. c #4B692F",
"a. c #51612E",
/* pixels */
"                                                                                                    ",
"                                                                                                    ",
"                                                                                                    ",
"                                        . . . . . . . . . . . . .                                   ",
"                                      O . . . . . . . . . . . . . O                                 ",
"                                    # - - > > > > > > > > > > > - - *                               ",
"                                  @ > < 8 u u p p p p p p p i u 8 7 , #                             ",
"                                O @ , u g k l ! ! ! ! ! ! ! ! k j p 7 * O                           ",
"                              # # - 7 f ! ' +.-.-.-.-.-.-.-.+.' ! g u , * #                         ",
"                            # > < 8 p k ' { +.-.-.-.-.-.-.-.+. .{ l f u 7 , #                       ",
"              . . . . . . . # , u f k ! +.+.&.-.-.-.-.-.-.-.&.%.+.' l g p 7 $ . . . . . . . O       ",
"            . O O @ @ @ % % : 7 a W Q  .-.-.-.-.-.-.-.-.-.-.-.-.-.+.{ ! j u : % % % @ @ @ O O       ",
"            . O @ = 2 6 9 q w v A Y ;...-.-.-.-.-.-.-.-.-.-.-.-.-.%.+.{ ! h r q 0 6 3 ; % O O       ",
"            . O % 2 q x b m P P I T 2.,.-.-.-.-.-.-.-.-.-.-.-.-.-.&.%.+.} H L m n c w 6 = O O       ",
"              O % 3 w b m 3.q.q.i.y.E 1.-.=.$.o.o.o.o.o.o.o.o.o.o.o.o.o._ :.a.3.M n x 9 = O .       ",
"                % 1 6 q x m P 7.q.y.E 1.-...( ~ ~ ~ ~ ~ ~ ~ ~ ~ ~ ~ ~ ~ Y U I M b w 6 2 = .         ",
"                  & & 1 0 b M P 8.y.E 1.-.) H A A A A A A A A A A A A A L K J n w 3 = &             ",
"                    . @ 3 x m P 7.y.E 1.&.~ A m m m m m m m m m m m m m m n b x 6 = O .             ",
"                    . @ 4 t A L 0.y.R >.{ ~ A m m m m m m m m m m m m m b x w 9 2 & .               ",
"                    . # 5 d G U I y.R ~ ! F Z m m m m m m m m m m m m m b w 3 = =                   ",
"                    . # < f W Y T y.T H l D Z m m m m m m m m m m m m m c 9 % O .                   ",
"                    . # < f W G L P L G D A K P n x q w b m P P P m c w 6 1 @ O .                   ",
"                    . # < f W G L m J C Z K P 3.b q 1 6 x P 3.3.3.m w 3 = % @ O .                   ",
"                    . # < f W D C m m m m P 3.i.b 3 @ ; w 7.i.i.i.m q = O O O O .                   ",
"                    . # < f k F S Z C n m P 3.i.m w 3 q b q.i.i.i.P c 0 1 & @ O .                   ",
"                    . # < f k W F D Z C m P 3.i.P m c n B q.i.i.i.7.m b w 3 % O .                   ",
"                    . # < f k k k W D Z m P 3.i.q.q.7.8.q.i.i.i.i.q.q.7.m w & O .                   ",
"                    . # , u f g k k D Z m P 3.i.i.i.i.i.i.i.i.i.i.i.i.i.P w = O .                   ",
"                      # > , 7 p g k D Z m P 3.i.p.i.i.i.i.i.i.i.i.i.i.i.P w = O .                   ",
"                          @ * 7 f k D Z m P 3.i.i.i.i.i.i.i.i.i.i.i.i.i.P w = O .                   ",
"                          . # , y a s V m P 3.i.p.p.i.i.i.i.i.i.i.i.i.i.P w = O .                   ",
"                            # > , 7 e c m P 3.i.p.p.i.i.i.i.i.i.i.i.i.i.P w = O .                   ",
"                              # # * 4 w m P 3.i.i.i.i.i.i.i.i.i.i.i.i.i.P w = O .                   ",
"                                O @ 1 w m M P 8.3.P B m m m m m m B P 3.B w & O .                   ",
"                                O @ 1 w m m M P m c w q q q q q w w b m m q & O .                   ",
"                                O @ 1 w m m m m z 6 ; = = = = = = 2 w b b 0 & O .                   ",
"                                O @ 1 w m b b c 0 1 @ . . . + @ @ = 6 w z 6 % . .                   ",
"                              . O @ 1 w m x q 6 1 & . . . . @ = 3 6 6 6 3 ; @ .                     ",
"                              . . @ 1 w m w 3 % % o . . . . & 3 w w 6 ; % @ .                       ",
"                              . . @ ; 0 c 6 = O . .   . . . & 3 w w 3 % . .                         ",
"                              . . + & 1 9 1 & . .     . . . % ; 3 3 ; @ . .                         ",
"                              . . O @ % = % @ .       . . . @ % & & % X                             ",
"                              . . . . . . . .         . . O . . . . .                               ",
"                              . . . . . . .             . . . . . . .                               ",
"                                . . . . .                 . . . . .                                 ",
"                                                                                                    ",
"                                                                                                    ",
"                                                                                                    ",
"                                                                                                    ",
"                                                                                                    "
};
