/* XPM */
static char *result[] = {
/* columns rows colors chars-per-pixel */
"50 50 96 2 ",
"   c #000000",
".  c #0B0A03",
"X  c #0E0E0E",
"o  c #141306",
"O  c #1E1D0A",
"+  c #141414",
"@  c #181812",
"#  c #1B1B1B",
"$  c #27260D",
"%  c #28260D",
"&  c #2C2B0E",
"*  c #292816",
"=  c #2B2B1A",
"-  c #323010",
";  c #3C3A14",
":  c #222222",
">  c #2C2C2C",
",  c #323122",
"<  c #393723",
"1  c #323232",
"2  c #3C3C3C",
"3  c #413F15",
"4  c #403F32",
"5  c #454317",
"6  c #42401E",
"7  c #484618",
"8  c #4D4A19",
"9  c #504D1B",
"0  c #55521D",
"q  c #59561E",
"w  c #5E591F",
"e  c #434224",
"r  c #49482E",
"t  c #514E22",
"y  c #575526",
"u  c #5D5A22",
"i  c #54522D",
"p  c #444331",
"a  c #535135",
"s  c #51503A",
"d  c #625F21",
"f  c #646021",
"g  c #6A6523",
"h  c #6E6A25",
"j  c #64602A",
"k  c #726E26",
"l  c #747026",
"z  c #76722A",
"x  c #797528",
"c  c #7E7A2A",
"v  c #636035",
"b  c #62603C",
"n  c #414141",
"m  c #4E4D43",
"M  c #4E4E4E",
"N  c #555444",
"B  c #595842",
"V  c #55544B",
"C  c #555555",
"Z  c #5D5D5D",
"A  c #605F55",
"S  c #626040",
"D  c #616048",
"F  c #696756",
"G  c #63625B",
"H  c #636363",
"J  c #6E6E6E",
"K  c #706F60",
"L  c #70706B",
"P  c #757574",
"I  c #7C7C7C",
"U  c #827D2B",
"Y  c #807F73",
"T  c #86812D",
"R  c #8C872F",
"E  c #8D892F",
"W  c #8F8930",
"Q  c #979132",
"!  c #A09B36",
"~  c #848484",
"^  c #8C8C8C",
"/  c #959595",
"(  c #9F9F9F",
")  c #A6A6A5",
"_  c #AEAEAE",
"`  c #B3B3B3",
"'  c #BEBEBE",
"]  c #C3C3C3",
"[  c #CBCBCB",
"{  c #D2D2D2",
"}  c #DDDDDD",
"|  c #E3E3E3",
" . c #EFEFEF",
".. c gray96",
"X. c white",
"o. c None",
/* pixels */
"o.o.o.o.o.o.o.o.o.o.o.o.o.o.o.o.o.o.o.o.o.o.o.o.o.o.o.o.o.o.o.o.o.o.o.o.o.o.o.o.o.o.o.o.o.o.o.o.o.o.",
"o.o.o.o.o.o.o.o.o.o.o.o.o.o.o.o.o.o.o.o.o.o.o.o.o.o.o.o.o.o.o.o.o.o.o.o.o.o.o.o.o.o.o.o.o.o.o.o.o.o.",
"o.o.o.o.o.o.o.o.o.o.o.o.o.o.o.o.o.o.o.o.o.o.o.o.o.o.o.o.o.o.o.o.o.o.o.o.o.o.o.o.o.o.o.o.o.o.o.o.o.o.",
"o.o.o.o.o.o.o.o.o.o.o.o.o.o.o.o.o.o.o.o.o.o.o.o.o.o.o.o.o.o.o.o.o.o.o.o.o.o.o.o.o.o.o.o.o.o.o.o.o.o.",
"o.o.o.o.o.o.o.o.o.o.o.o.o.o.o.o.o.o.o.o.o.o.o.o.o.o.o.o.o.o.o.o.o.o.o.o.o.o.o.o.o.o.o.o.o.o.o.o.o.o.",
"o.o.o.o.o.o.o.o.o.o.o.o.o.o.o.o.o.o.o.o.o.o.o.o.o.o.o.o.o.o.o.o.o.o.o.o.o.o.o.o.o.o.o.o.o.o.o.o.o.o.",
"o.o.o.o.o.o.o.o.o.o.o.o.o.o.o.o.o.o.o.o.o.o.o.o.o.o.o.o.o.o.o.o.o.o.o.o.o.o.o.o.o.o.o.o.o.o.o.o.o.o.",
"o.o.o.o.o.o.o.o.o.o.o.o.o.o.o.o.o.o.o.o.o.o.o.o.o.o.o.o.o.o.o.o.o.o.o.o.o.o.o.o.o.o.o.o.o.o.o.o.o.o.",
"o.o.o.o.o.o.o.o.o.o.o.o.o.o.o.o.o.o.o.o.o.o.o.o.o.o.o.o.o.o.o.o.o.o.o.o.o.o.o.o.o.o.o.o.o.o.o.o.o.o.",
"o.o.o.o.o.o.o.o.o.o.o.o.o.o.o.o.o.o.o.o.o.o.o.o.o.o.o.o.o.o.o.o.o.o.o.o.o.o.o.o.o.o.o.o.o.o.o.o.o.o.",
"o.o.o.o.o.o.o.o.o.o.o.o.o.o.o.o.o.o.o.o.o.o.o.o.o.o.o.o.o.o.o.o.o.o.o.o.o.o.o.o.o.o.o.o.o.o.o.o.o.o.",
"o.o.o.o.o.o.o.o.o.o.o.o.o.o.o.o.o.o.o.o.o.o.o.o.o.o.o.o.o.o.o.o.o.o.o.o.o.o.o.o.o.o.o.o.o.o.o.o.o.o.",
"o.o.o.o.o.o.o.o.o.o.o.o.o.o.o.o.o.o.o.o.o.o.o.o.o.o.o.o.o.o.o.o.o.o.o.o.o.o.o.o.o.o.o.o.o.o.o.o.o.o.",
"o.o.o.o.o.o.o.o.o.o.o.o.o.! ! ! ! ! ! o.o.o.o.o.o.o.o.o.o.o.o.o.o.o.o.o.o.o.o.o.o.o.o.o.o.o.o.o.o.o.",
"o.o.o.o.o.o.o.o.o.o.o.o.E R R E R R W o.o.o.o.o.o.o.o.o.o.o.o.o.o.o.o.o.o.o.o.o.o.o.o.o.o.o.o.o.o.o.",
"o.o.o.o.o.o.o.o.o.o.o.E l d q q q w g x o.o.o.o.o.o.o.o.o.o.o.o.o.o.o.o.o.o.o.o.o.o.o.o.o.o.o.o.o.o.",
"o.o.o.o.o.o.o.o.o.o.! E d ; % % % - 8 k Q o.o.o.o.o.o.o.o.o.o.o.o.o.o.o.o.o.o.o.o.o.o.o.o.o.o.o.o.o.",
"o.o.o.o.o.o.o.o.o.Q Q T y * + X X @ 3 h Q Q o.o.o.o.o.o.o.o.o.o.o.o.o.o.o.o.o.o.o.o.o.o.o.o.o.o.o.o.",
"o.o.o.o.o.o.o.o.o.l g j b A Z Z H A D b f k c o.o.o.o.o.o.o.o.o.o.o.o.o.o.o.o.o.o.o.o.o.o.o.o.o.o.o.",
"o.o.o.o.o.o.o.! U d 3 6 F / ` _ _ ) Y B - 9 l ! ! ! ! ! ! ! ! ! ! ! ! ! ! ! ! ! ! ! ! ! ! ! o.o.o.o.",
"o.o.o.o.o.o.! Q U 9 O : J [ X.X.X. .( M   ; h ! ! ! ! ! ! ! ! ! ! ! ! ! ! ! ! ! ! ! ! ! ! ! Q o.o.o.",
"o.o.o.o.o.U k g j S A H I / ( ( ( ( ~ P Z D v d f f f f f f f f d f f f f f f f f j d f f f k c o.o.",
"o.o.o.o.! c q ; r K / ) ~ H M M M C P / _ Y B - - - - - - - - - - - - - - - - - - - - - - - 9 k ! ! ",
"o.o.o.! ! l 5 o 1 I { } ^ 1       X Z _ X.( C                                               ; k ! ! ",
"o.o.o.! ! x 5 o > P ' ] ~ >       X C ( | _ I M V M M M M C M M M M M C M M M M M M M 1 #   ; h ! ! ",
"o.o.o.! ! c 5 o : H ) _ P :       . M ^ [ ' _ ( ( ( ( ( ( ( ( ( ( ( ( ( ( ( ( ( ( ( / H 1   ; h ! ! ",
"o.o.o.! Q x 5 o : Z ^ ( H :       X n I ` ] }  . . . . ... . . . . . . . . . ... . .} / M   ; h ! ! ",
"o.o.o.! ! x 7 o : C ^ / H :       . n P _ ` ' ' ' ' ] ' ' ' ' ' ] [ } ....| [ ] }  . .( M   ; h ! ! ",
"o.o.o.! ! x 5 o : C ^ / Z :       X 2 P _ / ~ L J J P L J J J P P ^ ` |  .' ^ ~ _ }  .( M   ; k ! ! ",
"o.o.o.! ! c 7 o : C ^ / H :       X n P _ L 2 X X X X X X X X X X 2 ~ { } / 2 > P ]  .( M   ; h ! ! ",
"o.o.o.o.Q x 0 - < N J P Z 2 > > > 1 M H ~ Z p % % % % % $ $ O o   : Z / ) J : + C ^ ` P 2   ; k ! ! ",
"o.o.o.o.o.T h w y a m M C Z Z H H Z C C M s i q q u q q q q 6 $ . + 2 Z H 2 + X 1 C J n :   ; z ! ! ",
"o.o.o.o.o.o.Q E z y = : M ~ / / ( ^ H n + 3 g W W W W W R R g ; o   + @ # +     + + # + X   ; h ! ! ",
"o.o.o.o.o.o.o.! U 0 - = m P ^ ^ ^ ~ F 4 @ 7 k ! Q ! ! ! ! ! x 9 & O O O O O O O O O O O O O 7 k ! ! ",
"o.o.o.o.o.o.o.o.T h q t a V C C C C s a 9 f x o.o.o.o.o.o.o.U j y 8 9 9 9 9 9 8 9 9 9 8 9 9 d x o.o.",
"o.o.o.o.o.o.o.o.o.T U z y , : : : : e d U T o.o.o.o.o.o.o.o.o.T U U U U U U U U U U U U U U T o.o.o.",
"o.o.o.o.o.o.o.o.o.o.! E u & o o o O 3 k ! ! o.o.o.o.o.o.o.o.o.o.! ! ! ! ! ! ! ! ! ! ! ! Q ! ! o.o.o.",
"o.o.o.o.o.o.o.o.o.o.o.W h q 8 9 9 0 d x o.o.o.o.o.o.o.o.o.o.o.o.o.o.o.o.o.o.o.o.o.o.o.o.o.o.o.o.o.o.",
"o.o.o.o.o.o.o.o.o.o.o.o.E T T U U U T o.o.o.o.o.o.o.o.o.o.o.o.o.o.o.o.o.o.o.o.o.o.o.o.o.o.o.o.o.o.o.",
"o.o.o.o.o.o.o.o.o.o.o.o.o.! ! Q ! ! ! o.o.o.o.o.o.o.o.o.o.o.o.o.o.o.o.o.o.o.o.o.o.o.o.o.o.o.o.o.o.o.",
"o.o.o.o.o.o.o.o.o.o.o.o.o.o.! ! ! ! o.o.o.o.o.o.o.o.o.o.o.o.o.o.o.o.o.o.o.o.o.o.o.o.o.o.o.o.o.o.o.o.",
"o.o.o.o.o.o.o.o.o.o.o.o.o.o.o.o.o.o.o.o.o.o.o.o.o.o.o.o.o.o.o.o.o.o.o.o.o.o.o.o.o.o.o.o.o.o.o.o.o.o.",
"o.o.o.o.o.o.o.o.o.o.o.o.o.o.o.o.o.o.o.o.o.o.o.o.o.o.o.o.o.o.o.o.o.o.o.o.o.o.o.o.o.o.o.o.o.o.o.o.o.o.",
"o.o.o.o.o.o.o.o.o.o.o.o.o.o.o.o.o.o.o.o.o.o.o.o.o.o.o.o.o.o.o.o.o.o.o.o.o.o.o.o.o.o.o.o.o.o.o.o.o.o.",
"o.o.o.o.o.o.o.o.o.o.o.o.o.o.o.o.o.o.o.o.o.o.o.o.o.o.o.o.o.o.o.o.o.o.o.o.o.o.o.o.o.o.o.o.o.o.o.o.o.o.",
"o.o.o.o.o.o.o.o.o.o.o.o.o.o.o.o.o.o.o.o.o.o.o.o.o.o.o.o.o.o.o.o.o.o.o.o.o.o.o.o.o.o.o.o.o.o.o.o.o.o.",
"o.o.o.o.o.o.o.o.o.o.o.o.o.o.o.o.o.o.o.o.o.o.o.o.o.o.o.o.o.o.o.o.o.o.o.o.o.o.o.o.o.o.o.o.o.o.o.o.o.o.",
"o.o.o.o.o.o.o.o.o.o.o.o.o.o.o.o.o.o.o.o.o.o.o.o.o.o.o.o.o.o.o.o.o.o.o.o.o.o.o.o.o.o.o.o.o.o.o.o.o.o.",
"o.o.o.o.o.o.o.o.o.o.o.o.o.o.o.o.o.o.o.o.o.o.o.o.o.o.o.o.o.o.o.o.o.o.o.o.o.o.o.o.o.o.o.o.o.o.o.o.o.o.",
"o.o.o.o.o.o.o.o.o.o.o.o.o.o.o.o.o.o.o.o.o.o.o.o.o.o.o.o.o.o.o.o.o.o.o.o.o.o.o.o.o.o.o.o.o.o.o.o.o.o."
};
