/* XPM */
static char *_14fc70ff5224749bc1d3c4a62a61150ywrHUf1bA5z9Uhuy[] = {
/* columns rows colors chars-per-pixel */
"50 50 183 2 ",
"   c None",
".  c #040406",
"X  c #060608",
"o  c #0A0709",
"O  c #0D0B0D",
"+  c #12090A",
"@  c #1C0B0D",
"#  c #0E0E10",
"$  c #141316",
"%  c #171619",
"&  c #1B1B1E",
"*  c #17191C",
"=  c #230D0F",
"-  c #2D0F0F",
";  c #2A0F11",
":  c #231113",
">  c #2F1112",
",  c #25191B",
"<  c #341112",
"1  c #3C1415",
"2  c #1E1E21",
"3  c #201F22",
"4  c #1E2024",
"5  c #222326",
"6  c #222528",
"7  c #2B2A2D",
"8  c #29272B",
"9  c #3B262A",
"0  c #2E2C30",
"q  c #352F33",
"w  c #343336",
"e  c #36353A",
"r  c #3B393E",
"t  c #3A3438",
"y  c #421516",
"u  c #411B1D",
"i  c #4B1718",
"p  c #541717",
"a  c #541B1C",
"s  c #5D1C1D",
"d  c #631E1F",
"f  c #402023",
"g  c #572A2C",
"h  c #483438",
"j  c #5A3831",
"k  c #6A2021",
"l  c #652526",
"z  c #712222",
"x  c #7A2525",
"c  c #6B373A",
"v  c #713133",
"b  c #664331",
"n  c #3E3C42",
"m  c #423F44",
"M  c #3B4146",
"N  c #444247",
"B  c #45454A",
"V  c #4C4A4E",
"C  c #49474D",
"Z  c #474F54",
"A  c #4F4E54",
"S  c #534E54",
"D  c #525255",
"F  c #55555B",
"G  c #50595F",
"H  c #5C595F",
"J  c #58545B",
"K  c #4B535A",
"L  c #684145",
"P  c #7A484B",
"I  c #625258",
"U  c #634B50",
"Y  c #545C62",
"T  c #5E5A61",
"R  c #615D64",
"E  c #5A636A",
"W  c #586067",
"Q  c #646365",
"!  c #64636A",
"~  c #6C676F",
"^  c #676B6F",
"/  c #6C6C74",
"(  c #746D75",
")  c #756F78",
"_  c #72737B",
"`  c #7A757E",
"'  c #727578",
"]  c #6F767D",
"[  c #852626",
"{  c #8A2929",
"}  c #972C2C",
"|  c #9A2D2D",
" . c #8E3839",
".. c #9A393A",
"X. c #A22F2F",
"o. c #AB3233",
"O. c #B13E3E",
"+. c #97512A",
"@. c #B84839",
"#. c #C15431",
"$. c #C3572F",
"%. c #CC6328",
"&. c #C26D3F",
"*. c #9E4B4E",
"=. c #9A5357",
"-. c #98585C",
";. c #835156",
":. c #A24547",
">. c #A84846",
",. c #B65E42",
"<. c #A75551",
"1. c #8D695D",
"2. c #AA6249",
"3. c #A16B5F",
"4. c #A8745D",
"5. c #955C61",
"6. c #836E6E",
"7. c #986162",
"8. c #8E6B71",
"9. c #946F75",
"0. c #89747C",
"q. c #977368",
"w. c #BD7369",
"e. c #B26F70",
"r. c #CB7E7E",
"t. c #7B7B83",
"y. c #727D85",
"u. c #857D86",
"i. c #897C81",
"p. c #75838B",
"a. c #7F858D",
"s. c #7F8D96",
"d. c #85828B",
"f. c #8A858E",
"g. c #888889",
"h. c #808790",
"j. c #898993",
"k. c #8C8F99",
"l. c #838992",
"z. c #84919A",
"x. c #8E949D",
"c. c #929292",
"v. c #97989D",
"b. c #928289",
"n. c #BE9993",
"m. c #8998A1",
"M. c #9199A3",
"N. c #939EA8",
"B. c #9A9BA3",
"V. c #B99FA3",
"C. c #96A3AD",
"Z. c #98A7B1",
"A. c #9BADB7",
"S. c #9FB0BA",
"D. c #A1A1A2",
"F. c #A7A6AA",
"G. c #AAB5BC",
"H. c #B2B2B2",
"J. c #B2AEB4",
"K. c #C19092",
"L. c #C98182",
"P. c #C7A29E",
"I. c #C9A7A8",
"U. c #E5BEBE",
"Y. c #A7B7C0",
"T. c #ABBAC2",
"R. c #B8C5CC",
"E. c #CCCCCC",
"W. c #C2C3C5",
"Q. c #C0CBD2",
"!. c #CACDD0",
"~. c #DCCFD1",
"^. c #C6D0D6",
"/. c #CED7DC",
"(. c #D3D3D4",
"). c #E2C4C4",
"_. c #DFDFE0",
"`. c #DFE5E8",
"'. c #E6EAED",
"]. c #EFEFEF",
"[. c #E4E4E4",
"{. c #FFFFFF",
"}. c #F3F3F3",
/* pixels */
"                                X X X X X X X X .                                                   ",
"                                X X X X X X X X .                                                   ",
"                                X o + = > > > > > =                                                 ",
"                                X o ; y d d d d a < O                                               ",
"                                X O y z X.X.X.X.z y + .                                             ",
"                                . + 1 d [  ...:.v u O . .                                           ",
"                                    < y i c P 5.L 9 O X X . . . . . . .                             ",
"                                      @ @ h I 0.I q O . X X X X X X X X X                           ",
"                                      & 2 N R u.! B 7 6 6 6 6 6 6 6 6 6 6 4                         ",
"                                  O 8 e N T ( u._ ^ Y G G G G G G G G G K M 4                       ",
"                                . # q A ~ ) ` u.d.h.s.s.s.s.s.s.s.s.s.s.y.G 5 .                     ",
"                              $ $ & m ! d.d.d.d.x.N.A.A.A.A.A.A.A.A.A.A.m.E 6 X .                   ",
"                            $ 7 r C ! t.x.x.x.x.N.C.A.A.A.A.A.A.A.A.A.A.m.E 6 X .                   ",
"                          X $ e J / t.z.C.C.C.C.Z.Z.A.A.A.A.A.A.A.A.A.A.m.E 6 X .                   ",
"                          . % n ! f.x.C.A.S.G.Y.Y.Y.Y.Y.Y.Y.Y.Y.Y.Y.Y.Y.C.^ 8 X .                   ",
"                          . % N / x.N.C.A.T.R.^.^.^.^.^.^.^.^.^.^.^.^.^.G.] 7 X .                   ",
"                          . * C y.C.C.Z.A.R./.'.'.'.'.'.'.'.'.'.'.'.'.'.!.g.w X .                   ",
"                          . & Z p.A.A.A.A.Q.`.{.{.}.].].].].].].].].].].(.g.w X .                   ",
"                          . & Z p.A.A.A.A.Q.`.{.[.W.F.D.D.D.D.D.D.D.D.D.c.H 5 X .                   ",
"                          . & Z p.A.A.A.A.Q.`.{.E.c.H D D D D D D D D D V w $ X .                   ",
"                          . & Z p.A.A.A.A.Q.`.{.H.Q $ X X X X X X X X . X X X X .                   ",
"                          . * B ] N.C.Z.A.Q.`.{.E.v.~ Q Q Q V 0 $ % w D J r % X .                   ",
"                          . % N / k.M.C.A.Q.`.{.[.E.H.H.H.H.g.D & 5 H c.v.Q 5 X .                   ",
"                          . $ r Q d.k.N.A.Q.`.{.{.{.{.{.{.{.W.' 5 w d.(._.c.w X .                   ",
"                          . $ 7 N R _ l.N.G.W.(.~.).).U.U.U.n.1.j b q.P.I.6.7 X .                   ",
"                          . O & 8 r F _ k.B.F.J.V.K.L.r.r.r.w.2.+.+.2.w.e.P , X .                   ",
"                          . X o O $ r R d.d.f.f.9.-.>.O.O.O.@.$.%.%.#.@...l : X .                   ",
"                          . X . . O q U 8.8.8.8.7.=.:.:.:.:.>.,.&.&.,.>. .g : X .                   ",
"                            X X . O 9 c =.=.=.=.-.-.5.5.5.5.7.3.4.4.3.7.;.j , X .                   ",
"                                X + y x o.o.o.o.*.7.0.i.i.i.i.i.i.i.i.i.( V & X .                   ",
"                              > + O u v :.:.:.:.-.9.f.j.j.j.j.j.j.j.j.j.t.D 2 X .                   ",
"                            { i @ O 9 L 5.5.5.5.9.b.x.M.M.M.M.M.M.M.M.M.a.G 5 X .                   ",
"                          o.} s ; O q I 0.0.0.0.f.x.C.Z.Z.Z.Z.Z.Z.Z.Z.Z.z.W 6 X .                   ",
"                        o.o.} d > O w H u.u.u.u.d.h.s.s.s.s.s.s.s.z.m.N.z.Y 5 X .                   ",
"                      o.o.o.} d > O w H u.u.u.u._ ^ Y G G G G G G E _ l.a.F 4 X .                   ",
"                    o.o.o.o.} d > O w H u.u.u.u.! B 7 6 6 6 6 6 6 e F _ ` A 2 X .                   ",
"                    o.o.o.o.} d > O w H u.t.` ) S t : + O X o # $ 8 N R ! N & . .                   ",
"                    o.o.o.o.} d > O w H u.~ J N h g a y ; o $ 8 r N N N n 0 $ .                     ",
"                    o.o.o.o.} d > O w H u.T n & f l [ k y O 2 n T T N 7 & $ O                       ",
"                    X.X.X.X.{ s ; O 0 A ) V 7 X < k | x i O 5 N ! R n & . .                         ",
"                    [ [ [ [ z y @ O 3 e V e 3 . - a x s < o % 0 N m 0 $ . .                         ",
"                      p p p y = + X $ & 5 & $ . @ < i < @ o O % 5 5 * O                             ",
"                              . . . . . . . .         . . X . . . . .                               ",
"                              . . . . . . .             . . . . . . .                               ",
"                                . . . . .                 . . . . .                                 ",
"                                                                                                    ",
"                                                                                                    ",
"                                                                                                    ",
"                                                                                                    ",
"                                                                                                    "
};
