/* XPM */
static char *result[] = {
/* columns rows colors chars-per-pixel */
"50 50 183 2 ",
"   c #040406",
".  c #060608",
"X  c #0A0709",
"o  c #0D0B0D",
"O  c #12090A",
"+  c #1C0B0D",
"@  c #0E0E10",
"#  c #141316",
"$  c #171619",
"%  c #1B1B1E",
"&  c #17191C",
"*  c #230D0F",
"=  c #2D0F0F",
"-  c #2A0F11",
";  c #231113",
":  c #2F1112",
">  c #25191B",
",  c #341112",
"<  c #3C1415",
"1  c #1E1E21",
"2  c #201F22",
"3  c #1E2024",
"4  c #222326",
"5  c #222528",
"6  c #2B2A2D",
"7  c #29272B",
"8  c #3B262A",
"9  c #2E2C30",
"0  c #352F33",
"q  c #343336",
"w  c #36353A",
"e  c #3B393E",
"r  c #3A3438",
"t  c #421516",
"y  c #411B1D",
"u  c #4B1718",
"i  c #541717",
"p  c #541B1C",
"a  c #5D1C1D",
"s  c #631E1F",
"d  c #402023",
"f  c #572A2C",
"g  c #483438",
"h  c #5A3831",
"j  c #6A2021",
"k  c #652526",
"l  c #712222",
"z  c #7A2525",
"x  c #6B373A",
"c  c #713133",
"v  c #664331",
"b  c #3E3C42",
"n  c #423F44",
"m  c #3B4146",
"M  c #444247",
"N  c #45454A",
"B  c #4C4A4E",
"V  c #49474D",
"C  c #474F54",
"Z  c #4F4E54",
"A  c #534E54",
"S  c #525255",
"D  c #55555B",
"F  c #50595F",
"G  c #5C595F",
"H  c #58545B",
"J  c #4B535A",
"K  c #684145",
"L  c #7A484B",
"P  c #625258",
"I  c #634B50",
"U  c #545C62",
"Y  c #5E5A61",
"T  c #615D64",
"R  c #5A636A",
"E  c #586067",
"W  c #646365",
"Q  c #64636A",
"!  c #6C676F",
"~  c #676B6F",
"^  c #6C6C74",
"/  c #746D75",
"(  c #756F78",
")  c #72737B",
"_  c #7A757E",
"`  c #727578",
"'  c #6F767D",
"]  c #852626",
"[  c #8A2929",
"{  c #972C2C",
"}  c #9A2D2D",
"|  c #8E3839",
" . c #9A393A",
".. c #A22F2F",
"X. c #AB3233",
"o. c #B13E3E",
"O. c #97512A",
"+. c #B84839",
"@. c #C15431",
"#. c #C3572F",
"$. c #CC6328",
"%. c #C26D3F",
"&. c #9E4B4E",
"*. c #9A5357",
"=. c #98585C",
"-. c #835156",
";. c #A24547",
":. c #A84846",
">. c #B65E42",
",. c #A75551",
"<. c #8D695D",
"1. c #AA6249",
"2. c #A16B5F",
"3. c #A8745D",
"4. c #955C61",
"5. c #836E6E",
"6. c #986162",
"7. c #8E6B71",
"8. c #946F75",
"9. c #89747C",
"0. c #977368",
"q. c #BD7369",
"w. c #B26F70",
"e. c #CB7E7E",
"r. c #7B7B83",
"t. c #727D85",
"y. c #857D86",
"u. c #897C81",
"i. c #75838B",
"p. c #7F858D",
"a. c #7F8D96",
"s. c #85828B",
"d. c #8A858E",
"f. c #888889",
"g. c #808790",
"h. c #898993",
"j. c #8C8F99",
"k. c #838992",
"l. c #84919A",
"z. c #8E949D",
"x. c #929292",
"c. c #97989D",
"v. c #928289",
"b. c #BE9993",
"n. c #8998A1",
"m. c #9199A3",
"M. c #939EA8",
"N. c #9A9BA3",
"B. c #B99FA3",
"V. c #96A3AD",
"C. c #98A7B1",
"Z. c #9BADB7",
"A. c #9FB0BA",
"S. c #A1A1A2",
"D. c #A7A6AA",
"F. c #AAB5BC",
"G. c #B2B2B2",
"H. c #B2AEB4",
"J. c #C19092",
"K. c #C98182",
"L. c #C7A29E",
"P. c #C9A7A8",
"I. c #E5BEBE",
"U. c #A7B7C0",
"Y. c #ABBAC2",
"T. c #B8C5CC",
"R. c #CCCCCC",
"E. c #C2C3C5",
"W. c #C0CBD2",
"Q. c #CACDD0",
"!. c #DCCFD1",
"~. c #C6D0D6",
"^. c #CED7DC",
"/. c #D3D3D4",
"(. c #E2C4C4",
"). c #DFDFE0",
"_. c #DFE5E8",
"`. c #E6EAED",
"'. c #EFEFEF",
"]. c #E4E4E4",
"[. c #FFFFFF",
"{. c #F3F3F3",
"}. c None",
/* pixels */
"}.}.}.}.}.}.}.}.}.}.}.}.}.}.}.}.}.}.}.}.}.}.}.}.}.. . . . . . . . . }.}.}.}.}.}.}.}.}.}.}.}.}.}.}.}.",
"}.}.}.}.}.}.}.}.}.}.}.}.}.}.}.}.}.}.}.}.}.}.}.}.}.. . . . . . . . . }.}.}.}.}.}.}.}.}.}.}.}.}.}.}.}.",
"}.}.}.}.}.}.}.}.}.}.}.}.}.}.}.}.}.}.}.}.}.}.}.}.* : : : : : * O X . }.}.}.}.}.}.}.}.}.}.}.}.}.}.}.}.",
"}.}.}.}.}.}.}.}.}.}.}.}.}.}.}.}.}.}.}.}.}.}.}.O , p s s s s t : X . }.}.}.}.}.}.}.}.}.}.}.}.}.}.}.}.",
"}.}.}.}.}.}.}.}.}.}.}.}.}.}.}.}.}.}.}.}.}.}.. O y l } ......j t X . }.}.}.}.}.}.}.}.}.}.}.}.}.}.}.}.",
"}.}.}.}.}.}.}.}.}.}.}.}.}.}.}.}.}.}.}.}.}.. . o d c :. .| ] s < O . }.}.}.}.}.}.}.}.}.}.}.}.}.}.}.}.",
"}.}.}.}.}.}.}.}.}.}.}.}.}.}.. . . . . . . . . o 8 K =.L x u t : }.}.}.}.}.}.}.}.}.}.}.}.}.}.}.}.}.}.",
"}.}.}.}.}.}.}.}.}.}.}.}.}.. . . . . . . . . . o 0 P 9.P g + + }.}.}.}.}.}.}.}.}.}.}.}.}.}.}.}.}.}.}.",
"}.}.}.}.}.}.}.}.}.}.}.}.3 3 3 3 5 3 5 3 5 3 3 6 N Q y.T M 1 % }.}.}.}.}.}.}.}.}.}.}.}.}.}.}.}.}.}.}.",
"}.}.}.}.}.}.}.}.}.}.}.3 m J U F F F U F F F U U Q ) y./ Y M w 7 o }.}.}.}.}.}.}.}.}.}.}.}.}.}.}.}.}.",
"}.}.}.}.}.}.}.}.}.}.. 4 F i.a.a.a.a.a.a.a.a.k.a.g.s.y._ ( ! A 0 @   }.}.}.}.}.}.}.}.}.}.}.}.}.}.}.}.",
"}.}.}.}.}.}.}.}.}.  . 5 R n.Z.Z.A.A.Z.Z.Z.Z.Z.Z.M.z.s.s.s.s.Q b 1 # # }.}.}.}.}.}.}.}.}.}.}.}.}.}.}.",
"}.}.}.}.}.}.}.}.}.. . 5 R n.Z.Z.Z.A.Z.Z.Z.Z.Z.Z.V.M.n.n.n.m.r.T V e 6 # }.}.}.}.}.}.}.}.}.}.}.}.}.}.",
"}.}.}.}.}.}.}.}.}.. . 5 R n.Z.A.Z.Z.Z.Z.Z.Z.Z.Z.C.C.V.V.V.V.z.r./ D w # . }.}.}.}.}.}.}.}.}.}.}.}.}.",
"}.}.}.}.}.}.}.}.}.. . 5 R V.Y.F.U.U.U.U.U.U.U.U.U.U.U.F.F.Z.V.z.k.Q b $ . }.}.}.}.}.}.}.}.}.}.}.}.}.",
"}.}.}.}.}.}.}.}.}.. . 6 ' F.~.~.~.~.^.T.~.~.~.~.~.~.~.T.U.Z.V.n.z.^ M $ . }.}.}.}.}.}.}.}.}.}.}.}.}.",
"}.}.}.}.}.}.}.}.}.    q f.R.`.`.`.`.`.`.`.`.`.`.`.`.`.^.T.Z.Z.V.M.t.m &   }.}.}.}.}.}.}.}.}.}.}.}.}.",
"}.}.}.}.}.}.}.}.}.    q f./.'.'.{.{.'.`.'.{.'.'.{.[.[._.T.Z.Z.Z.Z.i.J 1 . }.}.}.}.}.}.}.}.}.}.}.}.}.",
"}.}.}.}.}.}.}.}.}..   4 G x.S.S.S.S.V.S.S.S.S.D.E.).[._.~.Z.Z.Z.Z.i.C 1   }.}.}.}.}.}.}.}.}.}.}.}.}.",
"}.}.}.}.}.}.}.}.}..   # q N S S S S S S S S S G x.R.[.].W.Z.Z.Z.Z.i.C & . }.}.}.}.}.}.}.}.}.}.}.}.}.",
"}.}.}.}.}.}.}.}.}.. . . . . . . X X   . . . . # W G.[._.W.Z.Z.Z.Z.i.C & . }.}.}.}.}.}.}.}.}.}.}.}.}.",
"}.}.}.}.}.}.}.}.}.. . & e G S q $ # 9 B W W W ~ c.R.[._.W.Z.C.V.M.' N & . }.}.}.}.}.}.}.}.}.}.}.}.}.",
"}.}.}.}.}.}.}.}.}.  . 7 W c.x.G 4 1 S u.G.G.G.G./.].[._.T.Z.V.c.j.^ M $ . }.}.}.}.}.}.}.}.}.}.}.}.}.",
"}.}.}.}.}.}.}.}.}.  . q x.).R.f.q 4 ` E.[.[.[.[.[.[.[._.~.C.V.j.y.W e # . }.}.}.}.}.}.}.}.}.}.}.}.}.",
"}.}.}.}.}.}.}.}.}.. . 9 5.P.J.0.v h <.b.I.I.I.I.(.!./.E.F.M.k.( Y N 6 @ . }.}.}.}.}.}.}.}.}.}.}.}.}.",
"}.}.}.}.}.}.}.}.}.. . > L w.e.1.O.O.1.q.e.e.K.K.J.B.H.D.N.z.) H e 7 % o . }.}.}.}.}.}.}.}.}.}.}.}.}.",
"}.}.}.}.}.}.}.}.}.. . * k  .+.#.$.$.@.+.o.o.o.o.=.8.d.s.y.y.T e $ o X . . }.}.}.}.}.}.}.}.}.}.}.}.}.",
"}.}.}.}.}.}.}.}.}.. . ; f | :.>.%.%.>.:.;.;.;.;.*.6.8.8.8.7.I 0 o . . . . }.}.}.}.}.}.}.}.}.}.}.}.}.",
"}.}.}.}.}.}.}.}.}.. . > h -.6.2.3.3.2.2.4.4.4.4.4.4.*.=.*.=.K 8 o . . . }.}.}.}.}.}.}.}.}.}.}.}.}.}.",
"}.}.}.}.}.}.}.}.}.. . % B / u.9.9.u.9.9.u.u.u.9.4.&.X.X.X.X.z t O . }.}.}.}.}.}.}.}.}.}.}.}.}.}.}.}.",
"}.}.}.}.}.}.}.}.}.. . 1 S r.h.h.h.h.l.h.h.h.h.d.8.4.;.;.;.;.c < O O : }.}.}.}.}.}.}.}.}.}.}.}.}.}.}.",
"}.}.}.}.}.}.}.}.}.. . 1 U p.m.m.m.m.n.z.m.m.m.N.u.8.4.4.4.4.K 8 o + u [ }.}.}.}.}.}.}.}.}.}.}.}.}.}.",
"}.}.}.}.}.}.}.}.}.. . 5 E l.C.C.C.C.C.C.C.C.Z.V.n.d.9.9.u.9.H 0 o - s { X.}.}.}.}.}.}.}.}.}.}.}.}.}.",
"}.}.}.}.}.}.}.}.}.. . 5 E l.M.z.a.a.a.a.a.a.a.a.a.y.y.y.y.y.Y 0 @ - s { X.X.}.}.}.}.}.}.}.}.}.}.}.}.",
"}.}.}.}.}.}.}.}.}.. . 3 F p.k.' R F F F U U F U Q ) y.y.y.y.Y q @ , s { X.X.X.}.}.}.}.}.}.}.}.}.}.}.",
"}.}.}.}.}.}.}.}.}.. . 3 S _ ` F b 3 5 3 3 3 3 9 N Q y.s.y.y.Y q @ - s { X.X.X.X.}.}.}.}.}.}.}.}.}.}.",
"}.}.}.}.}.}.}.}.}.  . % N W T M 7 # O o X O O ; r A ( _ r.y.Y q @ - s { X.X.X.X.}.}.}.}.}.}.}.}.}.}.",
"}.}.}.}.}.}.}.}.}.}.  # 9 n M M n e 7 $ X - t a f g M D ! y.Y q @ , s } X.X.X.X.}.}.}.}.}.}.}.}.}.}.",
"}.}.}.}.}.}.}.}.}.}.}.o $ % 6 M G T n 2 o t s ] k d 1 b G y.Y 0 @ - s } X.X.X.X.}.}.}.}.}.}.}.}.}.}.",
"}.}.}.}.}.}.}.}.}.}.}.}.  X % n T Q n 2 X u z { j , . 6 V ( Z 0 o - a [ ........}.}.}.}.}.}.}.}.}.}.",
"}.}.}.}.}.}.}.}.}.}.}.}.    # 6 n M 9 $ X , a ] i =   1 w B q 1 X * t l ] [ ] ] }.}.}.}.}.}.}.}.}.}.",
"}.}.}.}.}.}.}.}.}.}.}.}.}.}.o % 2 2 $ @ X + , u , O   # 1 4 % # X O * t i i i }.}.}.}.}.}.}.}.}.}.}.",
"}.}.}.}.}.}.}.}.}.}.}.}.}.}.}.                }.}.}.}.                }.}.}.}.}.}.}.}.}.}.}.}.}.}.}.",
"}.}.}.}.}.}.}.}.}.}.}.}.}.}.}.              }.}.}.}.}.}.              }.}.}.}.}.}.}.}.}.}.}.}.}.}.}.",
"}.}.}.}.}.}.}.}.}.}.}.}.}.}.}.}.          }.}.}.}.}.}.}.}.          }.}.}.}.}.}.}.}.}.}.}.}.}.}.}.}.",
"}.}.}.}.}.}.}.}.}.}.}.}.}.}.}.}.}.}.}.}.}.}.}.}.}.}.}.}.}.}.}.}.}.}.}.}.}.}.}.}.}.}.}.}.}.}.}.}.}.}.",
"}.}.}.}.}.}.}.}.}.}.}.}.}.}.}.}.}.}.}.}.}.}.}.}.}.}.}.}.}.}.}.}.}.}.}.}.}.}.}.}.}.}.}.}.}.}.}.}.}.}.",
"}.}.}.}.}.}.}.}.}.}.}.}.}.}.}.}.}.}.}.}.}.}.}.}.}.}.}.}.}.}.}.}.}.}.}.}.}.}.}.}.}.}.}.}.}.}.}.}.}.}.",
"}.}.}.}.}.}.}.}.}.}.}.}.}.}.}.}.}.}.}.}.}.}.}.}.}.}.}.}.}.}.}.}.}.}.}.}.}.}.}.}.}.}.}.}.}.}.}.}.}.}.",
"}.}.}.}.}.}.}.}.}.}.}.}.}.}.}.}.}.}.}.}.}.}.}.}.}.}.}.}.}.}.}.}.}.}.}.}.}.}.}.}.}.}.}.}.}.}.}.}.}.}."
};
