/* XPM */
static char *_73e7fe9fcfa42fda353292790d0d0e2G7RLeIctlcIBqmrZ[] = {
/* columns rows colors chars-per-pixel */
"50 50 185 2 ",
"   c None",
".  c #050506",
"X  c #060608",
"o  c #0B0709",
"O  c #0D0A0C",
"+  c #130A0B",
"@  c #0E0E11",
"#  c #110F12",
"$  c #1F0C10",
"%  c #141315",
"&  c #161619",
"*  c #17191C",
"=  c #1B1A1D",
"-  c #220D0F",
";  c #280F11",
":  c #2E1112",
">  c #271618",
",  c #3A1414",
"<  c #1F1E22",
"1  c #391F22",
"2  c #1F2124",
"3  c #242325",
"4  c #222528",
"5  c #2B2A2D",
"6  c #28262A",
"7  c #3B2629",
"8  c #2E2E31",
"9  c #372F33",
"0  c #382D31",
"q  c #2E3034",
"w  c #343336",
"e  c #39373B",
"r  c #3B3A3E",
"t  c #363439",
"y  c #451718",
"u  c #411B1D",
"i  c #4D1919",
"p  c #561C1D",
"a  c #631E1F",
"s  c #582628",
"d  c #47373B",
"f  c #56363A",
"g  c #692021",
"h  c #662526",
"j  c #712324",
"k  c #772A2A",
"l  c #763335",
"z  c #6C3B3E",
"x  c #3E3C41",
"c  c #403E43",
"v  c #6A3E42",
"b  c #3C4146",
"n  c #444346",
"m  c #43454B",
"M  c #49464B",
"N  c #4C4A4F",
"B  c #44494F",
"V  c #474F54",
"C  c #4E4E52",
"Z  c #4D545A",
"A  c #525254",
"S  c #56555A",
"D  c #50595F",
"F  c #5B595E",
"G  c #59535A",
"H  c #684145",
"J  c #624D52",
"K  c #605158",
"L  c #74494A",
"P  c #535B62",
"I  c #5D5B62",
"U  c #625D64",
"Y  c #646365",
"T  c #64636A",
"R  c #6B666E",
"E  c #696C6E",
"W  c #6C6B73",
"Q  c #676970",
"!  c #736E76",
"~  c #756F78",
"^  c #6F767D",
"/  c #72737B",
"(  c #7B767F",
")  c #747678",
"_  c #892828",
"`  c #962C2C",
"'  c #9D2E2E",
"]  c #8E3D3F",
"[  c #9B3737",
"{  c #A12F2F",
"}  c #AB3333",
"|  c #AB3C3D",
" . c #B03E3E",
".. c #BC4B3C",
"X. c #C95C39",
"o. c #C5683D",
"O. c #DA7035",
"+. c #98494C",
"@. c #9A5357",
"#. c #99565A",
"$. c #98595D",
"%. c #844D52",
"&. c #A24446",
"*. c #A54A47",
"=. c #B65E42",
"-. c #AB5045",
";. c #A16B5F",
":. c #A8745D",
">. c #8D5E63",
",. c #955C61",
"<. c #836E6E",
"1. c #966364",
"2. c #8E6C72",
"3. c #926D74",
"4. c #89747C",
"5. c #9C7177",
"6. c #AA6569",
"7. c #B26F70",
"8. c #BA7173",
"9. c #C87C7D",
"0. c #D2877D",
"q. c #DC947B",
"w. c #E59E78",
"e. c #E7A178",
"r. c #7A7C84",
"t. c #717A82",
"y. c #857C84",
"u. c #897C81",
"i. c #75838B",
"p. c #738087",
"a. c #7F8D96",
"s. c #828283",
"d. c #84818B",
"f. c #8B858E",
"g. c #898A8B",
"h. c #97838B",
"j. c #898A94",
"k. c #8C8F99",
"l. c #848790",
"z. c #978F97",
"x. c #8D939D",
"c. c #929292",
"v. c #93959E",
"b. c #9B9B9C",
"n. c #B19499",
"m. c #9099A3",
"M. c #939EA8",
"N. c #999AA3",
"B. c #95A2AC",
"V. c #99A7B1",
"C. c #9BADB7",
"Z. c #A5A6AA",
"A. c #A6B5BE",
"S. c #B2B2B3",
"D. c #BABABB",
"F. c #C8A7A9",
"G. c #E0BBBB",
"H. c #EBC6BD",
"J. c #F2CEBB",
"K. c #F3D0BB",
"L. c #A7B7C0",
"P. c #B3BDC3",
"I. c #BFBFC0",
"U. c #C1BEC3",
"Y. c #BAC6CD",
"T. c #B3C1C8",
"R. c #C3C3C4",
"E. c #CECECE",
"W. c #C5C5CA",
"Q. c #C0CBD2",
"!. c #C8CDD2",
"~. c #CDD6DB",
"^. c #CBD1D5",
"/. c #D9D9DA",
"(. c #D2D5D6",
"). c #DFDFE0",
"_. c #D9E0E4",
"`. c #DFE5E8",
"'. c #E3E3E3",
"]. c #E3E6E9",
"[. c #EAEBEC",
"{. c #ECEFF1",
"}. c #EEF1F3",
"|. c #FEFEFF",
" X c #F3F3F3",
/* pixels */
"                                                                                                    ",
"                                                                                                    ",
"                                                                                                    ",
"                                                                                                    ",
"                                                                                                    ",
"                                                                                                    ",
"                                                                . X X X . . . . .                   ",
"                                                              o . . . . . . . . .                   ",
"                                                              < 4 6 6 6 3 & O . . .                 ",
"                      . . . . . . . . . . . . . . . . . . . < t M N N N n 6 % . . .                 ",
"                    . X X X X X X X X X X X X X X X X X X X 3 M R ~ ~ ~ Y r * . . .                 ",
"                  2 4 4 5 w 8 3 % o & 6 w w w w 5 > ; ; > = e F r.d.( ! U r * . .                   ",
"                2 b P Q ) g.s.A 6 @ r Y c.c.c.c.<.L h s f N I / k.d.Q C e 4 % . .                   ",
"              X 4 Z p.B.P.^.R.s.r % S b.).).).).F.7.[ ] %.! r.k.B.a.P q % @ X                       ",
"            . X 4 D a.L.~.{.).c.n % A c.E.'.}.|.H.0...-.1.u.j.m.V.a.D 4 X .                         ",
"            . X 4 D a.L.~.{.).c.n O w F s.S./.|.H.q.X.=.;.u.j.m.V.a.D 4 X .                         ",
"            . X 4 D a.L.~.{.).c.n o & 6 w p.I.|.J.w.O.o.:.u.j.m.V.a.D 4 X .                         ",
"            . X 4 D a.L.~.{.).c.n X % = 6 ) D.|.K.e.O.o.:.u.j.m.V.a.D 4 X .                         ",
"            . X 4 D a.L.~.{.).c.n O 8 A ! Z.E.|.H.q.o.=.;.u.j.m.V.a.D 4 X .                         ",
"            . X 4 D a.L.~.{.).c.n % N g.R./.[.|.H.0...-.1.u.j.m.V.a.D 4 X .                         ",
"            X X 4 D a.L.~.{.).c.n & Y S.|.|.|.|.G.9. .&.,.u.j.m.V.a.D 4 X .                         ",
"          X X X 4 D a.L.~.{.).c.n & Y S.|.}.]./.F.8.| &.,.u.j.m.V.a.D 4 X .                         ",
"        . . X . 4 D a.L.~.{.).c.n & Y S.|.].~.T.n.6.| &.,.u.j.m.V.a.D 4 X .                         ",
"      O + O O O 5 P a.A.~.{.'.b.C 6 E S.|._.Y.C.h.6.| &.,.4.f.v.B.a.D 4 X .                         ",
"    - , y u 7 9 m T l.V.!.[.[.D.g.E b.E.|._.Y.C.z.5.@.@.$.1.3.h.v.r.Z 3 X .                         ",
". . : p j l H K T / d.N.W.[. X/.R.S.E.].|._.Y.C.v.h.3.,.#.+.$.3.f./ N < X .                         ",
"X X : a { &.,.4.y.y.y.z.U.].|.|.|.|.|.|.|._.Y.C.M.k.d.2.@.} &.,.4.R n = X .                         ",
". . : p j l %.>.2.4.u.j.S.^.`.`.`.`.`.`.`.!.P.C.M.k.d.2.@.} &.,.4.! G x 5 < # .                     ",
"    - , y s l +.#.2.4.f.Z.P.Q.Q.Q.Q.Q.Q.Q.T.A.C.M.k.d.2.@.} &.,.4.( R I N w * . .                   ",
"      . . : a ` &.$.2.d.x.B.C.C.C.C.C.C.C.C.C.C.M.k.d.2.@.} &.,.4.y.y.y.~ n = X . .                 ",
"      . . - y g l v J T r.x.B.B.V.C.C.C.C.V.B.M.l./ U J z k l H K U ! ( ~ n = X . .                 ",
"      . . + ; , u 7 0 c T r.x.M.B.C.C.C.C.B.m.k./ S r 0 7 y u 7 9 n F ~ ~ n = X . .                 ",
"      . . X X O O O O = M W f.x.B.C.C.C.C.M.k.d.U r & O O + O O O 3 M W ~ n = X . .                 ",
"        . X X X X X X % r S T W t.i.i.i.i.^ Q Y N 8 @ + $ : : : : 1 d G G w & X . .                 ",
"                      & 5 e x n B V V V V m n r w 4   : i a a a a s s d t 3 # X . .                 ",
"                        & & & & * = = = = * & & %       _ ` ` ` ` k s > % O o X . .                 ",
"                          X . . . . . . . . . . .         } } } } ` g , - + o X .                   ",
"                                                            } } } ' _ j p y ;                       ",
"                                                              } } } { ' ` _                         ",
"                                                              } } } } } }                           ",
"                                                              } } } } }                             ",
"                                                              } } } }                               ",
"                                                                } }                                 ",
"                                                                                                    ",
"                                                                                                    ",
"                                                                                                    ",
"                                                                                                    ",
"                                                                                                    ",
"                                                                                                    ",
"                                                                                                    "
};
