/* XPM */
static char *result[] = {
/* columns rows colors chars-per-pixel */
"32 32 57 1 ",
"  c black",
". c #180E0A",
"X c #211510",
"o c #341D15",
"O c #391E1A",
"+ c gray15",
"@ c #29292A",
"# c #2A2B2B",
"$ c #2D2B2B",
"% c #2E2F2F",
"& c #2D302F",
"* c #323433",
"= c #553323",
"- c #5C3328",
"; c #6B3A2D",
": c #6C412D",
"> c #734530",
", c #565151",
"< c #634A45",
"1 c #7F5E58",
"2 c #CC2939",
"3 c #CE2D3D",
"4 c #CE2F3F",
"5 c #834C35",
"6 c #814C36",
"7 c #94593D",
"8 c #955A3D",
"9 c #965A3E",
"0 c #D13948",
"q c #865441",
"w c #845C52",
"e c #896056",
"r c #89706C",
"t c #D54755",
"y c #D35561",
"u c #D75E6A",
"i c #C66973",
"p c #D96E78",
"a c #DC7C86",
"s c #7E8080",
"d c #928A89",
"f c #9A9392",
"g c #AD9093",
"h c #B09A98",
"j c #A1A3A3",
"k c #B6B7B7",
"l c #BBB3B1",
"z c #CD838A",
"x c #DAB3B7",
"c c #DCB6BA",
"v c #EAA3AA",
"b c #DDBEC1",
"n c #E3DBDC",
"m c #F3D2D5",
"M c #E7EAE9",
"N c #FCFFFF",
"B c None",
/* pixels */
"BBBBBBBBBBBBBBBBBBBBBBBBBBBBBBBB",
"BBBBBBBBBBBBBBBBBBBBBBBBBBBBBBBB",
"BBBBBBBBBBBBBBBBBBBBBBBBBBBBBBBB",
"BBBBBBBBBBBBBBBBBBBBBBBBBBBBBBBB",
"BBBBBBBBBBBB      BBBBBBBBBBBBBB",
"BBBBBBBBBBBB.XXXX.BBBBBBBBBBBBBB",
"BBBBBBBBBB .=::::=. BBBBBBBBBBBB",
"BBBBBBBBBB.o>9889>o.BBBBBBBBBBBB",
"BBBBBBBB .O-677776-O. BBBBBBBBBB",
"BBBBBBBB X<eq5555qe<X BBBBBBBBBB",
"BBBBBBBB $dhw;;;;whd$ BBBBBBBBBB",
"BBBBBBBB %sfr1111rfs% BBBBBBBBBB",
"BBBBBBBBBB@,dllllf,@BBBBBBBBBBBB",
"BBBBBBBBBB+,knbxch,+BBBBBBBBBBBB",
"BBBBBBBB %skMmaupzhs% BBBBBBBBBB",
"BBBBBBBB *jMNmu3tabj* BBBBBBBBBB",
"BBBBBBBB *jMNmu4tabj* BBBBBBBBBB",
"BBBBBBBB *jnmvy30pbj* BBBBBBBBBB",
"BBBBBBBB *jbat023ucj* BBBBBBBBBB",
"BBBBBBBB &sgiyyyyigs& BBBBBBBBBB",
"BBBBBBBBBB#,gxxxxg,#BBBBBBBBBBBB",
"BBBBBBBBBB #sjjjjs# BBBBBBBBBBBB",
"BBBBBBBBBBBB&****&BBBBBBBBBBBBBB",
"BBBBBBBBBBBB      BBBBBBBBBBBBBB",
"BBBBBBBBBBBBBBBBBBBBBBBBBBBBBBBB",
"BBBBBBBBBBBBBBBBBBBBBBBBBBBBBBBB",
"BBBBBBBBBBBBBBBBBBBBBBBBBBBBBBBB",
"BBBBBBBBBBBBBBBBBBBBBBBBBBBBBBBB",
"BBBBBBBBBBBBBBBBBBBBBBBBBBBBBBBB",
"BBBBBBBBBBBBBBBBBBBBBBBBBBBBBBBB",
"BBBBBBBBBBBBBBBBBBBBBBBBBBBBBBBB",
"BBBBBBBBBBBBBBBBBBBBBBBBBBBBBBBB"
};
