/* XPM */
static char *result[] = {
/* columns rows colors chars-per-pixel */
"32 32 57 1 ",
"  c black",
". c #180E0A",
"X c #211510",
"o c #341D15",
"O c #391E1A",
"+ c gray17",
"@ c #2D2B2B",
"# c #2B2B2C",
"$ c #323233",
"% c #583325",
"& c #6B3A2D",
"* c #6C412D",
"= c #734530",
"- c #504E4E",
"; c #585854",
": c #634A45",
"> c #7E5C56",
", c #7F5D58",
"< c #7C7C7C",
"1 c #7C7C7E",
"2 c #834C35",
"3 c #814C36",
"4 c #95593D",
"5 c #865441",
"6 c #845C52",
"7 c #896056",
"8 c #89706C",
"9 c #DAD457",
"0 c #DED869",
"q c #CCC97F",
"w c #DBD776",
"e c #E0DB71",
"r c #E1DD7D",
"t c #7D7D80",
"y c #818383",
"u c #908887",
"i c #999191",
"p c #B19C97",
"a c #AFAE97",
"s c #A0A0A2",
"d c #B0B0A0",
"f c #BAB2B3",
"g c #CDCA82",
"h c #D2D09C",
"j c #E2DE93",
"k c #E5E19A",
"l c #E4E09B",
"z c #DDDCBD",
"x c #EFECB4",
"c c #DEDDC5",
"v c #E0DFC9",
"b c #E3E4DC",
"n c #E4E4DD",
"m c #F5F4DA",
"M c #E6E7E9",
"N c #FBFBFF",
"B c None",
/* pixels */
"BBBBBBBBBBBBBBBBBBBBBBBBBBBBBBBB",
"BBBBBBBBBBBBBBBBBBBBBBBBBBBBBBBB",
"BBBBBBBBBBBBBBBBBBBBBBBBBBBBBBBB",
"BBBBBBBBBBBBBBBBBBBBBBBBBBBBBBBB",
"BBBBBBBBBBBB      BBBBBBBBBBBBBB",
"BBBBBBBBBBBB.XXXX.BBBBBBBBBBBBBB",
"BBBBBBBBBB .%****%. BBBBBBBBBBBB",
"BBBBBBBBBB.o=4444=o.BBBBBBBBBBBB",
"BBBBBBBB .O%344443%O. BBBBBBBBBB",
"BBBBBBBB X:75222257:X BBBBBBBBBB",
"BBBBBBBB @up6&&&&6pu@ BBBBBBBBBB",
"BBBBBBBB +yi8>,,,8iy+ BBBBBBBBBB",
"BBBBBBBBBB+-iffffi-+BBBBBBBBBBBB",
"BBBBBBBBBB+;fbczcd;+BBBBBBBBBBBB",
"BBBBBBBB +<fMmjwjhd1+ BBBBBBBBBB",
"BBBBBBBB $sMNmr9ekvs$ BBBBBBBBBB",
"BBBBBBBB $sMNmr9elvs$ BBBBBBBBBB",
"BBBBBBBB $snmxe90jcs$ BBBBBBBBBB",
"BBBBBBBB $svje999rzs$ BBBBBBBBBB",
"BBBBBBBB #taqwwwwgat# BBBBBBBBBB",
"BBBBBBBBBB#;azzzza;#BBBBBBBBBBBB",
"BBBBBBBBBB #tsssst# BBBBBBBBBBBB",
"BBBBBBBBBBBB#$$$$#BBBBBBBBBBBBBB",
"BBBBBBBBBBBB      BBBBBBBBBBBBBB",
"BBBBBBBBBBBBBBBBBBBBBBBBBBBBBBBB",
"BBBBBBBBBBBBBBBBBBBBBBBBBBBBBBBB",
"BBBBBBBBBBBBBBBBBBBBBBBBBBBBBBBB",
"BBBBBBBBBBBBBBBBBBBBBBBBBBBBBBBB",
"BBBBBBBBBBBBBBBBBBBBBBBBBBBBBBBB",
"BBBBBBBBBBBBBBBBBBBBBBBBBBBBBBBB",
"BBBBBBBBBBBBBBBBBBBBBBBBBBBBBBBB",
"BBBBBBBBBBBBBBBBBBBBBBBBBBBBBBBB"
};
