/* XPM */
static char *result[] = {
/* columns rows colors chars-per-pixel */
"32 32 59 1 ",
"  c black",
". c #180E0A",
"X c #211510",
"o c #341D15",
"O c #391E1A",
"+ c gray15",
"@ c #29292A",
"# c #2B2A2B",
"$ c #2D2B2B",
"% c #2F2F2F",
"& c #2F2F30",
"* c #333334",
"= c #553323",
"- c #5C3328",
"; c #6C3C2D",
": c #70432E",
"> c #476928",
", c #537731",
"< c #50514F",
"1 c #595A5A",
"2 c #634A45",
"3 c gray49",
"4 c #834C35",
"5 c #814C36",
"6 c #834C36",
"7 c #95593D",
"8 c #865441",
"9 c #825C53",
"0 c #845E58",
"q c #8A706C",
"w c #698251",
"e c #6E8658",
"r c #728B5B",
"t c #788E64",
"y c #7F9D64",
"u c #89A075",
"i c #808081",
"p c #928A89",
"a c #9B9392",
"s c #959B90",
"d c #B19C97",
"f c #90A280",
"g c #99A193",
"h c #A0A0A0",
"j c #A4A3A4",
"k c #A4A4A5",
"l c #A5A4A5",
"z c #B0BDA4",
"x c #BBB4B4",
"c c #BAC1B3",
"v c #BDC7B6",
"b c #C1CBB8",
"n c #C5CBC0",
"m c #D8DED2",
"M c #DCDEDB",
"N c #E6E6E7",
"B c #EBEAEB",
"V c white",
"C c None",
/* pixels */
"CCCCCCCCCCCCCCCCCCCCCCCCCCCCCCCC",
"CCCCCCCCCCCCCCCCCCCCCCCCCCCCCCCC",
"CCCCCCCCCCCCCCCCCCCCCCCCCCCCCCCC",
"CCCCCCCCCCCCCCCCCCCCCCCCCCCCCCCC",
"CCCCCCCCCCCC      CCCCCCCCCCCCCC",
"CCCCCCCCCCCC.XXXX.CCCCCCCCCCCCCC",
"CCCCCCCCCC .=:;;:=. CCCCCCCCCCCC",
"CCCCCCCCCC.o:7777:o.CCCCCCCCCCCC",
"CCCCCCCC .O-577775-O. CCCCCCCCCC",
"CCCCCCCC X2084664802X CCCCCCCCCC",
"CCCCCCCC $pd9;;;;9dp$ CCCCCCCCCC",
"CCCCCCCC %iaq9000qai% CCCCCCCCCC",
"CCCCCCCCCC@<pxxxxa<@CCCCCCCCCCCC",
"CCCCCCCCCC+1xMncvg<+CCCCCCCCCCCC",
"CCCCCCCC %3xNmfetug3% CCCCCCCCCC",
"CCCCCCCC *hBVmt>,ybk* CCCCCCCCCC",
"CCCCCCCC *hBVmt>,ybj* CCCCCCCCCC",
"CCCCCCCC *hMmzw>,yvj* CCCCCCCCCC",
"CCCCCCCC *jnfw,>>rvk* CCCCCCCCCC",
"CCCCCCCC &istweeetsi& CCCCCCCCCC",
"CCCCCCCCCC#<sccccs<#CCCCCCCCCCCC",
"CCCCCCCCCC #iljjli# CCCCCCCCCCCC",
"CCCCCCCCCCCC&****&CCCCCCCCCCCCCC",
"CCCCCCCCCCCC      CCCCCCCCCCCCCC",
"CCCCCCCCCCCCCCCCCCCCCCCCCCCCCCCC",
"CCCCCCCCCCCCCCCCCCCCCCCCCCCCCCCC",
"CCCCCCCCCCCCCCCCCCCCCCCCCCCCCCCC",
"CCCCCCCCCCCCCCCCCCCCCCCCCCCCCCCC",
"CCCCCCCCCCCCCCCCCCCCCCCCCCCCCCCC",
"CCCCCCCCCCCCCCCCCCCCCCCCCCCCCCCC",
"CCCCCCCCCCCCCCCCCCCCCCCCCCCCCCCC",
"CCCCCCCCCCCCCCCCCCCCCCCCCCCCCCCC"
};
