/* XPM */
static char *result[] = {
/* columns rows colors chars-per-pixel */
"50 50 161 2 ",
"   c #000000",
".  c #090503",
"X  c #0F0906",
"o  c #0E0E0E",
"O  c #110B07",
"+  c #140C09",
"@  c #190F0A",
"#  c #1E110C",
"$  c #1D1D1D",
"%  c #22140E",
"&  c #241610",
"*  c #281613",
"=  c #2A1911",
"-  c #271A14",
";  c #321E15",
":  c #351E19",
">  c #382216",
",  c #3C231A",
"<  c #33241D",
"1  c #2D2D2D",
"2  c #302724",
"3  c #333333",
"4  c #3C3634",
"5  c #3D3D3D",
"6  c #41261B",
"7  c #45291D",
"8  c #4A2C1F",
"9  c #462720",
"0  c #4D2E21",
"q  c #4E3529",
"w  c #4F3225",
"e  c #513022",
"r  c #5B3625",
"t  c #5D362A",
"y  c #583C2E",
"u  c #613A27",
"i  c #62372D",
"p  c #643C2A",
"a  c #6A3D2F",
"s  c #6E3F32",
"d  c #6D412D",
"f  c #66493B",
"g  c #724331",
"h  c #7D4B33",
"j  c #464646",
"k  c #4C4B4B",
"l  c #545454",
"z  c #5C5C5C",
"x  c #795343",
"c  c #775B4D",
"v  c #6C5951",
"b  c #7F6050",
"n  c #78675D",
"m  c gray39",
"M  c #676D6E",
"N  c #6C6C6C",
"B  c #7C6A62",
"V  c #6D6E70",
"C  c #737374",
"Z  c #777778",
"A  c #777F79",
"S  c #7E7E7E",
"D  c #797D76",
"F  c #834E37",
"G  c #84553E",
"H  c #835B48",
"J  c #93644E",
"K  c #A4755F",
"L  c #8B7464",
"P  c #967765",
"I  c #837D7A",
"U  c #9F8274",
"Y  c #A88676",
"T  c #A7897A",
"R  c #7A9695",
"E  c #6F9DA1",
"W  c #69B8C6",
"Q  c #78B5C2",
"!  c #6FC2D2",
"~  c #76CCDD",
"^  c #6CCEE7",
"/  c #7DD6E9",
"(  c #848484",
")  c #8E8E8E",
"_  c #8C8E92",
"`  c #879694",
"'  c #959494",
"]  c #999A9C",
"[  c #94969A",
"{  c #B49587",
"}  c #A89F96",
"|  c #B9A69C",
" . c #8E9FA3",
".. c #9C9FA4",
"X. c #9FA1A6",
"o. c #9EABAE",
"O. c #8CB1B4",
"+. c #A3A3A5",
"@. c #AFAFAF",
"#. c #A4A7AD",
"$. c #AAACB0",
"%. c #AAB6B9",
"&. c #B6B6B6",
"*. c #B4B7BC",
"=. c #B9B9B9",
"-. c #C7AA9D",
";. c #CCB8AF",
":. c #9DBFC6",
">. c #B7BAC2",
",. c #B8BDC6",
"<. c #9AC6D7",
"1. c #9DCBD2",
"2. c #9BD3DF",
"3. c #BDC0C7",
"4. c #BFC3CD",
"5. c #B5D1D7",
"6. c #8ED3EE",
"7. c #A1DFEF",
"8. c #BCD6EC",
"9. c #B0D7F6",
"0. c #BFDCF8",
"q. c #B0DDF4",
"w. c #AFE6F1",
"e. c #C1C2C3",
"r. c #C5C9CC",
"t. c gray81",
"y. c #DBD1CC",
"u. c #C2C7D1",
"i. c #C8CDD6",
"p. c #CACFDA",
"a. c #C2C8D4",
"s. c #CBD2DF",
"d. c #D0D4DC",
"f. c #DFDFDF",
"g. c #D8D4D3",
"h. c #CDD4E2",
"j. c #DDDFE2",
"k. c #D1D9EA",
"l. c #D9DFEB",
"z. c #CCDBFC",
"x. c #D5DFF4",
"c. c #D1DFFC",
"v. c #CCECF7",
"b. c #CCE3F9",
"n. c #D5E2FC",
"m. c #DAE5FC",
"M. c #DEE8FD",
"N. c #DCE5F6",
"B. c #EDEDEF",
"V. c #F1E9E6",
"C. c #E0E7F4",
"Z. c #E2E8F3",
"A. c #E9ECF0",
"S. c #E3EBFD",
"D. c #E8EFFD",
"F. c #ECF2FD",
"G. c #E1F5F9",
"H. c #F0F4FE",
"J. c #F5F8FE",
"K. c #FAFBFE",
"L. c None",
/* pixels */
"L.L.L.L.L.L.L.L.L.L.L.L.L.L.L.L.L.L.L.L.L.L.L.L.L.L.L.L.L.L.L.L.L.L.L.L.L.L.L.L.L.L.L.L.L.L.L.L.L.L.",
"L.L.L.L.L.L.L.L.L.L.L.L.L.L.L.L.L.L.L.L.L.L.L.L.L.L.L.L.L.L.L.L.L.L.L.L.L.L.L.L.L.L.L.L.L.L.L.L.L.L.",
"L.L.L.L.L.L.L.L.L.L.L.L.L.L.L.L.L.L.L.L.L.L.L.L.L.L.L.L.L.L.L.L.L.L.L.L.L.L.L.L.L.L.L.L.L.L.L.L.L.L.",
"L.L.L.L.L.L.L.L.L.L.L.L.L.L.L.L.L.L.L.L.L.L.L.L.L.L.L.L.L.L.L.L.L.L.L.L.L.L.L.L.L.L.L.L.L.L.L.L.L.L.",
"L.L.L.L.L.L.L.L.L.L.L.L.L.L.L.L.L.L.L.L.L.L.L.L.L.L.L.L.L.L.L.L.L.L.L.L.L.L.L.L.L.L.L.L.L.L.L.L.L.L.",
"L.L.L.L.L.L.L.L.L.L.L.L.L.L.L.L.L.L.L.L.L.L.L.L.L.L.L.L.L.L.L.L.L.L.L.L.L.L.L.L.L.L.L.L.L.L.L.L.L.L.",
"L.L.L.L.L.L.L.L.L.L.L.L.L.L.L.L.L.L.L.L.L.L.L.L.L.L.L.L.L.L.L.L.L.                    L.L.L.L.L.L.L.",
"L.L.L.L.L.L.L.L.L.L.L.L.L.L.L.L.L.L.L.L.L.L.L.L.L.L.L.L.L.L.L.L.                        L.L.L.L.L.L.",
"L.L.L.L.L.L.L.L.L.L.L.L.L.L.L.L.L.L.L.L.L.L.L.L.L.L.L.L.L.L.L.1 1 1 1 1 1 1 1 1 $ o     L.L.L.L.L.L.",
"L.L.L.L.L.L.L.L.L.L.L.L.L.L.L.L.L.L.L.L.L.L.L.L.L.L.L.L.L.L.1 z Z S ( S S ( U V j $     L.L.L.L.L.L.",
"L.L.L.L.L.L.L.L.L.L.L.L.L.L.L.L.L.L.L.L.L.L.L.L.L.L.L.L.L.  5 S =.t.t.i.t.t.t.&.C 3     L.L.L.L.L.L.",
"L.L.L.L.L.L.L.L.L.L.L.L.L.L.L.L.L.L.L.L.L.L.L.L.L.L.L.L.$ $ l ] f.K.K.J.K.K.K.f.) 5     L.L.L.L.L.L.",
"L.L.L.L.L.L.L.L.L.L.L.L.L.L.L.L.L.L.L.L.L.L.L.L.L.L.L.1 z S ] ,.l.D.S.S.S.J.K.f.) 5     L.L.L.L.L.L.",
"L.L.L.L.L.L.L.L.L.L.L.L.L.L.L.L.L.L.L.L.L.L.L.L.L.    5 S e.d.k.x.n.n.n.m.S.J.f.) j     L.L.L.L.L.L.",
"L.L.L.L.L.L.L.L.L.L.L.L.L.L.L.L.L.L.L.L.L.L.L.L.L.$ $ z ] B.F.M.c.z.z.z.c.S.J.f.) j     L.L.L.L.L.L.",
"L.L.L.L.L.L.L.L.L.L.L.L.L.L.L.L.L.L.L.L.L.L.L.L.3 z N _ *.N.S.n.z.z.z.z.z.S.J.f.) 5     L.L.L.L.L.L.",
"L.L.L.L.L.L.L.L.L.L.L.L.L.L.L.L.L.L.L.L.L.L.    j ( =.r.h.x.n.c.z.z.z.z.n.S.J.f.) 5     L.L.L.L.L.L.",
"L.L.L.L.L.L.L.L.L.L.L.L.L.L.L.L.L.L.L.L.L.L.o o z +.A.F.S.z.z.z.z.z.z.z.c.N.A.g.) 5     L.L.L.L.L.L.",
"L.L.L.L.L.L.L.L.L.L.L.L.L.L.L.L.L.L.L.L.L.5 l m _ >.Z.S.m.z.z.z.z.z.c.m.x.a.$.' N 3   L.L.L.L.L.L.L.",
"L.L.L.L.L.L.L.L.L.L.L.L.L.L.L.L.L.L.L.L.  l ( @.,.s.N.n.c.z.z.z.z.c.m.D.l.#.V k j L.L.L.L.L.L.L.L.L.",
"L.L.L.L.L.L.L.L.L.L.L.L.L.L.L.L.L.L.L.    z @.K.F.M.z.z.z.z.z.z.z.n.D.J.f.) 1     L.L.L.L.L.L.L.L.L.",
"L.L.L.L.L.L.L.L.L.L.L.L.L.L.L.L.L.L.5 k m [ 4.F.S.n.z.z.z.z.z.c.M.k.4.$.' N 1   L.L.L.L.L.L.L.L.L.L.",
"L.L.L.L.L.L.L.L.L.L.L.L.L.L.L.L.  o l ( @.u.h.m.n.c.z.z.z.z.n.S.F.s.X.V j j L.L.L.L.L.L.L.L.L.L.L.L.",
"L.L.L.L.L.L.L.L.L.L.L.L.L.L.L.L.  o z &.K.F.m.z.z.z.z.z.z.z.n.D.K.t.S 1     L.L.L.L.L.L.L.L.L.L.L.L.",
"L.L.L.L.L.L.L.L.L.L.L.L.L.L.L.5 j z ) 3.F.S.n.z.z.z.z.c.c.m.k.u.*.] m 1   L.L.L.L.L.L.L.L.L.L.L.L.L.",
"L.L.L.L.L.L.L.              $ l ( +.>.s.M.n.z.z.z.z.z.c.M.D.i...C l j L.L.L.L.L.L.L.L.L.L.L.L.L.L.L.",
"L.L.L.L.L.L.                $ N &.B.Z.n.z.z.z.z.z.z.z.n.S.J.e.Z 1 o o L.L.L.L.L.L.L.L.L.L.L.L.L.L.L.",
"L.L.L.L.L.L.    . + # - 2 4 z _ r.F.D.n.z.z.z.z.z.c.m.k.p.e.] m $   L.L.L.L.L.L.L.L.L.L.L.L.L.L.L.L.",
"L.L.L.L.L.L.    X & 6 y v I ] *.h.S.N.z.z.z.z.z.c.M.D.p.#.Z m j $ L.L.L.L.L.L.L.L.L.L.L.L.L.L.L.L.L.",
"L.L.L.L.L.L.    # 6 d J { y.A.Z.n.z.z.z.z.z.z.z.m.D.K.e.Z - o L.L.L.L.L.L.L.L.L.L.L.L.L.L.L.L.L.L.L.",
"L.L.L.L.L.L.L.  # > r x Y ;.g.h.8.9.9.9.9.0.z.N.k.i.,.] m o   L.L.L.L.L.L.L.L.L.L.L.L.L.L.L.L.L.L.L.",
"L.L.L.L.L.L.L.L.+ = > q c T | %.<.6.6.6.6.q.b.D.u...Z m j L.L.L.L.L.L.L.L.L.L.L.L.L.L.L.L.L.L.L.L.L.",
"L.L.L.L.L.L.L.L.L.X X % w H P ` Q ^ ^ ^ ^ 7.v.J.&.C 1 $ $ L.L.L.L.L.L.L.L.L.L.L.L.L.L.L.L.L.L.L.L.L.",
"L.L.L.L.L.L.L.L.L.+ @ = 8 g H D E W ! ~ / 2.5.t.[ l o   L.L.L.L.L.L.L.L.L.L.L.L.L.L.L.L.L.L.L.L.L.L.",
"L.L.L.L.L.L.L.L.@ = 6 e r g h B A R O.1.w.1.[ S m j o L.L.L.L.L.L.L.L.L.L.L.L.L.L.L.L.L.L.L.L.L.L.L.",
"L.L.L.L.L.L.L.  # , u g g g f x b L } e.G.o.M 1 1 L.L.L.L.L.L.L.L.L.L.L.L.L.L.L.L.L.L.L.L.L.L.L.L.L.",
"L.L.L.L.L.L.X O * 0 g F g i i a g H Y ;.B.' j     L.L.L.L.L.L.L.L.L.L.L.L.L.L.L.L.L.L.L.L.L.L.L.L.L.",
"L.L.L.L.L.# > 6 0 p s s r 2 : : 6 w c Y -.B q     L.L.L.L.L.L.L.L.L.L.L.L.L.L.L.L.L.L.L.L.L.L.L.L.L.",
"L.L.L.L.  % 7 a g g s i 9 & @ @ + & q x K f <     L.L.L.L.L.L.L.L.L.L.L.L.L.L.L.L.L.L.L.L.L.L.L.L.L.",
"L.L.L.    # 7 d h a i 0 : +       . > r h 8 =     L.L.L.L.L.L.L.L.L.L.L.L.L.L.L.L.L.L.L.L.L.L.L.L.L.",
"L.L.L.    O = 7 8 7 6 : * O       . = 6 e ; @     L.L.L.L.L.L.L.L.L.L.L.L.L.L.L.L.L.L.L.L.L.L.L.L.L.",
"L.L.L.    . + & % @ @ @ + L.L.L.L.L.@ # & + .     L.L.L.L.L.L.L.L.L.L.L.L.L.L.L.L.L.L.L.L.L.L.L.L.L.",
"L.L.L.                    L.L.L.L.L.L.            L.L.L.L.L.L.L.L.L.L.L.L.L.L.L.L.L.L.L.L.L.L.L.L.L.",
"L.L.L.L.                L.L.L.L.L.L.L.L.        L.L.L.L.L.L.L.L.L.L.L.L.L.L.L.L.L.L.L.L.L.L.L.L.L.L.",
"L.L.L.L.L.L.L.L.L.L.L.L.L.L.L.L.L.L.L.L.L.L.L.L.L.L.L.L.L.L.L.L.L.L.L.L.L.L.L.L.L.L.L.L.L.L.L.L.L.L.",
"L.L.L.L.L.L.L.L.L.L.L.L.L.L.L.L.L.L.L.L.L.L.L.L.L.L.L.L.L.L.L.L.L.L.L.L.L.L.L.L.L.L.L.L.L.L.L.L.L.L.",
"L.L.L.L.L.L.L.L.L.L.L.L.L.L.L.L.L.L.L.L.L.L.L.L.L.L.L.L.L.L.L.L.L.L.L.L.L.L.L.L.L.L.L.L.L.L.L.L.L.L.",
"L.L.L.L.L.L.L.L.L.L.L.L.L.L.L.L.L.L.L.L.L.L.L.L.L.L.L.L.L.L.L.L.L.L.L.L.L.L.L.L.L.L.L.L.L.L.L.L.L.L.",
"L.L.L.L.L.L.L.L.L.L.L.L.L.L.L.L.L.L.L.L.L.L.L.L.L.L.L.L.L.L.L.L.L.L.L.L.L.L.L.L.L.L.L.L.L.L.L.L.L.L.",
"L.L.L.L.L.L.L.L.L.L.L.L.L.L.L.L.L.L.L.L.L.L.L.L.L.L.L.L.L.L.L.L.L.L.L.L.L.L.L.L.L.L.L.L.L.L.L.L.L.L."
};
