/* XPM */
static char *result[] = {
/* columns rows colors chars-per-pixel */
"50 50 219 2 ",
"   c #353E50",
".  c #353F51",
"X  c #374153",
"o  c #374154",
"O  c #384154",
"+  c #384255",
"@  c #394356",
"#  c #394357",
"$  c #3A4357",
"%  c #3A4457",
"&  c #3A4458",
"*  c #3B4559",
"=  c #3B455A",
"-  c #3B465A",
";  c #3C4659",
":  c #3C465A",
">  c #3C465B",
",  c #3C475B",
"<  c #3D475B",
"1  c #3D475C",
"2  c #3D485C",
"3  c #3D485D",
"4  c #3E485D",
"5  c #3E495D",
"6  c #3E485E",
"7  c #3E495E",
"8  c #3F495E",
"9  c #3F4A5E",
"0  c #3F4A5F",
"q  c #3F4A60",
"w  c #404B60",
"e  c #404B61",
"r  c #404C61",
"t  c #414C61",
"y  c #414C62",
"u  c #414D62",
"i  c #414D63",
"p  c #424D63",
"a  c #434E63",
"s  c #424D64",
"d  c #424E64",
"f  c #434E64",
"g  c #434E65",
"h  c #434F65",
"j  c #434F66",
"k  c #444F65",
"l  c #444F66",
"z  c #435066",
"x  c #445066",
"c  c #445067",
"v  c #455067",
"b  c #445167",
"n  c #455167",
"m  c #455168",
"M  c #455169",
"N  c #455268",
"B  c #455269",
"V  c #465268",
"C  c #475268",
"Z  c #465269",
"A  c #46526A",
"S  c #46536A",
"D  c #47536A",
"F  c #47536B",
"G  c #47536C",
"H  c #47546C",
"J  c #48546A",
"K  c #48546B",
"L  c #48546C",
"P  c #48556C",
"I  c #49556C",
"U  c #48546D",
"Y  c #48556D",
"T  c #49556D",
"R  c #49566D",
"E  c #49556E",
"W  c #49566E",
"Q  c #49566F",
"!  c #4B576E",
"~  c #4A576F",
"^  c #4B576F",
"/  c #4B586F",
"(  c #4A5670",
")  c #4A5770",
"_  c #4B5770",
"`  c #4A5771",
"'  c #4B5771",
"]  c #4B5871",
"[  c #4B5872",
"{  c #4C5871",
"}  c #4C5972",
"|  c #4D5972",
" . c #4C5873",
".. c #4C5973",
"X. c #4D5A72",
"o. c #4E5A72",
"O. c #4E5B73",
"+. c #4D5A74",
"@. c #4D5A75",
"#. c #4D5B75",
"$. c #4F5B74",
"%. c #4E5B76",
"&. c #4F5C74",
"*. c #4F5C75",
"=. c #4E5C76",
"-. c #4F5C77",
";. c #4F5D77",
":. c #4F5C78",
">. c #4F5D78",
",. c #505C75",
"<. c #505D75",
"1. c #515E77",
"2. c #525E77",
"3. c #505D78",
"4. c #515E78",
"5. c #525F78",
"6. c #515E7A",
"7. c #515F7A",
"8. c #515F7B",
"9. c #52607A",
"0. c #53617A",
"q. c #54617A",
"w. c #54617B",
"e. c #52607C",
"r. c #53617C",
"t. c #52607D",
"y. c #53607D",
"u. c #53617D",
"i. c #53617E",
"p. c #55627C",
"a. c #54627D",
"s. c #55637D",
"d. c #55637E",
"f. c #54627F",
"g. c #55637F",
"h. c #56647E",
"j. c #57657F",
"k. c #546380",
"l. c #556380",
"z. c #576580",
"x. c #566482",
"c. c #576582",
"v. c #566583",
"b. c #576583",
"n. c #576684",
"m. c #586681",
"M. c #596681",
"N. c #586682",
"B. c #596782",
"V. c #596783",
"C. c #596784",
"Z. c #586786",
"A. c #5B6984",
"S. c #5A6885",
"D. c #5B6985",
"F. c #5B6A85",
"G. c #5A6988",
"H. c #5B6988",
"J. c #5B6A88",
"K. c #5A6A89",
"L. c #5B6A89",
"P. c #5B6B8A",
"I. c #5C6B88",
"U. c #5C6B89",
"Y. c #5C6B8A",
"T. c #5D6C88",
"R. c #5E6C89",
"E. c #5E6D89",
"W. c #5D6C8B",
"Q. c #5E6C8A",
"!. c #5E6D8A",
"~. c #5F6E8A",
"^. c #5F6E8B",
"/. c #5D6C8C",
"(. c #5E6D8C",
"). c #5E6E8D",
"_. c #5F6E8D",
"`. c #5F6E8E",
"'. c #5F6F8E",
"]. c #606F8E",
"[. c #606F8F",
"{. c #61708C",
"}. c #61708D",
"|. c #60708F",
" X c #61708F",
".X c #63718F",
"XX c #627190",
"oX c #627291",
"OX c #637292",
"+X c #637392",
"@X c #647290",
"#X c #647390",
"$X c #647393",
"%X c #647493",
"&X c #657494",
"*X c #657594",
"=X c #667595",
"-X c #677695",
";X c #677696",
":X c #677796",
">X c #687796",
",X c #687896",
"<X c #687897",
"1X c #697997",
"2X c #687898",
"3X c #697898",
"4X c #697999",
"5X c #6A7999",
"6X c #6A7A99",
"7X c #6B7A9A",
"8X c #6B7B9A",
"9X c #6B7B9B",
"0X c #6C7B9B",
"qX c #6C7C9B",
"wX c #6C7C9C",
"eX c #6D7D9D",
"rX c #6E7D9D",
"tX c #6E7E9E",
"yX c #6F7F9F",
/* pixels */
"h h 0 * .                                       @ 3 p 0 * .                                         ",
"h h 0 * .                                       @ 3 p 0 * .                                         ",
"h h f f a a a a a a a a a a a a a a a a a a a a f f f f f a a a a a a a a a a a a a a a a a a a a a ",
"h h D X.q.p.p.p.p.p.p.p.p.p.p.p.p.p.p.p.p.p.p.p.*.R x D X.q.p.p.p.p.p.p.p.p.p.p.p.p.p.p.p.p.p.p.p.p.",
"h h | B.,X7X7X7X7X7X7X7X7X7X7X7X7X7X7X7X7X7X7X7XE.5.m | B.,X7X7X7X7X7X7X7X7X7X7X7X7X7X7X7X7X7X7X7X7X",
"h h O.F.qXeX0X6X4X4X4X4X4X4X4X4X4X4X4X4X4X9XeXyX{.0.N O.F.qXeX0X6X4X4X4X4X4X4X4X4X4X4X4X4X4X9XeXyXyX",
"h h O.F.qX0X<X%XOXOXOXOXOXOXOXOXOXOXOXOXOX:X8XyX{.0.N O.F.qX0X<X%XOXOXOXOXOXOXOXOXOXOXOXOXOX:X8XyXyX",
"h h O.F.qX6X%X).Y.Y.Y.Y.Y.Y.Y.Y.Y.Y.Y.Y.Y.OX3XyX{.0.N O.F.qX6X%X).Y.Y.Y.Y.Y.Y.Y.Y.Y.Y.Y.Y.Y.OX3XyXyX",
"e e I w.}.^.S.g.y.y.y.u.f.l.l.f.i.y.y.y.y.C.!.@Xm.X.d I w.}.^.S.g.y.y.y.u.f.l.l.f.i.y.y.y.y.C.!.@X@X",
": : t J <.$.{ U G G G U ) +.@.] E G G G G _ O.2.! k 2 t J <.$.{ U G G G U ) +.@.] E G G G G _ O.2.2.",
"X X @ : 8 5 1 > - - - 1 r m B s 7 - - - - 1 4 9 < & O @ : 8 5 1 > - - - 1 r m B s 7 - - - - 1 4 9 9 ",
"; ; ; ; ; ; ; ; ; ; ; < 9 u p w 2 ; ; ; ; ; ; ; ; ; ; ; ; ; ; ; ; ; ; ; < 9 u p w 2 ; ; ; ; ; ; ; ; ",
"2.2.2.2.2.2.2.2.2.2.2.,.^ m c T o.2.2.2.2.2.2.2.2.2.2.2.2.2.2.2.2.2.2.2.,.^ m c T o.2.2.2.2.2.2.2.2.",
"@X@X@X@X@X@X@X@X@X@X@X~.s.T D 1.D.@X@X@X@X@X@X@X@X@X@X@X@X@X@X@X@X@X@X@X~.s.T D 1.D.@X@X@X@X@X@X@X@X",
"wXwXwXwXwXwXwXwXwXeXtX1XF./ P h.#XtXrXeXwXwXwXwXwXwXwXwXwXwXwXwXwXwXeXtX1XF./ P h.#XtXrXeXwXwXwXwXwX",
"*X*X*X*X*X*X*X*X:X6XeX1XF./ P h.#XtX9X2X*X*X*X*X*X*X*X*X*X*X*X*X*X:X6XeX1XF./ P h.#XtX9X2X*X*X*X*X*X",
"_._._._._._._._.XX;X0X1XF./ P h.#XrX3X$X_._._._._._._._._._._._._.XX;X0X1XF./ P h.#XrX3X$X_._._._._.",
"G.G.G.G.G.G.G.G./.+X4X>XA.^ K p.}.7X&X`.G.G.G.G.G.G.G.G.G.G.G.G.G./.+X4X>XA.^ L s..XwX=X].G.G.G.G.G.",
"G.G.G.G.G.G.G.G.Y.[.%XXXz.W Z &.z.R.I.J.G.G.G.G.G.G.G.G.G.G.G.G.G.Y.[.%XXXz.W F 9.Q.=XXX(.G.G.G.G.G.",
"G.G.G.G.G.G.G.G.L.W._.U.r.P c I X.4.a.c.G.G.G.G.G.G.G.G.G.G.G.G.G.L.W._.U.r.P S ;.C.].(.Y.G.G.G.G.G.",
"G.G.G.G.G.G.G.G.G.G.G.b.>.F h h h c [ t.G.G.G.G.G.G.G.G.G.G.G.G.G.G.G.G.b.>.F B +.f.G.G.G.G.G.G.G.G.",
"7.7.3.%... . . . . . .( M e 3 3 3 7 g G  . . . .@.-.6.3.%... . . . . . .( M e 0 l U  . . . . . . . .",
"~ ~ H c y e e e e e e q 1 & @ @ @ # : 6 e e e e j A Q H c y e e e e e e q 1 & % > 7 e e e e e e e e ",
"h h 0 * .                                       @ 3 p 0 * .                                         ",
"h h k v V C C C C C C C C C C C C C C C C C C C n x h k v V C C C C C C C C C C C C C C C C C C C C ",
"h h L &.j.M.M.M.M.M.M.M.M.M.M.M.M.M.M.M.M.M.M.M.5.^ x L &.j.M.M.M.M.M.M.M.M.M.M.M.M.M.M.M.M.M.M.M.M.",
"h h | B.,X7X7X7X7X7X7X7X7X7X7X7X7X7X7X7X7X7X7X7XE.5.m | B.,X7X7X7X7X7X7X7X7X7X7X7X7X7X7X7X7X7X7X7X7X",
"h h O.F.qXeX0X6X4X4X4X4X4X4X4X4X4X4X4X4X4X9XeXyX{.0.N O.F.qXeX0X6X4X4X4X4X4X4X4X4X4X4X4X4X4X9XeXyXyX",
"h h O.F.qX0X<X%XOXOXOXOXOXOXOXOXOXOXOXOXOX:X8XyX{.0.N O.F.qX0X<X%XOXOXOXOXOXOXOXOXOXOXOXOXOX:X8XyXyX",
"h h O.F.qX5X+X/.L.L.L.L.L.L.L.L.L.L.L.L.L.oX2XyX{.0.N O.F.qX5X+X/.L.L.L.L.L.L.L.L.L.L.L.L.L.oX2XyXyX",
"h h } N.-X*X|.P.Z.b.l.k.v.Z.G.G.G.G.G.G.G.'.%X4XT.4.m } N.-X*X|.P.G.G.G.G.G.G.G.G.G.G.G.G.G.'.%X4X4X",
"h h _ d. X|.(.L.n.i.>.=.e.n.G.G.G.G.G.G.G.W.].OXV.*.n _ d. X|.(.L.G.G.G.G.G.G.G.G.G.G.G.G.G.W.].OXOX",
"h h W 7.H.P.L.G.x.>.Q Y =.x.G.G.G.G.G.G.G.K.L.Y.f...c W 7.H.P.L.G.G.G.G.G.G.G.G.G.G.G.G.G.G.K.L.Y.Y.",
"e e m ` 8.y.y.y.:.Q j g Q 8.l.f.i.y.y.y.y.y.y.y.+.F u m ` 8.y.y.y.y.y.y.u.f.l.l.f.i.y.y.y.y.y.y.y.y.",
": : 7 s A G G G m i 4 7 l ' @.] E G G G G G G G j e , 7 s A G G G G G G U ) +.@.] E G G G G G G G G ",
"X X + $ = - - - * # + @ 7 c B s 7 - - - - - - - & @ o + $ = - - - - - - 1 r m B s 7 - - - - - - - - ",
"; ; ; ; ; ; ; ; ; ; ; < 9 u p w 2 ; ; ; ; ; ; ; ; ; ; ; ; ; ; ; ; ; ; ; < 9 u p w 2 ; ; ; ; ; ; ; ; ",
"2.2.2.2.2.2.2.2.2.2.2.,.^ m c T o.2.2.2.2.2.2.2.2.2.2.2.2.2.2.2.2.2.2.2.,.^ m c T o.2.2.2.2.2.2.2.2.",
"@X@X@X@X@X@X@X@X@X@X@X~.s.T D 1.D.@X@X@X@X@X@X@X@X@X@X@X@X@X@X@X@X@X@X@X~.s.T D 1.D.@X@X@X@X@X@X@X@X",
"wXwXwXwXwXwXwXwXwXeXtX1XF./ P h.#XtXrXeXwXwXwXwXwXwXwXwXwXwXwXwXwXwXeXtX1XF./ P h.#XtXrXeXwXwXwXwXwX",
"*X*X*X*X*X*X*X*X:X6XeX1XF./ P h.#XtX9X2X*X*X*X*X*X*X*X*X*X*X*X*X*X:X6XeX1XF./ P h.#XtX9X2X*X*X*X*X*X",
"_._._._._._._._.XX;X0X1XF./ P h.#XrX3X$X_._._._._._._._._._._._._.XX;X0X1XF./ P h.#XrX3X$X_._._._._.",
"G.G.G.G.G.G.G.G./.+X4X>XA.^ L s..XwX=X].G.G.G.G.G.G.G.G.G.G.G.G.G./.+X4X>XA.^ L s..XwX=X].G.G.G.G.G.",
"G.G.G.G.G.G.G.G.Y.[.%XXXz.W F 9.Q.=XXX(.G.G.G.G.G.G.G.G.G.G.G.G.G.Y.[.%XXXz.W F 9.Q.=XXX(.G.G.G.G.G.",
"G.G.G.G.G.G.G.G.L.W._.U.r.P S ;.C.].(.Y.G.G.G.G.G.G.G.G.G.G.G.G.G.L.W._.U.r.P S ;.C.].(.Y.G.G.G.G.G.",
"G.G.G.G.G.G.G.G.G.G.G.b.>.F B +.f.G.G.G.G.G.G.G.G.G.G.G.G.G.G.G.G.G.G.G.b.>.F B +.f.G.G.G.G.G.G.G.G.",
"7.7.7.7.7.7.7.7.7.7.7.>.] B b W #.7.7.7.7.7.7.7.7.7.7.7.7.7.7.7.7.7.7.7.>.] B b W #.7.7.7.7.7.7.7.7.",
"~ ~ ~ ~ ~ ~ ~ ~ ~ ~ ~ W F c z Z Y ~ ~ ~ ~ ~ ~ ~ ~ ~ ~ ~ ~ ~ ~ ~ ~ ~ ~ ~ W F c z Z Y ~ ~ ~ ~ ~ ~ ~ ~ ",
"h h h h h h h h h h h h h h h h h h h h h h h h h h h h h h h h h h h h h h h h h h h h h h h h h h ",
"h h h h h h h h h h h h h h h h h h h h h h h h h h h h h h h h h h h h h h h h h h h h h h h h h h "
};
