/* XPM */
static char *result[] = {
/* columns rows colors chars-per-pixel */
"50 50 44 1 ",
"  c #2C1F39",
". c #2F2737",
"X c #2E213A",
"o c #30263C",
"O c #352D3E",
"+ c #342641",
"@ c #372944",
"# c #382C46",
"$ c #382748",
"% c #3C2B4D",
"& c #3A3243",
"* c #3E314B",
"= c #3F2E50",
"- c #3F3450",
"; c #402F4F",
": c #41354E",
"> c #443C4D",
", c #402F50",
"< c #433353",
"1 c #453954",
"2 c #483B56",
"3 c #493759",
"4 c #4C3D5B",
"5 c #4B4255",
"6 c #4E425A",
"7 c #50465A",
"8 c #52485C",
"9 c #534662",
"0 c #554962",
"q c #584E62",
"w c #584769",
"e c #574968",
"r c #5A4B6A",
"t c #5B5066",
"y c #5E5369",
"u c #5F4E70",
"i c #62566E",
"p c #625172",
"a c #675877",
"s c #685C75",
"d c #6D5E7D",
"f c #746683",
"g c #766885",
"h c #7C6D8C",
/* pixels */
"%%=%%%%%%%%%%%=%%%%%%%%%%%%%%;%%;%%=%%,%%%%%#;%%%%",
"%3rwwwwwrrwrwwr4%<332>243342;<wwrrwwwww,3wwwrrwwww",
"%whhhhhhhhhhhhhp%9iytitiiitq<whhhhhhhhg3whhhhhhhhh",
"%4ssdsssssssssdw%9yyititiqiq34aassssssp33adassssaa",
"%<09980088088q84%7ititittiir1<q88088087;3ttitiitti",
"%:1111>111111>1:%9tiittiitir<;111>1111:;1itiitriii",
"%%,,:;;%:;;;;;;;%,341323>133,;;;;%;;;;;;;223123311",
"4444<%,1<<,;;<<<,3<<<<%<444434443;;<1<<<<<<<%<4444",
"hhghp%7rrt8:3ttqttttr8;rhhhhgghhd;4ttttttrr9;uhghh",
"ddddw%9yitq<4yityyyyy0;waddsddsdu;4yyyyyiit7;8ddda",
"qtqq4;4qqq9;4yyyyyyyy0,4iiqiitii0;4yyyyyi8y0;48iqq",
"2222:;<3221;3yyuyyyyy0,4tiiqttit0<4yyyyyiiy7;:2442",
"::,,,;;;::,;,444434433;<444452444;,444444442;;;;::",
"%;,,3,3,<<<,3,<,;;;;,,;,,,,;;;;;,;;;;;;;;:<,34<,<<",
"%4fdfdfdfdddfdfw;40000080080<180w88w80434ddfdddddd",
"%9fffddffffffdfw$0yyyyyititt33tiyyyyyyr<9fdfdgddfd",
"%2yyyyyyyyyytiy7;4yyyyyyyyyt33ityyyyyyq<4yyyiiqiyy",
"%<66265466565623%9yyyryyyyyt3;546556262:3yyytrityy",
"%%:::<<<::<::::%;30040998404;;:::<:<:<:%<979997998",
"%%%%%%%%%%%%%%%%$%;;;;;;;;;;%%;;%%%%%%%%%%;%%;,;%-",
"pppp9%9uppr,<747444483;4pppiupppw%<474774744%9ppup",
"gggfu%ugfgd34ttiyyyty0;wffhdfggga,4itirtriy7;rgfgg",
"yiiy7%7yiie,2tttttttt8,4iiiiiiiiq%5trtttttt7%4iyyy",
"66672$26672%2tttttttt8;3qqqrqtqq8%4tttttttt7%<7776",
"::::*%*::::%<q00q0e907%4qqeq00004%2q000000e3%-----",
"%%%%%$%%%%#%%:;<,,,,,;$%;;,,;<,:;%%:,,,:-=-=%%&##-",
"$%211111211<131:$4w99wq9www4<%12112123<%<9ww99ee9e",
"#1qqtqqqqqqqqqq2$pggggggfgff4<qqqqqqqq8:4ggggfgggg",
"$1qq8qqqqqqqqqq5$9iiiiiiiiii<<qqqqqqqq9:3piiyyiyii",
"$>qqttqqqqqqqqq4$27775757755::qqqqqqqq8%<676778866",
"$1qqt8qqqqqqqqq5$*::::::::::#<qqqqqqqq8:#->*-*----",
"+#:::::::::::::%+@##########$#:::::::::#@####@&###",
"%#%#;o;;,<;+@%#;&&##-@+#-------=%+%-<:<1<<-%+@%&-#",
"7778:$0dddi;:557859661+9ffffsfffu@9fddddddfr$-6685",
"7888>$4iii0;:888888785@1yyeeyiyi9@-piyyiyyy6@18888",
"57771o>8772#:877888775@-66627555-@-875777775@:7775",
"5555:o:552>$&55515555-o@&&&&&-&&&+-55556556:o:6655",
":>:;#o@;::;oO;::---&--oo++++.&++++#&&-**>*&%X#*&--",
"XooooooOoo$oooooo+##@@####@#+.+++++oOo+oo@##@@@@##",
"o#1>11>1>>>>>:>;o9ereeyerree-@->->-5>1:@-rrrrrtrrr",
"+&>557>>4555555: 6eyyyytytt0#&555555>5>+*rqqtqtttt",
" &>>>>>>>>>>>>5O ->>>->->>>>o&>>>>>>5>-.@>551551>>",
" .&&&&@&&&&&&OOO o&&&&O&&&&&o@>>>>5>>>>+oO&O&&OO&&",
"  +....+....O... o.ooOO.ooooXo&->&&&>&&+XooO.Oo.o.",
" +  XXX+XXXX X  .  o   . XX .  o.   +   .XXX X    ",
"-1--&.#---*O#<111--1--.&-1111--1-.&-1--1----.#--11",
"99991.>8e96O*899789795O-999988885.>97997e981.-e988",
">>>>&.&>>-&OO*>>->>>--.O>>-->>>>-.&>>>>>>-5&.&>->>",
"&O&OO..&OOO..&O&OO&OOO.OO&O&OO&O&..&O&OOO&O..O&OOO",
".................................................."
};
